# Blender v2.78 (sub 0) OBJ File: 'decorator_natural_iceWater.blend'
# www.blender.org
mtllib decorator_natural_iceWater.mtl
o decorator_natural_iceWater_Cylinder.003
v -0.773270 -0.422233 -0.233110
v -0.024825 -0.600000 -0.657730
v 0.723619 -0.600000 -0.332412
v -0.024825 -0.366651 -0.657730
v 0.723619 -0.437055 -0.332412
v -0.773270 -0.600000 -0.233110
v -0.723619 -0.600000 0.227861
v -0.328126 -0.600000 -0.609891
v -0.481224 -0.600000 -0.521500
v -0.723619 -0.422233 0.227861
v -0.328126 -0.366651 -0.609891
v -0.481224 -0.422233 -0.521500
v -0.225753 -0.422232 -0.238088
v -0.380187 -0.422233 0.107550
v -0.416327 -0.411116 0.463197
v -0.012487 -0.366650 -0.267504
v -0.225753 -0.599999 -0.238088
v -0.380187 -0.599999 0.107550
v -0.416327 -0.599999 0.463197
v -0.012487 -0.599999 -0.267504
v -0.074061 -0.411116 -0.138042
v 0.546982 -0.437055 -0.434393
v 0.363239 -0.366651 -0.540477
v 0.546982 -0.600000 -0.434393
v 0.363239 -0.600000 -0.540477
v -0.074061 -0.599999 -0.138042
v 0.056533 -0.599999 -0.083277
v 0.056533 -0.411116 -0.083277
v 0.574919 -0.411116 0.291198
v 0.110329 -0.411116 0.720322
v 0.574919 -0.599998 0.291198
v 0.110329 -0.600001 0.720322
v 0.152311 -0.437055 -0.151845
v 0.670422 -0.437055 0.113459
v 0.670422 -0.600000 0.113459
v 0.152311 -0.600000 -0.151845
vt 0.8946 0.3627
vt 0.8946 0.3627
vt 0.8946 0.3627
vt 0.8946 0.3627
vt 0.8946 0.3627
vt 0.8946 0.3627
vt 0.8946 0.3627
vt 0.8946 0.3627
vt 0.8946 0.3627
vt 0.8946 0.3627
vt 0.8946 0.3627
vt 0.8946 0.3627
vt 0.8946 0.3627
vt 0.8946 0.3627
vt 0.8946 0.3627
vt 0.8946 0.3627
vt 0.8946 0.3627
vt 0.8946 0.3627
vt 0.8946 0.3627
vt 0.8946 0.3627
vt 0.8946 0.3627
vt 0.8946 0.3627
vt 0.8946 0.3627
vt 0.8946 0.3627
vt 0.8946 0.3627
vt 0.8946 0.3627
vt 0.8946 0.3627
vt 0.8946 0.3627
vt 0.8946 0.3627
vt 0.8946 0.3627
vt 0.8946 0.3627
vt 0.8946 0.3627
vt 0.8946 0.3627
vt 0.8946 0.3627
vt 0.8946 0.3627
vt 0.8946 0.3627
vn 0.7428 -0.0000 -0.6695
vn -0.1558 0.0000 -0.9878
vn 0.5000 0.0000 -0.8660
vn -0.0000 -1.0000 0.0000
vn -0.9942 0.0000 0.1071
vn 0.0000 1.0000 -0.0000
vn 0.9130 0.0000 0.4079
vn -0.7026 0.0000 -0.7115
vn 0.3306 0.0000 0.9438
vn 0.2892 0.0000 -0.9573
vn 0.9930 0.0000 0.1185
vn -0.7352 0.0000 0.6778
vn 0.5878 0.0000 0.8090
vn -0.5821 0.0000 -0.8131
vn -0.4558 0.0000 0.8901
vn 0.5856 -0.0000 -0.8106
vn 0.3867 0.0000 -0.9222
vn -0.8691 0.0000 -0.4947
vn -0.4387 -0.0000 0.8986
vn 0.6785 -0.0000 0.7346
usemtl Material.001
s off
f 17/1/1 9/2/1 12/3/1 13/4/1
f 2/5/2 8/6/2 11/7/2 4/8/2
f 3/9/3 24/10/3 22/11/3 5/12/3
f 3/9/4 35/13/4 36/14/4 24/10/4
f 6/15/5 7/16/5 10/17/5 1/18/5
f 5/12/6 22/11/6 33/19/6 34/20/6
f 10/17/6 14/21/6 13/4/6 12/3/6 1/18/6
f 9/2/4 17/1/4 18/22/4 7/16/4 6/15/4
f 17/1/7 13/4/7 14/21/7 18/22/7
f 12/3/8 9/2/8 6/15/8 1/18/8
f 18/22/9 14/21/9 10/17/9 7/16/9
f 27/23/4 31/24/4 32/25/4 19/26/4 26/27/4
f 25/28/4 20/29/4 8/6/4 2/5/4
f 15/30/6 30/31/6 29/32/6 28/33/6 21/34/6
f 23/35/10 25/28/10 2/5/10 4/8/10
f 16/36/6 23/35/6 4/8/6 11/7/6
f 34/20/11 35/13/11 3/9/11 5/12/11
f 11/7/12 8/6/12 20/29/12 16/36/12
f 25/28/13 23/35/13 16/36/13 20/29/13
f 24/10/14 36/14/14 33/19/14 22/11/14
f 34/20/15 33/19/15 36/14/15 35/13/15
f 31/24/16 27/23/16 28/33/16 29/32/16
f 26/27/17 21/34/17 28/33/17 27/23/17
f 21/34/18 26/27/18 19/26/18 15/30/18
f 15/30/19 19/26/19 32/25/19 30/31/19
f 30/31/20 32/25/20 31/24/20 29/32/20
