# Blender v2.78 (sub 0) OBJ File: 'decorator_road10.blend'
# www.blender.org
mtllib decorator_road10.mtl
o decorator_road10.001_Cube
v -0.608205 -0.050000 -0.653442
v -0.608205 0.050000 -0.653442
v -0.261795 -0.050000 -0.853442
v -0.261795 0.050000 -0.853442
v 0.870000 -0.050000 -0.198108
v 0.870000 0.050000 -0.198108
v 0.870000 -0.050000 0.200000
v 0.870000 0.050000 0.200000
v 0.608205 -0.050000 0.653442
v 0.608205 0.050000 0.653442
v 0.261795 -0.050000 0.853442
v 0.261795 0.050000 0.853442
v 0.342304 -0.050000 0.200000
v 0.342304 0.050000 0.200000
v 0.158144 0.049999 -0.198108
v 0.158144 -0.050001 -0.198108
vt 0.0931 0.6236
vt 0.0931 0.6236
vt 0.1398 0.6127
vt 0.0931 0.6236
vt 0.0931 0.6236
vt 0.0931 0.6236
vt 0.0931 0.6236
vt 0.0931 0.6236
vt 0.0931 0.6236
vt 0.0931 0.6236
vt 0.0931 0.6236
vt 0.0931 0.6236
vt 0.0931 0.6236
vt 0.0931 0.6236
vt 0.0931 0.6236
vt 0.1398 0.6127
vn 0.0000 1.0000 0.0000
vn -0.5000 0.0000 -0.8660
vn 1.0000 0.0000 0.0000
vn -0.0000 0.0000 1.0000
vn -0.8660 0.0000 0.5000
vn -0.0000 0.0000 -1.0000
vn 0.5000 0.0000 0.8660
vn 0.8626 0.0000 -0.5058
vn 0.8420 0.0000 -0.5395
usemtl None
s off
f 4/1/1 2/2/1 15/3/1
f 12/4/1 14/5/1 15/3/1
f 4/1/2 1/6/2 2/2/2
f 8/7/3 5/8/3 6/9/3
f 8/7/4 13/10/4 7/11/4
f 11/12/5 2/2/5 1/6/5
f 5/8/6 15/3/6 6/9/6
f 8/7/3 7/11/3 5/8/3
f 12/4/1 10/13/1 14/5/1
f 12/4/7 9/14/7 10/13/7
f 10/13/8 13/10/8 14/5/8
f 4/1/2 3/15/2 1/6/2
f 14/5/1 6/9/1 15/3/1
f 8/7/4 14/5/4 13/10/4
f 11/12/5 12/4/5 2/2/5
f 14/5/1 8/7/1 6/9/1
f 10/13/8 9/14/8 13/10/8
f 3/15/9 4/1/9 15/3/9
f 15/3/1 2/2/1 12/4/1
f 12/4/7 11/12/7 9/14/7
f 5/8/6 16/16/6 15/3/6
f 3/15/9 15/3/9 16/16/9
