# Blender v2.78 (sub 0) OBJ File: 'decorator_building_temple.blend'
# www.blender.org
mtllib decorator_building_temple.mtl
o decorator_building_temple.001_Cube
v 0.239296 0.594866 -0.427729
v 0.239296 0.255380 -0.427729
v 0.239296 0.594866 -0.372271
v 0.239296 0.255380 -0.372271
v 0.185332 0.594866 -0.427729
v 0.185332 0.255380 -0.427729
v 0.185332 0.594866 -0.372271
v 0.185332 0.255380 -0.372271
v 0.268932 0.295071 -0.458185
v 0.268932 0.234856 -0.458185
v 0.268932 0.295071 -0.341815
v 0.268932 0.234856 -0.341815
v 0.155696 0.295071 -0.458185
v 0.155696 0.234856 -0.458185
v 0.155696 0.295071 -0.341815
v 0.155696 0.234856 -0.341815
v 0.268932 0.639868 -0.458185
v 0.268932 0.579654 -0.458185
v 0.268932 0.639868 -0.341815
v 0.268932 0.579654 -0.341815
v 0.155696 0.639868 -0.458185
v 0.155696 0.579654 -0.458185
v 0.155696 0.639868 -0.341815
v 0.155696 0.579654 -0.341815
v 0.239296 0.594866 -0.175288
v 0.239296 0.255380 -0.175288
v 0.239296 0.594866 -0.119830
v 0.239296 0.255380 -0.119830
v 0.185332 0.594866 -0.175288
v 0.185332 0.255380 -0.175288
v 0.185332 0.594866 -0.119830
v 0.185332 0.255380 -0.119830
v 0.268932 0.295071 -0.205744
v 0.268932 0.234856 -0.205744
v 0.268932 0.295071 -0.089374
v 0.268932 0.234856 -0.089374
v 0.155696 0.295071 -0.205744
v 0.155696 0.234856 -0.205744
v 0.155696 0.295071 -0.089374
v 0.155696 0.234856 -0.089374
v 0.268932 0.639868 -0.205744
v 0.268932 0.579654 -0.205744
v 0.268932 0.639868 -0.089374
v 0.268932 0.579654 -0.089374
v 0.155696 0.639868 -0.205744
v 0.155696 0.579654 -0.205744
v 0.155696 0.639868 -0.089374
v 0.155696 0.579654 -0.089374
v -0.239296 0.594866 -0.427729
v -0.239296 0.255380 -0.427729
v -0.239296 0.594866 -0.372271
v -0.239296 0.255380 -0.372271
v -0.185332 0.594866 -0.427729
v -0.185332 0.255380 -0.427729
v -0.185332 0.594866 -0.372271
v -0.185332 0.255380 -0.372271
v -0.268932 0.295071 -0.458185
v -0.268932 0.234856 -0.458185
v -0.268932 0.295071 -0.341815
v -0.268932 0.234856 -0.341815
v -0.155696 0.295071 -0.458185
v -0.155696 0.234856 -0.458185
v -0.155696 0.295071 -0.341815
v -0.155696 0.234856 -0.341815
v -0.268932 0.639868 -0.458185
v -0.268932 0.579654 -0.458185
v -0.268932 0.639868 -0.341815
v -0.268932 0.579654 -0.341815
v -0.155696 0.639868 -0.458185
v -0.155696 0.579654 -0.458185
v -0.155696 0.639868 -0.341815
v -0.155696 0.579654 -0.341815
v -0.239296 0.594866 -0.175288
v -0.239296 0.255380 -0.175288
v -0.239296 0.594866 -0.119830
v -0.239296 0.255380 -0.119830
v -0.185332 0.594866 -0.175288
v -0.185332 0.255380 -0.175288
v -0.185332 0.594866 -0.119830
v -0.185332 0.255380 -0.119830
v -0.268932 0.295071 -0.205744
v -0.268932 0.234856 -0.205744
v -0.268932 0.295071 -0.089374
v -0.268932 0.234856 -0.089374
v -0.155696 0.295071 -0.205744
v -0.155696 0.234856 -0.205744
v -0.155696 0.295071 -0.089374
v -0.155696 0.234856 -0.089374
v -0.268932 0.639868 -0.205744
v -0.268932 0.579654 -0.205744
v -0.268932 0.639868 -0.089374
v -0.268932 0.579654 -0.089374
v -0.155696 0.639868 -0.205744
v -0.155696 0.579654 -0.205744
v -0.155696 0.639868 -0.089374
v -0.155696 0.579654 -0.089374
v 0.239296 0.594866 0.427729
v 0.239296 0.255380 0.427729
v 0.239296 0.594866 0.372271
v 0.239296 0.255380 0.372271
v 0.185332 0.594866 0.427729
v 0.185332 0.255380 0.427729
v 0.185332 0.594866 0.372271
v 0.185332 0.255380 0.372271
v 0.268932 0.295071 0.458185
v 0.268932 0.234856 0.458185
v 0.268932 0.295071 0.341815
v 0.268932 0.234856 0.341815
v 0.155696 0.295071 0.458185
v 0.155696 0.234856 0.458185
v 0.155696 0.295071 0.341815
v 0.155696 0.234856 0.341815
v 0.268932 0.639868 0.458185
v 0.268932 0.579654 0.458185
v 0.268932 0.639868 0.341815
v 0.268932 0.579654 0.341815
v 0.155696 0.639868 0.458185
v 0.155696 0.579654 0.458185
v 0.155696 0.639868 0.341815
v 0.155696 0.579654 0.341815
v 0.239296 0.594866 0.175288
v 0.239296 0.255380 0.175288
v 0.239296 0.594866 0.119830
v 0.239296 0.255380 0.119830
v 0.185332 0.594866 0.175288
v 0.185332 0.255380 0.175288
v 0.185332 0.594866 0.119830
v 0.185332 0.255380 0.119830
v 0.268932 0.295071 0.205744
v 0.268932 0.234856 0.205744
v 0.268932 0.295071 0.089374
v 0.268932 0.234856 0.089374
v 0.155696 0.295071 0.205744
v 0.155696 0.234856 0.205744
v 0.155696 0.295071 0.089374
v 0.155696 0.234856 0.089374
v 0.268932 0.639868 0.205744
v 0.268932 0.579654 0.205744
v 0.268932 0.639868 0.089374
v 0.268932 0.579654 0.089374
v 0.155696 0.639868 0.205744
v 0.155696 0.579654 0.205744
v 0.155696 0.639868 0.089374
v 0.155696 0.579654 0.089374
v -0.239296 0.594866 0.427729
v -0.239296 0.255380 0.427729
v -0.239296 0.594866 0.372271
v -0.239296 0.255380 0.372271
v -0.185332 0.594866 0.427729
v -0.185332 0.255380 0.427729
v -0.185332 0.594866 0.372271
v -0.185332 0.255380 0.372271
v -0.268932 0.295071 0.458185
v -0.268932 0.234856 0.458185
v -0.268932 0.295071 0.341815
v -0.268932 0.234856 0.341815
v -0.155696 0.295071 0.458185
v -0.155696 0.234856 0.458185
v -0.155696 0.295071 0.341815
v -0.155696 0.234856 0.341815
v -0.268932 0.639868 0.458185
v -0.268932 0.579654 0.458185
v -0.268932 0.639868 0.341815
v -0.268932 0.579654 0.341815
v -0.155696 0.639868 0.458185
v -0.155696 0.579654 0.458185
v -0.155696 0.639868 0.341815
v -0.155696 0.579654 0.341815
v -0.239296 0.594866 0.175288
v -0.239296 0.255380 0.175288
v -0.239296 0.594866 0.119830
v -0.239296 0.255380 0.119830
v -0.185332 0.594866 0.175288
v -0.185332 0.255380 0.175288
v -0.185332 0.594866 0.119830
v -0.185332 0.255380 0.119830
v -0.268932 0.295071 0.205744
v -0.268932 0.234856 0.205744
v -0.268932 0.295071 0.089374
v -0.268932 0.234856 0.089374
v -0.155696 0.295071 0.205744
v -0.155696 0.234856 0.205744
v -0.155696 0.295071 0.089374
v -0.155696 0.234856 0.089374
v -0.268932 0.639868 0.205744
v -0.268932 0.579654 0.205744
v -0.268932 0.639868 0.089374
v -0.268932 0.579654 0.089374
v -0.155696 0.639868 0.205744
v -0.155696 0.579654 0.205744
v -0.155696 0.639868 0.089374
v -0.155696 0.579654 0.089374
v 0.304794 0.241859 -0.490344
v 0.304794 0.041859 -0.490344
v 0.304794 0.241859 0.490344
v 0.304794 0.041859 0.490344
v -0.304794 0.241859 -0.490344
v -0.304794 0.041859 -0.490344
v -0.304794 0.241859 0.490344
v -0.304794 0.041859 0.490344
v -0.400000 0.000000 0.600000
v -0.400000 0.100000 0.600000
v -0.400000 0.000000 -0.600000
v -0.400000 0.100000 -0.600000
v 0.400000 0.000000 0.600000
v 0.400000 0.100000 0.600000
v 0.400000 0.000000 -0.600000
v 0.400000 0.100000 -0.600000
v -0.350634 0.627909 0.500858
v -0.350634 0.742142 0.500858
v -0.350634 0.627909 -0.500858
v -0.350634 0.742142 -0.500858
v 0.350634 0.627909 0.500858
v 0.350634 0.742142 0.500858
v 0.350634 0.627909 -0.500858
v 0.350634 0.742142 -0.500858
v 0.000000 0.804036 -0.500858
v 0.000000 0.804036 0.500858
vt 0.8750 0.3750
vt 0.8750 0.3750
vt 0.8750 0.3750
vt 0.8750 0.3750
vt 0.8750 0.3750
vt 0.8750 0.3750
vt 0.8750 0.3750
vt 0.8750 0.3750
vt 0.8750 0.3750
vt 0.8750 0.3750
vt 0.8750 0.3750
vt 0.8750 0.3750
vt 0.8750 0.3750
vt 0.8750 0.3750
vt 0.8750 0.3750
vt 0.8750 0.3750
vt 0.8750 0.3750
vt 0.8750 0.3750
vt 0.8750 0.3750
vt 0.8750 0.3750
vt 0.8750 0.3750
vt 0.8750 0.3750
vt 0.8750 0.3750
vt 0.8750 0.3750
vt 0.8750 0.3750
vt 0.8750 0.3750
vt 0.8750 0.3750
vt 0.8750 0.3750
vt 0.8750 0.3750
vt 0.8750 0.3750
vt 0.8750 0.3750
vt 0.8750 0.3750
vt 0.8750 0.3750
vt 0.8750 0.3750
vt 0.8750 0.3750
vt 0.8750 0.3750
vt 0.8750 0.3750
vt 0.8750 0.3750
vt 0.8750 0.3750
vt 0.8750 0.3750
vt 0.8750 0.3750
vt 0.8750 0.3750
vt 0.8750 0.3750
vt 0.8750 0.3750
vt 0.8750 0.3750
vt 0.8750 0.3750
vt 0.8750 0.3750
vt 0.8750 0.3750
vt 0.8750 0.3750
vt 0.8750 0.3750
vt 0.8750 0.3750
vt 0.8750 0.3750
vt 0.8750 0.3750
vt 0.8750 0.3750
vt 0.8750 0.3750
vt 0.8750 0.3750
vt 0.8750 0.3750
vt 0.8750 0.3750
vt 0.8750 0.3750
vt 0.8750 0.3750
vt 0.8750 0.3750
vt 0.8750 0.3750
vt 0.8750 0.3750
vt 0.8750 0.3750
vt 0.8750 0.3750
vt 0.8750 0.3750
vt 0.8750 0.3750
vt 0.8750 0.3750
vt 0.8750 0.3750
vt 0.8750 0.3750
vt 0.8750 0.3750
vt 0.8750 0.3750
vt 0.8750 0.3750
vt 0.8750 0.3750
vt 0.8750 0.3750
vt 0.8750 0.3750
vt 0.8750 0.3750
vt 0.8750 0.3750
vt 0.8750 0.3750
vt 0.8750 0.3750
vt 0.8750 0.3750
vt 0.8750 0.3750
vt 0.8750 0.3750
vt 0.8750 0.3750
vt 0.8750 0.3750
vt 0.8750 0.3750
vt 0.8750 0.3750
vt 0.8750 0.3750
vt 0.8750 0.3750
vt 0.8750 0.3750
vt 0.8750 0.3750
vt 0.8750 0.3750
vt 0.8750 0.3750
vt 0.8750 0.3750
vt 0.8750 0.3750
vt 0.8750 0.3750
vt 0.8750 0.3750
vt 0.8750 0.3750
vt 0.8750 0.3750
vt 0.8750 0.3750
vt 0.8750 0.3750
vt 0.8750 0.3750
vt 0.8750 0.3750
vt 0.8750 0.3750
vt 0.8750 0.3750
vt 0.8750 0.3750
vt 0.8750 0.3750
vt 0.8750 0.3750
vt 0.8750 0.3750
vt 0.8750 0.3750
vt 0.8750 0.3750
vt 0.8750 0.3750
vt 0.8750 0.3750
vt 0.8750 0.3750
vt 0.8750 0.3750
vt 0.8750 0.3750
vt 0.8750 0.3750
vt 0.8750 0.3750
vt 0.8750 0.3750
vt 0.8750 0.3750
vt 0.8750 0.3750
vt 0.8750 0.3750
vt 0.8750 0.3750
vt 0.8750 0.3750
vt 0.8750 0.3750
vt 0.8750 0.3750
vt 0.8750 0.3750
vt 0.8750 0.3750
vt 0.8750 0.3750
vt 0.8750 0.3750
vt 0.8750 0.3750
vt 0.8750 0.3750
vt 0.8750 0.3750
vt 0.8750 0.3750
vt 0.8750 0.3750
vt 0.8750 0.3750
vt 0.8750 0.3750
vt 0.8750 0.3750
vt 0.8750 0.3750
vt 0.8750 0.3750
vt 0.8750 0.3750
vt 0.8750 0.3750
vt 0.8750 0.3750
vt 0.8750 0.3750
vt 0.8750 0.3750
vt 0.8750 0.3750
vt 0.8750 0.3750
vt 0.8750 0.3750
vt 0.8750 0.3750
vt 0.8750 0.3750
vt 0.8750 0.3750
vt 0.8750 0.3750
vt 0.8750 0.3750
vt 0.8750 0.3750
vt 0.8750 0.3750
vt 0.8750 0.3750
vt 0.8750 0.3750
vt 0.8750 0.3750
vt 0.8750 0.3750
vt 0.8750 0.3750
vt 0.8750 0.3750
vt 0.8750 0.3750
vt 0.8750 0.3750
vt 0.8750 0.3750
vt 0.8750 0.3750
vt 0.8750 0.3750
vt 0.8750 0.3750
vt 0.8750 0.3750
vt 0.8750 0.3750
vt 0.8750 0.3750
vt 0.8750 0.3750
vt 0.8750 0.3750
vt 0.8750 0.3750
vt 0.8750 0.3750
vt 0.8750 0.3750
vt 0.8750 0.3750
vt 0.8750 0.3750
vt 0.8750 0.3750
vt 0.8750 0.3750
vt 0.8750 0.3750
vt 0.8750 0.3750
vt 0.8750 0.3750
vt 0.8750 0.3750
vt 0.8750 0.3750
vt 0.8750 0.3750
vt 0.8750 0.3750
vt 0.8750 0.3750
vt 0.8750 0.3750
vt 0.8750 0.3750
vt 0.8750 0.3750
vt 0.8750 0.3750
vt 0.8750 0.3750
vt 0.8750 0.3750
vt 0.8750 0.3750
vt 0.8750 0.3750
vt 0.8750 0.3750
vt 0.8750 0.3750
vt 0.8750 0.3750
vt 0.8750 0.3750
vt 0.8750 0.3750
vt 0.8750 0.3750
vt 0.8750 0.3750
vt 0.8750 0.3750
vt 0.8750 0.3750
vt 0.8750 0.3750
vt 0.8750 0.3750
vt 0.8750 0.3750
vt 0.8750 0.3750
vt 0.8750 0.3750
vt 0.8750 0.3750
vt 0.8750 0.3750
vt 0.8750 0.3750
vt 0.8750 0.3750
vt 0.8750 0.3750
vt 0.8750 0.3750
vt 0.8750 0.3750
vt 0.8750 0.3750
vt 0.8750 0.3750
vn 0.0000 0.0000 1.0000
vn 1.0000 0.0000 0.0000
vn 0.0000 0.0000 -1.0000
vn -1.0000 0.0000 0.0000
vn 0.0000 1.0000 0.0000
vn 0.0000 -1.0000 0.0000
vn -0.1738 0.9848 0.0000
vn 0.1738 0.9848 0.0000
usemtl None
s off
f 3/1/1 8/2/1 4/3/1
f 1/4/2 4/3/2 2/5/2
f 5/6/3 2/5/3 6/7/3
f 7/8/4 6/7/4 8/2/4
f 13/9/5 11/10/5 9/11/5
f 11/10/1 16/12/1 12/13/1
f 9/11/2 12/13/2 10/14/2
f 13/9/3 10/14/3 14/15/3
f 15/16/4 14/15/4 16/12/4
f 19/17/1 24/18/1 20/19/1
f 17/20/2 20/19/2 18/21/2
f 21/22/3 18/21/3 22/23/3
f 23/24/4 22/23/4 24/18/4
f 27/25/1 32/26/1 28/27/1
f 25/28/2 28/27/2 26/29/2
f 29/30/3 26/29/3 30/31/3
f 31/32/4 30/31/4 32/26/4
f 37/33/5 35/34/5 33/35/5
f 35/34/1 40/36/1 36/37/1
f 33/35/2 36/37/2 34/38/2
f 37/33/3 34/38/3 38/39/3
f 39/40/4 38/39/4 40/36/4
f 43/41/1 48/42/1 44/43/1
f 41/44/2 44/43/2 42/45/2
f 45/46/3 42/45/3 46/47/3
f 47/48/4 46/47/4 48/42/4
f 56/49/1 51/50/1 52/51/1
f 52/51/4 49/52/4 50/53/4
f 50/53/3 53/54/3 54/55/3
f 54/55/2 55/56/2 56/49/2
f 59/57/5 61/58/5 57/59/5
f 64/60/1 59/57/1 60/61/1
f 60/61/4 57/59/4 58/62/4
f 58/62/3 61/58/3 62/63/3
f 62/63/2 63/64/2 64/60/2
f 72/65/1 67/66/1 68/67/1
f 68/67/4 65/68/4 66/69/4
f 66/69/3 69/70/3 70/71/3
f 70/71/2 71/72/2 72/65/2
f 80/73/1 75/74/1 76/75/1
f 76/75/4 73/76/4 74/77/4
f 74/77/3 77/78/3 78/79/3
f 78/79/2 79/80/2 80/73/2
f 83/81/5 85/82/5 81/83/5
f 88/84/1 83/81/1 84/85/1
f 84/85/4 81/83/4 82/86/4
f 82/86/3 85/82/3 86/87/3
f 86/87/2 87/88/2 88/84/2
f 96/89/1 91/90/1 92/91/1
f 92/91/4 89/92/4 90/93/4
f 90/93/3 93/94/3 94/95/3
f 94/95/2 95/96/2 96/89/2
f 104/97/3 99/98/3 100/99/3
f 100/99/2 97/100/2 98/101/2
f 98/101/1 101/102/1 102/103/1
f 102/103/4 103/104/4 104/97/4
f 107/105/5 109/106/5 105/107/5
f 112/108/3 107/105/3 108/109/3
f 108/109/2 105/107/2 106/110/2
f 106/110/1 109/106/1 110/111/1
f 110/111/4 111/112/4 112/108/4
f 120/113/3 115/114/3 116/115/3
f 116/115/2 113/116/2 114/117/2
f 114/117/1 117/118/1 118/119/1
f 118/119/4 119/120/4 120/113/4
f 128/121/3 123/122/3 124/123/3
f 124/123/2 121/124/2 122/125/2
f 122/125/1 125/126/1 126/127/1
f 126/127/4 127/128/4 128/121/4
f 131/129/5 133/130/5 129/131/5
f 136/132/3 131/129/3 132/133/3
f 132/133/2 129/131/2 130/134/2
f 130/134/1 133/130/1 134/135/1
f 134/135/4 135/136/4 136/132/4
f 144/137/3 139/138/3 140/139/3
f 140/139/2 137/140/2 138/141/2
f 138/141/1 141/142/1 142/143/1
f 142/143/4 143/144/4 144/137/4
f 147/145/3 152/146/3 148/147/3
f 145/148/4 148/147/4 146/149/4
f 149/150/1 146/149/1 150/151/1
f 151/152/2 150/151/2 152/146/2
f 157/153/5 155/154/5 153/155/5
f 155/154/3 160/156/3 156/157/3
f 153/155/4 156/157/4 154/158/4
f 157/153/1 154/158/1 158/159/1
f 159/160/2 158/159/2 160/156/2
f 163/161/3 168/162/3 164/163/3
f 161/164/4 164/163/4 162/165/4
f 165/166/1 162/165/1 166/167/1
f 167/168/2 166/167/2 168/162/2
f 171/169/3 176/170/3 172/171/3
f 169/172/4 172/171/4 170/173/4
f 173/174/1 170/173/1 174/175/1
f 175/176/2 174/175/2 176/170/2
f 181/177/5 179/178/5 177/179/5
f 179/178/3 184/180/3 180/181/3
f 177/179/4 180/181/4 178/182/4
f 181/177/1 178/182/1 182/183/1
f 183/184/2 182/183/2 184/180/2
f 187/185/3 192/186/3 188/187/3
f 185/188/4 188/187/4 186/189/4
f 189/190/1 186/189/1 190/191/1
f 191/192/2 190/191/2 192/186/2
f 197/193/5 195/194/5 193/195/5
f 195/194/1 200/196/1 196/197/1
f 193/195/2 196/197/2 194/198/2
f 197/193/3 194/198/3 198/199/3
f 199/200/4 198/199/4 200/196/4
f 202/201/4 203/202/4 201/203/4
f 204/204/3 207/205/3 203/202/3
f 208/206/2 205/207/2 207/205/2
f 206/208/1 201/203/1 205/207/1
f 204/204/5 206/208/5 208/206/5
f 210/209/4 211/210/4 209/211/4
f 218/212/1 210/209/1 209/211/1
f 216/213/2 213/214/2 215/215/2
f 215/215/6 209/211/6 211/210/6
f 212/216/7 218/212/7 217/217/7
f 3/1/1 7/8/1 8/2/1
f 1/4/2 3/1/2 4/3/2
f 217/217/8 214/218/8 216/213/8
f 5/6/3 1/4/3 2/5/3
f 7/8/4 5/6/4 6/7/4
f 217/217/3 216/213/3 215/215/3
f 13/9/5 15/16/5 11/10/5
f 11/10/1 15/16/1 16/12/1
f 9/11/2 11/10/2 12/13/2
f 13/9/3 9/11/3 10/14/3
f 15/16/4 13/9/4 14/15/4
f 19/17/1 23/24/1 24/18/1
f 17/20/2 19/17/2 20/19/2
f 21/22/3 17/20/3 18/21/3
f 23/24/4 21/22/4 22/23/4
f 27/25/1 31/32/1 32/26/1
f 25/28/2 27/25/2 28/27/2
f 29/30/3 25/28/3 26/29/3
f 31/32/4 29/30/4 30/31/4
f 37/33/5 39/40/5 35/34/5
f 35/34/1 39/40/1 40/36/1
f 33/35/2 35/34/2 36/37/2
f 37/33/3 33/35/3 34/38/3
f 39/40/4 37/33/4 38/39/4
f 43/41/1 47/48/1 48/42/1
f 41/44/2 43/41/2 44/43/2
f 45/46/3 41/44/3 42/45/3
f 47/48/4 45/46/4 46/47/4
f 56/49/1 55/56/1 51/50/1
f 52/51/4 51/50/4 49/52/4
f 50/53/3 49/52/3 53/54/3
f 54/55/2 53/54/2 55/56/2
f 59/57/5 63/64/5 61/58/5
f 64/60/1 63/64/1 59/57/1
f 60/61/4 59/57/4 57/59/4
f 58/62/3 57/59/3 61/58/3
f 62/63/2 61/58/2 63/64/2
f 72/65/1 71/72/1 67/66/1
f 68/67/4 67/66/4 65/68/4
f 66/69/3 65/68/3 69/70/3
f 70/71/2 69/70/2 71/72/2
f 80/73/1 79/80/1 75/74/1
f 76/75/4 75/74/4 73/76/4
f 74/77/3 73/76/3 77/78/3
f 78/79/2 77/78/2 79/80/2
f 83/81/5 87/88/5 85/82/5
f 88/84/1 87/88/1 83/81/1
f 84/85/4 83/81/4 81/83/4
f 82/86/3 81/83/3 85/82/3
f 86/87/2 85/82/2 87/88/2
f 96/89/1 95/96/1 91/90/1
f 92/91/4 91/90/4 89/92/4
f 90/93/3 89/92/3 93/94/3
f 94/95/2 93/94/2 95/96/2
f 104/97/3 103/104/3 99/98/3
f 100/99/2 99/98/2 97/100/2
f 98/101/1 97/100/1 101/102/1
f 102/103/4 101/102/4 103/104/4
f 107/105/5 111/112/5 109/106/5
f 112/108/3 111/112/3 107/105/3
f 108/109/2 107/105/2 105/107/2
f 106/110/1 105/107/1 109/106/1
f 110/111/4 109/106/4 111/112/4
f 120/113/3 119/120/3 115/114/3
f 116/115/2 115/114/2 113/116/2
f 114/117/1 113/116/1 117/118/1
f 118/119/4 117/118/4 119/120/4
f 128/121/3 127/128/3 123/122/3
f 124/123/2 123/122/2 121/124/2
f 122/125/1 121/124/1 125/126/1
f 126/127/4 125/126/4 127/128/4
f 131/129/5 135/136/5 133/130/5
f 136/132/3 135/136/3 131/129/3
f 132/133/2 131/129/2 129/131/2
f 130/134/1 129/131/1 133/130/1
f 134/135/4 133/130/4 135/136/4
f 144/137/3 143/144/3 139/138/3
f 140/139/2 139/138/2 137/140/2
f 138/141/1 137/140/1 141/142/1
f 142/143/4 141/142/4 143/144/4
f 147/145/3 151/152/3 152/146/3
f 145/148/4 147/145/4 148/147/4
f 149/150/1 145/148/1 146/149/1
f 151/152/2 149/150/2 150/151/2
f 157/153/5 159/160/5 155/154/5
f 155/154/3 159/160/3 160/156/3
f 153/155/4 155/154/4 156/157/4
f 157/153/1 153/155/1 154/158/1
f 159/160/2 157/153/2 158/159/2
f 163/161/3 167/168/3 168/162/3
f 161/164/4 163/161/4 164/163/4
f 165/166/1 161/164/1 162/165/1
f 167/168/2 165/166/2 166/167/2
f 171/169/3 175/176/3 176/170/3
f 169/172/4 171/169/4 172/171/4
f 173/174/1 169/172/1 170/173/1
f 175/176/2 173/174/2 174/175/2
f 181/177/5 183/184/5 179/178/5
f 179/178/3 183/184/3 184/180/3
f 177/179/4 179/178/4 180/181/4
f 181/177/1 177/179/1 178/182/1
f 183/184/2 181/177/2 182/183/2
f 187/185/3 191/192/3 192/186/3
f 185/188/4 187/185/4 188/187/4
f 189/190/1 185/188/1 186/189/1
f 191/192/2 189/190/2 190/191/2
f 197/193/5 199/200/5 195/194/5
f 195/194/1 199/200/1 200/196/1
f 193/195/2 195/194/2 196/197/2
f 197/193/3 193/195/3 194/198/3
f 199/200/4 197/193/4 198/199/4
f 202/201/4 204/204/4 203/202/4
f 204/204/3 208/206/3 207/205/3
f 208/206/2 206/208/2 205/207/2
f 206/208/1 202/201/1 201/203/1
f 204/204/5 202/201/5 206/208/5
f 210/209/4 212/216/4 211/210/4
f 209/211/1 213/214/1 218/212/1
f 214/218/1 218/212/1 213/214/1
f 216/213/2 214/218/2 213/214/2
f 215/215/6 213/214/6 209/211/6
f 212/216/7 210/209/7 218/212/7
f 217/217/8 218/212/8 214/218/8
f 215/215/3 211/210/3 217/217/3
f 212/216/3 217/217/3 211/210/3
