# Blender v2.78 (sub 0) OBJ File: 'decorator_road11.blend'
# www.blender.org
mtllib decorator_road11.mtl
o decorator_road11.001_Cube
v -0.608205 -0.050000 -0.653442
v -0.608205 0.050000 -0.653442
v -0.261795 -0.050000 -0.853442
v -0.261795 0.050000 -0.853442
v 0.870000 -0.050000 -0.198108
v 0.870000 0.050000 -0.198108
v 0.870000 -0.050000 0.200000
v 0.870000 0.050000 0.200000
v 0.608205 -0.050000 0.653442
v 0.608205 0.050000 0.653442
v 0.261795 -0.050000 0.853442
v 0.261795 0.050000 0.853442
v 0.342304 -0.050000 0.200000
v 0.342304 0.050000 0.200000
v 0.158144 0.049999 -0.198108
v 0.158144 -0.050001 -0.198108
v -0.606567 -0.050000 0.654388
v -0.606567 0.050000 0.654388
v -0.261795 -0.050000 0.853442
v -0.261795 0.050000 0.853442
v -0.225752 0.049999 0.006776
v -0.229006 -0.050001 0.008404
v -0.000743 0.050000 0.398713
v -0.226891 -0.050000 0.007014
v -0.000743 -0.050000 0.398714
vt 0.0931 0.6236
vt 0.0931 0.6236
vt 0.0931 0.6236
vt 0.0931 0.6236
vt 0.0931 0.6236
vt 0.1398 0.6127
vt 0.0931 0.6236
vt 0.0931 0.6236
vt 0.0931 0.6236
vt 0.0931 0.6236
vt 0.0931 0.6236
vt 0.0931 0.6236
vt 0.1398 0.6127
vt 0.0931 0.6236
vt 0.0931 0.6236
vt 0.0931 0.6236
vt 0.1398 0.6127
vt 0.0931 0.6236
vt 0.0931 0.6236
vt 0.0931 0.6236
vt 0.0931 0.6236
vt 0.0931 0.6236
vt 0.0931 0.6236
vt 0.0931 0.6236
vt 0.0931 0.6236
vt 0.1398 0.6127
vn -0.5000 0.0000 -0.8660
vn -0.0000 1.0000 -0.0000
vn -0.5000 0.0000 0.8660
vn 1.0000 0.0000 0.0000
vn -0.8652 0.0110 0.5012
vn -0.8634 0.0000 -0.5046
vn 0.8626 0.0000 -0.5058
vn 0.8672 0.0000 0.4979
vn -0.0000 0.0000 1.0000
vn 0.5000 0.0000 0.8660
vn -0.0000 0.0000 -1.0000
vn -0.8660 0.0000 0.5000
vn 0.8673 0.0000 0.4979
vn 0.8420 0.0000 -0.5395
vn -0.8618 0.0198 -0.5068
usemtl None
s off
f 1/1/1 4/2/1 3/3/1
f 23/4/2 14/5/2 21/6/2
f 17/7/3 20/8/3 18/9/3
f 8/10/4 7/11/4 5/12/4
f 15/13/2 21/6/2 14/5/2
f 2/14/5 24/15/5 21/16/5
f 18/9/6 22/17/6 17/7/6
f 1/1/1 2/14/1 4/2/1
f 13/18/7 10/19/7 9/20/7
f 23/4/8 19/21/8 25/22/8
f 13/18/9 8/10/9 14/5/9
f 14/5/2 8/10/2 6/23/2
f 13/18/7 14/5/7 10/19/7
f 12/24/10 9/20/10 10/19/10
f 21/6/2 18/9/2 23/4/2
f 18/9/2 20/8/2 23/4/2
f 15/13/2 4/2/2 21/6/2
f 8/10/4 5/12/4 6/23/4
f 17/7/3 19/21/3 20/8/3
f 13/18/9 7/11/9 8/10/9
f 5/12/11 15/13/11 6/23/11
f 12/24/12 23/4/12 25/22/12
f 2/14/12 1/1/12 24/15/12
f 14/5/2 6/23/2 15/13/2
f 23/4/13 20/8/13 19/21/13
f 23/4/2 12/24/2 14/5/2
f 3/3/14 4/2/14 15/13/14
f 18/9/15 21/6/15 22/17/15
f 12/24/2 10/19/2 14/5/2
f 12/24/12 25/22/12 11/25/12
f 12/24/10 11/25/10 9/20/10
f 5/12/11 16/26/11 15/13/11
f 4/2/2 2/14/2 21/6/2
f 3/3/14 15/13/14 16/26/14
