# Blender v2.78 (sub 0) OBJ File: 'decorator_road9.blend'
# www.blender.org
mtllib decorator_road9.mtl
o decorator_road9.001_Cube
v -0.608205 -0.050000 -0.653442
v -0.608205 0.049068 -0.653442
v -0.261795 -0.050000 -0.853442
v -0.261795 0.049068 -0.853442
v 0.173205 -0.050000 -0.100000
v 0.173205 0.049068 -0.100000
v -0.173205 -0.050000 0.100000
v -0.173205 0.049068 0.100000
v -0.026795 -0.050000 0.099999
v 0.100000 -0.050000 0.026795
v 0.097404 0.049068 0.029614
v -0.024830 0.049068 0.100185
vt 0.0931 0.6236
vt 0.0931 0.6236
vt 0.0931 0.6236
vt 0.0931 0.6236
vt 0.0931 0.6236
vt 0.0931 0.6236
vt 0.0931 0.6236
vt 0.0931 0.6236
vt 0.0931 0.6236
vt 0.0931 0.6236
vt 0.0931 0.6236
vt 0.0931 0.6236
vn -0.5000 0.0000 -0.8660
vn 0.8632 0.0083 0.5048
vn -0.8660 0.0000 0.5000
vn 0.0000 1.0000 0.0000
vn 0.8660 0.0000 -0.5000
vn 0.0000 0.0000 1.0000
vn 0.5000 -0.0115 0.8660
vn 0.8660 -0.0000 0.5000
vn -0.0012 -0.0019 1.0000
usemtl None
s off
f 2/1/1 3/2/1 1/3/1
f 10/4/2 6/5/2 11/6/2
f 8/7/3 1/3/3 7/8/3
f 4/9/4 8/7/4 6/5/4
f 4/9/5 5/10/5 3/2/5
f 9/11/6 8/7/6 7/8/6
f 9/11/7 11/6/7 12/12/7
f 2/1/1 4/9/1 3/2/1
f 10/4/8 5/10/8 6/5/8
f 8/7/3 2/1/3 1/3/3
f 11/6/4 6/5/4 8/7/4
f 4/9/4 2/1/4 8/7/4
f 8/7/4 12/12/4 11/6/4
f 4/9/5 6/5/5 5/10/5
f 9/11/9 12/12/9 8/7/9
f 9/11/7 10/4/7 11/6/7
