# Blender v2.78 (sub 0) OBJ File: 'decorator_building_barn.blend'
# www.blender.org
mtllib decorator_building_barn.mtl
o decorator_building_barn.001_Cube
v 0.000000 0.656488 0.477231
v 0.114850 0.771338 0.477231
v 0.000000 0.656488 0.438003
v 0.114850 0.771338 0.438003
v 0.086910 0.771338 0.477231
v 0.000000 0.684428 0.477231
v 0.086910 0.771338 0.457617
v 0.000000 0.684428 0.457617
v -0.040197 0.719655 0.465032
v 0.051683 0.811535 0.465032
v -0.040197 0.719655 0.447810
v 0.051683 0.811535 0.447810
v 0.051682 0.731140 0.467424
v 0.051682 0.731140 0.447810
v 0.040198 0.719655 0.467424
v 0.040198 0.719655 0.447810
v 0.304431 0.000000 0.394432
v 0.354767 0.857533 0.459650
v -0.114850 0.771338 0.477231
v 0.000000 0.886187 0.477231
v -0.114850 0.771338 0.438003
v 0.000000 0.886187 0.438003
v 0.000000 0.858248 0.477231
v -0.086910 0.771338 0.477231
v 0.000000 0.858248 0.457617
v -0.086910 0.771338 0.457617
v -0.051682 0.731140 0.465032
v 0.040198 0.823020 0.465032
v -0.051682 0.731140 0.447810
v 0.040198 0.823020 0.447810
v -0.040197 0.823020 0.467424
v -0.040197 0.823020 0.447810
v -0.051682 0.811535 0.467424
v -0.051682 0.811535 0.447810
v -0.304431 0.000000 0.394432
v -0.354767 0.857533 0.459650
v 0.000000 0.988437 0.459650
v 0.000000 0.975500 0.532082
v 0.000000 1.057456 0.532082
v 0.057425 0.828763 0.477231
v 0.043455 0.814793 0.477231
v -0.000000 0.656488 -0.477231
v 0.114850 0.771338 -0.477231
v -0.000000 0.656488 -0.438003
v 0.114850 0.771338 -0.438003
v 0.086910 0.771338 -0.477231
v -0.000000 0.684428 -0.477231
v 0.086910 0.771338 -0.457617
v -0.000000 0.684428 -0.457617
v -0.040198 0.719655 -0.465032
v 0.051682 0.811535 -0.465032
v -0.040198 0.719655 -0.447810
v 0.051682 0.811535 -0.447810
v 0.051682 0.731140 -0.467424
v 0.051682 0.731140 -0.447810
v 0.040197 0.719655 -0.467424
v 0.040197 0.719655 -0.447810
v 0.304431 0.000000 -0.394432
v 0.354767 0.857533 -0.459650
v -0.114850 0.771338 -0.477231
v -0.000000 0.886187 -0.477231
v -0.114850 0.771338 -0.438003
v -0.000000 0.886187 -0.438003
v -0.000000 0.858248 -0.477231
v -0.086910 0.771338 -0.477231
v -0.000000 0.858248 -0.457617
v -0.086910 0.771338 -0.457617
v -0.051683 0.731140 -0.465032
v 0.040197 0.823020 -0.465032
v -0.051683 0.731140 -0.447810
v 0.040197 0.823020 -0.447810
v -0.040198 0.823020 -0.467424
v -0.040198 0.823020 -0.447810
v -0.051682 0.811535 -0.467424
v -0.051682 0.811535 -0.447810
v -0.304431 0.000000 -0.394432
v -0.354767 0.857533 -0.459650
v 0.000000 0.988437 -0.459650
v 0.000000 0.975500 -0.532082
v 0.000000 1.057456 -0.532082
v -0.169842 0.001837 0.480455
v -0.169842 0.466633 0.516538
v -0.169842 0.001837 0.352553
v -0.169842 0.466633 0.388637
v 0.166024 0.001837 0.480455
v 0.166024 0.466633 0.516538
v 0.166024 0.001837 0.352553
v 0.166024 0.466633 0.388637
v -0.009262 0.571745 0.388637
v -0.009262 0.571745 0.516538
v -0.009262 0.001837 0.480455
v -0.009262 0.001837 0.352553
v 0.005444 0.571745 0.388637
v 0.005444 0.001837 0.352553
v 0.005444 0.001837 0.480455
v 0.005444 0.571745 0.516538
v 0.472180 0.906014 0.532082
v 0.451066 0.817642 0.532082
v 0.472180 0.906014 -0.532082
v 0.451066 0.817642 -0.532082
v -0.472180 0.906014 -0.532082
v -0.451066 0.817642 0.532082
v -0.472180 0.906014 0.532082
v -0.451066 0.817642 -0.532082
v -0.038437 1.037941 -0.263473
v -0.049395 1.157998 -0.252514
v -0.038437 1.037941 -0.336527
v -0.049395 1.157998 -0.347486
v 0.034618 1.037941 -0.263473
v 0.045576 1.157998 -0.252514
v 0.034618 1.037941 -0.336527
v 0.045576 1.157998 -0.347486
v -0.078389 1.157998 -0.223520
v -0.078389 1.157998 -0.376480
v 0.074570 1.157998 -0.376480
v 0.074570 1.157998 -0.223520
v -0.078389 1.230992 -0.223520
v -0.078389 1.230992 -0.376480
v 0.074570 1.230992 -0.376480
v 0.074570 1.230992 -0.223520
v -0.047698 1.230992 -0.254211
v -0.047698 1.230992 -0.345789
v 0.043879 1.230992 -0.345789
v 0.043879 1.230992 -0.254211
v -0.047698 1.164413 -0.254211
v -0.047698 1.164413 -0.345789
v 0.043879 1.164413 -0.345789
v 0.043879 1.164413 -0.254211
v -0.038437 1.037941 0.336527
v -0.049395 1.157998 0.347486
v -0.038437 1.037941 0.263473
v -0.049395 1.157998 0.252514
v 0.034618 1.037941 0.336527
v 0.045576 1.157998 0.347486
v 0.034618 1.037941 0.263473
v 0.045576 1.157998 0.252514
v -0.078389 1.157998 0.376480
v -0.078389 1.157998 0.223520
v 0.074570 1.157998 0.223520
v 0.074570 1.157998 0.376480
v -0.078389 1.230992 0.376480
v -0.078389 1.230992 0.223520
v 0.074570 1.230992 0.223520
v 0.074570 1.230992 0.376480
v -0.047698 1.230992 0.345789
v -0.047698 1.230992 0.254211
v 0.043879 1.230992 0.254211
v 0.043879 1.230992 0.345789
v -0.047698 1.164413 0.345789
v -0.047698 1.164413 0.254211
v 0.043879 1.164413 0.254211
v 0.043879 1.164413 0.345789
vt 0.8750 0.3750
vt 0.8750 0.3750
vt 0.8750 0.3750
vt 0.8750 0.3750
vt 0.8750 0.3750
vt 0.8750 0.3750
vt 0.8750 0.3750
vt 0.8750 0.3750
vt 0.3750 0.8750
vt 0.3750 0.8750
vt 0.3750 0.8750
vt 0.3750 0.8750
vt 0.8750 0.3750
vt 0.8750 0.3750
vt 0.8750 0.3750
vt 0.8750 0.3750
vt 0.0960 0.6239
vt 0.0960 0.6239
vt 0.0960 0.6239
vt 0.0960 0.6239
vt 0.8750 0.3750
vt 0.8750 0.3750
vt 0.8750 0.3750
vt 0.8750 0.3750
vt 0.8750 0.3750
vt 0.8750 0.3750
vt 0.8750 0.3750
vt 0.8750 0.3750
vt 0.8750 0.3750
vt 0.8750 0.3750
vt 0.8750 0.3750
vt 0.8750 0.3750
vt 0.8750 0.3750
vt 0.8750 0.3750
vt 0.8750 0.3750
vt 0.8750 0.3750
vt 0.8750 0.3750
vt 0.8750 0.3750
vt 0.8750 0.3750
vt 0.8750 0.3750
vt 0.8750 0.3750
vt 0.8750 0.3750
vt 0.8750 0.3750
vt 0.8750 0.3750
vt 0.8750 0.3750
vt 0.8750 0.3750
vt 0.8750 0.3750
vt 0.0960 0.6239
vt 0.0960 0.6239
vt 0.8750 0.3750
vt 0.8750 0.3750
vt 0.8750 0.3750
vt 0.8750 0.3750
vt 0.3750 0.8750
vt 0.3750 0.8750
vt 0.3750 0.8750
vt 0.8750 0.3750
vt 0.0960 0.6239
vt 0.0960 0.6239
vt 0.0960 0.6239
vt 0.0960 0.6239
vt 0.8750 0.3750
vt 0.8750 0.3750
vt 0.8750 0.3750
vt 0.8750 0.3750
vt 0.8750 0.3750
vt 0.8750 0.3750
vt 0.8750 0.3750
vt 0.8750 0.3750
vt 0.8750 0.3750
vt 0.8750 0.3750
vt 0.8750 0.3750
vt 0.8750 0.3750
vt 0.8750 0.3750
vt 0.8750 0.3750
vt 0.8750 0.3750
vt 0.8750 0.3750
vt 0.3750 0.8750
vt 0.3750 0.8750
vt 0.3750 0.8750
vt 0.8750 0.3750
vt 0.0960 0.6239
vt 0.8750 0.3750
vt 0.8750 0.3750
vt 0.8750 0.3750
vt 0.8750 0.3750
vt 0.8750 0.3750
vt 0.8750 0.3750
vt 0.8750 0.3750
vt 0.8750 0.3750
vt 0.8750 0.3750
vt 0.8750 0.3750
vt 0.8750 0.3750
vt 0.8750 0.3750
vt 0.8750 0.3750
vt 0.8750 0.3750
vt 0.8750 0.3750
vt 0.8750 0.3750
vt 0.8750 0.3750
vt 0.0960 0.6239
vt 0.8750 0.3750
vt 0.8750 0.3750
vt 0.8750 0.3750
vt 0.8750 0.3750
vt 0.8750 0.6250
vt 0.8750 0.6250
vt 0.8750 0.6250
vt 0.8750 0.6250
vt 0.8750 0.6250
vt 0.8750 0.6250
vt 0.8750 0.6250
vt 0.8750 0.6250
vt 0.8750 0.6250
vt 0.8750 0.6250
vt 0.8750 0.6250
vt 0.8750 0.6250
vt 0.8750 0.6250
vt 0.8750 0.6250
vt 0.8750 0.6250
vt 0.8750 0.6250
vt 0.8750 0.6250
vt 0.8750 0.6250
vt 0.8750 0.6250
vt 0.8750 0.6250
vt 0.8750 0.6250
vt 0.8750 0.6250
vt 0.8750 0.6250
vt 0.8750 0.6250
vt 0.8750 0.6250
vt 0.8750 0.6250
vt 0.8750 0.6250
vt 0.8750 0.6250
vt 0.8750 0.6250
vt 0.8750 0.6250
vt 0.8750 0.6250
vt 0.8750 0.6250
vt 0.8750 0.6250
vt 0.8750 0.6250
vt 0.8750 0.6250
vt 0.8750 0.6250
vt 0.8750 0.6250
vt 0.8750 0.6250
vt 0.8750 0.6250
vt 0.8750 0.6250
vt 0.8750 0.6250
vt 0.8750 0.6250
vt 0.8750 0.6250
vt 0.8750 0.6250
vt 0.8750 0.6250
vt 0.8750 0.6250
vt 0.8750 0.6250
vt 0.8750 0.6250
vn -0.7071 -0.7071 -0.0000
vn -0.0228 -0.0696 0.9973
vn -0.9983 -0.0586 0.0000
vn 0.7071 -0.7071 0.0000
vn -0.3054 0.9522 0.0000
vn -0.7071 0.7071 0.0000
vn 1.0000 0.0000 0.0000
vn 0.7071 0.7071 0.0000
vn -0.0000 0.0000 -1.0000
vn -0.9726 -0.2324 0.0000
vn 0.0000 -0.0701 -0.9975
vn 0.5477 0.8367 0.0000
vn 0.9726 -0.2324 0.0000
vn 0.0228 -0.0696 0.9973
vn 0.0000 0.0000 1.0000
vn 0.0000 -0.0701 0.9975
vn 0.9983 -0.0586 0.0000
vn -1.0000 0.0000 0.0000
vn 0.3303 -0.9439 0.0000
vn -0.3303 -0.9439 0.0000
vn 0.0000 -1.0000 0.0000
vn -0.5477 0.8367 0.0000
vn 0.3054 0.9522 0.0000
vn -0.9959 -0.0909 0.0000
vn 0.0000 -0.0909 -0.9959
vn 0.9959 -0.0909 0.0000
vn 0.0000 -0.0909 0.9959
vn 0.0000 1.0000 0.0000
usemtl None
s off
f 75/1/1 74/2/1 56/3/1 57/4/1
f 86/5/2 96/6/2 95/7/2 85/8/2
f 77/9/3 76/10/3 35/11/3 36/12/3
f 26/13/4 25/14/4 23/15/4 24/16/4
f 80/17/5 101/18/5 103/19/5 39/20/5
f 19/21/6 20/22/6 22/23/6 21/24/6
f 88/25/7 86/5/7 85/8/7 87/26/7
f 40/27/8 2/28/8 4/29/8 22/23/8 20/22/8
f 69/30/9 51/31/9 50/32/9 68/33/9
f 4/29/4 2/28/4 1/34/4 3/35/4
f 62/36/1 60/37/1 42/38/1 44/39/1
f 5/40/6 7/41/6 8/42/6 6/43/6
f 45/44/8 43/45/8 61/46/8 63/47/8
f 63/47/6 61/46/6 60/37/6 62/36/6
f 101/18/10 104/48/10 102/49/10 103/19/10
f 27/50/6 28/51/6 30/52/6 29/53/6
f 58/54/11 76/10/11 77/9/11 78/55/11 59/56/11
f 93/57/12 96/6/12 86/5/12 88/25/12
f 99/58/13 97/59/13 98/60/13 100/61/13
f 60/37/9 65/62/9 47/63/9 46/64/9 64/65/9 61/46/9 43/45/9 42/38/9
f 72/66/8 73/67/8 55/68/8 54/69/8
f 91/70/14 90/71/14 82/72/14 81/73/14
f 31/74/15 33/75/15 15/76/15 13/77/15
f 17/78/16 18/79/16 37/80/16 36/12/16 35/11/16
f 74/2/9 72/66/9 54/69/9 56/3/9
f 25/14/1 7/41/1 5/40/1 41/81/1 23/15/1
f 80/17/9 99/58/9 100/61/9 79/82/9 104/48/9 101/18/9
f 58/54/17 59/56/17 18/79/17 17/78/17
f 64/65/4 66/83/4 67/84/4 65/62/4
f 9/85/15 10/86/15 28/51/15 27/50/15
f 50/32/4 51/31/4 53/87/4 52/88/4
f 14/89/8 32/90/8 31/74/8 13/77/8
f 95/7/18 96/6/18 93/57/18 94/91/18
f 82/72/18 84/92/18 83/93/18 81/73/18
f 92/94/7 89/95/7 90/71/7 91/70/7
f 49/96/6 48/97/6 46/64/6 47/63/6
f 33/75/1 34/98/1 16/99/1 15/76/1
f 64/65/9 65/62/9 60/37/9 61/46/9
f 26/13/8 24/16/8 6/43/8 8/42/8
f 79/82/19 38/100/19 102/49/19 104/48/19
f 79/82/20 100/61/20 98/60/20 38/100/20
f 92/94/21 91/70/21 81/73/21 83/93/21
f 42/38/4 43/45/4 45/44/4 44/39/4
f 71/101/6 69/30/6 68/33/6 70/102/6
f 46/64/1 48/97/1 66/83/1 64/65/1
f 6/43/15 24/16/15 23/15/15 41/81/15 40/27/15 20/22/15 19/21/15 1/34/15 2/28/15 5/40/15
f 40/27/15 41/81/15 5/40/15 2/28/15
f 65/62/8 67/84/8 49/96/8 47/63/8
f 12/103/4 10/86/4 9/85/4 11/104/4
f 90/71/22 89/95/22 84/92/22 82/72/22
f 19/21/1 21/24/1 3/35/1 1/34/1
f 38/100/15 98/60/15 97/59/15 39/20/15 103/19/15 102/49/15
f 80/17/23 39/20/23 97/59/23 99/58/23
f 105/105/24 106/106/24 108/107/24 107/108/24
f 107/108/25 108/107/25 112/109/25 111/110/25
f 111/110/26 112/109/26 110/111/26 109/112/26
f 109/112/27 110/111/27 106/106/27 105/105/27
f 129/113/24 130/114/24 132/115/24 131/116/24
f 110/111/21 112/109/21 115/117/21 116/118/21
f 114/119/18 113/120/18 117/121/18 118/122/18
f 108/107/21 106/106/21 113/120/21 114/119/21
f 106/106/21 110/111/21 116/118/21 113/120/21
f 112/109/21 108/107/21 114/119/21 115/117/21
f 117/121/28 120/123/28 124/124/28 121/125/28
f 113/120/15 116/118/15 120/123/15 117/121/15
f 115/117/9 114/119/9 118/122/9 119/126/9
f 116/118/7 115/117/7 119/126/7 120/123/7
f 124/124/18 123/127/18 127/128/18 128/129/18
f 119/126/28 118/122/28 122/130/28 123/127/28
f 120/123/28 119/126/28 123/127/28 124/124/28
f 118/122/28 117/121/28 121/125/28 122/130/28
f 127/128/28 126/131/28 125/132/28 128/129/28
f 122/130/7 121/125/7 125/132/7 126/131/7
f 121/125/9 124/124/9 128/129/9 125/132/9
f 123/127/15 122/130/15 126/131/15 127/128/15
f 131/116/25 132/115/25 136/133/25 135/134/25
f 135/134/26 136/133/26 134/135/26 133/136/26
f 133/136/27 134/135/27 130/114/27 129/113/27
f 134/135/21 136/133/21 139/137/21 140/138/21
f 138/139/18 137/140/18 141/141/18 142/142/18
f 132/115/21 130/114/21 137/140/21 138/139/21
f 130/114/21 134/135/21 140/138/21 137/140/21
f 136/133/21 132/115/21 138/139/21 139/137/21
f 141/141/28 144/143/28 148/144/28 145/145/28
f 137/140/15 140/138/15 144/143/15 141/141/15
f 139/137/9 138/139/9 142/142/9 143/146/9
f 140/138/7 139/137/7 143/146/7 144/143/7
f 148/144/18 147/147/18 151/148/18 152/149/18
f 143/146/28 142/142/28 146/150/28 147/147/28
f 144/143/28 143/146/28 147/147/28 148/144/28
f 142/142/28 141/141/28 145/145/28 146/150/28
f 151/148/28 150/151/28 149/152/28 152/149/28
f 146/150/7 145/145/7 149/152/7 150/151/7
f 145/145/9 148/144/9 152/149/9 149/152/9
f 147/147/15 146/150/15 150/151/15 151/148/15
