# Blender v2.78 (sub 0) OBJ File: 'decorator_building_watchtower.blend'
# www.blender.org
mtllib decorator_building_watchtower.mtl
o decorator_building_watchtower.001_Cylinder.001
v 0.000000 0.625000 -0.193615
v 0.320658 0.000000 -0.185132
v 0.167675 0.625000 -0.096807
v 0.320658 0.000000 0.185132
v 0.167675 0.625000 0.096807
v -0.000000 0.000000 0.370263
v -0.000000 0.625000 0.193615
v -0.320658 0.000000 0.185132
v -0.167675 0.625000 0.096807
v -0.320658 0.000000 -0.185132
v -0.167675 0.625000 -0.096807
v 0.150629 0.891321 -0.086965
v 0.000000 0.891321 -0.173931
v 0.150629 0.891321 0.086965
v -0.000000 0.891321 0.173931
v -0.150629 0.891321 0.086965
v -0.150629 0.891321 -0.086965
v 0.299467 0.982983 -0.172897
v 0.000000 0.982983 -0.345795
v 0.299467 0.982983 0.172897
v -0.000000 0.982983 0.345795
v -0.299467 0.982983 0.172897
v -0.299467 0.982983 -0.172897
v 0.371695 1.238850 -0.214598
v -0.000000 1.238850 -0.429197
v 0.371695 1.238850 0.214598
v -0.000000 1.238850 0.429197
v -0.371695 1.238850 0.214598
v -0.371695 1.238850 -0.214598
v 0.296208 1.238850 -0.171016
v -0.000000 1.238850 -0.342032
v 0.296208 1.238850 0.171016
v -0.000000 1.238850 0.342032
v -0.296208 1.238850 0.171016
v -0.296208 1.238850 -0.171016
v 0.214600 1.155384 -0.123899
v 0.000000 1.155384 -0.247798
v 0.214600 1.155384 0.123899
v 0.000000 1.155384 0.247798
v -0.214600 1.155384 0.123899
v -0.214600 1.155384 -0.123899
v 0.000000 0.312500 -0.245048
v 0.212218 0.312500 -0.122524
v 0.212218 0.312500 0.122524
v -0.000000 0.312500 0.245048
v -0.212218 0.312500 0.122524
v -0.212218 0.312500 -0.122524
v 0.271864 0.274111 -0.156960
v 0.271864 0.274111 0.156961
v -0.000000 0.274111 0.313921
v -0.271864 0.274111 0.156960
v -0.271864 0.274111 -0.156960
v 0.000000 0.274111 -0.313921
v 0.000000 0.312500 -0.215041
v 0.186231 0.312500 -0.107521
v 0.186231 0.312500 0.107521
v -0.000000 0.312500 0.215041
v -0.186231 0.312500 0.107521
v -0.186231 0.312500 -0.107521
v 0.191033 0.274111 -0.110293
v 0.191033 0.274111 0.110293
v -0.000000 0.274111 0.220586
v -0.191033 0.274111 0.110293
v -0.191033 0.274111 -0.110293
v 0.000000 0.274111 -0.220586
v -0.039299 0.274111 0.375429
v -0.039299 -0.000000 0.431771
v -0.359956 -0.000000 0.246639
v -0.311162 0.274111 0.218468
v -0.012011 0.000000 -0.450012
v 0.308646 0.000000 -0.264880
v 0.259852 0.274111 -0.236709
v -0.283875 0.274111 -0.236709
v -0.332669 0.000000 -0.264880
v -0.012011 0.274111 -0.393670
v 0.023602 0.631728 0.234495
v 0.191278 0.631728 0.137688
v 0.235820 0.319228 0.163405
v 0.023602 0.319228 0.285929
v -0.034317 0.319022 -0.264861
v -0.034317 0.631522 -0.213428
v -0.201992 0.631522 -0.116620
v -0.201992 0.631522 0.076995
v -0.246535 0.319022 0.102711
v -0.246535 0.319022 -0.142337
v 0.214706 0.631704 0.096807
v 0.214706 0.631704 -0.096807
v 0.259249 0.319204 -0.122524
v 0.259249 0.319204 0.122524
v -0.157873 0.648756 -0.091148
v 0.000000 0.648756 -0.182296
v -0.000000 0.648756 0.182296
v -0.157873 0.648756 0.091148
v 0.157873 0.648756 -0.091148
v 0.157873 0.648756 0.091148
v -0.154251 0.847246 -0.089057
v -0.000000 0.847246 0.178113
v 0.154251 0.847246 -0.089057
v 0.000000 0.847246 -0.178113
v -0.154251 0.847246 0.089057
v 0.154251 0.847246 0.089057
v -0.154251 0.848657 0.156038
v -0.157873 0.650167 0.158129
v 0.154251 0.848657 0.156038
v 0.157873 0.650167 0.158129
v -0.000000 0.650167 0.249277
v -0.000000 0.848657 0.245095
v -0.028003 0.848268 -0.226617
v -0.028003 0.649778 -0.230799
v -0.185876 0.649778 -0.139651
v -0.182254 0.848268 -0.137560
v 0.030685 0.848366 -0.231261
v 0.030685 0.649876 -0.235443
v 0.188558 0.649876 -0.144295
v 0.184935 0.848366 -0.142204
v 0.185848 1.238850 -0.321897
v 0.185848 1.238850 0.321897
v -0.371695 1.238850 0.000000
v 0.148104 1.238850 -0.256524
v 0.148104 1.238850 0.256524
v -0.296208 1.238850 0.000000
v 0.371695 1.238850 0.000000
v -0.185848 1.238850 0.321897
v -0.185848 1.238850 -0.321897
v 0.296208 1.238850 0.000000
v -0.148104 1.238850 0.256524
v -0.148104 1.238850 -0.256524
v -0.371695 1.420763 0.214598
v -0.296208 1.420763 0.171016
v -0.296208 1.420763 -0.171016
v -0.371695 1.420763 -0.214598
v 0.371695 1.420763 0.214598
v 0.296208 1.420763 0.171016
v -0.000000 1.420763 0.342032
v -0.000000 1.420763 0.429197
v -0.000000 1.420763 -0.429197
v -0.000000 1.420763 -0.342032
v 0.296208 1.420763 -0.171016
v 0.371695 1.420763 -0.214598
v 0.185848 1.420763 -0.321897
v 0.185848 1.420763 0.321897
v -0.371695 1.420763 0.000000
v 0.148104 1.420763 -0.256524
v 0.148104 1.420763 0.256524
v -0.296208 1.420763 0.000000
v 0.371695 1.420763 0.000000
v -0.185848 1.420763 0.321897
v -0.185848 1.420763 -0.321897
v 0.296208 1.420763 0.000000
v -0.148104 1.420763 0.256524
v -0.148104 1.420763 -0.256524
v -0.000000 1.123872 -0.023037
v -0.000000 1.952079 -0.023037
v 0.016127 1.123872 0.004895
v 0.016127 1.952079 0.004895
v -0.016127 1.123872 0.004895
v -0.016127 1.952079 0.004895
v 0.005613 1.664782 -0.005743
v 0.005613 1.919143 -0.005743
v -0.005613 1.664782 -0.005743
v -0.005613 1.919143 -0.005743
v -0.000000 1.791963 0.284148
vt 0.8750 0.6250
vt 0.8750 0.6250
vt 0.8750 0.6250
vt 0.8750 0.6250
vt 0.8750 0.6250
vt 0.8750 0.6250
vt 0.8750 0.6250
vt 0.8750 0.6250
vt 0.8750 0.6250
vt 0.8750 0.6250
vt 0.8750 0.6250
vt 0.8750 0.6250
vt 0.8750 0.6250
vt 0.8750 0.6250
vt 0.8750 0.6250
vt 0.8750 0.6250
vt 0.8750 0.6250
vt 0.8750 0.6250
vt 0.8750 0.6250
vt 0.8750 0.6250
vt 0.8750 0.6250
vt 0.8750 0.6250
vt 0.8750 0.6250
vt 0.8750 0.6250
vt 0.8750 0.6250
vt 0.8750 0.6250
vt 0.8750 0.6250
vt 0.8750 0.6250
vt 0.8750 0.6250
vt 0.8750 0.6250
vt 0.8750 0.6250
vt 0.8750 0.6250
vt 0.8750 0.6250
vt 0.8750 0.6250
vt 0.8750 0.6250
vt 0.8750 0.6250
vt 0.8750 0.6250
vt 0.8750 0.6250
vt 0.8750 0.6250
vt 0.8750 0.6250
vt 0.8750 0.6250
vt 0.8750 0.6250
vt 0.8750 0.6250
vt 0.8750 0.6250
vt 0.8750 0.6250
vt 0.8750 0.6250
vt 0.8750 0.6250
vt 0.8750 0.6250
vt 0.8750 0.6250
vt 0.8750 0.6250
vt 0.8750 0.6250
vt 0.8750 0.6250
vt 0.8750 0.6250
vt 0.8750 0.6250
vt 0.8750 0.6250
vt 0.8750 0.6250
vt 0.8750 0.6250
vt 0.8750 0.6250
vt 0.8750 0.6250
vt 0.8750 0.6250
vt 0.8750 0.6250
vt 0.8750 0.6250
vt 0.8750 0.6250
vt 0.8750 0.6250
vt 0.8750 0.6250
vt 0.8750 0.6250
vt 0.8750 0.6250
vt 0.8750 0.6250
vt 0.8750 0.6250
vt 0.8750 0.6250
vt 0.8750 0.6250
vt 0.8750 0.6250
vt 0.8750 0.6250
vt 0.8750 0.6250
vt 0.8750 0.6250
vt 0.8750 0.6250
vt 0.8750 0.6250
vt 0.8750 0.6250
vt 0.8750 0.6250
vt 0.8750 0.6250
vt 0.8750 0.6250
vt 0.8750 0.6250
vt 0.8750 0.6250
vt 0.8750 0.6250
vt 0.8750 0.6250
vt 0.8750 0.6250
vt 0.8750 0.6250
vt 0.8750 0.6250
vt 0.8750 0.6250
vt 0.8750 0.6250
vt 0.8750 0.6250
vt 0.8750 0.6250
vt 0.8750 0.6250
vt 0.8750 0.6250
vt 0.8750 0.6250
vt 0.8750 0.6250
vt 0.8750 0.6250
vt 0.8750 0.6250
vt 0.8750 0.6250
vt 0.8750 0.6250
vt 0.8750 0.6250
vt 0.8750 0.6250
vt 0.8750 0.6250
vt 0.8750 0.6250
vt 0.8750 0.6250
vt 0.8750 0.6250
vt 0.8750 0.6250
vt 0.8750 0.6250
vt 0.8750 0.6250
vt 0.8750 0.6250
vt 0.8750 0.6250
vt 0.8750 0.6250
vt 0.8750 0.6250
vt 0.8750 0.6250
vt 0.8750 0.6250
vt 0.8750 0.6250
vt 0.8750 0.6250
vt 0.8750 0.6250
vt 0.8750 0.6250
vt 0.8750 0.6250
vt 0.8750 0.6250
vt 0.8750 0.6250
vt 0.8750 0.6250
vt 0.8750 0.6250
vt 0.8750 0.6250
vt 0.8750 0.6250
vt 0.8750 0.6250
vt 0.8750 0.6250
vt 0.8750 0.6250
vt 0.8750 0.6250
vt 0.8750 0.6250
vt 0.8750 0.6250
vt 0.8750 0.6250
vt 0.8750 0.6250
vt 0.8750 0.6250
vt 0.8750 0.6250
vt 0.8750 0.6250
vt 0.8750 0.6250
vt 0.8750 0.6250
vt 0.8750 0.6250
vt 0.8750 0.6250
vt 0.8750 0.6250
vt 0.8750 0.6250
vt 0.8750 0.6250
vt 0.8750 0.6250
vt 0.8750 0.6250
vt 0.8750 0.6250
vt 0.8750 0.6250
vt 0.8750 0.6250
vt 0.8750 0.6250
vt 0.1250 0.6250
vt 0.1250 0.6250
vt 0.1250 0.6250
vt 0.1250 0.6250
vt 0.1250 0.6250
vt 0.1250 0.6250
vt 0.3750 0.8750
vt 0.3750 0.8750
vt 0.3750 0.8750
vt 0.3750 0.8750
vt 0.3750 0.8750
vt 0.8750 0.6250
vn -0.0122 0.9997 -0.0211
vn 0.1411 -0.9900 0.0000
vn 0.8574 0.0804 -0.5083
vn 0.5148 0.1392 -0.8459
vn -0.4983 0.0819 -0.8631
vn -0.0934 -0.9824 -0.1617
vn -0.5244 -0.8515 0.0000
vn -0.4983 0.0819 0.8631
vn -0.9998 0.0182 0.0000
vn 0.4983 0.0819 -0.8631
vn 0.4983 0.0819 0.8631
vn -0.4812 -0.2717 -0.8335
vn 0.2622 -0.8515 0.4541
vn 0.2622 -0.8515 -0.4541
vn -0.2622 -0.8515 -0.4541
vn -0.2622 -0.8515 0.4541
vn 0.5244 -0.8515 0.0000
vn 0.0000 1.0000 0.0000
vn -0.4812 -0.2717 0.8335
vn 0.9624 -0.2717 0.0000
vn -0.9624 -0.2717 0.0000
vn 0.4812 -0.2717 0.8335
vn 0.4812 -0.2717 -0.8335
vn 0.3575 0.6991 0.6192
vn 0.3575 0.6991 -0.6192
vn -0.7150 0.6991 0.0000
vn 0.7150 0.6991 0.0000
vn -0.3575 0.6991 -0.6192
vn -0.3575 0.6991 0.6192
vn 0.0000 -1.0000 0.0000
vn 0.9845 0.1753 0.0000
vn 0.4923 0.1753 0.8526
vn -0.9845 0.1753 0.0000
vn -0.9763 0.1587 0.1470
vn -0.4961 0.1241 -0.8593
vn -0.9923 0.1241 0.0000
vn -0.4961 0.1241 0.8593
vn 0.4961 0.1241 0.8593
vn 0.9923 0.1241 0.0000
vn 0.4961 0.1241 -0.8593
vn -0.4923 0.1753 0.8526
vn 0.8376 0.1100 0.5351
vn -0.8389 0.0942 -0.5360
vn 0.4923 0.1753 -0.8526
vn -0.4923 0.1753 -0.8526
vn 0.9712 0.1879 -0.1463
vn 0.4950 0.1411 0.8574
vn 0.0706 -0.9900 0.1222
vn -0.0706 0.9900 -0.1222
vn -0.8689 0.0804 0.4884
vn -0.9900 0.1411 0.0000
vn -0.4950 0.1411 -0.8574
vn 0.1867 0.9824 0.0000
vn -0.1867 -0.9824 0.0000
vn 0.0934 0.9824 0.1617
vn 0.9900 0.1411 0.0000
vn -0.1411 0.9900 0.0000
vn -0.0115 0.0804 0.9967
vn -0.0115 0.0804 -0.9967
vn 0.4622 0.3814 0.8005
vn 0.4622 0.3814 -0.8005
vn -0.9244 0.3814 0.0000
vn 0.9244 0.3814 0.0000
vn -0.4622 0.3814 0.8005
vn -0.4622 0.3814 -0.8005
vn -0.0122 -0.9997 0.0211
vn 0.0091 -0.9998 -0.0158
vn -0.4950 0.1411 0.8574
vn -0.0091 -0.9998 -0.0158
vn 0.4999 0.0182 0.8659
vn -0.4999 0.0182 0.8659
vn 0.9966 0.0819 0.0000
vn -0.4999 0.0182 -0.8659
vn 0.8661 0.0105 -0.4998
vn -0.8659 0.0105 0.5001
vn 0.0091 0.9998 0.0158
vn 0.4999 0.0182 -0.8659
vn 0.8659 0.0105 0.5001
vn -0.8661 0.0105 -0.4998
vn -0.0091 0.9998 0.0158
vn -0.5000 0.0000 0.8660
vn -0.8660 0.0000 0.5000
vn -1.0000 0.0000 0.0000
vn 0.5000 0.0000 0.8660
vn 1.0000 0.0000 0.0000
vn 0.8660 0.0000 0.5000
vn -0.5000 0.0000 -0.8660
vn 0.5000 0.0000 -0.8660
vn -0.8660 0.0000 -0.5000
vn 0.8660 0.0000 -0.5000
vn 0.0000 0.0000 -1.0000
vn 0.0000 0.0000 1.0000
vn -0.9998 0.0000 0.0194
vn 0.0000 -0.9157 0.4018
vn 0.0000 0.9157 0.4018
vn 0.9998 0.0000 0.0194
vn 0.0122 0.9997 -0.0211
vn 0.4950 0.1411 -0.8574
vn -0.9998 0.0182 -0.0004
vn -0.9966 0.0819 0.0000
vn 0.0122 -0.9997 0.0211
vn -0.4752 0.1392 0.8688
vn 0.9998 0.0182 -0.0004
vn 0.9998 0.0182 0.0000
usemtl None
s off
f 97/1/1 104/2/1 101/3/1
f 43/4/2 89/5/2 44/6/2
f 5/7/3 78/8/3 44/6/3
f 80/9/4 1/10/4 42/11/4
f 96/12/5 13/13/5 99/14/5
f 47/15/6 80/9/6 42/11/6
f 16/16/7 23/17/7 17/18/7
f 97/1/8 16/16/8 100/19/8
f 100/19/9 96/12/9 90/20/9
f 99/14/10 12/21/10 98/22/10
f 97/1/11 14/23/11 15/24/11
f 23/17/12 124/25/12 19/26/12
f 14/23/13 21/27/13 15/24/13
f 12/21/14 19/26/14 18/28/14
f 17/18/15 19/26/15 13/13/15
f 15/24/16 22/29/16 16/16/16
f 12/21/17 20/30/17 14/23/17
f 118/31/18 34/32/18 121/33/18
f 21/27/19 123/34/19 22/29/19
f 18/28/20 122/35/20 20/30/20
f 22/29/21 118/31/21 23/17/21
f 20/30/22 117/36/22 21/27/22
f 19/26/23 116/37/23 18/28/23
f 127/38/24 41/39/24 37/40/24
f 117/36/18 32/41/18 120/42/18
f 116/37/18 31/43/18 119/44/18
f 124/25/18 35/45/18 127/38/18
f 123/34/18 33/46/18 126/47/18
f 122/35/18 30/48/18 125/49/18
f 37/40/18 39/50/18 38/51/18
f 126/47/25 39/50/25 40/52/25
f 125/49/26 36/53/26 38/51/26
f 121/33/27 40/52/27 41/39/27
f 120/42/28 38/51/28 39/50/28
f 119/44/29 37/40/29 36/53/29
f 65/54/18 53/55/18 73/56/18
f 43/4/30 56/57/30 55/58/30
f 2/59/30 6/60/30 8/61/30
f 48/62/31 4/63/31 2/59/31
f 49/64/32 6/60/32 4/63/32
f 51/65/33 10/66/33 8/61/33
f 10/66/34 73/56/34 74/67/34
f 59/68/35 65/54/35 64/69/35
f 58/70/36 64/69/36 63/71/36
f 57/72/37 63/71/37 62/73/37
f 61/74/38 57/72/38 62/73/38
f 55/58/39 61/74/39 60/75/39
f 54/76/40 60/75/40 65/54/40
f 66/77/41 68/78/41 67/79/41
f 6/60/42 66/77/42 67/79/42
f 8/61/43 69/80/43 51/65/43
f 49/64/18 62/73/18 50/81/18
f 75/82/44 71/83/44 70/84/44
f 73/56/45 70/84/45 74/67/45
f 2/59/46 72/85/46 48/62/46
f 77/86/47 79/87/47 78/8/47
f 44/6/48 79/87/48 45/88/48
f 7/89/49 77/86/49 5/7/49
f 45/88/50 76/90/50 7/89/50
f 83/91/51 85/92/51 84/93/51
f 82/94/52 80/9/52 85/92/52
f 11/95/53 83/91/53 9/96/53
f 47/15/54 84/93/54 85/92/54
f 11/95/55 81/97/55 82/94/55
f 87/98/56 89/5/56 88/99/56
f 5/7/57 87/98/57 3/100/57
f 5/7/58 89/5/58 86/101/58
f 3/100/59 88/99/59 43/4/59
f 5/7/60 92/102/60 7/89/60
f 1/10/61 94/103/61 3/100/61
f 9/96/62 90/20/62 11/95/62
f 3/100/63 95/104/63 5/7/63
f 7/89/64 93/105/64 9/96/64
f 11/95/65 91/106/65 1/10/65
f 92/102/66 103/107/66 93/105/66
f 94/103/67 113/108/67 114/109/67
f 46/110/30 47/15/30 58/70/30
f 9/96/68 46/110/68 45/88/68
f 90/20/69 109/111/69 91/106/69
f 105/112/70 107/113/70 106/114/70
f 106/114/71 102/115/71 103/107/71
f 101/3/72 98/22/72 12/21/72
f 109/111/73 111/116/73 108/117/73
f 91/106/74 108/117/74 99/14/74
f 90/20/75 111/116/75 110/118/75
f 99/14/76 111/116/76 96/12/76
f 113/108/77 115/119/77 114/109/77
f 98/22/78 114/109/78 115/119/78
f 99/14/79 113/108/79 91/106/79
f 98/22/80 112/120/80 99/14/80
f 123/34/81 128/121/81 28/122/81
f 127/38/82 148/123/82 124/25/82
f 118/31/83 131/124/83 29/125/83
f 24/126/84 138/127/84 30/48/84
f 122/35/85 132/128/85 26/129/85
f 126/47/86 147/130/86 123/34/86
f 140/131/18 138/127/18 139/132/18
f 141/133/18 134/134/18 135/135/18
f 142/136/18 130/137/18 131/124/18
f 146/138/18 133/139/18 132/128/18
f 147/130/18 129/140/18 128/121/18
f 148/123/18 137/141/18 136/142/18
f 30/48/81 143/143/81 119/44/81
f 124/25/87 136/142/87 25/144/87
f 33/46/87 144/145/87 120/42/87
f 28/122/87 129/140/87 34/32/87
f 32/41/83 149/146/83 125/49/83
f 35/45/85 145/147/85 121/33/85
f 29/125/88 130/137/88 35/45/88
f 34/32/88 150/148/88 126/47/88
f 119/44/89 140/131/89 116/37/89
f 26/129/81 133/139/81 32/41/81
f 31/43/84 151/149/84 127/38/84
f 120/42/90 141/133/90 117/36/90
f 27/150/83 134/134/83 33/46/83
f 116/37/88 139/132/88 24/126/88
f 125/49/91 146/138/91 122/35/91
f 121/33/92 142/136/92 118/31/92
f 25/144/85 137/141/85 31/43/85
f 117/36/84 135/135/84 27/150/84
f 153/151/90 154/152/90 152/153/90
f 155/154/92 156/155/92 154/152/92
f 155/154/18 153/151/18 157/156/18
f 157/156/89 152/153/89 156/155/89
f 161/157/93 160/158/93 162/159/93
f 160/158/94 158/160/94 162/159/94
f 159/161/95 161/157/95 162/159/95
f 158/160/96 159/161/96 162/159/96
f 97/1/97 100/19/97 102/115/97
f 107/113/1 104/2/1 97/1/1
f 97/1/97 102/115/97 107/113/97
f 43/4/2 88/99/2 89/5/2
f 5/7/3 77/86/3 78/8/3
f 43/4/98 42/11/98 1/10/98
f 80/9/4 81/97/4 1/10/4
f 1/10/98 3/100/98 43/4/98
f 96/12/5 17/18/5 13/13/5
f 47/15/6 85/92/6 80/9/6
f 16/16/7 22/29/7 23/17/7
f 97/1/8 15/24/8 16/16/8
f 90/20/9 93/105/9 100/19/9
f 103/107/99 102/115/99 100/19/99
f 100/19/100 16/16/100 17/18/100
f 17/18/100 96/12/100 100/19/100
f 93/105/99 103/107/99 100/19/99
f 99/14/10 13/13/10 12/21/10
f 97/1/11 101/3/11 14/23/11
f 25/144/12 19/26/12 124/25/12
f 23/17/12 29/125/12 124/25/12
f 14/23/13 20/30/13 21/27/13
f 12/21/14 13/13/14 19/26/14
f 17/18/15 23/17/15 19/26/15
f 15/24/16 21/27/16 22/29/16
f 12/21/17 18/28/17 20/30/17
f 118/31/18 28/122/18 34/32/18
f 28/122/19 22/29/19 123/34/19
f 21/27/19 27/150/19 123/34/19
f 26/129/20 20/30/20 122/35/20
f 18/28/20 24/126/20 122/35/20
f 29/125/21 23/17/21 118/31/21
f 22/29/21 28/122/21 118/31/21
f 27/150/22 21/27/22 117/36/22
f 20/30/22 26/129/22 117/36/22
f 24/126/23 18/28/23 116/37/23
f 19/26/23 25/144/23 116/37/23
f 37/40/24 31/43/24 127/38/24
f 127/38/24 35/45/24 41/39/24
f 117/36/18 26/129/18 32/41/18
f 116/37/18 25/144/18 31/43/18
f 124/25/18 29/125/18 35/45/18
f 123/34/18 27/150/18 33/46/18
f 122/35/18 24/126/18 30/48/18
f 38/51/18 36/53/18 37/40/18
f 37/40/18 41/39/18 40/52/18
f 40/52/18 39/50/18 37/40/18
f 40/52/25 34/32/25 126/47/25
f 126/47/25 33/46/25 39/50/25
f 38/51/26 32/41/26 125/49/26
f 125/49/26 30/48/26 36/53/26
f 41/39/27 35/45/27 121/33/27
f 121/33/27 34/32/27 40/52/27
f 39/50/28 33/46/28 120/42/28
f 120/42/28 32/41/28 38/51/28
f 36/53/29 30/48/29 119/44/29
f 119/44/29 31/43/29 37/40/29
f 52/162/18 51/65/18 63/71/18
f 64/69/18 65/54/18 73/56/18
f 52/162/18 63/71/18 64/69/18
f 75/82/18 73/56/18 53/55/18
f 48/62/18 72/85/18 53/55/18
f 52/162/18 64/69/18 73/56/18
f 53/55/18 72/85/18 75/82/18
f 43/4/30 44/6/30 56/57/30
f 10/66/30 74/67/30 70/84/30
f 70/84/30 71/83/30 2/59/30
f 2/59/30 4/63/30 6/60/30
f 6/60/30 67/79/30 8/61/30
f 8/61/30 10/66/30 2/59/30
f 67/79/30 68/78/30 8/61/30
f 70/84/30 2/59/30 10/66/30
f 48/62/31 49/64/31 4/63/31
f 49/64/32 50/81/32 6/60/32
f 51/65/33 52/162/33 10/66/33
f 10/66/34 52/162/34 73/56/34
f 59/68/35 54/76/35 65/54/35
f 58/70/36 59/68/36 64/69/36
f 57/72/37 58/70/37 63/71/37
f 61/74/38 56/57/38 57/72/38
f 55/58/39 56/57/39 61/74/39
f 54/76/40 55/58/40 60/75/40
f 66/77/41 69/80/41 68/78/41
f 6/60/42 50/81/42 66/77/42
f 8/61/43 68/78/43 69/80/43
f 48/62/18 53/55/18 65/54/18
f 48/62/18 65/54/18 60/75/18
f 69/80/18 66/77/18 51/65/18
f 63/71/18 51/65/18 66/77/18
f 62/73/18 63/71/18 66/77/18
f 49/64/18 48/62/18 60/75/18
f 49/64/18 60/75/18 61/74/18
f 62/73/18 66/77/18 50/81/18
f 49/64/18 61/74/18 62/73/18
f 75/82/44 72/85/44 71/83/44
f 73/56/45 75/82/45 70/84/45
f 2/59/46 71/83/46 72/85/46
f 77/86/47 76/90/47 79/87/47
f 44/6/48 78/8/48 79/87/48
f 7/89/49 76/90/49 77/86/49
f 45/88/50 79/87/50 76/90/50
f 83/91/51 82/94/51 85/92/51
f 82/94/52 81/97/52 80/9/52
f 11/95/53 82/94/53 83/91/53
f 47/15/54 46/110/54 84/93/54
f 11/95/55 1/10/55 81/97/55
f 87/98/56 86/101/56 89/5/56
f 5/7/57 86/101/57 87/98/57
f 5/7/58 44/6/58 89/5/58
f 3/100/59 87/98/59 88/99/59
f 5/7/60 95/104/60 92/102/60
f 1/10/61 91/106/61 94/103/61
f 9/96/62 93/105/62 90/20/62
f 3/100/63 94/103/63 95/104/63
f 7/89/64 92/102/64 93/105/64
f 11/95/65 90/20/65 91/106/65
f 92/102/101 95/104/101 105/112/101
f 106/114/66 103/107/66 92/102/66
f 92/102/101 105/112/101 106/114/101
f 94/103/67 91/106/67 113/108/67
f 42/11/30 43/4/30 55/58/30
f 42/11/30 55/58/30 54/76/30
f 56/57/30 44/6/30 45/88/30
f 57/72/30 56/57/30 45/88/30
f 47/15/30 42/11/30 59/68/30
f 42/11/30 54/76/30 59/68/30
f 57/72/30 45/88/30 46/110/30
f 47/15/30 59/68/30 58/70/30
f 58/70/30 57/72/30 46/110/30
f 9/96/102 83/91/102 84/93/102
f 84/93/102 46/110/102 9/96/102
f 45/88/68 7/89/68 9/96/68
f 90/20/69 110/118/69 109/111/69
f 105/112/70 104/2/70 107/113/70
f 106/114/71 107/113/71 102/115/71
f 101/3/103 104/2/103 105/112/103
f 105/112/103 95/104/103 101/3/103
f 94/103/104 98/22/104 101/3/104
f 12/21/72 14/23/72 101/3/72
f 101/3/104 95/104/104 94/103/104
f 109/111/73 110/118/73 111/116/73
f 91/106/74 109/111/74 108/117/74
f 90/20/75 96/12/75 111/116/75
f 99/14/76 108/117/76 111/116/76
f 113/108/77 112/120/77 115/119/77
f 98/22/78 94/103/78 114/109/78
f 99/14/79 112/120/79 113/108/79
f 98/22/80 115/119/80 112/120/80
f 123/34/81 147/130/81 128/121/81
f 127/38/82 151/149/82 148/123/82
f 118/31/83 142/136/83 131/124/83
f 24/126/84 139/132/84 138/127/84
f 122/35/85 146/138/85 132/128/85
f 126/47/86 150/148/86 147/130/86
f 140/131/18 143/143/18 138/127/18
f 141/133/18 144/145/18 134/134/18
f 142/136/18 145/147/18 130/137/18
f 146/138/18 149/146/18 133/139/18
f 147/130/18 150/148/18 129/140/18
f 148/123/18 151/149/18 137/141/18
f 30/48/81 138/127/81 143/143/81
f 124/25/87 148/123/87 136/142/87
f 33/46/87 134/134/87 144/145/87
f 28/122/87 128/121/87 129/140/87
f 32/41/83 133/139/83 149/146/83
f 35/45/85 130/137/85 145/147/85
f 29/125/88 131/124/88 130/137/88
f 34/32/88 129/140/88 150/148/88
f 119/44/89 143/143/89 140/131/89
f 26/129/81 132/128/81 133/139/81
f 31/43/84 137/141/84 151/149/84
f 120/42/90 144/145/90 141/133/90
f 27/150/83 135/135/83 134/134/83
f 116/37/88 140/131/88 139/132/88
f 125/49/91 149/146/91 146/138/91
f 121/33/92 145/147/92 142/136/92
f 25/144/85 136/142/85 137/141/85
f 117/36/84 141/133/84 135/135/84
f 153/151/90 155/154/90 154/152/90
f 155/154/92 157/156/92 156/155/92
f 157/156/89 153/151/89 152/153/89
