# Blender v2.78 (sub 0) OBJ File: 'decorator_building_ruins.blend'
# www.blender.org
mtllib decorator_building_ruins.mtl
o decorator_building_ruins.001_Cube
v -0.608276 0.003433 0.100000
v -0.608276 0.528971 0.100000
v -0.608276 0.003433 -0.100000
v -0.608276 0.528971 -0.100000
v -0.478104 0.003433 0.100000
v -0.478104 0.528971 0.100000
v -0.478104 0.003433 -0.100000
v -0.478104 0.528971 -0.100000
v -0.550341 0.003433 -0.277713
v -0.550341 0.530445 -0.277713
v -0.432467 0.003433 -0.439286
v -0.432467 0.530445 -0.439286
v -0.445180 0.003433 -0.200993
v -0.445180 0.530445 -0.200993
v -0.327306 0.003433 -0.362566
v -0.327306 0.530445 -0.362566
v -0.271893 0.003433 -0.553240
v -0.271893 0.555266 -0.553240
v -0.080466 0.003433 -0.611167
v -0.080466 0.555266 -0.611167
v -0.234190 0.003433 -0.428647
v -0.234190 0.555266 -0.428647
v -0.042763 0.003433 -0.486574
v -0.042763 0.555266 -0.486574
v 0.451963 0.003433 -0.419201
v 0.439998 0.429374 -0.419201
v 0.562381 0.003433 -0.252444
v 0.550307 0.434260 -0.252444
v 0.343427 0.003433 -0.347334
v 0.331568 0.424571 -0.347334
v 0.453845 0.003433 -0.180577
v 0.441878 0.429457 -0.180577
v 0.484346 0.003433 0.381325
v 0.484346 0.128857 0.381325
v 0.336775 0.003433 0.516316
v 0.336775 0.128857 0.516316
v 0.396485 0.003433 0.285276
v 0.396485 0.128857 0.285276
v 0.248914 0.003433 0.420268
v 0.248914 0.128857 0.420268
v -0.500559 0.657848 -0.100313
v -0.026924 0.695188 -0.531159
v -0.634124 0.642981 -0.248432
v -0.160490 0.680320 -0.679278
v -0.488446 0.528257 -0.098228
v -0.014811 0.565596 -0.529074
v -0.622011 0.513390 -0.246347
v -0.148377 0.550729 -0.677193
v 0.003167 0.003433 0.616433
v 0.003167 0.420333 0.616433
v -0.194348 0.003433 0.585003
v -0.194348 0.420333 0.585003
v 0.023624 0.003433 0.487878
v 0.023624 0.420333 0.487878
v -0.173891 0.003433 0.456448
v -0.173891 0.420333 0.456448
v 0.600134 0.003433 -0.140853
v 0.600134 0.413827 -0.140853
v 0.613641 0.003433 0.058690
v 0.613641 0.413827 0.058690
v 0.470258 0.003433 -0.132062
v 0.470258 0.413827 -0.132062
v 0.483766 0.003433 0.067482
v 0.483766 0.413827 0.067482
v 0.277631 0.542704 -0.428419
v 0.503733 0.580043 0.170611
v 0.464533 0.527836 -0.498037
v 0.690635 0.565175 0.100992
v 0.271231 0.413113 -0.417925
v 0.497333 0.450452 0.181104
v 0.458133 0.398245 -0.487544
v 0.684235 0.435584 0.111486
v -0.298057 0.003433 0.539594
v -0.298645 0.165069 0.537328
v -0.455118 0.003433 0.415773
v -0.453290 0.210704 0.418997
v -0.217466 0.003433 0.437369
v -0.219294 0.166420 0.434146
v -0.374528 0.003433 0.313548
v -0.373940 0.212055 0.315815
vt 0.9180 0.6016
vt 0.9180 0.6016
vt 0.9180 0.6016
vt 0.9180 0.6016
vt 0.9180 0.6016
vt 0.9180 0.6016
vt 0.9180 0.6016
vt 0.9180 0.6016
vt 0.9180 0.6016
vt 0.9180 0.6016
vt 0.9180 0.6016
vt 0.9180 0.6016
vt 0.9180 0.6016
vt 0.9180 0.6016
vt 0.9180 0.6016
vt 0.9180 0.6016
vt 0.9180 0.6016
vt 0.9180 0.6016
vt 0.9180 0.6016
vt 0.9180 0.6016
vt 0.9180 0.6016
vt 0.9180 0.6016
vt 0.9180 0.6016
vt 0.9180 0.6016
vt 0.9180 0.6016
vt 0.9180 0.6016
vt 0.9180 0.6016
vt 0.9180 0.6016
vt 0.9180 0.6016
vt 0.9180 0.6016
vt 0.9180 0.6016
vt 0.9180 0.6016
vt 0.9180 0.6016
vt 0.9180 0.6016
vt 0.9180 0.6016
vt 0.9180 0.6016
vt 0.9180 0.6016
vt 0.9180 0.6016
vt 0.9180 0.6016
vt 0.9180 0.6016
vt 0.9180 0.6016
vt 0.9180 0.6016
vt 0.9180 0.6016
vt 0.9180 0.6016
vt 0.9180 0.6016
vt 0.9180 0.6016
vt 0.9180 0.6016
vt 0.9180 0.6016
vt 0.9180 0.6016
vt 0.9180 0.6016
vt 0.9180 0.6016
vt 0.9180 0.6016
vt 0.9180 0.6016
vt 0.9180 0.6016
vt 0.9180 0.6016
vt 0.9180 0.6016
vt 0.9180 0.6016
vt 0.9180 0.6016
vt 0.9180 0.6016
vt 0.9180 0.6016
vt 0.9180 0.6016
vt 0.9180 0.6016
vt 0.9180 0.6016
vt 0.9180 0.6016
vt 0.9180 0.6016
vt 0.9180 0.6016
vt 0.9180 0.6016
vt 0.9180 0.6016
vt 0.9180 0.6016
vt 0.9180 0.6016
vt 0.9180 0.6016
vt 0.9180 0.6016
vt 0.9180 0.6016
vt 0.9180 0.6016
vt 0.9180 0.6016
vt 0.9180 0.6016
vt 0.9180 0.6016
vt 0.9180 0.6016
vt 0.9180 0.6016
vt 0.9180 0.6016
vn -1.0000 0.0000 0.0000
vn 0.0000 0.0000 -1.0000
vn 1.0000 0.0000 0.0000
vn 0.0000 0.0000 1.0000
vn 0.0000 -1.0000 0.0000
vn 0.0000 1.0000 0.0000
vn -0.8079 0.0000 -0.5894
vn 0.5894 0.0000 -0.8079
vn 0.8079 0.0000 0.5894
vn -0.5894 0.0000 0.8079
vn -0.2896 0.0000 -0.9571
vn 0.9571 0.0000 -0.2896
vn 0.2896 0.0000 0.9571
vn -0.9571 0.0000 0.2896
vn 0.8336 0.0234 -0.5519
vn 0.5520 0.0155 0.8337
vn -0.8336 -0.0234 0.5519
vn -0.5520 -0.0155 -0.8337
vn -0.0443 0.9990 0.0000
vn 0.6750 0.0000 0.7379
vn -0.7379 0.0000 0.6750
vn -0.6750 0.0000 -0.7379
vn 0.7379 0.0000 -0.6750
vn -0.0931 0.9955 -0.0160
vn -0.6678 -0.0743 -0.7406
vn 0.0931 -0.9955 0.0160
vn 0.6678 0.0743 0.7406
vn -0.7385 -0.0582 0.6718
vn 0.7385 0.0582 -0.6718
vn -0.1572 0.0000 0.9876
vn -0.9876 0.0000 -0.1571
vn 0.1572 0.0000 -0.9876
vn 0.9876 0.0000 0.1571
vn 0.9977 0.0000 -0.0675
vn 0.0675 0.0000 0.9977
vn -0.9977 0.0000 0.0675
vn -0.0675 0.0000 -0.9977
vn 0.0492 0.9955 -0.0806
vn 0.9345 -0.0743 -0.3481
vn -0.0492 -0.9955 0.0806
vn -0.9345 0.0743 0.3481
vn -0.3525 -0.0582 -0.9340
vn 0.3525 0.0582 0.9340
vn -0.6191 0.0088 0.7853
vn -0.7853 0.0089 -0.6191
vn 0.6191 -0.0086 -0.7853
vn 0.7853 0.0115 0.6191
vn 0.1747 0.9736 0.1471
vn 0.8335 0.0234 -0.5520
vn 0.5519 0.0155 0.8338
vn -0.8335 -0.0235 0.5520
vn -0.5519 -0.0155 -0.8338
vn -0.1571 0.0000 0.9876
vn 0.1571 0.0000 -0.9876
vn 0.9876 0.0000 0.1572
vn -0.6090 -0.0070 0.7932
vn -0.7927 0.0165 -0.6094
vn 0.6090 0.0069 -0.7932
vn 0.7924 0.0209 0.6097
usemtl None
s off
f 2/1/1 3/2/1 1/3/1
f 4/4/2 7/5/2 3/2/2
f 8/6/3 5/7/3 7/5/3
f 6/8/4 1/3/4 5/7/4
f 7/5/5 1/3/5 3/2/5
f 4/4/6 6/8/6 8/6/6
f 10/9/7 11/10/7 9/11/7
f 12/12/8 15/13/8 11/10/8
f 16/14/9 13/15/9 15/13/9
f 14/16/10 9/11/10 13/15/10
f 11/10/5 13/15/5 9/11/5
f 12/12/6 14/16/6 16/14/6
f 18/17/11 19/18/11 17/19/11
f 20/20/12 23/21/12 19/18/12
f 24/22/13 21/23/13 23/21/13
f 22/24/14 17/19/14 21/23/14
f 19/18/5 21/23/5 17/19/5
f 20/20/6 22/24/6 24/22/6
f 25/25/15 28/26/15 27/27/15
f 28/26/16 31/28/16 27/27/16
f 32/29/17 29/30/17 31/28/17
f 29/30/18 26/31/18 25/25/18
f 27/27/5 29/30/5 25/25/5
f 28/26/19 30/32/19 32/29/19
f 34/33/20 35/34/20 33/35/20
f 36/36/21 39/37/21 35/34/21
f 40/38/22 37/39/22 39/37/22
f 38/40/23 33/35/23 37/39/23
f 35/34/5 37/39/5 33/35/5
f 36/36/6 38/40/6 40/38/6
f 41/41/24 44/42/24 43/43/24
f 44/42/25 47/44/25 43/43/25
f 47/44/26 46/45/26 45/46/26
f 46/45/27 41/41/27 45/46/27
f 43/43/28 45/46/28 41/41/28
f 44/42/29 46/45/29 48/47/29
f 50/48/30 51/49/30 49/50/30
f 52/51/31 55/52/31 51/49/31
f 56/53/32 53/54/32 55/52/32
f 54/55/33 49/50/33 53/54/33
f 55/52/5 49/50/5 51/49/5
f 52/51/6 54/55/6 56/53/6
f 58/56/34 59/57/34 57/58/34
f 60/59/35 63/60/35 59/57/35
f 64/61/36 61/62/36 63/60/36
f 62/63/37 57/58/37 61/62/37
f 63/60/5 57/58/5 59/57/5
f 64/61/6 58/56/6 62/63/6
f 65/64/38 68/65/38 67/66/38
f 68/65/39 71/67/39 67/66/39
f 72/68/40 69/69/40 71/67/40
f 70/70/41 65/64/41 69/69/41
f 71/67/42 65/64/42 67/66/42
f 68/65/43 70/70/43 72/68/43
f 74/71/44 75/72/44 73/73/44
f 75/72/45 80/74/45 79/75/45
f 79/75/46 78/76/46 77/77/46
f 77/77/47 74/71/47 73/73/47
f 75/72/5 77/77/5 73/73/5
f 76/78/48 78/76/48 80/74/48
f 2/1/1 4/4/1 3/2/1
f 4/4/2 8/6/2 7/5/2
f 8/6/3 6/8/3 5/7/3
f 6/8/4 2/1/4 1/3/4
f 7/5/5 5/7/5 1/3/5
f 4/4/6 2/1/6 6/8/6
f 10/9/7 12/12/7 11/10/7
f 12/12/8 16/14/8 15/13/8
f 16/14/9 14/16/9 13/15/9
f 14/16/10 10/9/10 9/11/10
f 11/10/5 15/13/5 13/15/5
f 12/12/6 10/9/6 14/16/6
f 18/17/11 20/20/11 19/18/11
f 20/20/12 24/22/12 23/21/12
f 24/22/13 22/24/13 21/23/13
f 22/24/14 18/17/14 17/19/14
f 19/18/5 23/21/5 21/23/5
f 20/20/6 18/17/6 22/24/6
f 25/25/49 26/31/49 28/26/49
f 28/26/50 32/29/50 31/28/50
f 32/29/51 30/32/51 29/30/51
f 29/30/52 30/32/52 26/31/52
f 27/27/5 31/28/5 29/30/5
f 28/26/19 26/31/19 30/32/19
f 34/33/20 36/36/20 35/34/20
f 36/36/21 40/38/21 39/37/21
f 40/38/22 38/40/22 37/39/22
f 38/40/23 34/33/23 33/35/23
f 35/34/5 39/37/5 37/39/5
f 36/36/6 34/33/6 38/40/6
f 41/41/24 42/79/24 44/42/24
f 44/42/25 48/47/25 47/44/25
f 47/44/26 48/47/26 46/45/26
f 46/45/27 42/79/27 41/41/27
f 43/43/28 47/44/28 45/46/28
f 44/42/29 42/79/29 46/45/29
f 50/48/53 52/51/53 51/49/53
f 52/51/31 56/53/31 55/52/31
f 56/53/54 54/55/54 53/54/54
f 54/55/55 50/48/55 49/50/55
f 55/52/5 53/54/5 49/50/5
f 52/51/6 50/48/6 54/55/6
f 58/56/34 60/59/34 59/57/34
f 60/59/35 64/61/35 63/60/35
f 64/61/36 62/63/36 61/62/36
f 62/63/37 58/56/37 57/58/37
f 63/60/5 61/62/5 57/58/5
f 64/61/6 60/59/6 58/56/6
f 65/64/38 66/80/38 68/65/38
f 68/65/39 72/68/39 71/67/39
f 72/68/40 70/70/40 69/69/40
f 70/70/41 66/80/41 65/64/41
f 71/67/42 69/69/42 65/64/42
f 68/65/43 66/80/43 70/70/43
f 74/71/56 76/78/56 75/72/56
f 75/72/57 76/78/57 80/74/57
f 79/75/58 80/74/58 78/76/58
f 77/77/59 78/76/59 74/71/59
f 75/72/5 79/75/5 77/77/5
f 76/78/48 74/71/48 78/76/48
