# Blender v2.78 (sub 0) OBJ File: 'decorator_road6.blend'
# www.blender.org
mtllib decorator_road6.mtl
o decorator_road6.001_Cube
v -0.608205 -0.051859 -0.653442
v -0.608205 0.045009 -0.653442
v -0.261795 -0.051859 -0.853442
v -0.261795 0.045009 -0.853442
v 0.115216 -0.051859 -0.199057
v 0.115216 0.045009 -0.199057
v -0.230452 -0.051859 0.000845
v -0.230452 0.045009 0.000845
v 0.870000 -0.051859 -0.200000
v 0.870000 0.045009 -0.200000
v 0.870000 -0.051859 0.200000
v 0.870000 0.045009 0.200000
v 0.114855 -0.051859 0.201313
v 0.114855 0.045009 0.201313
v -0.261795 -0.051859 0.853442
v -0.261795 0.045009 0.853442
v -0.608205 -0.051859 0.653442
v -0.608205 0.045009 0.653442
vt 0.0931 0.6236
vt 0.0931 0.6236
vt 0.0931 0.6236
vt 0.0931 0.6236
vt 0.0931 0.6236
vt 0.0931 0.6236
vt 0.0931 0.6236
vt 0.0931 0.6236
vt 0.0931 0.6236
vt 0.0931 0.6236
vt 0.0931 0.6236
vt 0.0931 0.6236
vt 0.0931 0.6236
vt 0.0931 0.6236
vt 0.0931 0.6236
vt 0.0931 0.6236
vt 0.0931 0.6236
vt 0.0931 0.6236
vn -0.5000 0.0000 -0.8660
vn 0.8665 0.0000 -0.4992
vn -0.8660 0.0000 0.5000
vn 0.0017 0.0000 1.0000
vn -0.0012 0.0000 -1.0000
vn 1.0000 0.0000 0.0000
vn -0.8655 0.0000 -0.5010
vn 0.8659 0.0000 0.5001
vn -0.5000 0.0000 0.8660
vn 0.0000 1.0000 0.0000
usemtl None
s off
f 2/1/1 3/2/1 1/3/1
f 4/4/2 5/5/2 3/2/2
f 8/6/3 1/3/3 7/7/3
f 12/8/4 13/9/4 11/10/4
f 5/5/5 10/11/5 9/12/5
f 10/11/6 11/10/6 9/12/6
f 18/13/7 7/7/7 17/14/7
f 14/15/8 15/16/8 13/9/8
f 16/17/9 17/14/9 15/16/9
f 6/18/10 8/6/10 14/15/10
f 2/1/1 4/4/1 3/2/1
f 4/4/2 6/18/2 5/5/2
f 8/6/3 2/1/3 1/3/3
f 12/8/4 14/15/4 13/9/4
f 5/5/5 6/18/5 10/11/5
f 10/11/6 12/8/6 11/10/6
f 18/13/7 8/6/7 7/7/7
f 14/15/8 16/17/8 15/16/8
f 16/17/9 18/13/9 17/14/9
f 6/18/10 4/4/10 2/1/10
f 8/6/10 18/13/10 14/15/10
f 6/18/10 2/1/10 8/6/10
f 12/8/10 10/11/10 6/18/10
f 18/13/10 16/17/10 14/15/10
f 14/15/10 12/8/10 6/18/10
