# Blender v2.78 (sub 0) OBJ File: 'decorator_road8.blend'
# www.blender.org
mtllib decorator_road8.mtl
o decorator_road8.001_Cube
v -0.608205 -0.050000 -0.653442
v -0.608205 0.050000 -0.653442
v -0.261795 -0.050000 -0.853442
v -0.261795 0.050000 -0.853442
v 0.870000 -0.050000 -0.200000
v 0.870000 0.050000 -0.200000
v 0.870000 -0.050000 0.200000
v 0.870000 0.050000 0.200000
v 0.345109 -0.050000 -0.199249
v 0.345109 0.050000 -0.199249
v -0.091772 0.050000 0.163023
v -0.091772 -0.050000 0.163023
v 0.114494 0.050000 0.200000
v -0.230452 -0.050000 0.000845
v 0.114494 -0.050000 0.200000
v -0.230452 0.050000 0.000845
v 0.000000 -0.050000 -0.398498
v -0.000000 0.050000 -0.398498
v 0.130432 0.050000 -0.239902
v 0.130432 -0.050000 -0.239902
vt 0.0931 0.6236
vt 0.0931 0.6236
vt 0.0931 0.6236
vt 0.0931 0.6236
vt 0.0931 0.6236
vt 0.0931 0.6236
vt 0.0931 0.6236
vt 0.0931 0.6236
vt 0.0931 0.6236
vt 0.0931 0.6236
vt 0.0931 0.6236
vt 0.0931 0.6236
vt 0.0931 0.6236
vt 0.0931 0.6236
vt 0.0931 0.6236
vt 0.0931 0.6236
vt 0.0931 0.6236
vt 0.0931 0.6236
vt 0.0931 0.6236
vt 0.0931 0.6236
vn -0.5000 0.0000 -0.8660
vn 0.1861 -0.0000 -0.9825
vn 1.0000 0.0000 0.0000
vn -0.0000 0.0000 1.0000
vn -0.7600 0.0000 0.6499
vn -0.1765 0.0000 0.9843
vn -0.8660 0.0000 0.5000
vn -0.0014 -0.0000 -1.0000
vn 0.8667 0.0000 -0.4988
vn 0.7724 0.0000 -0.6352
vn 0.0000 1.0000 0.0000
usemtl None
s off
f 2/1/1 3/2/1 1/3/1
f 20/4/2 10/5/2 9/6/2
f 6/7/3 7/8/3 5/9/3
f 8/10/4 15/11/4 7/8/4
f 14/12/5 11/13/5 16/14/5
f 12/15/6 13/16/6 11/13/6
f 16/14/7 1/3/7 14/12/7
f 2/1/1 4/17/1 3/2/1
f 10/5/8 5/9/8 9/6/8
f 3/2/9 18/18/9 17/19/9
f 20/4/2 19/20/2 10/5/2
f 17/19/10 19/20/10 20/4/10
f 13/16/11 19/20/11 11/13/11
f 6/7/3 8/10/3 7/8/3
f 8/10/4 13/16/4 15/11/4
f 14/12/5 12/15/5 11/13/5
f 12/15/6 15/11/6 13/16/6
f 16/14/7 2/1/7 1/3/7
f 10/5/8 6/7/8 5/9/8
f 3/2/9 4/17/9 18/18/9
f 17/19/10 18/18/10 19/20/10
f 16/14/11 11/13/11 19/20/11
f 13/16/11 8/10/11 10/5/11
f 8/10/11 6/7/11 10/5/11
f 2/1/11 16/14/11 18/18/11
f 18/18/11 4/17/11 2/1/11
f 13/16/11 10/5/11 19/20/11
f 19/20/11 18/18/11 16/14/11
