# Blender v2.78 (sub 0) OBJ File: 'decorator_natural_forest_deciduous_cut.blend'
# www.blender.org
mtllib decorator_natural_forest_deciduous_cut.mtl
o decorator_natural_forest_deciduous_cut.001_Plane
v -0.254396 0.000000 0.345855
v -0.244630 0.000000 0.491968
v -0.400509 0.000000 0.355621
v -0.390743 0.000000 0.501734
v 0.182421 0.000000 0.169806
v 0.231044 0.000000 0.240457
v 0.111771 0.000000 0.218429
v 0.160394 0.000000 0.289080
v -0.546612 0.000000 -0.201858
v -0.466225 0.000000 -0.242937
v -0.505533 0.000000 -0.121472
v -0.425146 0.000000 -0.162551
v 0.465636 0.000000 -0.201858
v 0.546023 0.000000 -0.242937
v 0.506715 0.000000 -0.121472
v 0.587102 0.000000 -0.162551
v -0.262934 0.000000 -0.484059
v -0.184025 0.000000 -0.593602
v -0.153391 0.000000 -0.405149
v -0.074482 0.000000 -0.514693
v -0.253104 0.194129 -0.485657
v -0.392537 0.125811 0.362595
v -0.252603 0.125811 0.484994
v 0.162450 0.405295 0.277943
v -0.502525 0.287291 -0.130767
v -0.469233 0.287291 -0.233642
v 0.579905 0.144443 -0.164880
v -0.154989 0.194129 -0.414979
v -0.182427 0.194129 -0.583772
v 0.180364 0.405295 0.180943
v 0.472833 0.144443 -0.199529
v -0.383769 0.125811 0.493761
v 0.122907 0.405295 0.220486
v 0.219908 0.405295 0.238400
v -0.434442 0.287291 -0.165559
v 0.509044 0.144443 -0.128669
v 0.543694 0.144443 -0.235740
v -0.084312 0.194129 -0.513095
v -0.261370 0.125810 0.353828
v -0.537316 0.287291 -0.198850
vt 0.1232 0.5807
vt 0.1232 0.5807
vt 0.1232 0.5807
vt 0.1232 0.5807
vt 0.1232 0.5807
vt 0.1232 0.5807
vt 0.1232 0.5807
vt 0.1232 0.5807
vt 0.1232 0.5807
vt 0.8633 0.3520
vt 0.8633 0.3520
vt 0.8633 0.3520
vt 0.1232 0.5807
vt 0.1232 0.5807
vt 0.1232 0.5807
vt 0.8633 0.3520
vt 0.8633 0.3520
vt 0.8633 0.3520
vt 0.1232 0.5807
vt 0.1232 0.5807
vt 0.8633 0.3520
vt 0.8633 0.3520
vt 0.8633 0.3520
vt 0.8633 0.3520
vt 0.8633 0.3520
vt 0.8633 0.3520
vt 0.1232 0.5807
vt 0.1232 0.5807
vt 0.1232 0.5807
vt 0.1232 0.5807
vt 0.1232 0.5807
vt 0.1232 0.5807
vt 0.1232 0.5807
vt 0.1232 0.5807
vt 0.1232 0.5807
vt 0.1232 0.5807
vt 0.1232 0.5807
vt 0.1232 0.5807
vt 0.1232 0.5807
vt 0.1232 0.5807
vt 0.1232 0.5807
vt 0.1232 0.5807
vt 0.1232 0.5807
vt 0.1232 0.5807
vt 0.1232 0.5807
vt 0.1232 0.5807
vt 0.1232 0.5807
vt 0.1232 0.5807
vt 0.8633 0.3520
vt 0.8633 0.3520
vt 0.8633 0.3520
vt 0.1232 0.5807
vt 0.8633 0.3520
vt 0.8633 0.3520
vt 0.1232 0.5807
vt 0.1232 0.5807
vt 0.1232 0.5807
vt 0.8633 0.3520
vt 0.8633 0.3520
vt 0.8633 0.3520
vn 0.8902 0.0240 -0.4549
vn 0.8899 0.0370 -0.4547
vn 0.9960 0.0594 -0.0666
vn 0.0000 1.0000 -0.0000
vn 0.5668 0.0198 0.8236
vn 0.0666 0.0594 0.9960
vn -0.5668 0.0198 -0.8236
vn -0.4547 0.0370 -0.8899
vn 0.5841 0.0363 -0.8109
vn -0.8109 0.0363 -0.5841
vn -0.0666 0.0594 -0.9960
vn -0.8236 0.0198 0.5668
vn -0.4549 0.0240 -0.8902
vn -0.8899 0.0370 0.4547
vn 0.8109 0.0363 0.5841
vn 0.4549 0.0240 0.8902
vn -0.9960 0.0594 0.0666
vn -0.5841 0.0363 0.8109
vn 0.8236 0.0198 -0.5668
vn 0.4547 0.0370 0.8899
vn -0.8902 0.0240 0.4549
usemtl None
s off
f 10/1/1 26/2/1 35/3/1
f 16/4/2 14/5/2 37/6/2
f 2/7/3 1/8/3 39/9/3
f 36/10/4 27/11/4 37/12/4
f 6/13/5 34/14/5 24/15/5
f 39/16/4 22/17/4 32/18/4
f 32/19/6 4/20/6 2/7/6
f 38/21/4 29/22/4 21/23/4
f 34/24/4 30/25/4 33/26/4
f 7/27/7 33/28/7 30/29/7
f 14/5/8 13/30/8 31/31/8
f 38/32/9 20/33/9 18/34/9
f 29/35/10 18/34/10 17/36/10
f 39/9/11 1/8/11 3/37/11
f 8/38/12 24/15/12 33/28/12
f 9/39/13 40/40/13 26/2/13
f 15/41/14 36/42/14 31/31/14
f 19/43/15 20/33/15 38/32/15
f 12/44/16 35/3/16 25/45/16
f 3/37/17 4/20/17 32/19/17
f 17/36/18 19/43/18 28/46/18
f 6/13/19 5/47/19 30/29/19
f 16/4/20 27/48/20 36/42/20
f 26/49/4 40/50/4 25/51/4
f 11/52/21 40/40/21 9/39/21
f 15/41/14 31/31/14 13/30/14
f 9/39/13 26/2/13 10/1/13
f 39/16/4 32/18/4 23/53/4
f 38/21/4 21/23/4 28/54/4
f 29/35/10 17/36/10 21/55/10
f 6/13/19 30/29/19 34/14/19
f 6/13/5 24/15/5 8/38/5
f 32/19/6 2/7/6 23/56/6
f 17/36/18 28/46/18 21/55/18
f 3/37/17 32/19/17 22/57/17
f 16/4/20 36/42/20 15/41/20
f 12/44/16 25/45/16 11/52/16
f 7/27/7 30/29/7 5/47/7
f 19/43/15 38/32/15 28/46/15
f 39/9/11 3/37/11 22/57/11
f 38/32/9 18/34/9 29/35/9
f 11/52/21 25/45/21 40/40/21
f 10/1/1 35/3/1 12/44/1
f 26/49/4 25/51/4 35/58/4
f 36/10/4 37/12/4 31/59/4
f 8/38/12 33/28/12 7/27/12
f 16/4/2 37/6/2 27/48/2
f 34/24/4 33/26/4 24/60/4
f 2/7/3 39/9/3 23/56/3
f 14/5/8 31/31/8 37/6/8
