# Blender v2.78 (sub 0) OBJ File: 'decorator_road3.blend'
# www.blender.org
mtllib decorator_road3.mtl
o decorator_road3.001_Cube
v -0.608205 -0.050000 -0.653442
v -0.608205 0.050000 -0.653442
v -0.261795 -0.050000 -0.853442
v -0.261795 0.050000 -0.853442
v 0.261795 -0.050000 -0.853442
v 0.261795 0.050000 -0.853442
v 0.608205 -0.050000 -0.653442
v 0.608205 0.050000 -0.653442
v 0.000000 -0.050000 -0.398498
v -0.000000 0.050000 -0.398498
v 0.000000 0.050000 0.050845
v 0.000000 -0.050000 0.050845
v 0.230452 0.050000 0.000845
v -0.230452 -0.050000 0.000845
v 0.230452 -0.050000 0.000845
v -0.230452 0.050000 0.000845
vt 0.0931 0.6236
vt 0.0931 0.6236
vt 0.0931 0.6236
vt 0.0931 0.6236
vt 0.0931 0.6236
vt 0.0931 0.6236
vt 0.0931 0.6236
vt 0.0931 0.6236
vt 0.0931 0.6236
vt 0.0931 0.6236
vt 0.0931 0.6236
vt 0.0931 0.6236
vt 0.0931 0.6236
vt 0.0931 0.6236
vt 0.0931 0.6236
vt 0.0931 0.6236
vn -0.5000 0.0000 -0.8660
vn 0.8667 0.0000 -0.4988
vn 0.5000 0.0000 -0.8660
vn 0.8660 0.0000 0.5000
vn -0.2120 0.0000 0.9773
vn 0.2120 -0.0000 0.9773
vn -0.8660 0.0000 0.5000
vn 0.0000 1.0000 -0.0000
vn -0.8667 -0.0000 -0.4988
usemtl None
s off
f 1/1/1 2/2/1 4/3/1 3/4/1
f 3/4/2 4/3/2 10/5/2 9/6/2
f 5/7/3 6/8/3 8/9/3 7/10/3
f 7/10/4 8/9/4 13/11/4 15/12/4
f 16/13/5 14/14/5 12/15/5 11/16/5
f 11/16/6 12/15/6 15/12/6 13/11/6
f 14/14/7 16/13/7 2/2/7 1/1/7
f 4/3/8 2/2/8 16/13/8 11/16/8 13/11/8 8/9/8 6/8/8 10/5/8
f 9/6/9 10/5/9 6/8/9 5/7/9
