# Blender v2.78 (sub 0) OBJ File: 'decorator_building_pyramid.blend'
# www.blender.org
mtllib decorator_building_pyramid.mtl
o decorator_building_pyramid.001_Cylinder.001
v -0.000000 1.400000 0.000000
v -0.000000 0.000000 0.700000
v -0.700000 0.000000 -0.000000
v 0.304197 0.791606 0.000000
v 0.466981 0.466038 0.000000
v 0.587572 0.224855 0.000000
v -0.000000 0.224855 -0.587572
v -0.000000 0.466038 -0.466981
v -0.000000 0.791606 -0.304197
v -0.187357 1.025286 0.000000
v -0.304197 0.791605 0.000000
v -0.466981 0.466039 0.000000
v -0.587573 0.224855 0.000000
v -0.000000 1.025286 0.187357
v -0.000000 0.791606 0.304197
v -0.000000 0.466038 0.466981
v -0.293786 0.224855 0.293786
v -0.233490 0.466038 0.233490
v -0.152099 0.791605 0.152099
v -0.093678 1.025286 0.093679
v 0.233491 0.466038 -0.233490
v 0.152099 0.791606 -0.152099
v -0.350000 0.000000 -0.350000
v 0.293786 0.224855 0.293786
v 0.233491 0.466038 0.233490
v 0.152099 0.791606 0.152099
v 0.093679 1.025286 0.093679
v -0.293786 0.224855 -0.293786
v -0.233490 0.466038 -0.233490
v -0.152099 0.791605 -0.152099
v -0.504218 0.484657 0.037237
v -0.624810 0.243473 0.037237
v -0.270728 0.484657 0.270728
v -0.331024 0.243474 0.331023
v -0.026762 0.479419 -0.493743
v -0.026762 0.804987 -0.330959
v -0.178861 0.804987 -0.178861
v -0.260253 0.479420 -0.260253
v 0.757827 0.000000 -0.056566
v 0.645399 0.224855 -0.056566
v 0.057827 0.000000 -0.756566
v 0.057827 0.224855 -0.644138
v 0.349760 0.814387 0.045563
v 0.512544 0.488819 0.045563
v 0.045563 0.814387 0.349760
v 0.045563 0.488820 0.512544
v -0.210879 1.037047 0.023522
v -0.327720 0.803366 0.023522
v -0.117201 1.037047 0.117201
v -0.175621 0.803366 0.175621
v 0.331712 0.805363 -0.027515
v 0.494496 0.479795 -0.027515
v 0.179614 0.805363 -0.179614
v 0.261006 0.479796 -0.261006
v 0.546069 0.505582 0.079088
v 0.666660 0.264399 0.079088
v 0.372874 0.264399 0.372874
v 0.312579 0.505582 0.312579
v 0.077747 1.064159 0.265104
v 0.077747 0.830479 0.381945
v 0.171426 1.064159 0.171426
v 0.229846 0.830479 0.229846
v -0.639638 0.250888 -0.052066
v -0.752066 0.026033 -0.052066
v -0.402066 0.026033 -0.402066
v -0.345852 0.250888 -0.345852
vt 0.3822 0.6178
vt 0.3822 0.6178
vt 0.3822 0.6178
vt 0.3822 0.6178
vt 0.3822 0.6178
vt 0.3822 0.6178
vt 0.3822 0.6178
vt 0.3822 0.6178
vt 0.3822 0.6178
vt 0.3822 0.6178
vt 0.3822 0.6178
vt 0.3822 0.6178
vt 0.3822 0.6178
vt 0.3822 0.6178
vt 0.3822 0.6178
vt 0.3822 0.6178
vt 0.3822 0.6178
vt 0.3822 0.6178
vt 0.3822 0.6178
vt 0.3822 0.6178
vt 0.3822 0.6178
vt 0.3822 0.6178
vt 0.3822 0.6178
vt 0.3822 0.6178
vt 0.3822 0.6178
vt 0.3822 0.6178
vt 0.3822 0.6178
vt 0.3822 0.6178
vt 0.3822 0.6178
vt 0.3822 0.6178
vt 0.3822 0.6178
vt 0.3822 0.6178
vt 0.3822 0.6178
vt 0.3822 0.6178
vt 0.3822 0.6178
vt 0.3822 0.6178
vt 0.3822 0.6178
vt 0.3822 0.6178
vt 0.3822 0.6178
vt 0.3822 0.6178
vt 0.3822 0.6178
vt 0.3822 0.6178
vt 0.3822 0.6178
vt 0.3822 0.6178
vt 0.3822 0.6178
vt 0.3822 0.6178
vt 0.3822 0.6178
vt 0.3822 0.6178
vt 0.3822 0.6178
vt 0.3822 0.6178
vt 0.3822 0.6178
vt 0.3822 0.6178
vt 0.3822 0.6178
vt 0.3822 0.6178
vt 0.3822 0.6178
vt 0.3822 0.6178
vt 0.3822 0.6178
vt 0.3822 0.6178
vt 0.3822 0.6178
vt 0.3822 0.6178
vt 0.3822 0.6178
vt 0.3822 0.6178
vt 0.3822 0.6178
vt 0.3822 0.6178
vt 0.3822 0.6178
vt 0.3822 0.6178
vn -0.6667 0.3333 -0.6667
vn 0.2357 0.9428 -0.2357
vn -0.7454 0.2981 0.5963
vn 0.6667 0.3333 -0.6667
vn -0.5963 0.2981 0.7454
vn -0.7071 0.0000 0.7071
vn -0.6667 0.3333 0.6667
vn -0.2357 0.9428 0.2357
vn 0.7071 -0.0000 0.7071
vn 0.2357 -0.9428 -0.2357
vn 0.2357 -0.9428 0.2357
vn 0.7454 0.2981 -0.5963
vn 0.5963 0.2981 0.7454
vn -0.0000 1.0000 0.0000
vn 0.5963 0.2981 -0.7454
vn -0.5963 0.2981 -0.7454
vn -0.2357 -0.9428 -0.2357
vn 0.6667 0.3333 0.6667
vn -0.2357 0.9428 -0.2357
vn -0.6662 0.3309 -0.6683
vn -0.7071 -0.0000 -0.7071
vn 0.7071 -0.0000 -0.7071
vn 0.2357 0.9428 0.2357
vn -0.2357 -0.9428 0.2357
vn 0.6657 0.3349 0.6668
vn -0.6585 0.3366 -0.6732
vn 0.6658 0.3366 0.6658
vn 0.6601 0.3300 0.6748
usemtl None
s off
f 10/1/1 30/2/1 11/3/1
f 31/4/2 18/5/2 12/6/2
f 10/1/2 49/7/2 20/8/2
f 15/9/3 16/10/3 46/11/3
f 42/12/4 39/13/4 41/14/4
f 63/15/5 64/16/5 3/17/5
f 54/18/4 53/19/4 51/20/4
f 63/15/5 3/17/5 13/21/5
f 29/22/1 8/23/1 28/24/1
f 57/25/6 25/26/6 24/27/6
f 34/28/7 33/29/7 31/4/7
f 51/20/8 22/30/8 4/31/8
f 49/7/9 19/32/9 20/8/9
f 5/33/10 54/18/10 52/34/10
f 37/35/6 29/22/6 30/2/6
f 14/36/7 1/37/7 20/8/7
f 56/38/11 57/25/11 24/27/11
f 35/39/12 9/40/12 8/23/12
f 42/12/4 40/41/4 39/13/4
f 63/15/1 65/42/1 64/16/1
f 5/33/13 51/20/13 4/31/13
f 6/43/14 42/12/14 7/44/14
f 54/18/4 51/20/4 52/34/4
f 11/3/1 30/2/1 29/22/1
f 55/45/15 6/43/15 5/33/15
f 38/46/1 36/47/1 35/39/1
f 34/28/7 31/4/7 32/48/7
f 10/1/16 11/3/16 48/49/16
f 38/46/1 37/35/1 36/47/1
f 15/9/3 46/11/3 45/50/3
f 29/22/17 35/39/17 8/23/17
f 43/51/18 46/11/18 44/52/18
f 27/53/19 59/54/19 61/55/19
f 41/14/20 23/56/20 7/44/20
f 57/25/6 58/57/6 25/26/6
f 62/58/18 59/54/18 60/59/18
f 10/1/1 1/37/1 9/40/1
f 53/19/21 21/60/21 22/30/21
f 27/53/22 62/58/22 26/61/22
f 10/1/16 48/49/16 47/62/16
f 56/38/11 24/27/11 6/43/11
f 23/56/22 66/63/22 28/24/22
f 23/56/17 64/16/17 65/42/17
f 44/52/11 46/11/11 25/26/11
f 57/25/18 55/45/18 58/57/18
f 53/19/21 54/18/21 21/60/21
f 1/37/18 14/36/18 27/53/18
f 66/63/23 63/15/23 13/21/23
f 15/9/7 14/36/7 19/32/7
f 15/9/19 45/50/19 26/61/19
f 45/50/19 43/51/19 26/61/19
f 34/28/24 32/48/24 13/21/24
f 34/28/24 13/21/24 17/64/24
f 25/26/19 55/45/19 5/33/19
f 43/51/15 5/33/15 4/31/15
f 66/63/23 13/21/23 28/24/23
f 27/53/22 61/55/22 62/58/22
f 2/65/25 39/13/25 24/27/25
f 51/20/8 53/19/8 22/30/8
f 23/56/22 65/42/22 66/63/22
f 28/24/1 13/21/1 12/6/1
f 26/61/11 60/59/11 15/9/11
f 7/44/1 23/56/1 28/24/1
f 24/27/18 16/10/18 2/65/18
f 16/10/11 25/26/11 46/11/11
f 1/37/4 4/31/4 22/30/4
f 37/35/6 38/46/6 29/22/6
f 15/9/3 59/54/3 14/36/3
f 27/53/19 14/36/19 59/54/19
f 33/29/9 34/28/9 17/64/9
f 8/23/1 7/44/1 28/24/1
f 1/37/7 10/1/7 20/8/7
f 11/3/7 12/6/7 18/5/7
f 16/10/7 15/9/7 18/5/7
f 62/58/18 61/55/18 59/54/18
f 57/25/18 56/38/18 55/45/18
f 36/47/23 37/35/23 30/2/23
f 27/53/18 26/61/18 4/31/18
f 19/32/7 11/3/7 18/5/7
f 2/65/7 16/10/7 17/64/7
f 7/44/26 42/12/26 41/14/26
f 5/33/13 52/34/13 51/20/13
f 13/21/7 3/17/7 17/64/7
f 25/26/19 58/57/19 55/45/19
f 19/32/24 50/66/24 48/49/24
f 31/4/2 33/29/2 18/5/2
f 1/37/18 27/53/18 4/31/18
f 10/1/2 47/62/2 49/7/2
f 29/22/17 38/46/17 35/39/17
f 21/60/4 8/23/4 9/40/4
f 12/6/1 11/3/1 29/22/1
f 32/48/16 12/6/16 13/21/16
f 33/29/9 17/64/9 18/5/9
f 36/47/23 30/2/23 9/40/23
f 39/13/27 6/43/27 24/27/27
f 50/66/7 47/62/7 48/49/7
f 9/40/4 1/37/4 22/30/4
f 10/1/1 9/40/1 30/2/1
f 6/43/4 7/44/4 21/60/4
f 43/51/15 44/52/15 5/33/15
f 26/61/11 62/58/11 60/59/11
f 6/43/14 40/41/14 42/12/14
f 21/60/4 5/33/4 6/43/4
f 4/31/19 26/61/19 43/51/19
f 21/60/4 7/44/4 8/23/4
f 22/30/4 21/60/4 9/40/4
f 50/66/7 49/7/7 47/62/7
f 23/56/17 3/17/17 64/16/17
f 5/33/11 44/52/11 25/26/11
f 15/9/3 60/59/3 59/54/3
f 43/51/18 45/50/18 46/11/18
f 18/5/7 17/64/7 16/10/7
f 28/24/1 12/6/1 29/22/1
f 49/7/9 50/66/9 19/32/9
f 15/9/7 19/32/7 18/5/7
f 32/48/16 31/4/16 12/6/16
f 5/33/10 21/60/10 54/18/10
f 17/64/7 3/17/7 2/65/7
f 63/15/1 66/63/1 65/42/1
f 35/39/12 36/47/12 9/40/12
f 14/36/7 20/8/7 19/32/7
f 25/26/18 16/10/18 24/27/18
f 55/45/15 56/38/15 6/43/15
f 40/41/28 6/43/28 39/13/28
f 19/32/24 48/49/24 11/3/24
