# Blender v2.78 (sub 0) OBJ File: 'decorator_building_barracks.blend'
# www.blender.org
mtllib decorator_building_barracks.mtl
o decorator_building_barracks_Cube
v 0.539249 0.000000 0.225762
v 0.572340 0.405610 0.270914
v 0.601277 0.406683 0.384834
v 0.601277 0.338882 0.384834
v 0.522531 -0.002628 0.094210
v 0.568881 0.416793 0.094210
v 0.568127 -0.002628 0.094210
v 0.618522 0.416793 0.094210
v 0.568881 0.416793 0.004041
v 0.568127 -0.002628 0.004041
v 0.618522 0.416793 0.004041
v 0.522531 -0.002628 0.004041
v 0.299867 0.583502 0.038740
v 0.289588 0.737241 0.050361
v 0.299867 0.583502 -0.038739
v 0.289588 0.737241 -0.050361
v 0.368395 0.583502 0.038740
v 0.378675 0.737241 0.050361
v 0.368395 0.583502 -0.038739
v 0.378675 0.737241 -0.050361
v 0.257023 0.737241 0.087180
v 0.257023 0.737241 -0.087180
v 0.411239 0.737241 -0.087180
v 0.411239 0.737241 0.087180
v 0.257023 0.780835 0.087180
v 0.257023 0.780835 -0.087180
v 0.411239 0.780835 -0.087180
v 0.411239 0.780835 0.087180
v 0.304003 0.780835 0.034063
v 0.304003 0.780835 -0.034063
v 0.364259 0.780835 -0.034063
v 0.364259 0.780835 0.034063
v 0.304003 0.691389 0.034063
v 0.304003 0.691389 -0.034063
v 0.364259 0.691389 -0.034063
v 0.364259 0.691389 0.034063
v -0.539249 0.000000 0.225762
v -0.572340 0.405610 0.270914
v -0.601277 0.406683 0.384834
v -0.601277 0.338882 0.384834
v -0.522531 -0.002628 0.094210
v -0.568881 0.416793 0.094210
v -0.568127 -0.002628 0.094210
v -0.618522 0.416793 0.094210
v -0.568881 0.416793 0.004041
v -0.568127 -0.002628 0.004041
v -0.618522 0.416793 0.004041
v -0.522531 -0.002628 0.004041
v -0.299867 0.583502 0.038740
v -0.293015 0.737877 0.046487
v -0.299867 0.583502 -0.038739
v -0.293015 0.737877 -0.046487
v -0.368395 0.583502 0.038740
v -0.375248 0.737877 0.046487
v -0.368395 0.583502 -0.038739
v -0.375248 0.737877 -0.046487
v -0.262955 0.737877 0.080474
v -0.262955 0.737877 -0.080473
v -0.405308 0.737877 -0.080473
v -0.405308 0.737877 0.080474
v -0.262955 0.778118 0.080474
v -0.262955 0.778118 -0.080473
v -0.405308 0.778118 -0.080473
v -0.405308 0.778118 0.080474
v -0.306321 0.778118 0.031443
v -0.306321 0.778118 -0.031443
v -0.361942 0.778118 -0.031443
v -0.361942 0.778118 0.031443
v -0.306321 0.695552 0.031443
v -0.306321 0.695552 -0.031443
v -0.361942 0.695552 -0.031443
v -0.361942 0.695552 0.031443
v 0.539249 0.000000 -0.225762
v 0.572340 0.405610 -0.270914
v 0.601277 0.406683 -0.384834
v 0.601277 0.625944 -0.000000
v 0.601277 0.559543 -0.000000
v 0.601277 0.338882 -0.384834
v 0.572340 0.559543 -0.000000
v 0.522531 -0.002628 -0.094210
v 0.568881 0.416793 -0.094210
v 0.568127 -0.002628 -0.094210
v 0.618522 0.416793 -0.094210
v 0.568881 0.416793 -0.004041
v 0.568127 -0.002628 -0.004041
v 0.618522 0.416793 -0.004041
v 0.522531 -0.002628 -0.004041
v 0.299867 0.583502 -0.038740
v 0.289588 0.737241 -0.050361
v 0.299867 0.583502 0.038739
v 0.289588 0.737241 0.050361
v 0.368395 0.583502 -0.038740
v 0.378675 0.737241 -0.050361
v 0.368395 0.583502 0.038739
v 0.378675 0.737241 0.050361
v 0.257023 0.737241 -0.087180
v 0.257023 0.737241 0.087180
v 0.411239 0.737241 0.087180
v 0.411239 0.737241 -0.087180
v 0.257023 0.780835 -0.087180
v 0.257023 0.780835 0.087180
v 0.411239 0.780835 0.087180
v 0.411239 0.780835 -0.087180
v 0.304003 0.780835 -0.034063
v 0.304003 0.780835 0.034063
v 0.364259 0.780835 0.034063
v 0.364259 0.780835 -0.034063
v 0.304003 0.691389 -0.034063
v 0.304003 0.691389 0.034063
v 0.364259 0.691389 0.034063
v 0.364259 0.691389 -0.034063
v -0.539249 0.000000 -0.225762
v -0.572340 0.405610 -0.270914
v -0.601277 0.406683 -0.384834
v -0.601277 0.625944 -0.000000
v -0.601277 0.559543 -0.000000
v -0.601277 0.338882 -0.384834
v -0.572340 0.559543 -0.000000
v -0.522531 -0.002628 -0.094210
v -0.568881 0.416793 -0.094210
v -0.568127 -0.002628 -0.094210
v -0.618522 0.416793 -0.094210
v -0.568881 0.416793 -0.004041
v -0.568127 -0.002628 -0.004041
v -0.618522 0.416793 -0.004041
v -0.522531 -0.002628 -0.004041
v -0.299867 0.583502 -0.038740
v -0.293015 0.737877 -0.046487
v -0.299867 0.583502 0.038739
v -0.293015 0.737877 0.046487
v -0.368395 0.583502 -0.038740
v -0.375248 0.737877 -0.046487
v -0.368395 0.583502 0.038739
v -0.375248 0.737877 0.046487
v -0.262955 0.737877 -0.080474
v -0.262955 0.737877 0.080473
v -0.405308 0.737877 0.080473
v -0.405308 0.737877 -0.080474
v -0.262955 0.778118 -0.080474
v -0.262955 0.778118 0.080473
v -0.405308 0.778118 0.080473
v -0.405308 0.778118 -0.080474
v -0.306321 0.778118 -0.031443
v -0.306321 0.778118 0.031443
v -0.361942 0.778118 0.031443
v -0.361942 0.778118 -0.031443
v -0.306321 0.695552 -0.031443
v -0.306321 0.695552 0.031443
v -0.361942 0.695552 0.031443
v -0.361942 0.695552 -0.031443
vt 0.1379 0.6141
vt 0.1379 0.6141
vt 0.1379 0.6141
vt 0.1379 0.6141
vt 0.1379 0.6141
vt 0.1379 0.6141
vt 0.1379 0.6141
vt 0.1379 0.6141
vt 0.1379 0.6141
vt 0.1379 0.6141
vt 0.8944 0.6203
vt 0.8944 0.6203
vt 0.8944 0.6203
vt 0.8944 0.6203
vt 0.8944 0.6203
vt 0.8944 0.6203
vt 0.8944 0.6203
vt 0.8944 0.6203
vt 0.8882 0.6234
vt 0.8882 0.6234
vt 0.8882 0.6234
vt 0.8882 0.6234
vt 0.8882 0.6234
vt 0.8882 0.6234
vt 0.8882 0.6234
vt 0.8882 0.6234
vt 0.8882 0.6234
vt 0.8882 0.6234
vt 0.8882 0.6234
vt 0.8882 0.6234
vt 0.8882 0.6234
vt 0.8882 0.6234
vt 0.8882 0.6234
vt 0.8882 0.6234
vt 0.8882 0.6234
vt 0.8882 0.6234
vt 0.8882 0.6234
vt 0.8882 0.6234
vt 0.8882 0.6234
vt 0.8882 0.6234
vt 0.8882 0.6234
vt 0.8882 0.6234
vt 0.8882 0.6234
vt 0.8882 0.6234
vt 0.8882 0.6234
vt 0.8882 0.6234
vt 0.8882 0.6234
vt 0.8882 0.6234
vt 0.8882 0.6234
vt 0.8882 0.6234
vt 0.8882 0.6234
vt 0.8882 0.6234
vt 0.8882 0.6234
vt 0.8882 0.6234
vt 0.1379 0.6141
vt 0.1379 0.6141
vt 0.1379 0.6141
vt 0.1379 0.6141
vt 0.8944 0.6203
vt 0.8944 0.6203
vt 0.8944 0.6203
vt 0.8944 0.6203
vt 0.8944 0.6203
vt 0.8944 0.6203
vt 0.8944 0.6203
vt 0.8944 0.6203
vt 0.8882 0.6234
vt 0.8882 0.6234
vt 0.8882 0.6234
vt 0.8882 0.6234
vt 0.8882 0.6234
vt 0.8882 0.6234
vt 0.8882 0.6234
vt 0.8882 0.6234
vt 0.8882 0.6234
vt 0.8882 0.6234
vt 0.8882 0.6234
vt 0.8882 0.6234
vt 0.8882 0.6234
vt 0.8882 0.6234
vt 0.1379 0.6141
vt 0.1379 0.6141
vt 0.8882 0.6234
vt 0.8882 0.6234
vt 0.8882 0.6234
vt 0.8882 0.6234
vt 0.8882 0.6234
vt 0.8882 0.6234
vt 0.8944 0.6203
vt 0.8944 0.6203
vt 0.8944 0.6203
vt 0.8944 0.6203
vt 0.8944 0.6203
vt 0.8944 0.6203
vt 0.8944 0.6203
vt 0.8944 0.6203
vt 0.8882 0.6234
vt 0.8882 0.6234
vt 0.8882 0.6234
vt 0.8882 0.6234
vt 0.8882 0.6234
vt 0.8882 0.6234
vt 0.8882 0.6234
vt 0.8882 0.6234
vt 0.8882 0.6234
vt 0.8882 0.6234
vt 0.8882 0.6234
vt 0.8882 0.6234
vt 0.1379 0.6141
vt 0.1379 0.6141
vt 0.8882 0.6234
vt 0.8882 0.6234
vt 0.1379 0.6141
vt 0.1379 0.6141
vt 0.8882 0.6234
vt 0.8882 0.6234
vt 0.8944 0.6203
vt 0.8944 0.6203
vt 0.8944 0.6203
vt 0.8944 0.6203
vt 0.8944 0.6203
vt 0.8944 0.6203
vt 0.8944 0.6203
vt 0.8944 0.6203
vt 0.8882 0.6234
vt 0.8882 0.6234
vt 0.8882 0.6234
vt 0.8882 0.6234
vt 0.8882 0.6234
vt 0.8882 0.6234
vt 0.8882 0.6234
vt 0.8882 0.6234
vt 0.8882 0.6234
vt 0.8882 0.6234
vt 0.8882 0.6234
vt 0.8882 0.6234
vt 0.8882 0.6234
vt 0.8882 0.6234
vt 0.1379 0.6141
vt 0.1379 0.6141
vt 0.8882 0.6234
vt 0.8882 0.6234
vt 0.8882 0.6234
vt 0.8882 0.6234
vt 0.8882 0.6234
vt 0.8882 0.6234
vt 0.8882 0.6234
vt 0.8882 0.6234
vt 0.8882 0.6234
vt 0.8882 0.6234
vn 1.0000 0.0000 0.0000
vn 0.0000 -1.0000 0.0000
vn 0.9929 -0.1193 0.0000
vn 0.0000 0.0000 1.0000
vn 0.0000 1.0000 0.0000
vn -0.0000 0.0000 -1.0000
vn -0.9978 -0.0667 0.0000
vn 0.0000 -0.0754 -0.9972
vn 0.9978 -0.0667 0.0000
vn 0.0000 -0.0754 0.9972
vn -1.0000 0.0000 0.0000
vn 0.0000 -0.8675 -0.4974
vn -0.9929 -0.1193 0.0000
vn 0.9990 -0.0443 0.0000
vn 0.0000 -0.0501 -0.9987
vn -0.9990 -0.0443 0.0000
vn 0.0000 -0.0501 0.9987
vn 0.0000 -0.8675 0.4974
vn 0.0000 0.8689 0.4950
vn 0.0000 -0.1106 -0.9939
vn 0.9977 -0.0674 0.0000
vn -0.9977 -0.0674 0.0000
vn 0.0000 -0.1106 0.9939
vn 0.0000 0.8689 -0.4950
usemtl None
s off
f 75/1/1 76/2/1 3/3/1 4/4/1 77/5/1 78/6/1
f 37/7/2 112/8/2 73/9/2 1/10/2
f 10/11/3 11/12/3 8/13/3 7/14/3
f 7/14/4 8/13/4 6/15/4 5/16/4
f 11/12/5 9/17/5 6/15/5 8/13/5
f 12/18/6 9/17/6 11/12/6 10/11/6
f 107/19/5 106/20/5 102/21/5 103/22/5 100/23/5 104/24/5
f 13/25/7 14/26/7 16/27/7 15/28/7
f 15/28/8 16/27/8 20/29/8 19/30/8
f 19/30/9 20/29/9 18/31/9 17/32/9
f 17/32/10 18/31/10 14/26/10 13/25/10
f 20/29/2 16/27/2 22/33/2 23/34/2 24/35/2 21/36/2 14/26/2 18/31/2
f 22/33/11 21/36/11 25/37/11 26/38/11
f 16/27/2 14/26/2 21/36/2 22/33/2
f 26/38/5 25/37/5 28/39/5 32/40/5 29/41/5 30/42/5 31/43/5 27/44/5
f 21/36/4 24/35/4 28/39/4 25/37/4
f 23/34/6 22/33/6 26/38/6 27/44/6
f 24/35/1 23/34/1 27/44/1 28/39/1
f 32/40/11 31/43/11 35/45/11 36/46/11
f 62/47/5 66/48/5 65/49/5 68/50/5 64/51/5 61/52/5
f 28/39/5 27/44/5 31/43/5 32/40/5
f 35/45/5 34/53/5 33/54/5 36/46/5
f 30/42/1 29/41/1 33/54/1 34/53/1
f 29/41/6 32/40/6 36/46/6 33/54/6
f 31/43/4 30/42/4 34/53/4 35/45/4
f 116/55/12 77/5/12 4/4/12 40/56/12
f 75/1/6 78/6/6 117/57/6 114/58/6
f 46/59/13 43/60/13 44/61/13 47/62/13
f 43/60/4 41/63/4 42/64/4 44/61/4
f 47/62/5 44/61/5 42/64/5 45/65/5
f 48/66/6 46/59/6 47/62/6 45/65/6
f 49/67/14 51/68/14 52/69/14 50/70/14
f 51/68/15 55/71/15 56/72/15 52/69/15
f 55/71/16 53/73/16 54/74/16 56/72/16
f 53/73/17 49/67/17 50/70/17 54/74/17
f 54/74/2 60/75/2 59/76/2 56/72/2
f 58/77/1 62/47/1 61/52/1 57/78/1
f 56/72/2 59/76/2 58/77/2 57/78/2 60/75/2 54/74/2 50/70/2 52/69/2
f 105/79/5 104/24/5 100/23/5 101/80/5 102/21/5 106/20/5
f 114/58/11 117/57/11 116/55/11 40/56/11 39/81/11 115/82/11
f 57/78/4 61/52/4 64/51/4 60/75/4
f 59/76/6 63/83/6 62/47/6 58/77/6
f 60/75/11 64/51/11 63/83/11 59/76/11
f 68/50/1 72/84/1 71/85/1 67/86/1
f 116/55/18 117/57/18 78/6/18 77/5/18
f 71/85/5 72/84/5 69/87/5 70/88/5
f 66/48/11 70/88/11 69/87/11 65/49/11
f 65/49/6 69/87/6 72/84/6 68/50/6
f 67/86/4 71/85/4 70/88/4 66/48/4
f 85/89/3 82/90/3 83/91/3 86/92/3
f 82/90/6 80/93/6 81/94/6 83/91/6
f 86/92/5 83/91/5 81/94/5 84/95/5
f 87/96/4 85/89/4 86/92/4 84/95/4
f 115/82/19 39/81/19 3/3/19 76/2/19
f 4/4/4 3/3/4 39/81/4 40/56/4
f 88/97/7 90/98/7 91/99/7 89/100/7
f 90/98/10 94/101/10 95/102/10 91/99/10
f 94/101/9 92/103/9 93/104/9 95/102/9
f 92/103/8 88/97/8 89/100/8 93/104/8
f 93/104/2 99/105/2 98/106/2 95/102/2
f 97/107/11 101/80/11 100/23/11 96/108/11
f 95/102/2 98/106/2 97/107/2 96/108/2 99/105/2 93/104/2 89/100/2 91/99/2
f 112/8/20 113/109/20 74/110/20 73/9/20
f 64/51/5 68/50/5 67/86/5 66/48/5 62/47/5 63/83/5
f 96/108/6 100/23/6 103/22/6 99/105/6
f 98/106/4 102/21/4 101/80/4 97/107/4
f 99/105/1 103/22/1 102/21/1 98/106/1
f 107/19/11 111/111/11 110/112/11 106/20/11
f 1/10/21 73/9/21 74/110/21 79/113/21 2/114/21
f 110/112/5 111/111/5 108/115/5 109/116/5
f 105/79/1 109/116/1 108/115/1 104/24/1
f 104/24/4 108/115/4 111/111/4 107/19/4
f 106/20/6 110/112/6 109/116/6 105/79/6
f 124/117/13 125/118/13 122/119/13 121/120/13
f 121/120/6 122/119/6 120/121/6 119/122/6
f 125/118/5 123/123/5 120/121/5 122/119/5
f 126/124/4 123/123/4 125/118/4 124/117/4
f 127/125/14 128/126/14 130/127/14 129/128/14
f 129/128/17 130/127/17 134/129/17 133/130/17
f 133/130/16 134/129/16 132/131/16 131/132/16
f 131/132/15 132/131/15 128/126/15 127/125/15
f 128/126/2 132/131/2 134/129/2 137/133/2 138/134/2 135/135/2 136/136/2 130/127/2
f 136/136/1 135/135/1 139/137/1 140/138/1
f 118/139/22 113/109/22 112/8/22 37/7/22 38/140/22
f 134/129/2 130/127/2 136/136/2 137/133/2
f 37/7/23 1/10/23 2/114/23 38/140/23
f 135/135/6 138/134/6 142/141/6 139/137/6
f 137/133/4 136/136/4 140/138/4 141/142/4
f 138/134/11 137/133/11 141/142/11 142/141/11
f 146/143/1 145/144/1 149/145/1 150/146/1
f 142/141/5 141/142/5 140/138/5 144/147/5 145/144/5 146/143/5 143/148/5 139/137/5
f 140/138/5 139/137/5 143/148/5 144/147/5
f 149/145/5 148/149/5 147/150/5 150/146/5
f 144/147/11 143/148/11 147/150/11 148/149/11
f 143/148/4 146/143/4 150/146/4 147/150/4
f 145/144/6 144/147/6 148/149/6 149/145/6
f 115/82/24 76/2/24 75/1/24 114/58/24
