# Blender v2.78 (sub 0) OBJ File: 'decorator_building_castle.blend'
# www.blender.org
mtllib decorator_building_castle.mtl
o decorator_building_castle.001_Cylinder.001
v 0.699659 0.000000 0.398303
v 0.569297 0.700573 0.494668
v 0.438935 0.000000 0.398303
v 0.420662 0.700573 0.237224
v 0.569297 0.000000 0.172510
v 0.569297 0.700573 0.151410
v 0.699659 0.000000 0.247774
v 0.717932 0.700573 0.237224
v 0.438935 0.000000 0.247774
v 0.420662 0.700573 0.408853
v 0.569297 0.000000 0.473567
v 0.717932 0.700573 0.408853
v 0.569297 0.779423 0.018753
v 0.305778 0.779423 0.170896
v 0.832817 0.779423 0.170896
v 0.569297 0.779423 0.627325
v 0.832817 0.779423 0.475182
v 0.305778 0.779423 0.475182
v 0.569297 0.972469 -0.021082
v 0.271280 0.972469 0.150978
v 0.867315 0.972469 0.150978
v 0.569297 0.972469 0.667160
v 0.867315 0.972469 0.495099
v 0.271279 0.972469 0.495099
v 0.569297 0.972469 0.058744
v 0.340411 0.972469 0.190891
v 0.798183 0.972469 0.190891
v 0.569297 0.972469 0.587333
v 0.798183 0.972469 0.455186
v 0.340411 0.972469 0.455186
v 0.569297 0.774349 0.118763
v 0.392389 0.774349 0.220901
v 0.746205 0.774349 0.220901
v 0.569297 0.774349 0.527314
v 0.746205 0.774349 0.425176
v 0.392389 0.774349 0.425176
v 0.555466 0.721484 0.323039
v 0.555466 1.379161 0.323039
v 0.580117 0.721484 0.308806
v 0.580117 1.379161 0.308806
v 0.580117 0.721484 0.337271
v 0.580117 1.379161 0.337271
v 0.770215 1.227055 0.323039
v 0.577016 1.122911 0.325885
v 0.577016 1.331198 0.325885
v 0.006283 1.331198 0.662653
v 0.006283 1.122911 0.662653
v 0.105348 1.227055 0.828545
v -0.002027 1.379161 0.671032
v -0.002027 0.721484 0.671032
v 0.022624 1.379161 0.656799
v 0.022624 0.721484 0.656799
v -0.002027 1.379161 0.642567
v -0.002027 0.721484 0.642567
v -0.172019 0.774349 0.552407
v 0.004889 0.774349 0.858821
v -0.172019 0.774349 0.756683
v 0.181796 0.774349 0.756683
v 0.004889 0.774349 0.450270
v 0.181797 0.774349 0.552408
v -0.223997 0.972469 0.522398
v 0.004889 0.972469 0.918840
v -0.223997 0.972469 0.786692
v 0.233775 0.972469 0.786693
v 0.004889 0.972469 0.390250
v 0.233775 0.972469 0.522398
v -0.293129 0.972469 0.482484
v 0.004889 0.972469 0.998666
v -0.293129 0.972469 0.826606
v 0.302906 0.972469 0.826606
v 0.004889 0.972469 0.310424
v 0.302906 0.972469 0.482485
v -0.258631 0.779423 0.502402
v 0.004889 0.779423 0.958831
v -0.258631 0.779423 0.806688
v 0.268408 0.779423 0.806688
v 0.004889 0.779423 0.350259
v 0.268408 0.779423 0.502402
v 0.004889 0.700573 0.826174
v -0.125473 0.000000 0.729809
v -0.143746 0.700573 0.568731
v 0.004889 0.000000 0.504016
v 0.153524 0.700573 0.740360
v 0.135250 0.000000 0.729810
v 0.153524 0.700573 0.568731
v 0.135250 0.000000 0.579281
v 0.004889 0.700573 0.482916
v -0.125473 0.000000 0.579281
v -0.143746 0.700573 0.740360
v 0.004889 0.000000 0.805074
v -0.570733 1.331198 0.336768
v -0.570733 1.122911 0.336768
v -0.664868 1.227055 0.505507
v -0.582144 1.379161 0.333760
v -0.582144 0.721484 0.333760
v -0.557493 1.379161 0.347993
v -0.557493 0.721484 0.347993
v -0.557493 1.379161 0.319528
v -0.557493 0.721484 0.319528
v -0.564408 0.774349 0.127231
v -0.741316 0.774349 0.433644
v -0.741316 0.774349 0.229368
v -0.564408 0.774349 0.535782
v -0.387501 0.774349 0.229369
v -0.387501 0.774349 0.433644
v -0.564408 0.972469 0.067212
v -0.793294 0.972469 0.463654
v -0.793294 0.972469 0.199359
v -0.564408 0.972469 0.595801
v -0.335522 0.972469 0.199359
v -0.335523 0.972469 0.463654
v -0.564408 0.972469 -0.012615
v -0.862426 0.972469 0.503567
v -0.862426 0.972469 0.159446
v -0.564408 0.972469 0.675627
v -0.266391 0.972469 0.159446
v -0.266391 0.972469 0.503567
v -0.564408 0.779423 0.027220
v -0.827928 0.779423 0.483649
v -0.827928 0.779423 0.179363
v -0.564408 0.779423 0.635792
v -0.300889 0.779423 0.179363
v -0.300889 0.779423 0.483649
v -0.713043 0.700573 0.417321
v -0.694770 0.000000 0.256242
v -0.564408 0.700573 0.159877
v -0.434047 0.000000 0.256242
v -0.564408 0.700573 0.503135
v -0.564408 0.000000 0.482035
v -0.415773 0.700573 0.417321
v -0.434047 0.000000 0.406771
v -0.415773 0.700573 0.245692
v -0.564408 0.000000 0.180978
v -0.713043 0.700573 0.245692
v -0.694770 0.000000 0.406771
v -0.577016 1.331198 -0.320192
v -0.577016 1.122911 -0.320192
v -0.770215 1.227055 -0.323039
v -0.580117 1.379161 -0.337271
v -0.580117 0.721484 -0.337271
v -0.580117 1.379161 -0.308806
v -0.580117 0.721484 -0.308806
v -0.555466 1.379161 -0.323039
v -0.555466 0.721484 -0.323039
v -0.392389 0.774349 -0.425177
v -0.746205 0.774349 -0.425177
v -0.569297 0.774349 -0.527314
v -0.746205 0.774349 -0.220901
v -0.392389 0.774349 -0.220901
v -0.569297 0.774349 -0.118763
v -0.340411 0.972469 -0.455186
v -0.798183 0.972469 -0.455186
v -0.569297 0.972469 -0.587334
v -0.798183 0.972469 -0.190892
v -0.340411 0.972469 -0.190891
v -0.569297 0.972469 -0.058744
v -0.271279 0.972469 -0.495099
v -0.867315 0.972469 -0.495099
v -0.569297 0.972469 -0.667160
v -0.867315 0.972469 -0.150978
v -0.271280 0.972469 -0.150978
v -0.569297 0.972469 0.021082
v -0.305777 0.779423 -0.475182
v -0.832817 0.779423 -0.475182
v -0.569297 0.779423 -0.627325
v -0.832817 0.779423 -0.170896
v -0.305778 0.779423 -0.170896
v -0.569297 0.779423 -0.018753
v -0.717932 0.700573 -0.408853
v -0.569297 0.000000 -0.473568
v -0.420662 0.700573 -0.408853
v -0.438935 0.000000 -0.247775
v -0.717932 0.700573 -0.237224
v -0.699659 0.000000 -0.247775
v -0.569297 0.700573 -0.151410
v -0.569297 0.000000 -0.172510
v -0.420662 0.700573 -0.237224
v -0.438935 0.000000 -0.398303
v -0.569297 0.700573 -0.494668
v -0.699659 0.000000 -0.398303
v -0.011213 1.331198 -0.659807
v -0.011213 1.122911 -0.659807
v -0.105348 1.227055 -0.828546
v 0.002027 1.379161 -0.671032
v 0.002027 0.721484 -0.671032
v -0.022624 1.379161 -0.656799
v -0.022624 0.721484 -0.656799
v 0.002027 1.379161 -0.642567
v 0.002027 0.721484 -0.642567
v 0.172019 0.774349 -0.552407
v -0.004889 0.774349 -0.858821
v 0.172019 0.774349 -0.756683
v -0.181796 0.774349 -0.756683
v -0.004889 0.774349 -0.450270
v -0.181796 0.774349 -0.552408
v 0.223997 0.972469 -0.522398
v -0.004889 0.972469 -0.918840
v 0.223997 0.972469 -0.786692
v -0.233774 0.972469 -0.786693
v -0.004889 0.972469 -0.390251
v -0.233775 0.972469 -0.522398
v 0.293129 0.972469 -0.482484
v -0.004889 0.972469 -0.998666
v 0.293129 0.972469 -0.826606
v -0.302906 0.972469 -0.826606
v -0.004889 0.972469 -0.310424
v -0.302906 0.972469 -0.482485
v 0.258631 0.779423 -0.502402
v -0.004889 0.779423 -0.958831
v 0.258631 0.779423 -0.806688
v -0.268408 0.779423 -0.806688
v -0.004889 0.779423 -0.350259
v -0.268408 0.779423 -0.502402
v -0.004889 0.700573 -0.826174
v 0.125473 0.000000 -0.729809
v 0.143747 0.700573 -0.568731
v -0.004889 0.000000 -0.504017
v -0.153524 0.700573 -0.740360
v -0.135250 0.000000 -0.729810
v -0.153524 0.700573 -0.568731
v -0.135250 0.000000 -0.579281
v -0.004889 0.700573 -0.482916
v 0.125473 0.000000 -0.579281
v 0.143747 0.700573 -0.740360
v -0.004889 0.000000 -0.805074
v 0.565803 1.331198 -0.339614
v 0.565803 1.122911 -0.339614
v 0.664868 1.227055 -0.505507
v 0.582144 1.379161 -0.333760
v 0.582144 0.721484 -0.333760
v 0.557493 1.379161 -0.347993
v 0.557493 0.721484 -0.347993
v 0.557493 1.379161 -0.319528
v 0.557493 0.721484 -0.319528
v 0.564408 0.774349 -0.127231
v 0.741316 0.774349 -0.433644
v 0.741316 0.774349 -0.229368
v 0.564409 0.774349 -0.535782
v 0.387501 0.774349 -0.229369
v 0.387501 0.774349 -0.433644
v 0.564408 0.972469 -0.067211
v 0.793294 0.972469 -0.463654
v 0.793294 0.972469 -0.199359
v 0.564409 0.972469 -0.595801
v 0.335522 0.972469 -0.199359
v 0.335523 0.972469 -0.463654
v 0.564408 0.972469 0.012615
v 0.862426 0.972469 -0.503567
v 0.862426 0.972469 -0.159446
v 0.564409 0.972469 -0.675627
v 0.266391 0.972469 -0.159446
v 0.266391 0.972469 -0.503567
v 0.564408 0.779423 -0.027220
v 0.827928 0.779423 -0.483649
v 0.827928 0.779423 -0.179363
v 0.564409 0.779423 -0.635792
v 0.300889 0.779423 -0.179363
v 0.300889 0.779423 -0.483649
v 0.713044 0.700573 -0.417321
v 0.694770 0.000000 -0.256242
v 0.564408 0.700573 -0.159877
v 0.434047 0.000000 -0.256242
v 0.564409 0.700573 -0.503135
v 0.564409 0.000000 -0.482035
v 0.415773 0.700573 -0.417321
v 0.434047 0.000000 -0.406771
v 0.415773 0.700573 -0.245692
v 0.564408 0.000000 -0.180978
v 0.713044 0.700573 -0.245692
v 0.694770 0.000000 -0.406771
v 0.000000 0.000000 -0.686618
v 0.000000 0.755125 -0.682794
v 0.594628 0.000000 -0.343309
v 0.591317 0.755125 -0.341397
v 0.594628 0.000000 0.343309
v 0.591317 0.755125 0.341397
v -0.000000 0.000000 0.686618
v -0.000000 0.755125 0.682794
v -0.594628 0.000000 0.343309
v -0.591317 0.755125 0.341397
v -0.594628 0.000000 -0.343309
v -0.591317 0.755125 -0.341397
v 0.384770 0.755125 -0.222147
v 0.000000 0.755125 -0.444295
v 0.384770 0.755125 0.222147
v -0.000000 0.755125 0.444295
v -0.384770 0.755125 0.222147
v -0.384770 0.755125 -0.222147
v 0.300771 0.000000 -0.173650
v 0.000000 0.000000 -0.347300
v 0.300771 0.000000 0.173650
v -0.000000 0.000000 0.349245
v -0.302455 0.000000 0.174622
v -0.302455 0.000000 -0.174622
vt 0.8750 0.6250
vt 0.8750 0.6250
vt 0.8750 0.6250
vt 0.8750 0.6250
vt 0.8750 0.6250
vt 0.8750 0.6250
vt 0.8750 0.6250
vt 0.8750 0.6250
vt 0.8750 0.6250
vt 0.8750 0.6250
vt 0.8750 0.6250
vt 0.8750 0.6250
vt 0.8750 0.6250
vt 0.8750 0.6250
vt 0.8750 0.6250
vt 0.8750 0.6250
vt 0.8750 0.6250
vt 0.8750 0.6250
vt 0.8750 0.6250
vt 0.8750 0.6250
vt 0.8750 0.6250
vt 0.8750 0.6250
vt 0.8750 0.6250
vt 0.8750 0.6250
vt 0.8750 0.6250
vt 0.8750 0.6250
vt 0.8750 0.6250
vt 0.8750 0.6250
vt 0.8750 0.6250
vt 0.8750 0.6250
vt 0.8750 0.6250
vt 0.8750 0.6250
vt 0.8750 0.6250
vt 0.8750 0.6250
vt 0.8750 0.6250
vt 0.8750 0.6250
vt 0.1250 0.6250
vt 0.1250 0.6250
vt 0.1250 0.6250
vt 0.1250 0.6250
vt 0.1250 0.6250
vt 0.1250 0.6250
vt 0.3730 0.8482
vt 0.3730 0.8482
vt 0.3730 0.8482
vt 0.3730 0.8482
vt 0.3730 0.8482
vt 0.3730 0.8482
vt 0.1250 0.6250
vt 0.1250 0.6250
vt 0.1250 0.6250
vt 0.1250 0.6250
vt 0.1250 0.6250
vt 0.1250 0.6250
vt 0.8750 0.6250
vt 0.8750 0.6250
vt 0.8750 0.6250
vt 0.8750 0.6250
vt 0.8750 0.6250
vt 0.8750 0.6250
vt 0.8750 0.6250
vt 0.8750 0.6250
vt 0.8750 0.6250
vt 0.8750 0.6250
vt 0.8750 0.6250
vt 0.8750 0.6250
vt 0.8750 0.6250
vt 0.8750 0.6250
vt 0.8750 0.6250
vt 0.8750 0.6250
vt 0.8750 0.6250
vt 0.8750 0.6250
vt 0.8750 0.6250
vt 0.8750 0.6250
vt 0.8750 0.6250
vt 0.8750 0.6250
vt 0.8750 0.6250
vt 0.8750 0.6250
vt 0.8750 0.6250
vt 0.8750 0.6250
vt 0.8750 0.6250
vt 0.8750 0.6250
vt 0.8750 0.6250
vt 0.8750 0.6250
vt 0.8750 0.6250
vt 0.8750 0.6250
vt 0.8750 0.6250
vt 0.8750 0.6250
vt 0.8750 0.6250
vt 0.8750 0.6250
vt 0.3730 0.8482
vt 0.3730 0.8482
vt 0.3730 0.8482
vt 0.1250 0.6250
vt 0.1250 0.6250
vt 0.1250 0.6250
vt 0.1250 0.6250
vt 0.1250 0.6250
vt 0.1250 0.6250
vt 0.8750 0.6250
vt 0.8750 0.6250
vt 0.8750 0.6250
vt 0.8750 0.6250
vt 0.8750 0.6250
vt 0.8750 0.6250
vt 0.8750 0.6250
vt 0.8750 0.6250
vt 0.8750 0.6250
vt 0.8750 0.6250
vt 0.8750 0.6250
vt 0.8750 0.6250
vt 0.8750 0.6250
vt 0.8750 0.6250
vt 0.8750 0.6250
vt 0.8750 0.6250
vt 0.8750 0.6250
vt 0.8750 0.6250
vt 0.8750 0.6250
vt 0.8750 0.6250
vt 0.8750 0.6250
vt 0.8750 0.6250
vt 0.8750 0.6250
vt 0.8750 0.6250
vt 0.8750 0.6250
vt 0.8750 0.6250
vt 0.8750 0.6250
vt 0.8750 0.6250
vt 0.8750 0.6250
vt 0.8750 0.6250
vt 0.8750 0.6250
vt 0.8750 0.6250
vt 0.8750 0.6250
vt 0.8750 0.6250
vt 0.8750 0.6250
vt 0.8750 0.6250
vt 0.3730 0.8482
vt 0.3730 0.8482
vt 0.3730 0.8482
vt 0.1250 0.6250
vt 0.1250 0.6250
vt 0.1250 0.6250
vt 0.1250 0.6250
vt 0.1250 0.6250
vt 0.1250 0.6250
vt 0.8750 0.6250
vt 0.8750 0.6250
vt 0.8750 0.6250
vt 0.8750 0.6250
vt 0.8750 0.6250
vt 0.8750 0.6250
vt 0.8750 0.6250
vt 0.8750 0.6250
vt 0.8750 0.6250
vt 0.8750 0.6250
vt 0.8750 0.6250
vt 0.8750 0.6250
vt 0.8750 0.6250
vt 0.8750 0.6250
vt 0.8750 0.6250
vt 0.8750 0.6250
vt 0.8750 0.6250
vt 0.8750 0.6250
vt 0.8750 0.6250
vt 0.8750 0.6250
vt 0.8750 0.6250
vt 0.8750 0.6250
vt 0.8750 0.6250
vt 0.8750 0.6250
vt 0.8750 0.6250
vt 0.8750 0.6250
vt 0.8750 0.6250
vt 0.8750 0.6250
vt 0.8750 0.6250
vt 0.8750 0.6250
vt 0.8750 0.6250
vt 0.8750 0.6250
vt 0.8750 0.6250
vt 0.8750 0.6250
vt 0.8750 0.6250
vt 0.8750 0.6250
vt 0.8750 0.6250
vt 0.8750 0.6250
vt 0.8750 0.6250
vt 0.8750 0.6250
vt 0.8750 0.6250
vt 0.8750 0.6250
vt 0.3730 0.8482
vt 0.3730 0.8482
vt 0.3730 0.8482
vt 0.1250 0.6250
vt 0.1250 0.6250
vt 0.1250 0.6250
vt 0.1250 0.6250
vt 0.1250 0.6250
vt 0.1250 0.6250
vt 0.8750 0.6250
vt 0.8750 0.6250
vt 0.8750 0.6250
vt 0.8750 0.6250
vt 0.8750 0.6250
vt 0.8750 0.6250
vt 0.8750 0.6250
vt 0.8750 0.6250
vt 0.8750 0.6250
vt 0.8750 0.6250
vt 0.8750 0.6250
vt 0.8750 0.6250
vt 0.8750 0.6250
vt 0.8750 0.6250
vt 0.8750 0.6250
vt 0.8750 0.6250
vt 0.8750 0.6250
vt 0.8750 0.6250
vt 0.8750 0.6250
vt 0.8750 0.6250
vt 0.8750 0.6250
vt 0.8750 0.6250
vt 0.8750 0.6250
vt 0.8750 0.6250
vt 0.8750 0.6250
vt 0.8750 0.6250
vt 0.8750 0.6250
vt 0.8750 0.6250
vt 0.8750 0.6250
vt 0.8750 0.6250
vt 0.8750 0.6250
vt 0.8750 0.6250
vt 0.8750 0.6250
vt 0.8750 0.6250
vt 0.8750 0.6250
vt 0.8750 0.6250
vt 0.3730 0.8482
vt 0.3730 0.8482
vt 0.3730 0.8482
vt 0.1250 0.6250
vt 0.1250 0.6250
vt 0.1250 0.6250
vt 0.1250 0.6250
vt 0.1250 0.6250
vt 0.1250 0.6250
vt 0.8750 0.6250
vt 0.8750 0.6250
vt 0.8750 0.6250
vt 0.8750 0.6250
vt 0.8750 0.6250
vt 0.8750 0.6250
vt 0.8750 0.6250
vt 0.8750 0.6250
vt 0.8750 0.6250
vt 0.8750 0.6250
vt 0.8750 0.6250
vt 0.8750 0.6250
vt 0.8750 0.6250
vt 0.8750 0.6250
vt 0.8750 0.6250
vt 0.8750 0.6250
vt 0.8750 0.6250
vt 0.8750 0.6250
vt 0.8750 0.6250
vt 0.8750 0.6250
vt 0.8750 0.6250
vt 0.8750 0.6250
vt 0.8750 0.6250
vt 0.8750 0.6250
vt 0.8750 0.6250
vt 0.8750 0.6250
vt 0.8750 0.6250
vt 0.8750 0.6250
vt 0.8750 0.6250
vt 0.8750 0.6250
vt 0.8750 0.6250
vt 0.8750 0.6250
vt 0.8750 0.6250
vt 0.8750 0.6250
vt 0.8750 0.6250
vt 0.8750 0.6250
vt 0.8750 0.6250
vt 0.8750 0.6250
vt 0.8750 0.6250
vt 0.8750 0.6250
vt 0.8750 0.6250
vt 0.8750 0.6250
vt 0.8750 0.6250
vt 0.8750 0.6250
vt 0.8750 0.6250
vt 0.8750 0.6250
vt 0.8750 0.6250
vt 0.8750 0.6250
vt 0.8750 0.6250
vt 0.8750 0.6250
vt 0.8750 0.6250
vt 0.8750 0.6250
vt 0.8750 0.6250
vt 0.8750 0.6250
vn 0.4998 -0.0261 0.8657
vn -0.4998 -0.0261 0.8657
vn -0.9997 -0.0261 -0.0000
vn -0.4998 -0.0261 -0.8657
vn -0.5659 -0.8245 -0.0000
vn 0.4998 -0.0261 -0.8657
vn 0.9997 -0.0261 0.0000
vn 0.9844 -0.1759 0.0000
vn 0.2829 -0.8245 -0.4901
vn 0.5659 -0.8245 0.0000
vn -0.2829 -0.8245 -0.4901
vn -0.2829 -0.8245 0.4901
vn 0.2829 -0.8245 0.4901
vn -0.4922 -0.1759 0.8525
vn 0.4922 -0.1759 -0.8525
vn -0.9844 -0.1759 -0.0000
vn 0.4922 -0.1759 0.8525
vn -0.4922 -0.1759 -0.8525
vn -0.9673 0.2538 0.0000
vn 0.0000 1.0000 -0.0000
vn 0.4836 0.2538 -0.8377
vn -0.4836 0.2538 0.8377
vn 0.9673 0.2538 0.0000
vn -0.4836 0.2538 -0.8377
vn 0.4836 0.2538 0.8377
vn -0.5000 0.0000 -0.8660
vn 1.0000 0.0000 -0.0000
vn -0.5000 0.0000 0.8660
vn 0.0147 0.0000 0.9999
vn -0.8586 0.0000 0.5127
vn -1.0000 0.0000 0.0000
vn 0.5000 0.0000 0.8660
vn 0.5000 0.0000 -0.8660
vn -0.8733 0.0000 -0.4872
vn -0.0147 0.0000 0.9999
vn -0.8733 0.0000 0.4872
vn -0.8586 0.0000 -0.5127
vn 0.5000 0.0044 -0.8660
vn 1.0000 0.0044 0.0000
vn 0.5000 0.0044 0.8660
vn -0.5000 0.0044 0.8660
vn -1.0000 0.0044 0.0000
vn -0.5000 0.0044 -0.8660
vn -0.4988 0.1095 -0.8598
vn 0.9941 0.1084 0.0000
vn -0.9939 0.1106 0.0000
vn 0.4971 0.1084 -0.8609
vn 0.4952 0.1095 0.8619
vn -0.4969 0.1106 0.8607
usemtl None
s off
f 1/1/1 12/2/1 2/3/1 11/4/1
f 11/4/2 2/3/2 10/5/2 3/6/2
f 3/6/3 10/5/3 4/7/3 9/8/3
f 9/8/4 4/7/4 6/9/4 5/10/4
f 4/7/5 10/5/5 18/11/5 14/12/5
f 5/10/6 6/9/6 8/13/6 7/14/6
f 7/14/7 8/13/7 12/2/7 1/1/7
f 17/15/8 15/16/8 21/17/8 23/18/8
f 8/13/9 6/9/9 13/19/9 15/16/9
f 12/2/10 8/13/10 15/16/10 17/15/10
f 6/9/11 4/7/11 14/12/11 13/19/11
f 10/5/12 2/3/12 16/20/12 18/11/12
f 2/3/13 12/2/13 17/15/13 16/20/13
f 18/11/14 16/20/14 22/21/14 24/22/14
f 15/16/15 13/19/15 19/23/15 21/17/15
f 14/12/16 18/11/16 24/22/16 20/24/16
f 16/20/17 17/15/17 23/18/17 22/21/17
f 13/19/18 14/12/18 20/24/18 19/23/18
f 29/25/19 27/26/19 33/27/19 35/28/19
f 24/22/20 22/21/20 28/29/20 30/30/20
f 34/31/20 35/28/20 33/27/20 31/32/20 32/33/20 36/34/20
f 30/30/21 28/29/21 34/31/21 36/34/21
f 27/26/22 25/35/22 31/32/22 33/27/22
f 26/36/23 30/30/23 36/34/23 32/33/23
f 28/29/24 29/25/24 35/28/24 34/31/24
f 25/35/25 26/36/25 32/33/25 31/32/25
f 37/37/26 38/38/26 40/39/26 39/40/26
f 39/40/27 40/39/27 42/41/27 41/42/27
f 40/39/20 38/38/20 42/41/20
f 41/42/28 42/41/28 38/38/28 37/37/28
f 43/43/29 45/44/29 44/45/29
f 48/46/30 46/47/30 47/48/30
f 50/49/31 49/50/31 53/51/31 54/52/31
f 51/53/20 53/51/20 49/50/20
f 52/54/32 51/53/32 49/50/32 50/49/32
f 54/52/33 53/51/33 51/53/33 52/54/33
f 66/55/22 65/56/22 59/57/22 60/58/22
f 63/59/21 62/60/21 56/61/21 57/62/21
f 65/56/25 61/63/25 55/64/25 59/57/25
f 64/65/19 66/55/19 60/58/19 58/66/19
f 61/63/23 63/59/23 57/62/23 55/64/23
f 57/62/20 56/61/20 58/66/20 60/58/20 59/57/20 55/64/20
f 72/67/20 71/68/20 65/56/20 66/55/20 64/65/20 62/60/20 63/59/20 61/63/20 67/69/20 69/70/20 68/71/20 70/72/20
f 62/60/24 64/65/24 58/66/24 56/61/24
f 78/73/15 77/74/15 71/68/15 72/67/15
f 75/75/14 74/76/14 68/71/14 69/70/14
f 77/74/18 73/77/18 67/69/18 71/68/18
f 76/78/8 78/73/8 72/67/8 70/72/8
f 73/77/16 75/75/16 69/70/16 67/69/16
f 71/68/20 67/69/20 61/63/20 65/56/20
f 89/79/12 79/80/12 74/76/12 75/75/12
f 81/81/5 89/79/5 75/75/5 73/77/5
f 85/82/9 87/83/9 77/74/9 78/73/9
f 79/80/13 83/84/13 76/78/13 74/76/13
f 83/84/10 85/82/10 78/73/10 76/78/10
f 74/76/17 76/78/17 70/72/17 68/71/17
f 84/85/1 83/84/1 79/80/1 90/86/1
f 86/87/7 85/82/7 83/84/7 84/85/7
f 87/83/11 81/81/11 73/77/11 77/74/11
f 82/88/6 87/83/6 85/82/6 86/87/6
f 88/89/4 81/81/4 87/83/4 82/88/4
f 80/90/3 89/79/3 81/81/3 88/89/3
f 90/86/2 79/80/2 89/79/2 80/90/2
f 93/91/34 91/92/34 92/93/34
f 95/94/26 94/95/26 98/96/26 99/97/26
f 96/98/20 98/96/20 94/95/20
f 97/99/28 96/98/28 94/95/28 95/94/28
f 99/97/27 98/96/27 96/98/27 97/99/27
f 111/100/19 110/101/19 104/102/19 105/103/19
f 108/104/23 107/105/23 101/106/23 102/107/23
f 110/101/22 106/108/22 100/109/22 104/102/22
f 109/110/24 111/100/24 105/103/24 103/111/24
f 106/108/25 108/104/25 102/107/25 100/109/25
f 102/107/20 101/106/20 103/111/20 105/103/20 104/102/20 100/109/20
f 112/112/20 114/113/20 108/104/20 106/108/20
f 116/114/20 112/112/20 106/108/20 110/101/20 111/100/20 109/110/20 107/105/20 108/104/20 114/113/20 113/115/20 115/116/20 117/117/20
f 107/105/21 109/110/21 103/111/21 101/106/21
f 123/118/8 122/119/8 116/114/8 117/117/8
f 120/120/16 119/121/16 113/115/16 114/113/16
f 122/119/15 118/122/15 112/112/15 116/114/15
f 121/123/17 123/118/17 117/117/17 115/116/17
f 118/122/18 120/120/18 114/113/18 112/112/18
f 134/124/5 124/125/5 119/121/5 120/120/5
f 126/126/11 134/124/11 120/120/11 118/122/11
f 130/127/10 132/128/10 122/119/10 123/118/10
f 124/125/12 128/129/12 121/123/12 119/121/12
f 128/129/13 130/127/13 123/118/13 121/123/13
f 119/121/14 121/123/14 115/116/14 113/115/14
f 129/130/2 128/129/2 124/125/2 135/131/2
f 131/132/1 130/127/1 128/129/1 129/130/1
f 132/128/9 126/126/9 118/122/9 122/119/9
f 127/133/7 132/128/7 130/127/7 131/132/7
f 133/134/6 126/126/6 132/128/6 127/133/6
f 125/135/4 134/124/4 126/126/4 133/134/4
f 135/131/3 124/125/3 134/124/3 125/135/3
f 137/136/35 136/137/35 138/138/35
f 140/139/33 139/140/33 143/141/33 144/142/33
f 141/143/20 143/141/20 139/140/20
f 142/144/31 141/143/31 139/140/31 140/139/31
f 144/142/32 143/141/32 141/143/32 142/144/32
f 156/145/24 155/146/24 149/147/24 150/148/24
f 153/149/25 152/150/25 146/151/25 147/152/25
f 155/146/19 151/153/19 145/154/19 149/147/19
f 154/155/21 156/145/21 150/148/21 148/156/21
f 151/153/22 153/149/22 147/152/22 145/154/22
f 147/152/20 146/151/20 148/156/20 150/148/20 149/147/20 145/154/20
f 158/157/20 160/158/20 162/159/20 156/145/20 154/155/20 152/150/20 153/149/20 151/153/20 155/146/20 161/160/20 157/161/20 159/162/20
f 162/159/20 161/160/20 155/146/20 156/145/20
f 152/150/23 154/155/23 148/156/23 146/151/23
f 168/163/17 167/164/17 161/160/17 162/159/17
f 165/165/18 164/166/18 158/157/18 159/162/18
f 167/164/8 163/167/8 157/161/8 161/160/8
f 166/168/14 168/163/14 162/159/14 160/158/14
f 163/167/15 165/165/15 159/162/15 157/161/15
f 251/169/20 247/170/20 249/171/20 243/172/20 241/173/20 245/174/20
f 179/175/11 169/176/11 164/166/11 165/165/11
f 171/177/9 179/175/9 165/165/9 163/167/9
f 175/178/13 177/179/13 167/164/13 168/163/13
f 169/176/5 173/180/5 166/168/5 164/166/5
f 173/180/12 175/178/12 168/163/12 166/168/12
f 164/166/16 166/168/16 160/158/16 158/157/16
f 174/181/3 173/180/3 169/176/3 180/182/3
f 176/183/2 175/178/2 173/180/2 174/181/2
f 177/179/10 171/177/10 163/167/10 167/164/10
f 172/184/1 177/179/1 175/178/1 176/183/1
f 178/185/7 171/177/7 177/179/7 172/184/7
f 170/186/6 179/175/6 171/177/6 178/185/6
f 180/182/4 169/176/4 179/175/4 170/186/4
f 182/187/36 181/188/36 183/189/36
f 185/190/27 184/191/27 188/192/27 189/193/27
f 186/194/20 188/192/20 184/191/20
f 187/195/26 186/194/26 184/191/26 185/190/26
f 189/193/28 188/192/28 186/194/28 187/195/28
f 201/196/21 200/197/21 194/198/21 195/199/21
f 198/200/22 197/201/22 191/202/22 192/203/22
f 200/197/24 196/204/24 190/205/24 194/198/24
f 199/206/23 201/196/23 195/199/23 193/207/23
f 196/204/19 198/200/19 192/203/19 190/205/19
f 192/203/20 191/202/20 193/207/20 195/199/20 194/198/20 190/205/20
f 204/208/20 203/209/20 197/201/20 198/200/20
f 197/201/25 199/206/25 193/207/25 191/202/25
f 213/210/14 212/211/14 206/212/14 207/213/14
f 210/214/15 209/215/15 203/209/15 204/208/15
f 212/211/17 208/216/17 202/217/17 206/212/17
f 211/218/16 213/210/16 207/213/16 205/219/16
f 208/216/8 210/214/8 204/208/8 202/217/8
f 224/220/9 214/221/9 209/215/9 210/214/9
f 216/222/10 224/220/10 210/214/10 208/216/10
f 220/223/12 222/224/12 212/211/12 213/210/12
f 214/221/11 218/225/11 211/218/11 209/215/11
f 218/225/5 220/223/5 213/210/5 211/218/5
f 209/215/18 211/218/18 205/219/18 203/209/18
f 219/226/4 218/225/4 214/221/4 225/227/4
f 221/228/3 220/223/3 218/225/3 219/226/3
f 222/224/13 216/222/13 208/216/13 212/211/13
f 217/229/2 222/224/2 220/223/2 221/228/2
f 223/230/1 216/222/1 222/224/1 217/229/1
f 215/231/7 224/220/7 216/222/7 223/230/7
f 225/227/6 214/221/6 224/220/6 215/231/6
f 227/232/37 226/233/37 228/234/37
f 230/235/32 229/236/32 233/237/32 234/238/32
f 231/239/20 233/237/20 229/236/20
f 232/240/33 231/239/33 229/236/33 230/235/33
f 234/238/31 233/237/31 231/239/31 232/240/31
f 246/241/23 245/174/23 239/242/23 240/243/23
f 243/172/19 242/244/19 236/245/19 237/246/19
f 245/174/21 241/173/21 235/247/21 239/242/21
f 244/248/25 246/241/25 240/243/25 238/249/25
f 241/173/24 243/172/24 237/246/24 235/247/24
f 237/246/20 236/245/20 238/249/20 240/243/20 239/242/20 235/247/20
f 207/213/20 206/212/20 202/217/20 204/208/20 198/200/20 196/204/20 200/197/20 201/196/20 199/206/20 197/201/20 203/209/20 205/219/20
f 252/250/20 251/169/20 245/174/20 246/241/20 244/248/20 242/244/20 243/172/20 249/171/20 248/251/20 250/252/20
f 21/17/20 19/23/20 20/24/20 24/22/20 30/30/20 26/36/20 25/35/20 27/26/20 29/25/20 28/29/20 22/21/20 23/18/20
f 242/244/22 244/248/22 238/249/22 236/245/22
f 258/253/16 257/254/16 251/169/16 252/250/16
f 255/255/8 254/256/8 248/251/8 249/171/8
f 257/254/14 253/257/14 247/170/14 251/169/14
f 256/258/18 258/253/18 252/250/18 250/252/18
f 253/257/17 255/255/17 249/171/17 247/170/17
f 269/259/10 259/260/10 254/256/10 255/255/10
f 261/261/13 269/259/13 255/255/13 253/257/13
f 265/262/5 267/263/5 257/254/5 258/253/5
f 259/260/9 263/264/9 256/258/9 254/256/9
f 263/264/11 265/262/11 258/253/11 256/258/11
f 254/256/15 256/258/15 250/252/15 248/251/15
f 264/265/6 263/264/6 259/260/6 270/266/6
f 266/267/4 265/262/4 263/264/4 264/265/4
f 267/263/12 261/261/12 253/257/12 257/254/12
f 262/268/3 267/263/3 265/262/3 266/267/3
f 268/269/2 261/261/2 267/263/2 262/268/2
f 260/270/1 269/259/1 261/261/1 268/269/1
f 270/266/7 259/260/7 269/259/7 260/270/7
f 271/271/38 272/272/38 274/273/38 273/274/38
f 273/274/39 274/273/39 276/275/39 275/276/39
f 275/276/40 276/275/40 278/277/40 277/278/40
f 277/278/41 278/277/41 280/279/41 279/280/41
f 279/280/42 280/279/42 282/281/42 281/282/42
f 281/282/43 282/281/43 272/272/43 271/271/43
f 286/283/44 285/284/44 291/285/44 292/286/44
f 282/281/20 280/279/20 287/287/20 288/288/20
f 276/275/20 274/273/20 272/272/20 282/281/20 288/288/20 284/289/20 283/290/20 285/284/20 286/283/20 287/287/20 280/279/20 278/277/20
f 288/288/45 287/287/45 293/291/45 294/292/45
f 285/284/46 283/290/46 289/293/46 291/285/46
f 287/287/47 286/283/47 292/286/47 293/291/47
f 284/289/48 288/288/48 294/292/48 290/294/48
f 283/290/49 284/289/49 290/294/49 289/293/49
