# Blender v2.78 (sub 0) OBJ File: 'decorator_building_lightHouse.blend'
# www.blender.org
mtllib decorator_building_lightHouse.mtl
o decorator_building_lightHouse_Cylinder.001
v -0.249028 -0.000000 0.310038
v -0.235445 0.176157 0.286510
v -0.235616 -0.000000 0.286808
v -0.222033 0.172196 0.263280
v -0.143987 -0.000000 0.370684
v -0.130403 0.176157 0.347156
v -0.130575 -0.000000 0.347454
v -0.116991 0.172196 0.323926
v -0.144484 -0.000000 0.339423
v -0.221707 -0.000000 0.294838
v -0.207352 0.182645 0.269975
v -0.192133 0.188889 0.277696
v -0.176088 0.192720 0.286307
v -0.159905 0.192720 0.295650
v -0.144426 0.188889 0.305240
v -0.130129 0.182645 0.314559
v -0.235119 -0.000000 0.318069
v -0.157896 -0.000000 0.362653
v -0.143541 0.186606 0.337789
v -0.157838 0.192850 0.328471
v -0.173317 0.196681 0.318880
v -0.189500 0.196681 0.309537
v -0.205545 0.192850 0.300927
v -0.220764 0.186606 0.293205
v -0.145111 0.165339 0.340509
v -0.159458 0.170900 0.331278
v -0.174969 0.174312 0.321741
v -0.191151 0.174312 0.312398
v -0.207166 0.170900 0.303733
v -0.222334 0.165339 0.295924
v -0.208922 0.161379 0.272694
v -0.193754 0.166939 0.280503
v -0.177739 0.170351 0.289167
v -0.161557 0.170351 0.298510
v -0.146046 0.166939 0.308047
v -0.131699 0.161379 0.317278
v 0.000000 0.000000 -0.424392
v 0.000000 0.452183 -0.279296
v 0.367534 0.000000 -0.212196
v 0.241878 0.452183 -0.139648
v 0.367534 0.000000 0.212196
v 0.241878 0.452183 0.139648
v -0.000000 0.000000 0.424392
v -0.000000 0.452183 0.279296
v -0.367534 0.000000 0.212196
v -0.241878 0.452183 0.139648
v -0.367534 0.000000 -0.212196
v -0.241878 0.452183 -0.139648
v 0.196030 0.452183 -0.113178
v -0.000000 0.452183 -0.226356
v 0.196030 0.452183 0.113178
v -0.000000 0.452183 0.226356
v -0.196030 0.452183 0.113178
v -0.196030 0.452183 -0.113178
v 0.115305 0.872963 -0.066571
v 0.000000 0.872963 -0.133143
v 0.115305 0.872963 0.066572
v -0.000000 0.872963 0.133143
v -0.115305 0.872963 0.066572
v -0.115305 0.872963 -0.066571
v 0.074774 0.872963 -0.043171
v 0.000000 0.872963 -0.086342
v 0.074774 0.872963 0.043171
v 0.000000 0.872963 0.086342
v -0.074774 0.872963 0.043171
v -0.074774 0.872963 -0.043171
v 0.037092 1.136034 -0.021415
v 0.000000 1.136034 -0.042831
v 0.037092 1.136034 0.021415
v 0.000000 1.136034 0.042831
v -0.037092 1.136034 0.021415
v -0.037092 1.136034 -0.021415
v 0.172134 1.176922 -0.099381
v 0.000000 1.176922 -0.198763
v 0.172134 1.176922 0.099381
v 0.000000 1.176922 0.198763
v -0.172134 1.176922 0.099381
v -0.172134 1.176922 -0.099381
v 0.193272 1.283206 -0.111586
v 0.000000 1.283206 -0.223172
v 0.193272 1.283206 0.111586
v -0.000000 1.283206 0.223172
v -0.193272 1.283206 0.111586
v -0.193272 1.283206 -0.111586
v 0.112470 1.283206 -0.064935
v -0.000000 1.283206 -0.129870
v 0.112470 1.283206 0.064935
v -0.000000 1.283206 0.129870
v -0.112470 1.283206 0.064935
v -0.112470 1.283206 -0.064935
v 0.112470 1.523438 -0.064935
v -0.000000 1.523438 -0.129870
v 0.112470 1.523438 0.064935
v -0.000000 1.523438 0.129870
v -0.112471 1.523438 0.064935
v -0.112471 1.523438 -0.064935
v 0.210890 1.523438 -0.121757
v -0.000000 1.523438 -0.243515
v 0.210890 1.523438 0.121757
v -0.000000 1.523438 0.243515
v -0.210890 1.523438 0.121757
v -0.210890 1.523438 -0.121757
v 0.080375 1.608227 -0.046404
v -0.000000 1.608227 -0.092809
v 0.080375 1.608227 0.046404
v -0.000000 1.608227 0.092809
v -0.080375 1.608227 0.046404
v -0.080375 1.608227 -0.046404
v -0.101223 1.298587 0.071428
v -0.011247 1.298587 0.123376
v -0.101224 1.508057 0.071428
v -0.011247 1.508057 0.123376
v 0.011247 1.298587 0.123376
v 0.101223 1.298587 0.071428
v 0.011247 1.508057 0.123376
v 0.101223 1.508057 0.071428
v 0.112470 1.298587 0.051948
v 0.112470 1.298587 -0.051948
v 0.112470 1.508057 0.051948
v 0.112470 1.508057 -0.051948
v 0.101223 1.298587 -0.071428
v 0.011247 1.298587 -0.123376
v 0.101223 1.508057 -0.071428
v 0.011247 1.508057 -0.123376
v -0.112470 1.298587 -0.051948
v -0.112470 1.298587 0.051948
v -0.112471 1.508057 -0.051948
v -0.112471 1.508057 0.051948
v -0.011247 1.298587 -0.123376
v -0.101223 1.298587 -0.071428
v -0.011247 1.508057 -0.123376
v -0.101224 1.508057 -0.071428
v 0.127880 1.305718 -0.073831
v 0.000000 1.305718 -0.147663
v 0.127880 1.305718 0.073831
v -0.000000 1.305718 0.147663
v -0.127880 1.305718 0.073831
v -0.127880 1.305718 -0.073831
v 0.127880 1.500927 -0.073831
v -0.000000 1.500927 -0.147663
v 0.127880 1.500927 0.073831
v -0.000000 1.500927 0.147663
v -0.127880 1.500927 0.073831
v -0.127880 1.500927 -0.073831
v -0.115092 1.316596 0.081215
v -0.012788 1.316596 0.140280
v -0.115092 1.490049 0.081215
v -0.012788 1.490049 0.140280
v 0.012788 1.316596 0.140280
v 0.115092 1.316596 0.081215
v 0.012788 1.490049 0.140280
v 0.115092 1.490049 0.081215
v 0.127880 1.316596 0.059065
v 0.127880 1.316596 -0.059065
v 0.127880 1.490049 0.059065
v 0.127880 1.490049 -0.059065
v 0.115092 1.316596 -0.081215
v 0.012788 1.316596 -0.140280
v 0.115092 1.490049 -0.081215
v 0.012788 1.490049 -0.140280
v -0.127880 1.316596 -0.059065
v -0.127880 1.316596 0.059065
v -0.127880 1.490049 -0.059065
v -0.127880 1.490049 0.059065
v -0.012788 1.316596 -0.140280
v -0.115092 1.316596 -0.081215
v -0.012788 1.490049 -0.140280
v -0.115092 1.490049 -0.081215
v -0.179129 0.662573 0.103420
v -0.179129 0.662573 -0.103420
v 0.179129 0.662573 0.103420
v -0.000000 0.662573 0.206841
v 0.000000 0.662573 -0.206841
v 0.179129 0.662573 -0.103420
v -0.143170 0.662573 0.082659
v 0.143170 0.662573 0.082659
v 0.000000 0.662573 -0.165318
v -0.143170 0.662573 -0.082659
v -0.000000 0.662573 0.165318
v 0.143170 0.662573 -0.082659
v 0.064051 1.011750 0.036980
v 0.000000 1.011750 0.073960
v 0.000000 1.011750 -0.073960
v 0.064051 1.011750 -0.036980
v -0.064051 1.011750 -0.036980
v -0.064051 1.011750 0.036980
v 0.041476 1.011750 0.023946
v 0.000000 1.011750 -0.047893
v -0.041476 1.011750 -0.023946
v 0.000000 1.011750 0.047893
v 0.041476 1.011750 -0.023946
v -0.041476 1.011750 0.023946
v 0.000000 0.237345 -0.310469
v 0.268874 0.237345 -0.155235
v 0.268874 0.237345 0.155235
v -0.000000 0.237345 0.310469
v -0.268874 0.237345 0.155235
v -0.268874 0.237345 -0.155235
v 0.337715 0.237345 -0.194980
v 0.337715 0.237345 0.194980
v -0.000000 0.237345 0.389960
v -0.337715 0.237345 0.194980
v -0.337715 0.237345 -0.194980
v 0.000000 0.237345 -0.389960
v -0.000000 1.345894 -0.000000
v -0.000000 1.468411 -0.000000
v -0.000000 1.407152 -0.037975
v 0.032887 1.407152 -0.018987
v 0.032887 1.407152 0.018987
v -0.000000 1.407152 0.037975
v -0.032887 1.407152 0.018987
v -0.032887 1.407152 -0.018987
vt 0.8750 0.3750
vt 0.8750 0.3750
vt 0.8750 0.3750
vt 0.8750 0.3750
vt 0.8750 0.3750
vt 0.8750 0.3750
vt 0.8750 0.3750
vt 0.8750 0.3750
vt 0.8750 0.3750
vt 0.8750 0.3750
vt 0.8750 0.3750
vt 0.8750 0.3750
vt 0.8750 0.3750
vt 0.8750 0.3750
vt 0.8750 0.3750
vt 0.8750 0.3750
vt 0.8750 0.3750
vt 0.8750 0.3750
vt 0.8750 0.3750
vt 0.8750 0.3750
vt 0.8750 0.3750
vt 0.8750 0.3750
vt 0.8750 0.3750
vt 0.8750 0.3750
vt 0.8750 0.3750
vt 0.8750 0.3750
vt 0.8750 0.3750
vt 0.8750 0.3750
vt 0.8750 0.3750
vt 0.8750 0.3750
vt 0.8750 0.3750
vt 0.8750 0.3750
vt 0.8750 0.3750
vt 0.8750 0.3750
vt 0.8750 0.3750
vt 0.8750 0.3750
vt 0.8750 0.3750
vt 0.8750 0.3750
vt 0.8750 0.3750
vt 0.8750 0.3750
vt 0.8750 0.3750
vt 0.8750 0.3750
vt 0.8750 0.3750
vt 0.8750 0.3750
vt 0.8750 0.3750
vt 0.8750 0.3750
vt 0.8750 0.3750
vt 0.8750 0.3750
vt 0.8750 0.3750
vt 0.8750 0.3750
vt 0.8750 0.3750
vt 0.8750 0.3750
vt 0.8750 0.3750
vt 0.8750 0.3750
vt 0.8750 0.3750
vt 0.8750 0.3750
vt 0.8750 0.3750
vt 0.8750 0.3750
vt 0.8750 0.3750
vt 0.8750 0.3750
vt 0.8750 0.3750
vt 0.8750 0.3750
vt 0.8750 0.3750
vt 0.8750 0.3750
vt 0.8750 0.3750
vt 0.8750 0.3750
vt 0.8750 0.3750
vt 0.8750 0.3750
vt 0.8750 0.3750
vt 0.8750 0.3750
vt 0.8750 0.3750
vt 0.8750 0.3750
vt 0.8750 0.3750
vt 0.8750 0.3750
vt 0.8750 0.3750
vt 0.8750 0.3750
vt 0.8750 0.3750
vt 0.8750 0.3750
vt 0.8750 0.3750
vt 0.8750 0.3750
vt 0.8750 0.3750
vt 0.8750 0.3750
vt 0.8750 0.3750
vt 0.8750 0.3750
vt 0.8750 0.3750
vt 0.8750 0.3750
vt 0.8750 0.3750
vt 0.8750 0.3750
vt 0.8750 0.3750
vt 0.3750 0.8750
vt 0.3750 0.8750
vt 0.3750 0.8750
vt 0.3750 0.8750
vt 0.8750 0.3750
vt 0.8750 0.3750
vt 0.8750 0.3750
vt 0.8750 0.3750
vt 0.8750 0.3750
vt 0.8750 0.3750
vt 0.8750 0.3750
vt 0.8750 0.3750
vt 0.3750 0.8750
vt 0.3750 0.8750
vt 0.3750 0.8750
vt 0.3750 0.8750
vt 0.3750 0.8750
vt 0.3750 0.8750
vt 0.3750 0.8750
vt 0.3750 0.8750
vt 0.3750 0.8750
vt 0.3750 0.8750
vt 0.3750 0.8750
vt 0.3750 0.8750
vt 0.3750 0.8750
vt 0.3750 0.8750
vt 0.3750 0.8750
vt 0.3750 0.8750
vt 0.3750 0.8750
vt 0.3750 0.8750
vt 0.3750 0.8750
vt 0.3750 0.8750
vt 0.3750 0.8750
vt 0.3750 0.8750
vt 0.3750 0.8750
vt 0.3750 0.8750
vt 0.3750 0.8750
vt 0.3750 0.8750
vt 0.8750 0.3750
vt 0.8750 0.3750
vt 0.3750 0.8750
vt 0.3750 0.8750
vt 0.3750 0.8750
vt 0.3750 0.8750
vt 0.3750 0.8750
vt 0.3750 0.8750
vt 0.3750 0.8750
vt 0.3750 0.8750
vt 0.3750 0.8750
vt 0.3750 0.8750
vt 0.3750 0.8750
vt 0.3750 0.8750
vt 0.3750 0.8750
vt 0.3750 0.8750
vt 0.3750 0.8750
vt 0.3750 0.8750
vt 0.3750 0.8750
vt 0.3750 0.8750
vt 0.8750 0.3750
vt 0.8750 0.3750
vt 0.8750 0.3750
vt 0.8750 0.3750
vt 0.8750 0.3750
vt 0.8750 0.3750
vt 0.8750 0.3750
vt 0.8750 0.3750
vt 0.8750 0.3750
vt 0.8750 0.3750
vt 0.8750 0.3750
vt 0.8750 0.3750
vt 0.3750 0.8750
vt 0.3750 0.8750
vt 0.3750 0.8750
vt 0.3750 0.8750
vt 0.3750 0.8750
vt 0.3750 0.8750
vt 0.8750 0.3750
vt 0.8750 0.3750
vt 0.8750 0.3750
vt 0.8750 0.3750
vt 0.8750 0.3750
vt 0.8750 0.3750
vt 0.8750 0.3750
vt 0.8750 0.3750
vt 0.8750 0.3750
vt 0.8750 0.3750
vt 0.8750 0.3750
vt 0.8750 0.3750
vt 0.8750 0.3750
vt 0.8750 0.3750
vt 0.8750 0.3750
vt 0.8750 0.3750
vt 0.8750 0.3750
vt 0.8750 0.3750
vt 0.8750 0.3750
vt 0.8750 0.3750
vt 0.8750 0.3750
vt 0.8750 0.3750
vt 0.8750 0.3750
vt 0.8750 0.3750
vt 0.8750 0.3750
vt 0.8750 0.3750
vt 0.8750 0.3750
vt 0.8750 0.3750
vt 0.8750 0.3750
vt 0.8750 0.3750
vt 0.8750 0.3750
vt 0.8750 0.3750
vt 0.8750 0.3750
vt 0.8750 0.3750
vt 0.8750 0.3750
vt 0.8750 0.3750
vt 0.8750 0.3750
vt 0.8750 0.3750
vt 0.8750 0.3750
vt 0.8750 0.3750
vt 0.8750 0.3750
vt 0.8750 0.3750
vt 0.8750 0.3750
vt 0.3750 0.8750
vt 0.3750 0.8750
vt 0.3750 0.8750
vt 0.3750 0.8750
vt 0.3750 0.8750
vt 0.3750 0.8750
vt 0.3750 0.8750
vt 0.3750 0.8750
vt 0.3750 0.8750
vt 0.3750 0.8750
vt 0.3750 0.8750
vt 0.3750 0.8750
vt 0.3750 0.8750
vt 0.3750 0.8750
vt 0.3750 0.8750
vt 0.3750 0.8750
vt 0.3750 0.8750
vt 0.3750 0.8750
vt 0.8750 0.3750
vt 0.3750 0.8750
vt 0.3750 0.8750
vt 0.3750 0.8750
vt 0.3750 0.8750
vt 0.3750 0.8750
vt 0.3750 0.8750
vt 0.8750 0.3750
vt 0.3750 0.8750
vt 0.3750 0.8750
vt 0.3750 0.8750
vt 0.3750 0.8750
vt 0.3750 0.8750
vt 0.3750 0.8750
vt 0.3750 0.8750
vt 0.3750 0.8750
vt 0.3750 0.8750
vt 0.3750 0.8750
vt 0.3750 0.8750
vt 0.3750 0.8750
vt 0.3750 0.8750
vt 0.3750 0.8750
vt 0.3750 0.8750
vt 0.3750 0.8750
vt 0.3750 0.8750
vt 0.3750 0.8750
vt 0.3750 0.8750
vt 0.3750 0.8750
vt 0.3750 0.8750
vt 0.3750 0.8750
vt 0.3750 0.8750
vt 0.3750 0.8750
vt 0.3750 0.8750
vt 0.3750 0.8750
vn -0.5000 -0.0000 -0.8660
vn -0.4148 0.8266 -0.3804
vn 0.5369 0.8266 0.1690
vn 0.3693 0.9277 0.0550
vn 0.2517 0.9676 -0.0197
vn 0.0730 0.9893 -0.1265
vn -0.1088 0.9676 -0.2278
vn -0.2323 0.9277 -0.2923
vn -0.2330 -0.9720 0.0312
vn 0.5000 0.0000 0.8660
vn -0.8660 -0.0000 -0.5000
vn 0.8660 -0.0000 0.5000
vn -0.4943 0.1507 0.8561
vn 0.4961 0.1247 -0.8593
vn 0.9922 0.1247 0.0000
vn 0.4961 0.1247 0.8593
vn -0.4961 0.1247 0.8593
vn -0.9922 0.1247 0.0000
vn -0.4961 0.1247 -0.8593
vn -0.9913 0.1313 0.0000
vn 0.0000 1.0000 -0.0000
vn 0.4957 0.1313 0.8585
vn 0.4957 0.1313 -0.8585
vn -0.4957 0.1313 -0.8585
vn -0.4957 0.1313 0.8585
vn 0.9913 0.1313 0.0000
vn 0.4997 0.0353 0.8655
vn 0.2898 -0.9571 -0.0000
vn 0.4997 0.0353 -0.8655
vn -0.4997 0.0353 -0.8655
vn -0.4997 0.0353 0.8655
vn 0.9994 0.0353 0.0000
vn -0.9994 0.0353 0.0000
vn 0.4904 -0.1951 -0.8494
vn -0.2898 -0.9571 0.0000
vn 0.1449 -0.9571 0.2510
vn 0.1449 -0.9571 -0.2510
vn -0.1449 -0.9571 -0.2510
vn -0.1449 -0.9571 0.2510
vn -0.4904 -0.1951 -0.8494
vn -0.4904 -0.1951 0.8494
vn 0.9808 -0.1951 0.0000
vn -0.9808 -0.1951 0.0000
vn 0.4904 -0.1951 0.8494
vn 0.3799 0.6501 0.6580
vn 0.0000 -1.0000 -0.0000
vn 0.9959 0.0000 0.0908
vn -0.3799 -0.6501 0.6580
vn -0.5766 -0.0000 0.8171
vn -0.4126 -0.5648 -0.7146
vn -0.3799 0.6501 0.6580
vn -0.2724 0.8386 -0.4718
vn -0.2724 0.8386 0.4718
vn 0.5448 0.8386 -0.0000
vn -0.5448 0.8386 0.0000
vn 0.2724 0.8386 0.4718
vn 0.2724 0.8386 -0.4718
vn 0.9959 0.0000 -0.0908
vn -0.8252 -0.5648 0.0000
vn -0.4126 0.5649 -0.7146
vn -0.3799 -0.6501 -0.6580
vn -0.4126 -0.5648 0.7146
vn -0.8252 0.5649 0.0000
vn -0.4193 -0.0000 -0.9078
vn -0.3799 0.6501 -0.6580
vn 0.4126 -0.5648 0.7146
vn -0.4126 0.5649 0.7146
vn -0.4193 -0.0000 0.9078
vn 0.8252 -0.5648 -0.0000
vn 0.4126 0.5649 0.7146
vn 0.7598 -0.6501 0.0000
vn 0.4126 -0.5648 -0.7146
vn 0.4193 0.0000 -0.9078
vn 0.8252 0.5649 0.0000
vn 0.7598 0.6501 0.0000
vn -0.5000 -0.0000 0.8660
vn 1.0000 0.0000 -0.0000
vn -1.0000 -0.0000 0.0000
vn 0.5000 0.0000 -0.8660
vn -0.3407 -0.9395 -0.0365
vn 0.2019 -0.9395 0.2768
vn 0.3799 0.6501 -0.6580
vn -0.5766 -0.0000 -0.8171
vn 0.3799 -0.6501 0.6580
vn 0.3799 -0.6501 -0.6580
vn 0.5766 0.0000 -0.8171
vn -0.9959 -0.0000 -0.0908
vn -0.7598 0.6501 -0.0000
vn -0.9959 -0.0000 0.0908
vn 0.5766 0.0000 0.8171
vn -0.7598 -0.6501 -0.0000
vn 0.4126 0.5649 -0.7146
vn 0.4193 0.0000 0.9078
vn 0.9968 0.0801 0.0000
vn -0.4984 0.0801 0.8632
vn -0.4984 0.0801 -0.8632
vn 0.4984 0.0801 -0.8632
vn 0.4984 0.0801 0.8632
vn -0.9968 0.0801 0.0000
vn -0.9970 0.0770 0.0000
vn 0.9970 0.0770 0.0000
vn -0.4985 0.0770 0.8635
vn -0.4985 0.0770 -0.8635
vn 0.4985 0.0770 -0.8635
vn 0.4985 0.0770 0.8635
vn -0.0730 -0.9893 0.1265
vn 0.4405 0.4730 -0.7630
vn 0.8811 0.4730 0.0000
vn 0.4405 0.4730 0.7630
vn -0.4405 0.4730 0.7630
vn -0.8811 0.4730 0.0000
vn -0.4405 0.4730 -0.7630
vn -0.4405 -0.4730 -0.7630
vn -0.8811 -0.4730 0.0000
vn -0.4405 -0.4730 0.7630
vn 0.4405 -0.4730 0.7630
vn 0.8811 -0.4730 0.0000
vn 0.4405 -0.4730 -0.7630
vn 0.0895 -0.9720 0.2174
usemtl None
s off
f 144/1/1 140/2/1 167/3/1 168/4/1 166/5/1 165/6/1 134/7/1 138/8/1
f 11/9/2 4/10/2 2/11/2 24/12/2
f 8/13/3 16/14/3 19/15/3 6/16/3
f 16/14/4 15/17/4 20/18/4 19/15/4
f 15/17/5 14/19/5 21/20/5 20/18/5
f 14/19/6 13/21/6 22/22/6 21/20/6
f 13/21/7 12/23/7 23/24/7 22/22/7
f 12/23/8 11/9/8 24/12/8 23/24/8
f 35/25/9 26/26/9 27/27/9 34/28/9
f 136/29/10 135/30/10 141/31/10 152/32/10 150/33/10 149/34/10 151/35/10 142/36/10
f 9/37/11 18/38/11 25/39/11 36/40/11
f 10/41/12 31/42/12 30/43/12 17/44/12
f 21/20/13 22/22/13 23/24/13 24/12/13 2/11/13 1/45/13 17/44/13 30/43/13 29/46/13 28/47/13 27/27/13 26/26/13 25/39/13 18/38/13 5/48/13 6/16/13 19/15/13 20/18/13
f 7/49/12 8/13/12 6/16/12 5/48/12
f 1/45/11 2/11/11 4/10/11 3/50/11
f 193/51/14 38/52/14 40/53/14 194/54/14
f 194/54/15 40/53/15 42/55/15 195/56/15
f 195/56/16 42/55/16 44/57/16 196/58/16
f 196/58/17 44/57/17 46/59/17 197/60/17
f 197/60/18 46/59/18 48/61/18 198/62/18
f 198/62/19 48/61/19 38/52/19 193/51/19
f 178/63/20 175/64/20 59/65/20 60/66/20
f 56/67/21 60/66/21 66/68/21 62/69/21 61/70/21 63/71/21 57/72/21 55/73/21
f 48/61/21 46/59/21 44/57/21 52/74/21 53/75/21 54/76/21 50/77/21 49/78/21 40/53/21 38/52/21
f 58/79/21 57/72/21 63/71/21 64/80/21 65/81/21 66/68/21 60/66/21 59/65/21
f 179/82/22 176/83/22 57/72/22 58/79/22
f 180/84/23 177/85/23 56/67/23 55/73/23
f 177/85/24 178/63/24 60/66/24 56/67/24
f 175/64/25 179/82/25 58/79/25 59/65/25
f 176/83/26 180/84/26 55/73/26 57/72/26
f 190/86/27 187/87/27 69/88/27 70/89/27
f 69/90/28 67/91/28 73/92/28 75/93/28
f 191/94/29 188/95/29 68/96/29 67/97/29
f 188/95/30 189/98/30 72/99/30 68/96/30
f 192/100/31 190/86/31 70/89/31 71/101/31
f 187/87/32 191/94/32 67/97/32 69/88/32
f 189/98/33 192/100/33 71/101/33 72/99/33
f 73/92/34 74/102/34 80/103/34 79/104/34
f 72/105/35 71/106/35 77/107/35 78/108/35
f 70/109/36 69/90/36 75/93/36 76/110/36
f 67/91/37 68/111/37 74/102/37 73/92/37
f 68/111/38 72/105/38 78/108/38 74/102/38
f 71/106/39 70/109/39 76/110/39 77/107/39
f 183/112/21 185/113/21 186/114/21 192/115/21 189/116/21 188/117/21 191/118/21 187/119/21 190/120/21 182/121/21 181/122/21 184/123/21
f 74/102/40 78/108/40 84/124/40 80/103/40
f 77/107/41 76/110/41 82/125/41 83/126/41
f 75/93/42 73/92/42 79/104/42 81/127/42
f 78/108/43 77/107/43 83/126/43 84/124/43
f 76/110/44 75/93/44 81/127/44 82/125/44
f 130/128/45 129/129/45 165/6/45 166/5/45
f 83/126/21 82/125/21 81/127/21 87/130/21 88/131/21 89/132/21 90/133/21 86/134/21 85/135/21 79/104/21 80/103/21 84/124/21
f 81/127/21 79/104/21 85/135/21 87/130/21
f 93/136/46 91/137/46 97/138/46 99/139/46 100/140/46 101/141/46 102/142/46 98/143/46 92/144/46 96/145/46 95/146/46 94/147/46
f 124/148/47 122/149/47 158/150/47 160/151/47
f 123/152/48 124/148/48 160/151/48 159/153/48
f 116/154/49 114/155/49 150/33/49 152/32/49
f 86/156/50 90/157/50 138/8/50 134/7/50
f 122/149/51 121/158/51 157/159/51 158/150/51
f 98/143/52 102/142/52 108/160/52 104/161/52
f 91/137/46 92/144/46 98/143/46 97/138/46
f 103/162/21 104/161/21 108/160/21 107/163/21 106/164/21 105/165/21
f 101/141/53 100/140/53 106/164/53 107/163/53
f 99/139/54 97/138/54 103/162/54 105/165/54
f 102/142/55 101/141/55 107/163/55 108/160/55
f 100/140/56 99/139/56 105/165/56 106/164/56
f 97/138/57 98/143/57 104/161/57 103/162/57
f 113/166/58 115/167/58 151/35/58 149/34/58
f 90/157/59 89/168/59 137/169/59 138/8/59
f 96/170/60 92/171/60 140/2/60 144/1/60
f 115/167/61 116/154/61 152/32/61 151/35/61
f 89/168/62 88/172/62 136/29/62 137/169/62
f 95/173/63 96/170/63 144/1/63 143/174/63
f 128/175/64 126/176/64 162/177/64 164/178/64
f 114/155/65 113/166/65 149/34/65 150/33/65
f 88/172/66 87/179/66 135/30/66 136/29/66
f 94/180/67 95/173/67 143/174/67 142/36/67
f 125/181/68 127/182/68 163/183/68 161/184/68
f 87/179/69 85/185/69 133/186/69 135/30/69
f 93/187/70 94/180/70 142/36/70 141/31/70
f 127/182/71 128/175/71 164/178/71 163/183/71
f 85/185/72 86/156/72 134/7/72 133/186/72
f 117/188/73 119/189/73 155/190/73 153/191/73
f 91/192/74 93/187/74 141/31/74 139/193/74
f 126/176/75 125/181/75 161/184/75 162/177/75
f 85/135/46 87/130/46 88/131/46 89/132/46 90/133/46 86/134/46
f 142/36/76 143/174/76 147/194/76 148/195/76 146/196/76 145/197/76 137/169/76 136/29/76
f 133/186/77 139/193/77 156/198/77 154/199/77 153/191/77 155/190/77 141/31/77 135/30/77
f 143/174/78 144/1/78 138/8/78 161/184/78 163/183/78 164/178/78 162/177/78 137/169/78
f 140/2/79 139/193/79 159/153/79 160/151/79
f 143/174/76 137/169/76 145/197/76 147/194/76
f 141/31/10 142/36/10 151/35/10 152/32/10
f 25/39/80 26/26/80 35/25/80 36/40/80
f 139/193/77 141/31/77 155/190/77 156/198/77
f 133/186/79 134/7/79 140/2/79 160/151/79 158/150/79 157/159/79 159/153/79 139/193/79
f 31/42/81 32/200/81 29/46/81 30/43/81
f 138/8/78 137/169/78 162/177/78 161/184/78
f 140/2/1 134/7/1 165/6/1 167/3/1
f 110/201/82 109/202/82 145/197/82 146/196/82
f 121/158/83 123/152/83 159/153/83 157/159/83
f 131/203/84 132/204/84 168/4/84 167/3/84
f 111/205/85 112/206/85 148/195/85 147/194/85
f 132/204/86 130/128/86 166/5/86 168/4/86
f 112/206/87 110/201/87 146/196/87 148/195/87
f 118/207/88 117/188/88 153/191/88 154/199/88
f 129/129/89 131/203/89 167/3/89 165/6/89
f 109/202/90 111/205/90 147/194/90 145/197/90
f 119/189/91 120/208/91 156/198/91 155/190/91
f 92/171/92 91/192/92 139/193/92 140/2/92
f 120/208/93 118/207/93 154/199/93 156/198/93
f 51/209/94 49/210/94 174/211/94 171/212/94
f 53/213/95 52/214/95 172/215/95 169/216/95
f 50/217/96 54/218/96 170/219/96 173/220/96
f 49/210/97 50/217/97 173/220/97 174/211/97
f 52/214/98 51/209/98 171/212/98 172/215/98
f 54/218/99 53/213/99 169/216/99 170/219/99
f 172/215/21 171/212/21 174/211/21 180/221/21 176/222/21 179/223/21 175/224/21 178/225/21 177/226/21 173/220/21 170/219/21 169/216/21
f 44/57/21 42/55/21 40/53/21 49/78/21 51/227/21 52/74/21
f 174/211/21 173/220/21 177/226/21 180/221/21
f 66/228/100 65/229/100 186/114/100 185/113/100
f 63/230/101 61/231/101 184/123/101 181/122/101
f 65/229/102 64/232/102 182/121/102 186/114/102
f 62/233/103 66/228/103 185/113/103 183/112/103
f 61/231/104 62/233/104 183/112/104 184/123/104
f 64/232/105 63/230/105 181/122/105 182/121/105
f 186/114/21 182/121/21 190/120/21 192/115/21
f 33/234/106 34/28/106 27/27/106 28/47/106
f 202/235/21 197/236/21 198/237/21 203/238/21
f 194/239/21 195/240/21 196/241/21 197/236/21 202/235/21 201/242/21 200/243/21 199/244/21 204/245/21 203/238/21 198/237/21 193/246/21
f 37/247/14 204/245/14 199/244/14 39/248/14
f 39/248/15 199/244/15 200/243/15 41/249/15
f 41/249/16 200/243/16 201/242/16 43/250/16
f 43/250/17 201/242/17 202/235/17 45/251/17
f 45/251/18 202/235/18 203/238/18 47/252/18
f 47/252/19 203/238/19 204/245/19 37/247/19
f 207/253/107 206/254/107 208/255/107
f 208/255/108 206/254/108 209/256/108
f 209/256/109 206/254/109 210/257/109
f 210/257/110 206/254/110 211/258/110
f 211/258/111 206/254/111 212/259/111
f 212/259/112 206/254/112 207/253/112
f 205/260/113 212/259/113 207/253/113
f 205/260/114 211/258/114 212/259/114
f 205/260/115 210/257/115 211/258/115
f 205/260/116 209/256/116 210/257/116
f 205/260/117 208/255/117 209/256/117
f 205/260/118 207/253/118 208/255/118
f 32/200/119 33/234/119 28/47/119 29/46/119
