# Blender v2.78 (sub 0) OBJ File: 'decorator_object_ship_RowedWithSail.blend'
# www.blender.org
mtllib decorator_object_ship_RowedWithSail.mtl
o decorator_object_ship_RowedWithSail_Cube.001
v -0.010000 -0.400000 0.010000
v 0.010433 0.936029 -0.004375
v -0.010000 -0.400000 -0.010000
v 0.010000 -0.400000 0.010000
v 0.010000 -0.400000 -0.010000
v 0.006128 0.074258 0.007692
v 0.539213 0.068355 -0.000000
v 0.006128 0.074258 -0.007692
v 0.006128 0.054258 0.007692
v 0.006128 0.054258 -0.007692
v -0.269705 -0.452724 0.408089
v -0.318987 -0.174764 0.483454
v -0.269705 -0.452724 -0.408089
v -0.318987 -0.174764 -0.483454
v 0.269705 -0.452724 0.408089
v 0.318987 -0.174764 0.483454
v 0.269705 -0.452724 -0.408089
v 0.318987 -0.174764 -0.483454
v 0.000000 -0.570782 -0.599527
v 0.000000 -0.174764 -0.710247
v 0.000000 -0.570782 0.599527
v 0.000000 -0.174764 0.710247
v -0.259309 -0.174764 0.442370
v -0.259309 -0.174764 -0.442370
v 0.000000 -0.174764 -0.649890
v 0.259309 -0.174764 -0.442370
v 0.259309 -0.174764 0.442370
v 0.000000 -0.174764 0.649890
v -0.182431 -0.407828 0.373409
v -0.182431 -0.407828 -0.373409
v 0.000000 -0.456680 -0.548579
v 0.182431 -0.407828 -0.373409
v 0.182431 -0.407828 0.373409
v 0.000000 -0.456680 0.548579
v -0.497989 -0.422544 0.014290
v -0.528818 -0.395493 0.014290
v -0.497989 -0.422544 -0.014290
v -0.528818 -0.395493 -0.014290
v -0.255447 -0.104467 0.014290
v -0.286276 -0.077415 0.014290
v -0.255447 -0.104467 -0.014290
v -0.286276 -0.077415 -0.014290
v -0.510844 -0.439402 -0.068735
v -0.510844 -0.439402 0.068735
v -0.541672 -0.412351 0.068735
v -0.541672 -0.412351 -0.068735
v -0.628043 -0.601481 -0.068735
v -0.628043 -0.601481 0.068735
v -0.658871 -0.574429 0.068735
v -0.658871 -0.574429 -0.068735
v -0.497989 -0.422544 -0.271517
v -0.528818 -0.395493 -0.271517
v -0.497989 -0.422544 -0.300097
v -0.528818 -0.395493 -0.300097
v -0.255447 -0.104467 -0.271517
v -0.286276 -0.077415 -0.271517
v -0.255447 -0.104467 -0.300097
v -0.286276 -0.077415 -0.300097
v -0.510844 -0.439402 -0.354542
v -0.510844 -0.439402 -0.217072
v -0.541672 -0.412351 -0.217072
v -0.541672 -0.412351 -0.354542
v -0.628043 -0.601481 -0.354542
v -0.628043 -0.601481 -0.217072
v -0.658871 -0.574429 -0.217072
v -0.658871 -0.574429 -0.354542
v -0.497989 -0.422544 0.300097
v -0.528818 -0.395493 0.300097
v -0.497989 -0.422544 0.271517
v -0.528818 -0.395493 0.271517
v -0.255447 -0.104467 0.300097
v -0.286276 -0.077415 0.300097
v -0.255447 -0.104467 0.271517
v -0.286276 -0.077415 0.271517
v -0.510844 -0.439402 0.217072
v -0.510844 -0.439402 0.354542
v -0.541672 -0.412351 0.354542
v -0.541672 -0.412351 0.217072
v -0.628043 -0.601481 0.217071
v -0.628043 -0.601481 0.354542
v -0.658871 -0.574429 0.354542
v -0.658871 -0.574429 0.217071
v 0.658871 -0.574429 -0.217072
v 0.658871 -0.574429 -0.354542
v 0.628043 -0.601481 -0.354542
v 0.628043 -0.601481 -0.217072
v 0.541672 -0.412351 -0.217072
v 0.541672 -0.412351 -0.354542
v 0.510844 -0.439402 -0.354542
v 0.510844 -0.439402 -0.217072
v 0.286276 -0.077415 -0.271517
v 0.255447 -0.104467 -0.271517
v 0.286276 -0.077415 -0.300097
v 0.255447 -0.104467 -0.300097
v 0.528818 -0.395493 -0.271517
v 0.497989 -0.422544 -0.271517
v 0.528818 -0.395493 -0.300097
v 0.497989 -0.422544 -0.300097
v 0.658871 -0.574429 0.354542
v 0.658871 -0.574429 0.217072
v 0.628043 -0.601481 0.217072
v 0.628043 -0.601481 0.354542
v 0.541672 -0.412351 0.354542
v 0.541672 -0.412351 0.217072
v 0.510844 -0.439402 0.217072
v 0.510844 -0.439402 0.354542
v 0.286276 -0.077415 0.300097
v 0.255448 -0.104467 0.300097
v 0.286276 -0.077415 0.271517
v 0.255448 -0.104467 0.271517
v 0.528818 -0.395493 0.300097
v 0.497989 -0.422544 0.300097
v 0.528818 -0.395493 0.271517
v 0.497989 -0.422544 0.271517
v 0.658871 -0.574429 0.068735
v 0.658871 -0.574429 -0.068735
v 0.628043 -0.601481 -0.068735
v 0.628043 -0.601481 0.068735
v 0.541672 -0.412351 0.068735
v 0.541672 -0.412351 -0.068735
v 0.510844 -0.439402 -0.068735
v 0.510844 -0.439402 0.068735
v 0.286276 -0.077415 0.014290
v 0.255447 -0.104467 0.014290
v 0.286276 -0.077415 -0.014290
v 0.255447 -0.104467 -0.014290
v 0.528818 -0.395493 0.014290
v 0.497989 -0.422544 0.014290
v 0.528818 -0.395493 -0.014290
v 0.497989 -0.422544 -0.014290
vt 0.1250 0.6250
vt 0.1250 0.6250
vt 0.1250 0.6250
vt 0.1250 0.6250
vt 0.1250 0.6250
vt 0.1250 0.6250
vt 0.1250 0.6250
vt 0.1250 0.6250
vt 0.1250 0.6250
vt 0.1250 0.6250
vt 0.6250 0.8750
vt 0.6250 0.8750
vt 0.6250 0.8750
vt 0.6250 0.8750
vt 0.1167 0.6158
vt 0.1167 0.6158
vt 0.1167 0.6158
vt 0.1167 0.6158
vt 0.1167 0.6158
vt 0.1167 0.6158
vt 0.1167 0.6158
vt 0.1167 0.6158
vt 0.1167 0.6158
vt 0.1167 0.6158
vt 0.1167 0.6158
vt 0.1167 0.6158
vt 0.1167 0.6158
vt 0.1167 0.6158
vt 0.1167 0.6158
vt 0.1167 0.6158
vt 0.1167 0.6158
vt 0.1167 0.6158
vt 0.1167 0.6158
vt 0.1167 0.6158
vt 0.1167 0.6158
vt 0.1167 0.6158
vt 0.1167 0.6158
vt 0.1167 0.6158
vt 0.1167 0.6158
vt 0.1167 0.6158
vt 0.1167 0.6158
vt 0.1167 0.6158
vt 0.1167 0.6158
vt 0.1167 0.6158
vt 0.1167 0.6158
vt 0.1167 0.6158
vt 0.1167 0.6158
vt 0.1167 0.6158
vt 0.1167 0.6158
vt 0.1167 0.6158
vt 0.1167 0.6158
vt 0.1167 0.6158
vt 0.1167 0.6158
vt 0.1167 0.6158
vt 0.1167 0.6158
vt 0.1167 0.6158
vt 0.1167 0.6158
vt 0.1167 0.6158
vt 0.1167 0.6158
vt 0.1167 0.6158
vt 0.1167 0.6158
vt 0.1167 0.6158
vt 0.1167 0.6158
vt 0.1167 0.6158
vt 0.1167 0.6158
vt 0.1167 0.6158
vt 0.1167 0.6158
vt 0.1167 0.6158
vt 0.1167 0.6158
vt 0.1167 0.6158
vt 0.1167 0.6158
vt 0.1167 0.6158
vt 0.1167 0.6158
vt 0.1167 0.6158
vt 0.1167 0.6158
vt 0.1167 0.6158
vt 0.1167 0.6158
vt 0.1167 0.6158
vt 0.1167 0.6158
vt 0.1167 0.6158
vt 0.1167 0.6158
vt 0.1167 0.6158
vt 0.1167 0.6158
vt 0.1167 0.6158
vt 0.1167 0.6158
vt 0.1167 0.6158
vt 0.1167 0.6158
vt 0.1167 0.6158
vt 0.1167 0.6158
vt 0.1167 0.6158
vt 0.1167 0.6158
vt 0.1167 0.6158
vt 0.1167 0.6158
vt 0.1167 0.6158
vt 0.1167 0.6158
vt 0.1167 0.6158
vt 0.1167 0.6158
vt 0.1167 0.6158
vt 0.1167 0.6158
vt 0.1167 0.6158
vt 0.1167 0.6158
vt 0.1167 0.6158
vt 0.1167 0.6158
vt 0.1167 0.6158
vt 0.1167 0.6158
vt 0.1167 0.6158
vt 0.1167 0.6158
vt 0.1167 0.6158
vt 0.1167 0.6158
vt 0.1167 0.6158
vt 0.1167 0.6158
vt 0.1167 0.6158
vt 0.1167 0.6158
vt 0.1167 0.6158
vt 0.1167 0.6158
vt 0.1167 0.6158
vt 0.1167 0.6158
vt 0.1167 0.6158
vt 0.1167 0.6158
vt 0.1167 0.6158
vt 0.1167 0.6158
vt 0.1167 0.6158
vt 0.1167 0.6158
vt 0.1167 0.6158
vt 0.1167 0.6158
vt 0.1167 0.6158
vt 0.1167 0.6158
vt 0.1167 0.6158
vt 0.1167 0.6158
vt 0.1167 0.6158
vt 0.1167 0.6158
vt 0.1167 0.6158
vt 0.1167 0.6158
vt 0.1167 0.6158
vn -0.9999 0.0153 0.0000
vn 0.0000 0.0042 -1.0000
vn 1.0000 -0.0003 0.0000
vn 0.0000 0.0108 0.9999
vn 0.0000 -1.0000 0.0000
vn 0.0111 0.9999 0.0000
vn 0.0144 0.0000 -0.9999
vn 0.0264 -0.9997 0.0000
vn 0.0144 -0.0000 0.9999
vn -1.0000 -0.0000 0.0000
vn 0.0146 0.0139 0.9998
vn 0.0145 0.0038 -0.9999
vn -0.9846 -0.1746 0.0000
vn 0.6254 -0.2101 -0.7515
vn 0.9846 -0.1746 0.0000
vn -0.6254 -0.2101 0.7515
vn 0.4010 -0.9161 0.0000
vn -0.7952 -0.6064 0.0000
vn 0.0000 1.0000 0.0000
vn -0.4010 -0.9161 0.0000
vn 0.6254 -0.2101 0.7515
vn -0.6254 -0.2101 -0.7515
vn -0.7050 0.2398 -0.6674
vn 0.9497 0.3133 0.0000
vn 0.2587 0.9660 0.0000
vn -0.2587 0.9660 0.0000
vn 0.5725 0.4005 -0.7154
vn -0.5725 0.4005 0.7154
vn 0.7050 0.2398 0.6674
vn -0.9497 0.3133 0.0000
vn -0.0000 0.0000 -1.0000
vn 0.6596 0.7516 0.0000
vn -0.0000 -0.0000 1.0000
vn -0.5513 -0.3080 -0.7754
vn -0.5725 0.4005 -0.7154
vn 0.6148 0.7006 -0.3621
vn 0.6148 0.7006 0.3621
vn 0.7952 0.6064 0.0000
vn -0.7952 0.6064 0.0000
vn -0.8103 -0.5860 0.0000
vn 0.5513 -0.3080 0.7754
vn 0.7952 -0.6064 0.0000
vn -0.5513 -0.3080 0.7754
vn -0.6148 0.7006 -0.3621
vn -0.6148 0.7006 0.3621
vn -0.6596 0.7516 0.0000
vn 0.5513 -0.3080 -0.7754
vn 0.7050 0.2398 -0.6674
vn -0.7050 0.2398 0.6674
vn 0.5725 0.4005 0.7154
vn 0.8103 0.5860 0.0000
vn -0.8103 0.5860 0.0000
vn 0.8103 -0.5860 0.0000
vn -0.7952 0.6063 0.0000
vn 0.7952 0.6063 0.0000
usemtl None
s off
f 1/1/1 2/2/1 3/3/1
f 3/3/2 2/2/2 5/4/2
f 5/4/3 2/2/3 4/5/3
f 4/5/4 2/2/4 1/1/4
f 5/4/5 1/1/5 3/3/5
f 6/6/6 7/7/6 8/8/6
f 8/8/7 7/7/7 10/9/7
f 10/9/8 7/7/8 9/10/8
f 9/10/9 7/7/9 6/6/9
f 8/8/10 9/10/10 6/6/10
f 6/11/11 7/12/11 2/13/11
f 8/14/12 2/13/12 7/12/12
f 12/15/13 13/16/13 11/17/13
f 20/18/14 17/19/14 19/20/14
f 18/21/15 15/22/15 17/19/15
f 22/23/16 11/17/16 21/24/16
f 19/20/17 15/22/17 21/24/17
f 96/25/18 98/26/18 90/27/18
f 25/28/19 20/18/19 14/29/19
f 19/20/20 11/17/20 13/16/20
f 15/22/21 22/23/21 21/24/21
f 13/16/22 20/18/22 19/20/22
f 28/30/23 33/31/23 34/32/23
f 23/33/24 30/34/24 24/35/24
f 16/36/19 28/30/19 22/23/19
f 12/15/19 28/30/19 23/33/19
f 27/37/19 16/36/19 18/21/19
f 14/29/19 12/15/19 23/33/19
f 30/34/25 34/32/25 31/38/25
f 31/38/26 33/31/26 32/39/26
f 28/30/27 29/40/27 23/33/27
f 25/28/28 32/39/28 26/41/28
f 25/28/29 30/34/29 31/38/29
f 26/41/30 33/31/30 27/37/30
f 96/25/18 92/42/18 94/43/18
f 38/44/31 41/45/31 37/46/31
f 42/47/32 39/48/32 41/45/32
f 39/48/33 36/49/33 35/50/33
f 18/21/15 16/36/15 15/22/15
f 13/16/34 14/29/34 20/18/34
f 43/51/31 50/52/31 46/53/31
f 28/30/35 27/37/35 33/31/35
f 37/46/36 46/53/36 38/44/36
f 35/50/37 45/54/37 44/55/37
f 96/25/18 94/43/18 98/26/18
f 44/55/33 49/56/33 48/57/33
f 87/58/38 88/59/38 97/60/38
f 78/61/39 77/62/39 68/63/39
f 54/64/31 57/65/31 53/66/31
f 58/67/32 55/68/32 57/65/32
f 55/68/33 52/69/33 51/70/33
f 89/71/40 85/72/40 86/73/40
f 15/22/41 16/36/41 22/23/41
f 59/74/31 66/75/31 62/76/31
f 23/33/24 29/40/24 30/34/24
f 53/66/36 62/76/36 54/64/36
f 51/70/37 61/77/37 60/78/37
f 60/78/33 65/79/33 64/80/33
f 76/81/42 75/82/42 69/83/42
f 46/53/39 45/54/39 36/49/39
f 8/8/10 10/9/10 9/10/10
f 70/84/31 73/85/31 69/83/31
f 74/86/32 71/87/32 73/85/32
f 71/87/33 68/63/33 67/88/33
f 22/23/43 12/15/43 11/17/43
f 14/29/19 24/35/19 25/28/19
f 75/82/31 82/89/31 78/61/31
f 16/36/19 27/37/19 28/30/19
f 69/83/36 78/61/36 70/84/36
f 67/88/37 77/62/37 76/81/37
f 76/81/33 81/90/33 80/91/33
f 112/92/18 114/93/18 106/94/18
f 60/78/42 59/74/42 53/66/42
f 19/20/17 17/19/17 15/22/17
f 12/15/19 22/23/19 28/30/19
f 30/34/25 29/40/25 34/32/25
f 98/26/44 88/59/44 89/71/44
f 119/95/38 120/96/38 129/97/38
f 96/25/45 87/58/45 95/98/45
f 91/99/46 94/43/46 92/42/46
f 44/55/42 43/51/42 37/46/42
f 90/27/33 83/100/33 87/58/33
f 89/71/31 84/101/31 85/72/31
f 98/26/18 89/71/18 90/27/18
f 95/98/33 92/42/33 96/25/33
f 31/38/26 34/32/26 33/31/26
f 94/43/31 97/60/31 98/26/31
f 12/15/13 14/29/13 13/16/13
f 19/20/20 21/24/20 11/17/20
f 114/93/44 104/102/44 105/103/44
f 5/4/5 4/5/5 1/1/5
f 112/92/45 103/104/45 111/105/45
f 107/106/46 110/107/46 108/108/46
f 128/109/18 130/110/18 122/111/18
f 106/94/33 99/112/33 103/104/33
f 105/103/31 100/113/31 101/114/31
f 111/105/33 108/108/33 112/92/33
f 62/76/39 61/77/39 52/69/39
f 110/107/31 113/115/31 114/93/31
f 86/73/40 90/27/40 89/71/40
f 26/41/19 27/37/19 18/21/19
f 25/28/19 18/21/19 20/18/19
f 130/110/44 120/96/44 121/116/44
f 121/116/31 116/117/31 117/118/31
f 128/109/45 119/95/45 127/119/45
f 123/120/46 126/121/46 124/122/46
f 103/104/38 104/102/38 113/115/38
f 122/111/33 115/123/33 119/95/33
f 26/41/19 18/21/19 25/28/19
f 127/119/33 124/122/33 128/109/33
f 14/29/19 23/33/19 24/35/19
f 126/121/31 129/97/31 130/110/31
f 20/18/47 18/21/47 17/19/47
f 28/30/48 34/32/48 29/40/48
f 25/28/49 31/38/49 32/39/49
f 25/28/50 24/35/50 30/34/50
f 26/41/30 32/39/30 33/31/30
f 38/44/31 42/47/31 41/45/31
f 42/47/32 40/124/32 39/48/32
f 39/48/33 40/124/33 36/49/33
f 43/51/31 47/125/31 50/52/31
f 37/46/36 43/51/36 46/53/36
f 35/50/37 36/49/37 45/54/37
f 44/55/33 45/54/33 49/56/33
f 95/98/38 87/58/38 97/60/38
f 83/100/51 84/101/51 88/59/51
f 97/60/38 93/126/38 91/99/38
f 83/100/51 88/59/51 87/58/51
f 97/60/38 91/99/38 95/98/38
f 72/127/39 74/86/39 70/84/39
f 70/84/39 78/61/39 68/63/39
f 82/89/52 81/90/52 77/62/52
f 68/63/39 72/127/39 70/84/39
f 82/89/52 77/62/52 78/61/52
f 54/64/31 58/67/31 57/65/31
f 58/67/32 56/128/32 55/68/32
f 55/68/33 56/128/33 52/69/33
f 59/74/31 63/129/31 66/75/31
f 53/66/36 59/74/36 62/76/36
f 51/70/37 52/69/37 61/77/37
f 60/78/33 61/77/33 65/79/33
f 67/88/42 76/81/42 69/83/42
f 80/91/53 79/130/53 75/82/53
f 69/83/42 73/85/42 67/88/42
f 80/91/53 75/82/53 76/81/53
f 73/85/42 71/87/42 67/88/42
f 40/124/39 42/47/39 38/44/39
f 38/44/54 46/53/54 36/49/54
f 50/52/52 49/56/52 45/54/52
f 36/49/39 40/124/39 38/44/39
f 50/52/52 45/54/52 46/53/52
f 70/84/31 74/86/31 73/85/31
f 74/86/32 72/127/32 71/87/32
f 71/87/33 72/127/33 68/63/33
f 75/82/31 79/130/31 82/89/31
f 69/83/36 75/82/36 78/61/36
f 67/88/37 68/63/37 77/62/37
f 76/81/33 77/62/33 81/90/33
f 112/92/18 108/108/18 110/107/18
f 114/93/18 105/103/18 106/94/18
f 112/92/18 110/107/18 114/93/18
f 102/131/40 106/94/40 105/103/40
f 105/103/40 101/114/40 102/131/40
f 51/70/42 60/78/42 53/66/42
f 64/80/53 63/129/53 59/74/53
f 53/66/42 57/65/42 55/68/42
f 64/80/53 59/74/53 60/78/53
f 53/66/42 55/68/42 51/70/42
f 98/26/44 97/60/44 88/59/44
f 127/119/55 119/95/55 129/97/55
f 115/123/51 116/117/51 120/96/51
f 129/97/38 125/132/38 123/120/38
f 115/123/51 120/96/51 119/95/51
f 129/97/38 123/120/38 127/119/38
f 96/25/45 90/27/45 87/58/45
f 91/99/46 93/126/46 94/43/46
f 35/50/42 44/55/42 37/46/42
f 48/57/53 47/125/53 43/51/53
f 37/46/42 41/45/42 39/48/42
f 48/57/53 43/51/53 44/55/53
f 37/46/42 39/48/42 35/50/42
f 90/27/33 86/73/33 83/100/33
f 89/71/31 88/59/31 84/101/31
f 95/98/33 91/99/33 92/42/33
f 94/43/31 93/126/31 97/60/31
f 114/93/44 113/115/44 104/102/44
f 112/92/45 106/94/45 103/104/45
f 107/106/46 109/133/46 110/107/46
f 128/109/18 124/122/18 126/121/18
f 130/110/18 121/116/18 122/111/18
f 128/109/18 126/121/18 130/110/18
f 118/134/40 122/111/40 121/116/40
f 121/116/40 117/118/40 118/134/40
f 106/94/33 102/131/33 99/112/33
f 105/103/31 104/102/31 100/113/31
f 111/105/33 107/106/33 108/108/33
f 56/128/39 58/67/39 54/64/39
f 54/64/39 62/76/39 52/69/39
f 66/75/52 65/79/52 61/77/52
f 52/69/39 56/128/39 54/64/39
f 66/75/52 61/77/52 62/76/52
f 110/107/31 109/133/31 113/115/31
f 130/110/44 129/97/44 120/96/44
f 121/116/31 120/96/31 116/117/31
f 128/109/45 122/111/45 119/95/45
f 123/120/46 125/132/46 126/121/46
f 111/105/38 103/104/38 113/115/38
f 99/112/51 100/113/51 104/102/51
f 113/115/38 109/133/38 107/106/38
f 99/112/51 104/102/51 103/104/51
f 113/115/38 107/106/38 111/105/38
f 122/111/33 118/134/33 115/123/33
f 127/119/33 123/120/33 124/122/33
f 126/121/31 125/132/31 129/97/31
