# Blender v2.78 (sub 0) OBJ File: 'decorator_road4.blend'
# www.blender.org
mtllib decorator_road4.mtl
o decorator_road4.001_Cube
v -0.608205 -0.050000 -0.653442
v -0.608205 0.050000 -0.653442
v -0.261795 -0.050000 -0.853442
v -0.261795 0.050000 -0.853442
v 0.261795 -0.050000 -0.853442
v 0.261795 0.050000 -0.853442
v 0.608205 -0.050000 -0.653442
v 0.608205 0.050000 -0.653442
v 0.000000 -0.050000 -0.398498
v -0.000000 0.050000 -0.398498
v -0.083606 0.050000 0.132361
v -0.083606 -0.050000 0.132361
v -0.230452 -0.050000 0.000845
v -0.230452 0.050000 0.000845
v 0.870000 -0.050000 -0.200000
v 0.870000 0.050000 -0.200000
v 0.870000 -0.050000 0.200000
v 0.870000 0.050000 0.200000
v 0.114494 0.050000 0.200000
v 0.114494 -0.050000 0.200000
v 0.344357 -0.050000 -0.196444
v 0.344357 0.050000 -0.196444
vt 0.0931 0.6236
vt 0.0931 0.6236
vt 0.0931 0.6236
vt 0.0931 0.6236
vt 0.0931 0.6236
vt 0.0931 0.6236
vt 0.0931 0.6236
vt 0.0931 0.6236
vt 0.0931 0.6236
vt 0.0931 0.6236
vt 0.0931 0.6236
vt 0.0931 0.6236
vt 0.0931 0.6236
vt 0.0931 0.6236
vt 0.0931 0.6236
vt 0.0931 0.6236
vt 0.0931 0.6236
vt 0.0931 0.6236
vt 0.0931 0.6236
vt 0.0931 0.6236
vt 0.0931 0.6236
vt 0.0931 0.6236
vn -0.5000 0.0000 -0.8660
vn 0.8667 0.0000 -0.4988
vn 0.5000 0.0000 -0.8660
vn 0.3231 -0.0000 -0.9464
vn -0.6672 0.0000 0.7449
vn -0.8660 0.0000 0.5000
vn 0.0000 1.0000 0.0000
vn -0.0000 0.0000 1.0000
vn -0.8667 -0.0000 -0.4988
vn -0.0068 0.0000 -1.0000
vn 1.0000 0.0000 0.0000
vn 0.8660 0.0000 0.5000
usemtl None
s off
f 2/1/1 3/2/1 1/3/1
f 3/2/2 10/4/2 9/5/2
f 6/6/3 7/7/3 5/8/3
f 19/9/4 12/10/4 11/11/4
f 13/12/5 11/11/5 14/13/5
f 14/13/6 1/3/6 13/12/6
f 11/11/7 22/14/7 10/4/7
f 18/15/8 20/16/8 17/17/8
f 10/4/9 5/8/9 9/5/9
f 21/18/10 16/19/10 15/20/10
f 16/19/11 17/17/11 15/20/11
f 8/21/12 21/18/12 7/7/12
f 2/1/1 4/22/1 3/2/1
f 3/2/2 4/22/2 10/4/2
f 6/6/3 8/21/3 7/7/3
f 19/9/4 20/16/4 12/10/4
f 13/12/5 12/10/5 11/11/5
f 14/13/6 2/1/6 1/3/6
f 2/1/7 14/13/7 10/4/7
f 11/11/7 19/9/7 22/14/7
f 18/15/7 16/19/7 22/14/7
f 22/14/7 8/21/7 10/4/7
f 10/4/7 4/22/7 2/1/7
f 8/21/7 6/6/7 10/4/7
f 19/9/7 18/15/7 22/14/7
f 10/4/7 14/13/7 11/11/7
f 18/15/8 19/9/8 20/16/8
f 10/4/9 6/6/9 5/8/9
f 21/18/10 22/14/10 16/19/10
f 16/19/11 18/15/11 17/17/11
f 8/21/12 22/14/12 21/18/12
