# Blender v2.78 (sub 0) OBJ File: 'decorator_natural_Forest_pine_cut.blend'
# www.blender.org
mtllib decorator_natural_Forest_pine_cut.mtl
o decorator_natural_Forest_pine_cut_Plane
v -0.191502 -0.000212 -0.760993
v -0.191502 -0.000212 -0.838203
v -0.114292 -0.000212 -0.760993
v -0.114292 -0.000212 -0.838203
v 0.125916 -0.000433 -0.222741
v 0.125916 -0.000433 -0.276702
v 0.179878 -0.000433 -0.222741
v 0.179878 -0.000433 -0.276702
v -0.753932 -0.000212 -0.003905
v -0.753932 -0.000212 -0.089163
v -0.668674 -0.000212 -0.003905
v -0.668674 -0.000212 -0.089163
v -0.267389 -0.000212 0.041368
v -0.267389 -0.000212 -0.014777
v -0.211244 -0.000212 0.041368
v -0.211244 -0.000212 -0.014777
v -0.079983 -0.000212 0.631741
v -0.079983 -0.000212 0.551547
v 0.000211 -0.000212 0.631741
v 0.000211 -0.000212 0.551547
v 0.316754 -0.000212 -0.623105
v 0.316754 -0.000212 -0.707547
v 0.401196 -0.000212 -0.623105
v 0.401196 -0.000212 -0.707547
v 0.482684 -0.000212 0.361572
v 0.482684 -0.000212 0.276606
v 0.567651 -0.000212 0.361572
v 0.567651 -0.000212 0.276606
v 0.159593 -0.000212 0.166144
v 0.159593 -0.000212 0.099764
v 0.225973 -0.000212 0.166144
v 0.225973 -0.000212 0.099764
v 0.609505 -0.000212 -0.290416
v 0.609505 -0.000212 -0.361058
v 0.680147 -0.000212 -0.290416
v 0.680147 -0.000212 -0.361058
v -0.482078 -0.000212 0.369067
v -0.482078 -0.000212 0.295702
v -0.408713 -0.000212 0.369067
v -0.408713 -0.000212 0.295702
v -0.415623 -0.000212 -0.471107
v -0.415623 -0.000212 -0.571107
v -0.315623 -0.000212 -0.471107
v -0.315623 -0.000212 -0.571107
v 0.159593 0.088702 0.099764
v -0.079983 0.199045 0.631741
v 0.680147 0.037916 -0.290416
v -0.211244 0.135201 -0.014777
v -0.267389 0.135201 0.041368
v 0.482684 0.087403 0.276606
v -0.114292 0.075454 -0.760993
v 0.225973 0.088702 0.166144
v -0.668674 0.135201 -0.089163
v -0.753932 0.135201 -0.003905
v -0.315623 0.253767 -0.571107
v 0.316754 0.199044 -0.707547
v -0.415623 0.253767 -0.471107
v 0.567651 0.087403 0.361572
v 0.179878 0.135201 -0.276702
v 0.125916 0.135201 -0.222741
v -0.408713 0.075454 0.295702
v -0.079983 0.199044 0.551547
v -0.482078 0.075454 0.369067
v 0.401196 0.199044 -0.623105
v -0.114292 0.075454 -0.838203
v -0.191502 0.075454 -0.760993
v 0.680147 0.037916 -0.361058
v -0.267389 0.135201 -0.014777
v 0.609505 0.037916 -0.290416
v 0.000211 0.199044 0.631741
v 0.225973 0.088702 0.099764
v -0.753932 0.135201 -0.089163
v 0.159593 0.088702 0.166144
v -0.211244 0.135201 0.041368
v -0.415623 0.253767 -0.571107
v 0.567651 0.087403 0.276606
v 0.125916 0.135201 -0.276702
v 0.482684 0.087403 0.361572
v -0.482078 0.075454 0.295702
v -0.315623 0.253767 -0.471107
v 0.401196 0.199044 -0.707547
v -0.191502 0.075454 -0.838203
v 0.316754 0.199044 -0.623105
v 0.179878 0.135201 -0.222741
v -0.668674 0.135201 -0.003905
v 0.609505 0.037916 -0.361058
v 0.000211 0.199044 0.551547
v -0.408713 0.075454 0.369067
vt 0.0995 0.6270
vt 0.0995 0.6270
vt 0.0995 0.6270
vt 0.0995 0.6270
vt 0.0995 0.6270
vt 0.0995 0.6270
vt 0.0995 0.6270
vt 0.0995 0.6270
vt 0.0995 0.6270
vt 0.0995 0.6270
vt 0.0995 0.6270
vt 0.0995 0.6270
vt 0.0995 0.6270
vt 0.0995 0.6270
vt 0.0995 0.6270
vt 0.0995 0.6270
vt 0.0995 0.6270
vt 0.0995 0.6270
vt 0.0995 0.6270
vt 0.0995 0.6270
vt 0.0995 0.6270
vt 0.0995 0.6270
vt 0.0995 0.6270
vt 0.0995 0.6270
vt 0.0995 0.6270
vt 0.0995 0.6270
vt 0.0995 0.6270
vt 0.0995 0.6270
vt 0.0995 0.6270
vt 0.0995 0.6270
vt 0.0995 0.6270
vt 0.0995 0.6270
vt 0.0995 0.6270
vt 0.0995 0.6270
vt 0.0995 0.6270
vt 0.0995 0.6270
vt 0.0995 0.6270
vt 0.0995 0.6270
vt 0.0995 0.6270
vt 0.0995 0.6270
vt 0.0995 0.6270
vt 0.0995 0.6270
vt 0.0995 0.6270
vt 0.0995 0.6270
vt 0.0995 0.6270
vt 0.0995 0.6270
vt 0.0995 0.6270
vt 0.0995 0.6270
vt 0.0995 0.6270
vt 0.0995 0.6270
vt 0.0995 0.6270
vt 0.0995 0.6270
vt 0.0995 0.6270
vt 0.0995 0.6270
vt 0.0995 0.6270
vt 0.0995 0.6270
vt 0.0995 0.6270
vt 0.0995 0.6270
vt 0.0995 0.6270
vt 0.0995 0.6270
vt 0.0995 0.6270
vt 0.0995 0.6270
vt 0.0995 0.6270
vt 0.0995 0.6270
vt 0.0995 0.6270
vt 0.0995 0.6270
vt 0.0995 0.6270
vt 0.0995 0.6270
vt 0.0995 0.6270
vt 0.0995 0.6270
vt 0.0995 0.6270
vt 0.0995 0.6270
vt 0.0995 0.6270
vt 0.0995 0.6270
vt 0.0995 0.6270
vt 0.0995 0.6270
vt 0.9298 0.3632
vt 0.9298 0.3632
vt 0.9298 0.3632
vt 0.9298 0.3632
vt 0.9298 0.3632
vt 0.9298 0.3632
vt 0.9298 0.3632
vt 0.9298 0.3632
vt 0.9298 0.3632
vt 0.9298 0.3632
vt 0.9298 0.3632
vt 0.9298 0.3632
vt 0.9298 0.3632
vt 0.9298 0.3632
vt 0.9298 0.3632
vt 0.9298 0.3632
vt 0.9298 0.3632
vt 0.9298 0.3632
vt 0.9298 0.3632
vt 0.9298 0.3632
vt 0.9298 0.3632
vt 0.9298 0.3632
vt 0.9298 0.3632
vt 0.9298 0.3632
vt 0.9298 0.3632
vt 0.9298 0.3632
vt 0.9298 0.3632
vt 0.9298 0.3632
vt 0.9298 0.3632
vt 0.9298 0.3632
vt 0.9298 0.3632
vt 0.9298 0.3632
vt 0.9298 0.3632
vt 0.0995 0.6270
vt 0.0995 0.6270
vt 0.0995 0.6270
vt 0.0995 0.6270
vt 0.0995 0.6270
vt 0.0995 0.6270
vt 0.0995 0.6270
vt 0.0995 0.6270
vt 0.0995 0.6270
vt 0.0995 0.6270
vt 0.0995 0.6270
vt 0.0995 0.6270
vt 0.9298 0.3632
vt 0.9298 0.3632
vt 0.9298 0.3632
vt 0.9298 0.3632
vt 0.9298 0.3632
vt 0.9298 0.3632
vt 0.9298 0.3632
vt 0.9298 0.3632
vt 0.9298 0.3632
vt 0.9298 0.3632
vt 0.9298 0.3632
vn -1.0000 0.0000 0.0000
vn 0.0000 0.0000 -1.0000
vn 1.0000 0.0000 0.0000
vn 0.0000 0.0000 1.0000
vn 0.0000 1.0000 -0.0000
usemtl Material
s off
f 1/1/1 82/2/1 2/3/1
f 82/2/2 4/4/2 2/3/2
f 65/5/3 3/6/3 4/4/3
f 51/7/4 1/1/4 3/6/4
f 60/8/1 6/9/1 5/10/1
f 77/11/2 8/12/2 6/9/2
f 59/13/3 7/14/3 8/12/3
f 7/14/4 60/8/4 5/10/4
f 54/15/1 10/16/1 9/17/1
f 72/18/2 12/19/2 10/16/2
f 12/19/3 85/20/3 11/21/3
f 11/21/4 54/15/4 9/17/4
f 49/22/1 14/23/1 13/24/1
f 68/25/2 16/26/2 14/23/2
f 48/27/3 15/28/3 16/26/3
f 15/28/4 49/22/4 13/24/4
f 17/29/1 62/30/1 18/31/1
f 62/30/2 20/32/2 18/31/2
f 87/33/3 19/34/3 20/32/3
f 70/35/4 17/29/4 19/34/4
f 21/36/1 56/37/1 22/38/1
f 56/37/2 24/39/2 22/38/2
f 81/40/3 23/41/3 24/39/3
f 64/42/4 21/36/4 23/41/4
f 25/43/1 50/44/1 26/45/1
f 50/44/2 28/46/2 26/45/2
f 76/47/3 27/48/3 28/46/3
f 58/49/4 25/43/4 27/48/4
f 73/50/1 30/51/1 29/52/1
f 45/53/2 32/54/2 30/51/2
f 71/55/3 31/56/3 32/54/3
f 31/56/4 73/50/4 29/52/4
f 69/57/1 34/58/1 33/59/1
f 86/60/2 36/61/2 34/58/2
f 36/61/3 47/62/3 35/63/3
f 47/62/4 33/59/4 35/63/4
f 37/64/1 79/65/1 38/66/1
f 79/65/2 40/67/2 38/66/2
f 40/67/3 88/68/3 39/69/3
f 88/68/4 37/64/4 39/69/4
f 41/70/1 75/71/1 42/72/1
f 75/71/2 44/73/2 42/72/2
f 55/74/3 43/75/3 44/73/3
f 80/76/4 41/70/4 43/75/4
f 78/77/5 76/78/5 50/79/5
f 71/80/5 73/81/5 52/82/5
f 87/83/5 46/84/5 70/85/5
f 61/86/5 63/87/5 88/88/5
f 53/89/5 54/90/5 85/91/5
f 68/92/5 74/93/5 48/94/5
f 77/95/5 84/96/5 59/97/5
f 69/98/5 67/99/5 86/100/5
f 81/101/5 83/102/5 64/103/5
f 65/104/5 66/105/5 51/106/5
f 57/107/5 55/108/5 75/109/5
f 1/1/1 66/110/1 82/2/1
f 82/2/2 65/5/2 4/4/2
f 65/5/3 51/7/3 3/6/3
f 51/7/4 66/110/4 1/1/4
f 60/8/1 77/11/1 6/9/1
f 77/11/2 59/13/2 8/12/2
f 59/13/3 84/111/3 7/14/3
f 7/14/4 84/111/4 60/8/4
f 54/15/1 72/18/1 10/16/1
f 72/18/2 53/112/2 12/19/2
f 12/19/3 53/112/3 85/20/3
f 11/21/4 85/20/4 54/15/4
f 49/22/1 68/25/1 14/23/1
f 68/25/2 48/27/2 16/26/2
f 48/27/3 74/113/3 15/28/3
f 15/28/4 74/113/4 49/22/4
f 17/29/1 46/114/1 62/30/1
f 62/30/2 87/33/2 20/32/2
f 87/33/3 70/35/3 19/34/3
f 70/35/4 46/114/4 17/29/4
f 21/36/1 83/115/1 56/37/1
f 56/37/2 81/40/2 24/39/2
f 81/40/3 64/42/3 23/41/3
f 64/42/4 83/115/4 21/36/4
f 25/43/1 78/116/1 50/44/1
f 50/44/2 76/47/2 28/46/2
f 76/47/3 58/49/3 27/48/3
f 58/49/4 78/116/4 25/43/4
f 73/50/1 45/53/1 30/51/1
f 45/53/2 71/55/2 32/54/2
f 71/55/3 52/117/3 31/56/3
f 31/56/4 52/117/4 73/50/4
f 69/57/1 86/60/1 34/58/1
f 86/60/2 67/118/2 36/61/2
f 36/61/3 67/118/3 47/62/3
f 47/62/4 69/57/4 33/59/4
f 37/64/1 63/119/1 79/65/1
f 79/65/2 61/120/2 40/67/2
f 40/67/3 61/120/3 88/68/3
f 88/68/4 63/119/4 37/64/4
f 41/70/1 57/121/1 75/71/1
f 75/71/2 55/74/2 44/73/2
f 55/74/3 80/76/3 43/75/3
f 80/76/4 57/121/4 41/70/4
f 78/77/5 58/122/5 76/78/5
f 71/80/5 45/123/5 73/81/5
f 87/83/5 62/124/5 46/84/5
f 61/86/5 79/125/5 63/87/5
f 53/89/5 72/126/5 54/90/5
f 68/92/5 49/127/5 74/93/5
f 77/95/5 60/128/5 84/96/5
f 69/98/5 47/129/5 67/99/5
f 81/101/5 56/130/5 83/102/5
f 65/104/5 82/131/5 66/105/5
f 57/107/5 80/132/5 55/108/5
