# Blender v2.78 (sub 0) OBJ File: 'decorator_road5.blend'
# www.blender.org
mtllib decorator_road5.mtl
o decorator_road5.001_Cube
v -0.608205 -0.050000 -0.653442
v -0.608205 0.050000 -0.653442
v -0.261795 -0.050000 -0.853442
v -0.261795 0.050000 -0.853442
v 0.261795 -0.050000 -0.853442
v 0.261795 0.050000 -0.853442
v 0.608205 -0.050000 -0.653442
v 0.608205 0.050000 -0.653442
v 0.000000 -0.050000 -0.398498
v -0.000000 0.050000 -0.398498
v 0.870000 -0.050000 -0.200000
v 0.870000 0.050000 -0.200000
v 0.870000 -0.050000 0.200000
v 0.870000 0.050000 0.200000
v 0.344357 -0.050000 -0.196444
v 0.344357 0.050000 -0.196444
v 0.608205 -0.050000 0.653442
v 0.608205 0.050000 0.653442
v 0.261795 -0.050000 0.853442
v 0.261795 0.050000 0.853442
v 0.342304 -0.050000 0.200000
v 0.342304 0.050000 0.200000
vt 0.0931 0.6236
vt 0.0931 0.6236
vt 0.0931 0.6236
vt 0.0931 0.6236
vt 0.0931 0.6236
vt 0.0931 0.6236
vt 0.0931 0.6236
vt 0.0931 0.6236
vt 0.0931 0.6236
vt 0.0931 0.6236
vt 0.0931 0.6236
vt 0.0931 0.6236
vt 0.0931 0.6236
vt 0.0931 0.6236
vt 0.0931 0.6236
vt 0.0931 0.6236
vt 0.0931 0.6236
vt 0.0931 0.6236
vt 0.0931 0.6236
vt 0.0931 0.6236
vt 0.0931 0.6236
vt 0.0931 0.6236
vn -0.5000 0.0000 -0.8660
vn 0.8667 0.0000 -0.4988
vn 0.5000 0.0000 -0.8660
vn -0.8660 0.0000 0.5000
vn -0.0000 0.0000 1.0000
vn -0.0068 0.0000 -1.0000
vn 0.8660 0.0000 0.5000
vn 0.0000 1.0000 0.0000
vn -0.8667 -0.0000 -0.4988
vn 0.5000 0.0000 0.8660
vn 0.8626 0.0000 -0.5058
vn 1.0000 0.0000 0.0000
usemtl None
s off
f 2/1/1 3/2/1 1/3/1
f 3/2/2 10/4/2 9/5/2
f 6/6/3 7/7/3 5/8/3
f 1/3/4 20/9/4 2/1/4
f 14/10/5 21/11/5 13/12/5
f 15/13/6 12/14/6 11/15/6
f 8/16/7 15/13/7 7/7/7
f 22/17/8 16/18/8 10/4/8
f 10/4/9 5/8/9 9/5/9
f 18/19/10 19/20/10 17/21/10
f 22/17/11 17/21/11 21/11/11
f 12/14/12 13/12/12 11/15/12
f 2/1/1 4/22/1 3/2/1
f 3/2/2 4/22/2 10/4/2
f 6/6/3 8/16/3 7/7/3
f 1/3/4 19/20/4 20/9/4
f 14/10/5 22/17/5 21/11/5
f 15/13/6 16/18/6 12/14/6
f 8/16/7 16/18/7 15/13/7
f 2/1/8 20/9/8 22/17/8
f 22/17/8 14/10/8 16/18/8
f 20/9/8 18/19/8 22/17/8
f 10/4/8 4/22/8 2/1/8
f 8/16/8 6/6/8 10/4/8
f 14/10/8 12/14/8 16/18/8
f 16/18/8 8/16/8 10/4/8
f 10/4/8 2/1/8 22/17/8
f 10/4/9 6/6/9 5/8/9
f 18/19/10 20/9/10 19/20/10
f 22/17/11 18/19/11 17/21/11
f 12/14/12 14/10/12 13/12/12
