# Blender v2.78 (sub 0) OBJ File: 'decorator_object_catapult.blend'
# www.blender.org
mtllib decorator_object_catapult.mtl
o decorator_object_catapult.001_Cube
v 0.279843 0.074078 0.800000
v 0.279843 0.274078 0.800000
v 0.279843 0.074078 -0.800000
v 0.279843 0.274078 -0.800000
v 0.436324 0.074078 0.800000
v 0.436324 0.274078 0.800000
v 0.436324 0.074078 -0.800000
v 0.436324 0.274078 -0.800000
v 0.350157 0.195560 -0.773535
v 0.581800 0.195560 -0.773535
v 0.350157 -0.022072 -0.647885
v 0.581800 -0.022072 -0.647885
v 0.350157 -0.022072 -0.396586
v 0.581800 -0.022072 -0.396586
v 0.350157 0.195560 -0.270936
v 0.581800 0.195560 -0.270936
v 0.350157 0.413192 -0.396586
v 0.581800 0.413192 -0.396586
v 0.350157 0.413192 -0.647885
v 0.581800 0.413192 -0.647885
v 0.350157 0.195560 0.196331
v 0.581800 0.195560 0.196331
v 0.350157 -0.022072 0.321981
v 0.581800 -0.022072 0.321981
v 0.350157 -0.022072 0.573280
v 0.581800 -0.022072 0.573280
v 0.350157 0.195560 0.698930
v 0.581800 0.195560 0.698930
v 0.350157 0.413192 0.573280
v 0.581800 0.413192 0.573280
v 0.350157 0.413192 0.321981
v 0.581800 0.413192 0.321981
v 0.375206 0.104103 0.422996
v 0.375206 0.234099 0.422996
v 0.375206 0.104103 0.521050
v 0.375206 0.234099 0.521050
v 0.375206 0.104103 -0.646343
v 0.375206 0.234099 -0.646343
v 0.375206 0.104103 -0.548289
v 0.375206 0.234099 -0.548289
v 0.318963 0.914316 -0.028472
v 0.318963 0.141575 -0.235527
v 0.318963 0.167457 -0.332120
v 0.397203 0.914316 -0.028472
v 0.397203 0.141575 -0.235527
v 0.397203 0.167457 -0.332120
v 0.397203 0.914316 -0.027482
v 0.397203 0.141575 0.179573
v 0.397203 0.167457 0.276166
v 0.318963 0.914316 -0.027482
v 0.318963 0.141575 0.179573
v 0.318963 0.167457 0.276166
v 0.397203 1.229468 -0.027977
v 0.318963 1.229468 -0.027977
v 0.370072 0.999086 0.006158
v 0.370072 1.055834 0.006158
v 0.370072 0.999086 -0.065048
v 0.370072 1.055834 -0.065048
v 0.085009 1.104040 0.465786
v 0.085009 1.169448 0.440333
v 0.085009 0.677520 -0.630263
v 0.085009 0.742928 -0.655716
v 0.229930 0.544589 -0.702075
v 0.229930 0.698472 -0.761958
v 0.229930 0.442817 -0.963603
v 0.229930 0.596700 -1.023486
v 0.121994 0.393235 -1.091014
v 0.121994 0.547119 -1.150897
v 0.130544 0.601033 -0.775520
v 0.000000 0.631374 -0.703009
v 0.130544 0.531572 -0.954016
v 0.056877 0.497733 -1.040975
v 0.318963 0.577207 -0.479574
v 0.318963 0.207338 -0.686629
v 0.318963 0.219726 -0.783221
v 0.397203 0.577207 -0.479574
v 0.397203 0.207338 -0.686629
v 0.397203 0.219726 -0.783221
v 0.397203 0.577207 -0.478584
v 0.397203 0.207338 -0.271529
v 0.397203 0.219726 -0.174936
v 0.318963 0.577207 -0.478584
v 0.318963 0.207338 -0.271529
v 0.318963 0.219726 -0.174936
v 0.397203 0.728053 -0.479079
v 0.318963 0.728053 -0.479079
v 0.370072 0.596503 -0.444944
v 0.370072 0.666223 -0.469537
v 0.370072 0.596503 -0.516149
v 0.370072 0.666223 -0.498934
v 0.533722 0.195560 0.351988
v 0.533722 0.112731 0.399809
v 0.533722 0.112731 0.495452
v 0.533722 0.195560 0.543273
v 0.533722 0.278389 0.495452
v 0.533722 0.278389 0.399809
v 0.650860 0.112731 0.399809
v 0.650860 0.195560 0.351988
v 0.650860 0.112731 0.495452
v 0.650860 0.195560 0.543273
v 0.650860 0.278389 0.495452
v 0.650860 0.278389 0.399809
v 0.533722 0.195560 -0.625437
v 0.533722 0.112731 -0.577615
v 0.533722 0.112731 -0.481973
v 0.533722 0.195560 -0.434151
v 0.533722 0.278389 -0.481973
v 0.533722 0.278389 -0.577615
v 0.650860 0.112731 -0.577615
v 0.650860 0.195560 -0.625437
v 0.650860 0.112731 -0.481973
v 0.650860 0.195560 -0.434151
v 0.650860 0.278389 -0.481973
v 0.650860 0.278389 -0.577615
v -0.279843 0.074078 0.800000
v -0.279843 0.274078 0.800000
v -0.279843 0.074078 -0.800000
v -0.279843 0.274078 -0.800000
v -0.436324 0.074078 0.800000
v -0.436324 0.274078 0.800000
v -0.436324 0.074078 -0.800000
v -0.436324 0.274078 -0.800000
v -0.350157 0.195560 -0.773535
v -0.581800 0.195560 -0.773535
v -0.350157 -0.022072 -0.647885
v -0.581800 -0.022072 -0.647885
v -0.350157 -0.022072 -0.396586
v -0.581800 -0.022072 -0.396586
v -0.350157 0.195560 -0.270936
v -0.581800 0.195560 -0.270936
v -0.350157 0.413192 -0.396586
v -0.581800 0.413192 -0.396586
v -0.350157 0.413192 -0.647885
v -0.581800 0.413192 -0.647885
v -0.350157 0.195560 0.196331
v -0.581800 0.195560 0.196331
v -0.350157 -0.022072 0.321981
v -0.581800 -0.022072 0.321981
v -0.350157 -0.022072 0.573280
v -0.581800 -0.022072 0.573280
v -0.350157 0.195560 0.698930
v -0.581800 0.195560 0.698930
v -0.350157 0.413192 0.573280
v -0.581800 0.413192 0.573280
v -0.350157 0.413192 0.321981
v -0.581800 0.413192 0.321981
v -0.375206 0.104103 0.422996
v -0.375206 0.234099 0.422996
v -0.375206 0.104103 0.521050
v -0.375206 0.234099 0.521050
v 0.000000 0.104103 -0.646343
v 0.000000 0.234099 -0.646343
v -0.375206 0.104103 -0.646343
v -0.375206 0.234099 -0.646343
v 0.000000 0.104103 -0.548289
v 0.000000 0.234099 -0.548289
v -0.375206 0.104103 -0.548289
v -0.375206 0.234099 -0.548289
v -0.318963 0.914316 -0.028472
v -0.318963 0.141575 -0.235527
v -0.318963 0.167457 -0.332120
v -0.397203 0.914316 -0.028472
v -0.397203 0.141575 -0.235527
v -0.397203 0.167457 -0.332120
v -0.397203 0.914316 -0.027482
v -0.397203 0.141575 0.179573
v -0.397203 0.167457 0.276166
v -0.318963 0.914316 -0.027482
v -0.318963 0.141575 0.179573
v -0.318963 0.167457 0.276166
v -0.397203 1.229468 -0.027977
v -0.318963 1.229468 -0.027977
v -0.370072 0.999086 0.006158
v -0.370072 1.055834 0.006158
v -0.370072 0.999086 -0.065048
v -0.370072 1.055834 -0.065048
v 0.000000 0.677520 -0.630263
v -0.085009 1.104040 0.465786
v -0.085009 1.169448 0.440333
v -0.085009 0.677520 -0.630263
v -0.085009 0.742928 -0.655716
v 0.000000 0.480143 -0.676996
v -0.229930 0.544589 -0.702075
v -0.229930 0.698472 -0.761958
v 0.000000 0.378371 -0.938524
v -0.229930 0.442817 -0.963603
v -0.229930 0.596700 -1.023486
v 0.000000 0.393235 -1.091014
v -0.121994 0.393235 -1.091014
v -0.121994 0.547119 -1.150897
v 0.000000 0.533508 -0.749243
v -0.130544 0.601033 -0.775520
v 0.000000 0.464048 -0.927739
v -0.130544 0.531572 -0.954016
v 0.000000 0.497733 -1.040975
v -0.056877 0.497733 -1.040975
v -0.318963 0.577207 -0.479574
v -0.318963 0.207338 -0.686629
v -0.318963 0.219726 -0.783221
v -0.397203 0.577207 -0.479574
v -0.397203 0.207338 -0.686629
v -0.397203 0.219726 -0.783221
v -0.397203 0.577207 -0.478584
v -0.397203 0.207338 -0.271529
v -0.397203 0.219726 -0.174936
v -0.318963 0.577207 -0.478584
v -0.318963 0.207338 -0.271529
v -0.318963 0.219726 -0.174936
v -0.397203 0.728053 -0.479079
v -0.318963 0.728053 -0.479079
v -0.370072 0.596503 -0.444944
v -0.370072 0.666223 -0.469537
v -0.370072 0.596503 -0.516149
v -0.370072 0.666223 -0.498934
v -0.533722 0.195560 0.351988
v -0.533722 0.112731 0.399809
v -0.533722 0.112731 0.495452
v -0.533722 0.195560 0.543273
v -0.533722 0.278389 0.495452
v -0.533722 0.278389 0.399809
v -0.650860 0.112731 0.399809
v -0.650860 0.195560 0.351988
v -0.650860 0.112731 0.495452
v -0.650860 0.195560 0.543273
v -0.650860 0.278389 0.495452
v -0.650860 0.278389 0.399809
v -0.533722 0.195560 -0.625437
v -0.533722 0.112731 -0.577615
v -0.533722 0.112731 -0.481973
v -0.533722 0.195560 -0.434151
v -0.533722 0.278389 -0.481973
v -0.533722 0.278389 -0.577615
v -0.650860 0.112731 -0.577615
v -0.650860 0.195560 -0.625437
v -0.650860 0.112731 -0.481973
v -0.650860 0.195560 -0.434151
v -0.650860 0.278389 -0.481973
v -0.650860 0.278389 -0.577615
vt 0.0963 0.6211
vt 0.0963 0.6211
vt 0.0963 0.6211
vt 0.0963 0.6211
vt 0.0963 0.6211
vt 0.0963 0.6211
vt 0.0963 0.6211
vt 0.0963 0.6211
vt 0.1077 0.6190
vt 0.1077 0.6190
vt 0.1077 0.6190
vt 0.1077 0.6190
vt 0.1077 0.6190
vt 0.1077 0.6190
vt 0.1077 0.6190
vt 0.1077 0.6190
vt 0.1077 0.6190
vt 0.1077 0.6190
vt 0.1077 0.6190
vt 0.1077 0.6190
vt 0.1077 0.6190
vt 0.1077 0.6190
vt 0.1077 0.6190
vt 0.1077 0.6190
vt 0.1077 0.6190
vt 0.1077 0.6190
vt 0.1077 0.6190
vt 0.1077 0.6190
vt 0.1077 0.6190
vt 0.1077 0.6190
vt 0.1077 0.6190
vt 0.1077 0.6190
vt 0.0963 0.6211
vt 0.0963 0.6211
vt 0.0963 0.6211
vt 0.0963 0.6211
vt 0.0963 0.6211
vt 0.0963 0.6211
vt 0.0963 0.6211
vt 0.0963 0.6211
vt 0.0963 0.6211
vt 0.0963 0.6211
vt 0.0963 0.6211
vt 0.0963 0.6211
vt 0.0963 0.6211
vt 0.0963 0.6211
vt 0.0963 0.6211
vt 0.0963 0.6211
vt 0.0963 0.6211
vt 0.0963 0.6211
vt 0.0963 0.6211
vt 0.0963 0.6211
vt 0.0963 0.6211
vt 0.0963 0.6211
vt 0.0963 0.6211
vt 0.0963 0.6211
vt 0.0963 0.6211
vt 0.0963 0.6211
vt 0.0963 0.6211
vt 0.0963 0.6211
vt 0.0963 0.6211
vt 0.0963 0.6211
vt 0.0963 0.6211
vt 0.0963 0.6211
vt 0.0963 0.6211
vt 0.0963 0.6211
vt 0.0963 0.6211
vt 0.0963 0.6211
vt 0.0963 0.6211
vt 0.0963 0.6211
vt 0.0963 0.6211
vt 0.0963 0.6211
vt 0.0963 0.6211
vt 0.0963 0.6211
vt 0.0963 0.6211
vt 0.0963 0.6211
vt 0.0963 0.6211
vt 0.0963 0.6211
vt 0.0963 0.6211
vt 0.0963 0.6211
vt 0.0963 0.6211
vt 0.0963 0.6211
vt 0.0963 0.6211
vt 0.0963 0.6211
vt 0.0963 0.6211
vt 0.0963 0.6211
vt 0.0963 0.6211
vt 0.0963 0.6211
vt 0.0963 0.6211
vt 0.0963 0.6211
vt 0.0963 0.6211
vt 0.0963 0.6211
vt 0.0963 0.6211
vt 0.0963 0.6211
vt 0.0963 0.6211
vt 0.0963 0.6211
vt 0.0963 0.6211
vt 0.0963 0.6211
vt 0.0963 0.6211
vt 0.0963 0.6211
vt 0.0963 0.6211
vt 0.0963 0.6211
vt 0.0963 0.6211
vt 0.0963 0.6211
vt 0.0963 0.6211
vt 0.0963 0.6211
vt 0.0963 0.6211
vt 0.0963 0.6211
vt 0.0963 0.6211
vt 0.0963 0.6211
vt 0.0963 0.6211
vt 0.0963 0.6211
vt 0.0963 0.6211
vt 0.0963 0.6211
vt 0.0963 0.6211
vt 0.0963 0.6211
vt 0.0963 0.6211
vt 0.0963 0.6211
vt 0.0963 0.6211
vt 0.0963 0.6211
vt 0.0963 0.6211
vt 0.0963 0.6211
vt 0.0963 0.6211
vt 0.0963 0.6211
vt 0.0963 0.6211
vt 0.0963 0.6211
vt 0.0963 0.6211
vt 0.0963 0.6211
vt 0.0963 0.6211
vt 0.0963 0.6211
vt 0.0963 0.6211
vt 0.0963 0.6211
vt 0.0963 0.6211
vt 0.0963 0.6211
vt 0.0963 0.6211
vt 0.0963 0.6211
vt 0.0963 0.6211
vt 0.0963 0.6211
vt 0.0963 0.6211
vt 0.0963 0.6211
vt 0.0963 0.6211
vt 0.0963 0.6211
vt 0.0963 0.6211
vt 0.0963 0.6211
vt 0.0963 0.6211
vt 0.0963 0.6211
vt 0.0963 0.6211
vt 0.0963 0.6211
vt 0.0963 0.6211
vt 0.1077 0.6190
vt 0.1077 0.6190
vt 0.1077 0.6190
vt 0.1077 0.6190
vt 0.1077 0.6190
vt 0.1077 0.6190
vt 0.1077 0.6190
vt 0.1077 0.6190
vt 0.1077 0.6190
vt 0.1077 0.6190
vt 0.1077 0.6190
vt 0.1077 0.6190
vt 0.1077 0.6190
vt 0.1077 0.6190
vt 0.1077 0.6190
vt 0.1077 0.6190
vt 0.1077 0.6190
vt 0.1077 0.6190
vt 0.1077 0.6190
vt 0.1077 0.6190
vt 0.1077 0.6190
vt 0.1077 0.6190
vt 0.1077 0.6190
vt 0.1077 0.6190
vt 0.0963 0.6211
vt 0.0963 0.6211
vt 0.0963 0.6211
vt 0.0963 0.6211
vt 0.0963 0.6211
vt 0.0963 0.6211
vt 0.0963 0.6211
vt 0.0963 0.6211
vt 0.1077 0.6190
vt 0.1077 0.6190
vt 0.1077 0.6190
vt 0.1077 0.6190
vt 0.1077 0.6190
vt 0.1077 0.6190
vt 0.1077 0.6190
vt 0.1077 0.6190
vt 0.1077 0.6190
vt 0.1077 0.6190
vt 0.1077 0.6190
vt 0.1077 0.6190
vt 0.1077 0.6190
vt 0.1077 0.6190
vt 0.1077 0.6190
vt 0.1077 0.6190
vt 0.1077 0.6190
vt 0.1077 0.6190
vt 0.1077 0.6190
vt 0.1077 0.6190
vt 0.1077 0.6190
vt 0.1077 0.6190
vt 0.1077 0.6190
vt 0.1077 0.6190
vt 0.0963 0.6211
vt 0.0963 0.6211
vt 0.0963 0.6211
vt 0.0963 0.6211
vt 0.0963 0.6211
vt 0.0963 0.6211
vt 0.0963 0.6211
vt 0.0963 0.6211
vt 0.0963 0.6211
vt 0.1077 0.6190
vt 0.1077 0.6190
vt 0.1077 0.6190
vt 0.1077 0.6190
vt 0.1077 0.6190
vt 0.1077 0.6190
vt 0.1077 0.6190
vt 0.1077 0.6190
vt 0.1077 0.6190
vt 0.1077 0.6190
vt 0.1077 0.6190
vt 0.1077 0.6190
vt 0.1077 0.6190
vt 0.1077 0.6190
vt 0.1077 0.6190
vt 0.1077 0.6190
vt 0.1077 0.6190
vt 0.1077 0.6190
vt 0.1077 0.6190
vt 0.1077 0.6190
vt 0.1077 0.6190
vt 0.1077 0.6190
vt 0.1077 0.6190
vt 0.1077 0.6190
vn -1.0000 0.0000 0.0000
vn 0.0000 0.0000 -1.0000
vn 1.0000 0.0000 0.0000
vn 0.0000 0.0000 1.0000
vn 0.0000 -1.0000 0.0000
vn 0.0000 1.0000 0.0000
vn -0.0000 -0.5000 -0.8660
vn 0.0000 -0.5000 0.8660
vn 0.0000 0.5000 0.8660
vn -0.0000 0.5000 -0.8660
vn 0.0000 0.3627 0.9319
vn 0.0000 -0.9659 -0.2588
vn 0.0000 -0.2588 0.9659
vn 0.0000 0.2753 0.9614
vn 0.0000 -0.9659 0.2588
vn 0.0000 -0.2588 -0.9659
vn 0.0000 0.2753 -0.9614
vn 0.3589 0.5018 -0.7870
vn 0.6220 0.2840 0.7297
vn 0.1334 -0.2824 0.9500
vn 0.2880 -0.8924 0.3473
vn -0.5013 0.8606 0.0897
vn 0.7849 -0.2247 -0.5775
vn -0.6539 0.7051 -0.2744
vn 0.1834 -0.9817 0.0510
vn -0.4853 0.8148 -0.3171
vn -0.3219 0.9394 0.1177
vn 0.0000 0.3327 0.9430
vn 0.0000 -0.3627 -0.9319
vn 0.0000 0.5134 0.8581
vn 0.0000 0.5134 -0.8581
vn 0.0000 -0.9319 0.3627
vn 0.0000 0.3903 -0.9207
vn 0.0000 0.9319 -0.3627
vn -0.6220 0.2840 0.7297
vn -0.1334 -0.2824 0.9500
vn -0.2880 -0.8924 0.3473
vn 0.5013 0.8606 0.0897
vn -0.7849 -0.2247 -0.5775
vn 0.6539 0.7051 -0.2744
vn -0.1834 -0.9817 0.0510
vn -0.3589 0.5018 -0.7870
vn 0.4853 0.8148 -0.3171
vn 0.3219 0.9394 0.1177
vn 0.0000 0.2397 -0.9708
vn 0.0000 0.9122 0.4098
usemtl None
s off
f 1/1/1 2/2/1 4/3/1 3/4/1
f 3/4/2 4/3/2 8/5/2 7/6/2
f 7/6/3 8/5/3 6/7/3 5/8/3
f 5/8/4 6/7/4 2/2/4 1/1/4
f 3/4/5 7/6/5 5/8/5 1/1/5
f 8/5/6 4/3/6 2/2/6 6/7/6
f 9/9/7 10/10/7 12/11/7 11/12/7
f 11/12/5 12/11/5 14/13/5 13/14/5
f 13/14/8 14/13/8 16/15/8 15/16/8
f 15/16/9 16/15/9 18/17/9 17/18/9
f 12/11/3 10/10/3 20/19/3 18/17/3 16/15/3 14/13/3
f 17/18/6 18/17/6 20/19/6 19/20/6
f 19/20/10 20/19/10 10/10/10 9/9/10
f 9/9/1 11/12/1 13/14/1 15/16/1 17/18/1 19/20/1
f 21/21/7 22/22/7 24/23/7 23/24/7
f 23/24/5 24/23/5 26/25/5 25/26/5
f 25/26/8 26/25/8 28/27/8 27/28/8
f 27/28/9 28/27/9 30/29/9 29/30/9
f 24/23/3 22/22/3 32/31/3 30/29/3 28/27/3 26/25/3
f 29/30/6 30/29/6 32/31/6 31/32/6
f 31/32/10 32/31/10 22/22/10 21/21/10
f 21/21/1 23/24/1 25/26/1 27/28/1 29/30/1 31/32/1
f 179/33/11 178/34/11 59/35/11 60/36/11
f 33/37/3 34/38/3 36/39/3 35/40/3
f 57/41/2 175/42/2 176/43/2 58/44/2
f 49/45/3 48/46/3 47/47/3 44/48/3 45/49/3 46/50/3 53/51/3
f 172/52/3 170/53/3 169/54/3 168/55/3 159/56/3 160/57/3 161/58/3
f 151/59/2 152/60/2 38/61/2 37/62/2
f 37/62/3 38/61/3 40/63/3 39/64/3
f 39/64/4 40/63/4 156/65/4 155/66/4
f 37/62/5 39/64/5 155/66/5 151/59/5
f 40/63/6 38/61/6 152/60/6 156/65/6
f 42/67/12 43/68/12 46/50/12 45/49/12
f 167/69/1 171/70/1 164/71/1 163/72/1 162/73/1 165/74/1 166/75/1
f 50/76/1 51/77/1 52/78/1 54/79/1 43/68/1 42/67/1 41/80/1
f 42/67/13 45/49/13 44/48/13 41/80/13
f 52/78/14 49/45/14 53/51/14 54/79/14
f 48/46/15 49/45/15 52/78/15 51/77/15
f 48/46/16 51/77/16 50/76/16 47/47/16
f 43/68/17 54/79/17 53/51/17 46/50/17
f 33/37/2 147/81/2 148/82/2 34/38/2
f 173/83/4 55/84/4 56/85/4 174/86/4
f 58/44/6 176/43/6 174/86/6 56/85/6
f 181/87/18 70/88/18 191/89/18 192/90/18 184/91/18
f 62/92/19 61/93/19 63/94/19 64/95/19
f 61/93/3 62/92/3 60/36/3 59/35/3
f 55/84/5 173/83/5 175/42/5 57/41/5
f 149/96/4 35/40/4 36/39/4 150/97/4
f 87/98/5 211/99/5 213/100/5 89/101/5
f 61/93/20 177/102/20 182/103/20 63/94/20
f 64/95/3 63/94/3 65/104/3 66/105/3
f 63/94/21 182/103/21 185/106/21 65/104/21
f 66/105/22 68/107/22 72/108/22 71/109/22
f 66/105/23 65/104/23 67/110/23 68/107/23
f 82/111/1 83/112/1 84/113/1 86/114/1 75/115/1 74/116/1 73/117/1
f 64/95/24 66/105/24 71/109/24 69/118/24
f 65/104/25 185/106/25 188/119/25 67/110/25
f 191/89/26 69/118/26 71/109/26 193/120/26
f 193/120/27 71/109/27 72/108/27 195/121/27
f 210/122/3 208/123/3 207/124/3 206/125/3 197/126/3 198/127/3 199/128/3
f 211/99/28 87/98/28 88/129/28 212/130/28
f 188/119/29 189/131/29 190/132/29 68/107/29 67/110/29
f 84/113/30 81/133/30 85/134/30 86/114/30
f 75/115/31 86/114/31 85/134/31 78/135/31
f 205/136/1 209/137/1 202/138/1 201/139/1 200/140/1 203/141/1 204/142/1
f 59/35/32 178/34/32 180/143/32 177/102/32 61/93/32
f 90/144/6 214/145/6 212/130/6 88/129/6
f 147/81/5 33/37/5 35/40/5 149/96/5
f 81/133/3 80/146/3 79/147/3 76/148/3 77/149/3 78/135/3 85/134/3
f 109/150/3 110/151/3 114/152/3 113/153/3 112/154/3 111/155/3
f 97/156/3 98/157/3 102/158/3 101/159/3 100/160/3 99/161/3
f 96/162/6 95/163/6 101/159/6 102/158/6
f 94/164/8 93/165/8 99/161/8 100/160/8
f 92/166/7 91/167/7 98/157/7 97/156/7
f 91/167/10 96/162/10 102/158/10 98/157/10
f 95/163/9 94/164/9 100/160/9 101/159/9
f 93/165/5 92/166/5 97/156/5 99/161/5
f 108/168/6 107/169/6 113/153/6 114/152/6
f 106/170/8 105/171/8 111/155/8 112/154/8
f 104/172/7 103/173/7 110/151/7 109/150/7
f 103/173/10 108/168/10 114/152/10 110/151/10
f 107/169/9 106/170/9 112/154/9 113/153/9
f 105/171/5 104/172/5 109/150/5 111/155/5
f 115/174/3 117/175/3 118/176/3 116/177/3
f 117/175/2 121/178/2 122/179/2 118/176/2
f 121/178/1 119/180/1 120/181/1 122/179/1
f 119/180/4 115/174/4 116/177/4 120/181/4
f 117/175/5 115/174/5 119/180/5 121/178/5
f 122/179/6 120/181/6 116/177/6 118/176/6
f 123/182/7 125/183/7 126/184/7 124/185/7
f 125/183/5 127/186/5 128/187/5 126/184/5
f 127/186/8 129/188/8 130/189/8 128/187/8
f 129/188/9 131/190/9 132/191/9 130/189/9
f 126/184/1 128/187/1 130/189/1 132/191/1 134/192/1 124/185/1
f 131/190/6 133/193/6 134/192/6 132/191/6
f 133/193/10 123/182/10 124/185/10 134/192/10
f 123/182/3 133/193/3 131/190/3 129/188/3 127/186/3 125/183/3
f 135/194/7 137/195/7 138/196/7 136/197/7
f 137/195/5 139/198/5 140/199/5 138/196/5
f 139/198/8 141/200/8 142/201/8 140/199/8
f 141/200/9 143/202/9 144/203/9 142/201/9
f 138/196/1 140/199/1 142/201/1 144/203/1 146/204/1 136/197/1
f 143/202/6 145/205/6 146/204/6 144/203/6
f 145/205/10 135/194/10 136/197/10 146/204/10
f 135/194/3 145/205/3 143/202/3 141/200/3 139/198/3 137/195/3
f 147/81/1 149/96/1 150/97/1 148/82/1
f 151/59/2 153/206/2 154/207/2 152/60/2
f 153/206/1 157/208/1 158/209/1 154/207/1
f 157/208/4 155/66/4 156/65/4 158/209/4
f 155/66/3 151/59/3 152/60/3 156/65/3
f 153/206/5 151/59/5 155/66/5 157/208/5
f 158/209/6 156/65/6 152/60/6 154/207/6
f 160/57/12 163/72/12 164/71/12 161/58/12
f 70/88/33 181/87/33 62/92/33
f 181/87/34 179/33/34 60/36/34 62/92/34
f 160/57/13 159/56/13 162/73/13 163/72/13
f 170/53/14 172/52/14 171/70/14 167/69/14
f 166/75/15 169/54/15 170/53/15 167/69/15
f 166/75/16 165/74/16 168/55/16 169/54/16
f 161/58/17 164/71/17 171/70/17 172/52/17
f 181/87/35 184/91/35 183/210/35 180/143/35
f 180/143/1 178/34/1 179/33/1 181/87/1
f 180/143/36 183/210/36 182/103/36 177/102/36
f 184/91/1 187/211/1 186/212/1 183/210/1
f 183/210/37 186/212/37 185/106/37 182/103/37
f 187/211/38 194/213/38 196/214/38 190/132/38
f 187/211/39 190/132/39 189/131/39 186/212/39
f 184/91/40 192/90/40 194/213/40 187/211/40
f 186/212/41 189/131/41 188/119/41 185/106/41
f 62/92/42 64/95/42 69/118/42 191/89/42 70/88/42
f 191/89/43 193/120/43 194/213/43 192/90/43
f 193/120/44 195/121/44 196/214/44 194/213/44
f 150/97/6 36/39/6 34/38/6 148/82/6
f 89/101/45 213/100/45 214/145/45 90/144/45
f 208/123/30 210/122/30 209/137/30 205/136/30
f 199/128/31 202/138/31 209/137/31 210/122/31
f 233/215/1 235/216/1 236/217/1 237/218/1 238/219/1 234/220/1
f 221/221/1 223/222/1 224/223/1 225/224/1 226/225/1 222/226/1
f 220/227/6 226/225/6 225/224/6 219/228/6
f 218/229/8 224/223/8 223/222/8 217/230/8
f 216/231/7 221/221/7 222/226/7 215/232/7
f 215/232/10 222/226/10 226/225/10 220/227/10
f 219/228/9 225/224/9 224/223/9 218/229/9
f 217/230/5 223/222/5 221/221/5 216/231/5
f 232/233/6 238/219/6 237/218/6 231/234/6
f 230/235/8 236/217/8 235/216/8 229/236/8
f 228/237/7 233/215/7 234/220/7 227/238/7
f 227/238/10 234/220/10 238/219/10 232/233/10
f 231/234/9 237/218/9 236/217/9 230/235/9
f 229/236/5 235/216/5 233/215/5 228/237/5
f 190/132/46 196/214/46 195/121/46 72/108/46 68/107/46
