# Blender v2.78 (sub 0) OBJ File: 'decorator_building_mountainMine.blend'
# www.blender.org
mtllib decorator_building_mountainMine.mtl
o decorator_building_mountainMine.001_Cube
v 0.120820 0.561124 0.607946
v 0.120234 0.919587 0.517349
v 0.120234 0.535455 0.161351
v 0.120234 0.921757 0.161351
v 0.172184 0.561124 0.610875
v 0.172184 0.919587 0.517349
v 0.172184 0.535455 0.161351
v 0.172184 0.921757 0.161351
v 0.202760 0.904847 0.095759
v 0.202760 0.903083 0.563839
v 0.202760 0.956796 0.095759
v 0.202760 0.953785 0.552523
v 0.121405 0.924869 0.389140
v -0.120820 0.561124 0.607946
v -0.120234 0.919587 0.517349
v -0.120234 0.535455 0.161351
v -0.120234 0.921757 0.161351
v -0.172184 0.561124 0.610875
v -0.172184 0.919587 0.517349
v -0.172184 0.535455 0.161351
v -0.172184 0.921757 0.161351
v -0.202760 0.904847 0.095759
v -0.202760 0.903083 0.563839
v -0.202760 0.956796 0.095759
v -0.202760 0.953785 0.552523
v -0.121405 0.924869 0.389140
v 0.000000 0.561124 0.643280
v 0.000000 0.924869 0.389140
vt 0.1161 0.6280
vt 0.1161 0.6280
vt 0.1161 0.6280
vt 0.1161 0.6280
vt 0.1161 0.6280
vt 0.1161 0.6280
vt 0.1161 0.6280
vt 0.1161 0.6280
vt 0.8544 0.8986
vt 0.8544 0.8986
vt 0.8544 0.8986
vt 0.8544 0.8986
vt 0.1161 0.6280
vt 0.1161 0.6280
vt 0.1161 0.6280
vt 0.1161 0.6280
vt 0.1161 0.6280
vt 0.1161 0.6280
vt 0.1161 0.6280
vt 0.1161 0.6280
vt 0.1161 0.6280
vt 0.1161 0.6280
vt 0.1161 0.6280
vt 0.1161 0.6280
vt 0.1161 0.6280
vt 0.1161 0.6280
vt 0.1161 0.6280
vt 0.1161 0.6280
vt 0.8544 0.8986
vt 0.8544 0.8986
vn -1.0000 -0.0007 0.0008
vn 0.0000 0.0000 -1.0000
vn 1.0000 0.0000 0.0000
vn -0.0275 0.2486 0.9682
vn 0.1214 0.5410 0.8322
vn 0.0000 1.0000 0.0066
vn 0.0000 0.2178 0.9760
vn 1.0000 -0.0007 0.0008
vn -1.0000 0.0000 0.0000
vn 0.0275 0.2486 0.9682
vn -0.1214 0.5410 0.8322
vn 0.0000 -1.0000 -0.0038
usemtl None
s off
f 1/1/1 2/2/1 4/3/1 3/4/1
f 3/4/2 4/3/2 8/5/2 7/6/2
f 7/6/3 8/5/3 6/7/3 5/8/3
f 5/8/4 6/7/4 2/2/4 1/1/4
f 1/9/5 13/10/5 28/11/5 27/12/5
f 11/13/6 24/14/6 25/15/6 12/16/6
f 9/17/2 22/18/2 24/14/2 11/13/2
f 9/17/3 11/13/3 12/16/3 10/19/3
f 12/16/7 25/15/7 23/20/7 10/19/7
f 14/21/8 16/22/8 17/23/8 15/24/8
f 16/22/2 20/25/2 21/26/2 17/23/2
f 20/25/9 18/27/9 19/28/9 21/26/9
f 18/27/10 14/21/10 15/24/10 19/28/10
f 14/29/11 27/12/11 28/11/11 26/30/11
f 22/18/9 23/20/9 25/15/9 24/14/9
f 10/19/12 23/20/12 22/18/12 9/17/12
