# Blender v2.78 (sub 0) OBJ File: 'decorator_natural_pineForest.blend'
# www.blender.org
mtllib decorator_natural_pineForest.mtl
o decorator_natural_pineForest_Plane
v -0.191502 -0.000212 -0.760993
v -0.191502 0.542810 -0.760993
v -0.191502 -0.000212 -0.838203
v -0.191502 0.542810 -0.838203
v -0.114292 -0.000212 -0.760993
v -0.114292 0.542810 -0.760993
v -0.114292 -0.000212 -0.838203
v -0.114292 0.542810 -0.838203
v -0.366316 0.461611 -0.586179
v -0.366316 0.461611 -1.013017
v 0.060522 0.461611 -0.586179
v 0.060522 0.461611 -1.013017
v -0.152897 1.281505 -0.799598
v 0.125916 -0.000433 -0.222741
v 0.125916 0.928516 -0.222741
v 0.125916 -0.000433 -0.276702
v 0.125916 0.928516 -0.276703
v 0.179878 -0.000433 -0.222741
v 0.179878 0.928516 -0.222741
v 0.179878 -0.000433 -0.276702
v 0.179878 0.928516 -0.276703
v 0.003740 0.812441 -0.100565
v 0.003740 0.812441 -0.398879
v 0.302054 0.812441 -0.100565
v 0.302054 0.812441 -0.398879
v 0.152897 1.984487 -0.249722
v -0.753932 -0.000212 -0.003905
v -0.753932 0.599392 -0.003905
v -0.753932 -0.000212 -0.089163
v -0.753932 0.599392 -0.089163
v -0.668674 -0.000212 -0.003905
v -0.668674 0.599392 -0.003905
v -0.668674 -0.000212 -0.089163
v -0.668674 0.599392 -0.089163
v -0.946969 0.509729 0.189132
v -0.946969 0.509729 -0.282200
v -0.475637 0.509729 0.189132
v -0.475637 0.509729 -0.282200
v -0.711303 1.415089 -0.046534
v -0.267389 -0.000212 0.041368
v -0.267389 0.394716 0.041368
v -0.267389 -0.000212 -0.014777
v -0.267389 0.394716 -0.014777
v -0.211244 -0.000212 0.041368
v -0.211244 0.394716 0.041368
v -0.211244 -0.000212 -0.014777
v -0.211244 0.394716 -0.014777
v -0.394509 0.335671 0.168488
v -0.394509 0.335671 -0.141897
v -0.084124 0.335671 0.168488
v -0.084124 0.335671 -0.141897
v -0.239317 0.931875 0.013295
v -0.079983 -0.000212 0.631741
v -0.079983 0.563791 0.631741
v -0.079983 -0.000212 0.551547
v -0.079983 0.563791 0.551547
v 0.000211 -0.000212 0.631741
v 0.000211 0.563791 0.631741
v 0.000211 -0.000212 0.551547
v 0.000211 0.563791 0.551547
v -0.261554 0.479453 0.813313
v -0.261554 0.479453 0.369976
v 0.181782 0.479453 0.813313
v 0.181782 0.479453 0.369976
v -0.039886 1.331038 0.591644
v 0.316754 -0.000212 -0.623105
v 0.316754 0.549994 -0.623105
v 0.316754 -0.000212 -0.707547
v 0.316754 0.549994 -0.707547
v 0.401196 -0.000212 -0.623105
v 0.401196 0.549994 -0.623105
v 0.401196 -0.000212 -0.707547
v 0.401196 0.549994 -0.707547
v 0.125565 0.461189 -0.431915
v 0.125565 0.461189 -0.898737
v 0.592386 0.461189 -0.431915
v 0.592386 0.461189 -0.898737
v 0.358975 1.357885 -0.665326
v 0.482684 -0.000212 0.361572
v 0.482684 0.851720 0.361572
v 0.482684 -0.000212 0.276606
v 0.482684 0.851720 0.276606
v 0.567651 -0.000212 0.361572
v 0.567651 0.851720 0.361572
v 0.567651 -0.000212 0.276606
v 0.567651 0.851720 0.276606
v 0.290309 0.724311 0.553948
v 0.290309 0.724311 0.084230
v 0.760026 0.724311 0.553948
v 0.760026 0.724311 0.084230
v 0.525167 1.365082 0.319089
v 0.159593 -0.000212 0.166144
v 0.159593 0.651941 0.166144
v 0.159593 -0.000212 0.099764
v 0.159593 0.651941 0.099764
v 0.225973 -0.000212 0.166144
v 0.225973 0.651941 0.166144
v 0.225973 -0.000212 0.099764
v 0.225973 0.651941 0.099764
v 0.009300 0.554417 0.316437
v 0.009300 0.554417 -0.050529
v 0.376266 0.554417 0.316437
v 0.376266 0.554417 -0.050529
v 0.192783 1.539149 0.132954
v 0.609505 -0.000212 -0.290416
v 0.609505 0.494493 -0.290416
v 0.609505 -0.000212 -0.361058
v 0.609505 0.494493 -0.361058
v 0.680147 -0.000212 -0.290416
v 0.680147 0.494493 -0.290416
v 0.680147 -0.000212 -0.361058
v 0.680147 0.494493 -0.361058
v 0.449562 0.420521 -0.130473
v 0.449562 0.420521 -0.521001
v 0.840090 0.420521 -0.130473
v 0.840090 0.420521 -0.521001
v 0.644826 1.167434 -0.325737
v -0.482078 -0.000212 0.369067
v -0.482078 0.513558 0.369067
v -0.482078 -0.000212 0.295702
v -0.482078 0.513558 0.295702
v -0.408713 -0.000212 0.369067
v -0.408713 0.513558 0.369067
v -0.408713 -0.000212 0.295702
v -0.408713 0.513558 0.295702
v -0.648188 0.436734 0.535177
v -0.648188 0.436734 0.129592
v -0.242603 0.436734 0.535177
v -0.242603 0.436734 0.129592
v -0.445395 1.212444 0.332384
v -0.415623 -0.000212 -0.471107
v -0.415623 0.670892 -0.471107
v -0.415623 -0.000212 -0.571107
v -0.415623 0.670892 -0.571107
v -0.315623 -0.000212 -0.471107
v -0.315623 0.670892 -0.471107
v -0.315623 -0.000212 -0.571107
v -0.315623 0.670892 -0.571107
v -0.642037 0.566179 -0.244693
v -0.642037 0.566179 -0.797521
v -0.089209 0.566179 -0.244693
v -0.089209 0.566179 -0.797521
v -0.365623 1.623503 -0.521107
vt 0.1250 0.6250
vt 0.1250 0.6250
vt 0.1250 0.6250
vt 0.1250 0.6250
vt 0.1250 0.6250
vt 0.1250 0.6250
vt 0.1250 0.6250
vt 0.1250 0.6250
vt 0.1250 0.8750
vt 0.1250 0.8750
vt 0.1250 0.8750
vt 0.1250 0.8750
vt 0.1250 0.8750
vt 0.1250 0.6250
vt 0.1250 0.6250
vt 0.1250 0.6250
vt 0.1250 0.6250
vt 0.1250 0.6250
vt 0.1250 0.6250
vt 0.1250 0.6250
vt 0.1250 0.6250
vt 0.1250 0.8750
vt 0.1250 0.8750
vt 0.1250 0.8750
vt 0.1250 0.8750
vt 0.1250 0.8750
vt 0.1250 0.6250
vt 0.1250 0.6250
vt 0.1250 0.6250
vt 0.1250 0.6250
vt 0.1250 0.6250
vt 0.1250 0.6250
vt 0.1250 0.6250
vt 0.1250 0.6250
vt 0.1250 0.8750
vt 0.1250 0.8750
vt 0.1250 0.8750
vt 0.1250 0.8750
vt 0.1250 0.8750
vt 0.1250 0.6250
vt 0.1250 0.6250
vt 0.1250 0.6250
vt 0.1250 0.6250
vt 0.1250 0.6250
vt 0.1250 0.6250
vt 0.1250 0.6250
vt 0.1250 0.6250
vt 0.1250 0.8750
vt 0.1250 0.8750
vt 0.1250 0.8750
vt 0.1250 0.8750
vt 0.1250 0.8750
vt 0.1250 0.6250
vt 0.1250 0.6250
vt 0.1250 0.6250
vt 0.1250 0.6250
vt 0.1250 0.6250
vt 0.1250 0.6250
vt 0.1250 0.6250
vt 0.1250 0.6250
vt 0.1250 0.8750
vt 0.1250 0.8750
vt 0.1250 0.8750
vt 0.1250 0.8750
vt 0.1250 0.8750
vt 0.1250 0.6250
vt 0.1250 0.6250
vt 0.1250 0.6250
vt 0.1250 0.6250
vt 0.1250 0.6250
vt 0.1250 0.6250
vt 0.1250 0.6250
vt 0.1250 0.6250
vt 0.1250 0.8750
vt 0.1250 0.8750
vt 0.1250 0.8750
vt 0.1250 0.8750
vt 0.1250 0.8750
vt 0.1250 0.6250
vt 0.1250 0.6250
vt 0.1250 0.6250
vt 0.1250 0.6250
vt 0.1250 0.6250
vt 0.1250 0.6250
vt 0.1250 0.6250
vt 0.1250 0.6250
vt 0.1250 0.8750
vt 0.1250 0.8750
vt 0.1250 0.8750
vt 0.1250 0.8750
vt 0.1250 0.8750
vt 0.1250 0.6250
vt 0.1250 0.6250
vt 0.1250 0.6250
vt 0.1250 0.6250
vt 0.1250 0.6250
vt 0.1250 0.6250
vt 0.1250 0.6250
vt 0.1250 0.6250
vt 0.1250 0.8750
vt 0.1250 0.8750
vt 0.1250 0.8750
vt 0.1250 0.8750
vt 0.1250 0.8750
vt 0.1250 0.6250
vt 0.1250 0.6250
vt 0.1250 0.6250
vt 0.1250 0.6250
vt 0.1250 0.6250
vt 0.1250 0.6250
vt 0.1250 0.6250
vt 0.1250 0.6250
vt 0.1250 0.8750
vt 0.1250 0.8750
vt 0.1250 0.8750
vt 0.1250 0.8750
vt 0.1250 0.8750
vt 0.1250 0.6250
vt 0.1250 0.6250
vt 0.1250 0.6250
vt 0.1250 0.6250
vt 0.1250 0.6250
vt 0.1250 0.6250
vt 0.1250 0.6250
vt 0.1250 0.6250
vt 0.1250 0.8750
vt 0.1250 0.8750
vt 0.1250 0.8750
vt 0.1250 0.8750
vt 0.1250 0.8750
vt 0.1250 0.6250
vt 0.1250 0.6250
vt 0.1250 0.6250
vt 0.1250 0.6250
vt 0.1250 0.6250
vt 0.1250 0.6250
vt 0.1250 0.6250
vt 0.1250 0.6250
vt 0.1250 0.8750
vt 0.1250 0.8750
vt 0.1250 0.8750
vt 0.1250 0.8750
vt 0.1250 0.8750
vn -1.0000 0.0000 0.0000
vn 0.0000 0.0000 -1.0000
vn 1.0000 0.0000 0.0000
vn 0.0000 -0.0000 1.0000
vn 0.0000 -1.0000 0.0000
vn 0.9678 0.2519 0.0000
vn -0.9678 0.2519 0.0000
vn 0.0000 0.2519 0.9678
vn 0.0000 0.2519 -0.9678
vn 0.9920 0.1262 0.0000
vn -0.9920 0.1262 0.0000
vn 0.0000 0.1262 0.9920
vn 0.0000 0.1262 -0.9920
vn 0.9389 0.3441 0.0000
vn -0.9389 0.3441 0.0000
vn 0.0000 0.3441 0.9389
vn 0.0000 0.3441 -0.9389
vn 0.9831 0.1832 0.0000
vn -0.9831 0.1832 0.0000
vn 0.0000 0.1832 0.9831
vn 0.0000 0.1832 -0.9831
vn 0.9675 0.2529 0.0000
vn -0.9675 0.2529 0.0000
vn 0.0000 0.2529 0.9675
vn 0.0000 0.2529 -0.9675
usemtl Material
s off
f 1/1/1 2/2/1 4/3/1 3/4/1
f 3/4/2 4/3/2 8/5/2 7/6/2
f 7/6/3 8/5/3 6/7/3 5/8/3
f 5/8/4 6/7/4 2/2/4 1/1/4
f 12/9/5 11/10/5 9/11/5 10/12/5
f 11/10/6 12/9/6 13/13/6
f 10/12/7 9/11/7 13/13/7
f 9/11/8 11/10/8 13/13/8
f 12/9/9 10/12/9 13/13/9
f 14/14/1 15/15/1 17/16/1 16/17/1
f 16/17/2 17/16/2 21/18/2 20/19/2
f 20/19/3 21/18/3 19/20/3 18/21/3
f 18/21/4 19/20/4 15/15/4 14/14/4
f 25/22/5 24/23/5 22/24/5 23/25/5
f 24/23/10 25/22/10 26/26/10
f 23/25/11 22/24/11 26/26/11
f 22/24/12 24/23/12 26/26/12
f 25/22/13 23/25/13 26/26/13
f 27/27/1 28/28/1 30/29/1 29/30/1
f 29/30/2 30/29/2 34/31/2 33/32/2
f 33/32/3 34/31/3 32/33/3 31/34/3
f 31/34/4 32/33/4 28/28/4 27/27/4
f 38/35/5 37/36/5 35/37/5 36/38/5
f 37/36/6 38/35/6 39/39/6
f 36/38/7 35/37/7 39/39/7
f 35/37/8 37/36/8 39/39/8
f 38/35/9 36/38/9 39/39/9
f 40/40/1 41/41/1 43/42/1 42/43/1
f 42/43/2 43/42/2 47/44/2 46/45/2
f 46/45/3 47/44/3 45/46/3 44/47/3
f 44/47/4 45/46/4 41/41/4 40/40/4
f 51/48/5 50/49/5 48/50/5 49/51/5
f 50/49/6 51/48/6 52/52/6
f 49/51/7 48/50/7 52/52/7
f 48/50/8 50/49/8 52/52/8
f 51/48/9 49/51/9 52/52/9
f 53/53/1 54/54/1 56/55/1 55/56/1
f 55/56/2 56/55/2 60/57/2 59/58/2
f 59/58/3 60/57/3 58/59/3 57/60/3
f 57/60/4 58/59/4 54/54/4 53/53/4
f 64/61/5 63/62/5 61/63/5 62/64/5
f 63/62/6 64/61/6 65/65/6
f 62/64/7 61/63/7 65/65/7
f 61/63/8 63/62/8 65/65/8
f 64/61/9 62/64/9 65/65/9
f 66/66/1 67/67/1 69/68/1 68/69/1
f 68/69/2 69/68/2 73/70/2 72/71/2
f 72/71/3 73/70/3 71/72/3 70/73/3
f 70/73/4 71/72/4 67/67/4 66/66/4
f 77/74/5 76/75/5 74/76/5 75/77/5
f 76/75/6 77/74/6 78/78/6
f 75/77/7 74/76/7 78/78/7
f 74/76/8 76/75/8 78/78/8
f 77/74/9 75/77/9 78/78/9
f 79/79/1 80/80/1 82/81/1 81/82/1
f 81/82/2 82/81/2 86/83/2 85/84/2
f 85/84/3 86/83/3 84/85/3 83/86/3
f 83/86/4 84/85/4 80/80/4 79/79/4
f 90/87/5 89/88/5 87/89/5 88/90/5
f 89/88/14 90/87/14 91/91/14
f 88/90/15 87/89/15 91/91/15
f 87/89/16 89/88/16 91/91/16
f 90/87/17 88/90/17 91/91/17
f 92/92/1 93/93/1 95/94/1 94/95/1
f 94/95/2 95/94/2 99/96/2 98/97/2
f 98/97/3 99/96/3 97/98/3 96/99/3
f 96/99/4 97/98/4 93/93/4 92/92/4
f 103/100/5 102/101/5 100/102/5 101/103/5
f 102/101/18 103/100/18 104/104/18
f 101/103/19 100/102/19 104/104/19
f 100/102/20 102/101/20 104/104/20
f 103/100/21 101/103/21 104/104/21
f 105/105/1 106/106/1 108/107/1 107/108/1
f 107/108/2 108/107/2 112/109/2 111/110/2
f 111/110/3 112/109/3 110/111/3 109/112/3
f 109/112/4 110/111/4 106/106/4 105/105/4
f 116/113/5 115/114/5 113/115/5 114/116/5
f 115/114/22 116/113/22 117/117/22
f 114/116/23 113/115/23 117/117/23
f 113/115/24 115/114/24 117/117/24
f 116/113/25 114/116/25 117/117/25
f 118/118/1 119/119/1 121/120/1 120/121/1
f 120/121/2 121/120/2 125/122/2 124/123/2
f 124/123/3 125/122/3 123/124/3 122/125/3
f 122/125/4 123/124/4 119/119/4 118/118/4
f 129/126/5 128/127/5 126/128/5 127/129/5
f 128/127/22 129/126/22 130/130/22
f 127/129/23 126/128/23 130/130/23
f 126/128/24 128/127/24 130/130/24
f 129/126/25 127/129/25 130/130/25
f 131/131/1 132/132/1 134/133/1 133/134/1
f 133/134/2 134/133/2 138/135/2 137/136/2
f 137/136/3 138/135/3 136/137/3 135/138/3
f 135/138/4 136/137/4 132/132/4 131/131/4
f 142/139/5 141/140/5 139/141/5 140/142/5
f 141/140/22 142/139/22 143/143/22
f 140/142/23 139/141/23 143/143/23
f 139/141/24 141/140/24 143/143/24
f 142/139/25 140/142/25 143/143/25
