# Blender v2.78 (sub 0) OBJ File: 'decorator_building_towersignalLight.blend'
# www.blender.org
mtllib decorator_building_towersignalLight.mtl
o decorator_building_towersignalLight.002_Cylinder.001
v -0.000000 1.368613 0.000000
v 0.073047 1.415976 -0.023175
v 0.044613 1.415976 0.062310
v -0.045475 1.415976 0.061685
v -0.072717 1.415976 -0.024188
v 0.000533 1.415976 -0.076633
v 0.072717 1.492612 0.024188
v -0.000533 1.492612 0.076633
v -0.073047 1.492612 0.023175
v -0.044613 1.492612 -0.062310
v 0.045475 1.492612 -0.061685
v -0.000000 1.686972 0.000000
v -0.000000 1.348913 0.000000
v 0.088417 1.420920 0.075874
v -0.044838 1.420920 0.107535
v -0.116129 1.420920 -0.009414
v -0.026932 1.420920 -0.113353
v 0.099483 1.420920 -0.060642
v 0.026932 1.537431 0.113353
v -0.099483 1.537431 0.060642
v -0.088417 1.537431 -0.075874
v 0.044838 1.537431 -0.107535
v 0.116129 1.537431 0.009414
v -0.000000 1.946488 0.000000
v 0.000000 0.625000 -0.193615
v 0.320658 0.000000 -0.185132
v 0.167675 0.625000 -0.096807
v 0.320658 0.000000 0.185132
v 0.167675 0.625000 0.096807
v -0.000000 0.000000 0.370263
v -0.000000 0.625000 0.193615
v -0.320658 0.000000 0.185132
v -0.167675 0.625000 0.096807
v -0.320658 0.000000 -0.185132
v -0.167675 0.625000 -0.096807
v 0.150629 0.891321 -0.086965
v 0.000000 0.891321 -0.173931
v 0.150629 0.891321 0.086965
v -0.000000 0.891321 0.173931
v -0.150629 0.891321 0.086965
v -0.150629 0.891321 -0.086965
v 0.299467 0.982983 -0.172897
v 0.000000 0.982983 -0.345795
v 0.299467 0.982983 0.172897
v -0.000000 0.982983 0.345795
v -0.299467 0.982983 0.172897
v -0.299467 0.982983 -0.172897
v 0.371695 1.238850 -0.214598
v -0.000000 1.238850 -0.429197
v 0.371695 1.238850 0.214598
v -0.000000 1.238850 0.429197
v -0.371695 1.238850 0.214598
v -0.371695 1.238850 -0.214598
v 0.296208 1.238850 -0.171016
v -0.000000 1.238850 -0.342032
v 0.296208 1.238850 0.171016
v -0.000000 1.238850 0.342032
v -0.296208 1.238850 0.171016
v -0.296208 1.238850 -0.171016
v 0.214600 1.155384 -0.123899
v 0.000000 1.155384 -0.247798
v 0.214600 1.155384 0.123899
v 0.000000 1.155384 0.247798
v -0.214600 1.155384 0.123899
v -0.214600 1.155384 -0.123899
v 0.000000 0.312500 -0.245048
v 0.212218 0.312500 -0.122524
v 0.212218 0.312500 0.122524
v -0.000000 0.312500 0.245048
v -0.212218 0.312500 0.122524
v -0.212218 0.312500 -0.122524
v 0.271864 0.274111 -0.156960
v 0.271864 0.274111 0.156961
v -0.000000 0.274111 0.313921
v -0.271864 0.274111 0.156960
v -0.271864 0.274111 -0.156960
v 0.000000 0.312500 -0.215041
v 0.186231 0.312500 -0.107521
v 0.186231 0.312500 0.107521
v -0.000000 0.312500 0.215041
v -0.186231 0.312500 0.107521
v -0.186231 0.312500 -0.107521
v 0.191033 0.274111 -0.110293
v 0.191033 0.274111 0.110293
v -0.000000 0.274111 0.220586
v -0.191033 0.274111 0.110293
v -0.191033 0.274111 -0.110293
v 0.000000 0.274111 -0.220586
v -0.039299 0.274111 0.375429
v -0.039299 -0.000000 0.431771
v -0.359956 -0.000000 0.246639
v -0.311162 0.274111 0.218468
v -0.012011 0.000000 -0.450012
v 0.308646 0.000000 -0.264880
v 0.259852 0.274111 -0.236709
v -0.283875 0.274111 -0.236709
v -0.332669 0.000000 -0.264880
v -0.012011 0.274111 -0.393670
v 0.023602 0.631728 0.234495
v 0.191278 0.631728 0.137688
v 0.235820 0.319228 0.163405
v 0.023602 0.319228 0.285929
v -0.034317 0.319022 -0.264861
v -0.034317 0.631522 -0.213428
v -0.201992 0.631522 -0.116620
v -0.201992 0.631522 0.076995
v -0.246535 0.319022 0.102711
v -0.246535 0.319022 -0.142337
v 0.214706 0.631704 0.096807
v 0.214706 0.631704 -0.096807
v 0.259249 0.319204 -0.122524
v 0.259249 0.319204 0.122524
v -0.157873 0.648756 -0.091148
v 0.000000 0.648756 -0.182296
v -0.000000 0.648756 0.182296
v -0.157873 0.648756 0.091148
v 0.157873 0.648756 -0.091148
v 0.157873 0.648756 0.091148
v -0.154251 0.847246 -0.089057
v -0.000000 0.847246 0.178113
v 0.154251 0.847246 -0.089057
v 0.000000 0.847246 -0.178113
v -0.154251 0.847246 0.089057
v 0.154251 0.847246 0.089057
v -0.154251 0.848657 0.156038
v -0.157873 0.650167 0.158129
v 0.154251 0.848657 0.156038
v 0.157873 0.650167 0.158129
v -0.000000 0.650167 0.249277
v -0.000000 0.848657 0.245095
v -0.028003 0.848268 -0.226617
v -0.028003 0.649778 -0.230799
v -0.185876 0.649778 -0.139651
v -0.182254 0.848268 -0.137560
v 0.030685 0.848366 -0.231261
v 0.030685 0.649876 -0.235443
v 0.188558 0.649876 -0.144295
v 0.184935 0.848366 -0.142204
v 0.185848 1.238850 -0.321897
v 0.185848 1.238850 0.321897
v -0.371695 1.238850 0.000000
v 0.148104 1.238850 -0.256524
v 0.148104 1.238850 0.256524
v -0.296208 1.238850 0.000000
v 0.371695 1.238850 0.000000
v -0.185848 1.238850 0.321897
v -0.185848 1.238850 -0.321897
v 0.296208 1.238850 0.000000
v -0.148104 1.238850 0.256524
v -0.148104 1.238850 -0.256524
v -0.371695 1.420763 0.214598
v -0.296208 1.420763 0.171016
v -0.296208 1.420763 -0.171016
v -0.371695 1.420763 -0.214598
v 0.371695 1.420763 0.214598
v 0.296208 1.420763 0.171016
v -0.000000 1.420763 0.342032
v -0.000000 1.420763 0.429197
v -0.000000 1.420763 -0.429197
v -0.000000 1.420763 -0.342032
v 0.296208 1.420763 -0.171016
v 0.371695 1.420763 -0.214598
v 0.185848 1.420763 -0.321897
v 0.185848 1.420763 0.321897
v -0.371695 1.420763 0.000000
v 0.148104 1.420763 -0.256524
v 0.148104 1.420763 0.256524
v -0.296208 1.420763 0.000000
v 0.371695 1.420763 0.000000
v -0.185848 1.420763 0.321897
v -0.185848 1.420763 -0.321897
v 0.296208 1.420763 0.000000
v -0.148104 1.420763 0.256524
v -0.148104 1.420763 -0.256524
vt 0.3750 0.8750
vt 0.3750 0.8750
vt 0.3750 0.8750
vt 0.3750 0.8750
vt 0.3750 0.8750
vt 0.3750 0.8750
vt 0.3750 0.8750
vt 0.3750 0.8750
vt 0.3750 0.8750
vt 0.3750 0.8750
vt 0.3750 0.8750
vt 0.3750 0.8750
vt 0.3750 0.6250
vt 0.3750 0.6250
vt 0.3750 0.6250
vt 0.3750 0.6250
vt 0.3750 0.6250
vt 0.3750 0.6250
vt 0.3750 0.6250
vt 0.3750 0.6250
vt 0.3750 0.6250
vt 0.3750 0.6250
vt 0.3750 0.6250
vt 0.8750 0.6250
vt 0.8750 0.6250
vt 0.8750 0.6250
vt 0.8750 0.6250
vt 0.8750 0.6250
vt 0.8750 0.6250
vt 0.8750 0.6250
vt 0.8750 0.6250
vt 0.8750 0.6250
vt 0.8750 0.6250
vt 0.8750 0.6250
vt 0.8750 0.6250
vt 0.8750 0.6250
vt 0.8750 0.6250
vt 0.8750 0.6250
vt 0.8750 0.6250
vt 0.8750 0.6250
vt 0.8750 0.6250
vt 0.8750 0.6250
vt 0.8750 0.6250
vt 0.8750 0.6250
vt 0.8750 0.6250
vt 0.8750 0.6250
vt 0.8750 0.6250
vt 0.3750 0.6250
vt 0.8750 0.6250
vt 0.8750 0.6250
vt 0.8750 0.6250
vt 0.8750 0.6250
vt 0.8750 0.6250
vt 0.8750 0.6250
vt 0.8750 0.6250
vt 0.8750 0.6250
vt 0.8750 0.6250
vt 0.8750 0.6250
vt 0.8750 0.6250
vt 0.8750 0.6250
vt 0.8750 0.6250
vt 0.8750 0.6250
vt 0.8750 0.6250
vt 0.8750 0.6250
vt 0.8750 0.6250
vt 0.8750 0.6250
vt 0.8750 0.6250
vt 0.8750 0.6250
vt 0.8750 0.6250
vt 0.8750 0.6250
vt 0.8750 0.6250
vt 0.8750 0.6250
vt 0.8750 0.6250
vt 0.8750 0.6250
vt 0.8750 0.6250
vt 0.8750 0.6250
vt 0.8750 0.6250
vt 0.8750 0.6250
vt 0.8750 0.6250
vt 0.8750 0.6250
vt 0.8750 0.6250
vt 0.8750 0.6250
vt 0.8750 0.6250
vt 0.8750 0.6250
vt 0.8750 0.6250
vt 0.8750 0.6250
vt 0.8750 0.6250
vt 0.8750 0.6250
vt 0.8750 0.6250
vt 0.8750 0.6250
vt 0.8750 0.6250
vt 0.8750 0.6250
vt 0.8750 0.6250
vt 0.8750 0.6250
vt 0.8750 0.6250
vt 0.8750 0.6250
vt 0.8750 0.6250
vt 0.8750 0.6250
vt 0.8750 0.6250
vt 0.8750 0.6250
vt 0.8750 0.6250
vt 0.8750 0.6250
vt 0.8750 0.6250
vt 0.8750 0.6250
vt 0.8750 0.6250
vt 0.8750 0.6250
vt 0.8750 0.6250
vt 0.8750 0.6250
vt 0.8750 0.6250
vt 0.8750 0.6250
vt 0.8750 0.6250
vt 0.8750 0.6250
vt 0.8750 0.6250
vt 0.8750 0.6250
vt 0.8750 0.6250
vt 0.8750 0.6250
vt 0.8750 0.6250
vt 0.8750 0.6250
vt 0.8750 0.6250
vt 0.8750 0.6250
vt 0.8750 0.6250
vt 0.8750 0.6250
vt 0.8750 0.6250
vt 0.8750 0.6250
vt 0.8750 0.6250
vt 0.8750 0.6250
vt 0.8750 0.6250
vt 0.8750 0.6250
vt 0.8750 0.6250
vt 0.8750 0.6250
vt 0.8750 0.6250
vt 0.8750 0.6250
vt 0.8750 0.6250
vt 0.8750 0.6250
vt 0.8750 0.6250
vt 0.8750 0.6250
vt 0.8750 0.6250
vt 0.8750 0.6250
vt 0.8750 0.6250
vt 0.8750 0.6250
vt 0.8750 0.6250
vt 0.8750 0.6250
vt 0.8750 0.6250
vt 0.8750 0.6250
vt 0.8750 0.6250
vt 0.8750 0.6250
vt 0.8750 0.6250
vt 0.8750 0.6250
vt 0.8750 0.6250
vt 0.8750 0.6250
vt 0.8750 0.6250
vt 0.8750 0.6250
vt 0.8750 0.6250
vt 0.8750 0.6250
vt 0.8750 0.6250
vt 0.8750 0.6250
vt 0.8750 0.6250
vt 0.8750 0.6250
vt 0.8750 0.6250
vt 0.8750 0.6250
vt 0.8750 0.6250
vt 0.8750 0.6250
vt 0.8750 0.6250
vt 0.8750 0.6250
vt 0.8750 0.6250
vt 0.8750 0.6250
vt 0.8750 0.6250
vt 0.8750 0.6250
vt 0.8750 0.6250
vt 0.8750 0.6250
vt 0.8750 0.6250
vt 0.8750 0.6250
vt 0.8750 0.6250
vt 0.8750 0.6250
vn -0.5760 0.7947 -0.1916
vn -0.3602 0.7947 0.4886
vn 0.0042 0.7947 -0.6071
vn 0.5786 0.7947 -0.1836
vn 0.3534 0.7947 0.4936
vn -0.5829 0.1876 0.7906
vn -0.9320 0.1876 -0.3100
vn 0.0068 0.1876 -0.9822
vn 0.9363 0.1876 -0.2970
vn 0.5718 0.1876 0.7987
vn -0.9363 -0.1876 0.2970
vn -0.5718 -0.1876 -0.7987
vn 0.5829 -0.1876 -0.7906
vn 0.9320 -0.1876 0.3100
vn -0.0068 -0.1876 0.9822
vn -0.9081 -0.3039 0.2881
vn -0.5546 -0.3039 -0.7746
vn 0.5653 -0.3039 -0.7668
vn 0.9040 -0.3039 0.3007
vn -0.0066 -0.3039 0.9527
vn -0.1403 0.7947 -0.5906
vn -0.6051 0.7947 -0.0490
vn 0.5183 0.7947 -0.3160
vn 0.4607 0.7947 0.3953
vn -0.2336 0.7947 0.5603
vn -0.9790 0.1876 -0.0794
vn -0.2271 0.1876 -0.9556
vn 0.8387 0.1876 -0.5113
vn 0.7454 0.1876 0.6397
vn -0.3780 0.1876 0.9066
vn -0.8387 -0.1876 0.5113
vn 0.2271 -0.1876 0.9556
vn 0.3780 -0.1876 -0.9066
vn -0.7454 -0.1876 -0.6397
vn 0.9790 -0.1876 0.0794
vn -0.0122 0.9997 -0.0211
vn 0.1411 -0.9900 0.0000
vn 0.8574 0.0804 -0.5083
vn 0.5148 0.1392 -0.8459
vn -0.4983 0.0819 -0.8631
vn -0.0934 -0.9824 -0.1617
vn 0.0000 -1.0000 0.0000
vn -0.5244 -0.8515 0.0000
vn -0.4983 0.0819 0.8631
vn -0.9998 0.0182 0.0000
vn -0.8321 -0.2245 0.5072
vn 0.4983 0.0819 -0.8631
vn 0.4983 0.0819 0.8631
vn -0.4812 -0.2717 -0.8335
vn 0.2622 -0.8515 0.4541
vn 0.2622 -0.8515 -0.4541
vn -0.2622 -0.8515 -0.4541
vn -0.2622 -0.8515 0.4541
vn 0.5244 -0.8515 0.0000
vn 0.0000 1.0000 0.0000
vn -0.4812 -0.2717 0.8335
vn 0.9624 -0.2717 0.0000
vn -0.9624 -0.2717 0.0000
vn 0.4812 -0.2717 0.8335
vn 0.4812 -0.2717 -0.8335
vn 0.3575 0.6991 0.6192
vn 0.3575 0.6991 -0.6192
vn -0.7150 0.6991 0.0000
vn 0.7150 0.6991 0.0000
vn -0.3575 0.6991 -0.6192
vn -0.3575 0.6991 0.6192
vn 0.9845 0.1753 0.0000
vn 0.4923 0.1753 0.8526
vn 0.2253 -0.2245 0.9481
vn -0.9845 0.1753 0.0000
vn -0.9763 0.1587 0.1470
vn -0.4961 0.1241 -0.8593
vn -0.9923 0.1241 0.0000
vn -0.4961 0.1241 0.8593
vn 0.4961 0.1241 0.8593
vn 0.9923 0.1241 0.0000
vn 0.4961 0.1241 -0.8593
vn 0.4950 0.1411 -0.8574
vn -0.4923 0.1753 0.8526
vn 0.8376 0.1100 0.5351
vn -0.8389 0.0942 -0.5360
vn 0.4923 0.1753 -0.8526
vn -0.4923 0.1753 -0.8526
vn 0.9712 0.1879 -0.1463
vn 0.4950 0.1411 0.8574
vn 0.0706 -0.9900 0.1222
vn -0.0706 0.9900 -0.1222
vn -0.8689 0.0804 0.4884
vn -0.9900 0.1411 0.0000
vn -0.4950 0.1411 -0.8574
vn 0.1867 0.9824 0.0000
vn -0.1867 -0.9824 0.0000
vn 0.0934 0.9824 0.1617
vn 0.0122 0.9997 -0.0211
vn 0.9900 0.1411 0.0000
vn -0.1411 0.9900 0.0000
vn -0.0115 0.0804 0.9967
vn -0.0115 0.0804 -0.9967
vn 0.4622 0.3814 0.8005
vn 0.4622 0.3814 -0.8005
vn -0.9244 0.3814 0.0000
vn 0.9244 0.3814 0.0000
vn -0.4622 0.3814 0.8005
vn -0.4622 0.3814 -0.8005
vn -0.0122 -0.9997 0.0211
vn 0.0091 -0.9998 -0.0158
vn 0.3750 -0.2245 -0.8994
vn -0.4950 0.1411 0.8574
vn 0.9713 -0.2245 0.0787
vn -0.0091 -0.9998 -0.0158
vn 0.4999 0.0182 0.8659
vn -0.4999 0.0182 0.8659
vn 0.9966 0.0819 0.0000
vn -0.7395 -0.2245 -0.6346
vn -0.4999 0.0182 -0.8659
vn 0.8661 0.0105 -0.4998
vn -0.8659 0.0105 0.5001
vn 0.0091 0.9998 0.0158
vn 0.4999 0.0182 -0.8659
vn 0.8659 0.0105 0.5001
vn -0.8661 0.0105 -0.4998
vn -0.0091 0.9998 0.0158
vn -0.5000 0.0000 0.8660
vn -0.8660 0.0000 0.5000
vn -1.0000 0.0000 0.0000
vn 0.5000 0.0000 0.8660
vn 1.0000 0.0000 0.0000
vn 0.8660 0.0000 0.5000
vn -0.5000 0.0000 -0.8660
vn 0.5000 0.0000 -0.8660
vn -0.8660 0.0000 -0.5000
vn 0.8660 0.0000 -0.5000
vn 0.0000 0.0000 -1.0000
vn 0.0000 0.0000 1.0000
vn -0.9998 0.0182 -0.0004
vn -0.9966 0.0819 0.0000
vn 0.0122 -0.9997 0.0211
vn -0.4752 0.1392 0.8688
vn 0.9998 0.0182 -0.0004
vn 0.9998 0.0182 0.0000
usemtl None
s off
f 1/1/1 3/2/1 2/3/1
f 2/3/2 6/4/2 1/1/2
f 1/1/3 4/5/3 3/2/3
f 1/1/4 5/6/4 4/5/4
f 1/1/5 6/4/5 5/6/5
f 2/3/6 11/7/6 6/4/6
f 3/2/7 7/8/7 2/3/7
f 4/5/8 8/9/8 3/2/8
f 5/6/9 9/10/9 4/5/9
f 6/4/10 10/11/10 5/6/10
f 2/3/11 7/8/11 11/7/11
f 3/2/12 8/9/12 7/8/12
f 4/5/13 9/10/13 8/9/13
f 5/6/14 10/11/14 9/10/14
f 6/4/15 11/7/15 10/11/15
f 7/8/16 12/12/16 11/7/16
f 8/9/17 12/12/17 7/8/17
f 9/10/18 12/12/18 8/9/18
f 10/11/19 12/12/19 9/10/19
f 11/7/20 12/12/20 10/11/20
f 13/13/21 15/14/21 14/15/21
f 14/15/22 18/16/22 13/13/22
f 13/13/23 16/17/23 15/14/23
f 13/13/24 17/18/24 16/17/24
f 13/13/25 18/16/25 17/18/25
f 14/15/26 23/19/26 18/16/26
f 15/14/27 19/20/27 14/15/27
f 16/17/28 20/21/28 15/14/28
f 17/18/29 21/22/29 16/17/29
f 18/16/30 22/23/30 17/18/30
f 23/19/31 22/23/31 18/16/31
f 22/23/32 21/22/32 17/18/32
f 20/21/33 19/20/33 15/14/33
f 19/20/34 23/19/34 14/15/34
f 21/22/35 20/21/35 16/17/35
f 120/24/36 127/25/36 124/26/36
f 67/27/37 112/28/37 68/29/37
f 29/30/38 101/31/38 68/29/38
f 103/32/39 25/33/39 66/34/39
f 119/35/40 37/36/40 122/37/40
f 130/38/36 127/25/36 120/24/36
f 71/39/41 103/32/41 66/34/41
f 26/40/42 30/41/42 32/42/42
f 40/43/43 47/44/43 41/45/43
f 120/24/44 40/43/44 123/46/44
f 123/46/45 119/35/45 113/47/45
f 23/19/46 24/48/46 22/23/46
f 122/37/47 36/49/47 121/50/47
f 120/24/48 38/51/48 39/52/48
f 47/44/49 147/53/49 43/54/49
f 38/51/50 45/55/50 39/52/50
f 36/49/51 43/54/51 42/56/51
f 41/45/52 43/54/52 37/36/52
f 39/52/53 46/57/53 40/43/53
f 36/49/54 44/58/54 38/51/54
f 141/59/55 58/60/55 144/61/55
f 45/55/56 146/62/56 46/57/56
f 42/56/57 145/63/57 44/58/57
f 46/57/58 141/59/58 47/44/58
f 44/58/59 140/64/59 45/55/59
f 43/54/60 139/65/60 42/56/60
f 150/66/61 65/67/61 61/68/61
f 140/64/55 56/69/55 143/70/55
f 139/65/55 55/71/55 142/72/55
f 147/53/55 59/73/55 150/66/55
f 146/62/55 57/74/55 149/75/55
f 145/63/55 54/76/55 148/77/55
f 61/68/55 63/78/55 62/79/55
f 149/75/62 63/78/62 64/80/62
f 148/77/63 60/81/63 62/79/63
f 144/61/64 64/80/64 65/67/64
f 143/70/65 62/79/65 63/78/65
f 142/72/66 61/68/66 60/81/66
f 34/82/42 97/83/42 93/84/42
f 87/85/55 76/86/55 75/87/55
f 29/30/38 100/88/38 101/31/38
f 119/35/40 41/45/40 37/36/40
f 103/32/39 104/89/39 25/33/39
f 69/90/42 70/91/42 80/92/42
f 93/84/42 94/93/42 26/40/42
f 72/94/67 28/95/67 26/40/67
f 73/96/68 30/41/68 28/95/68
f 22/23/69 24/48/69 21/22/69
f 75/87/70 34/82/70 32/42/70
f 34/82/71 96/97/71 97/83/71
f 82/98/72 88/99/72 87/85/72
f 81/100/73 87/85/73 86/101/73
f 80/92/74 86/101/74 85/102/74
f 84/103/75 80/92/75 85/102/75
f 78/104/76 84/103/76 83/105/76
f 77/106/77 83/105/77 88/99/77
f 71/39/41 108/107/41 103/32/41
f 67/27/78 66/34/78 25/33/78
f 95/108/55 83/105/55 72/94/55
f 26/40/42 28/95/42 30/41/42
f 32/42/42 34/82/42 26/40/42
f 67/27/42 79/109/42 78/104/42
f 89/110/79 91/111/79 90/112/79
f 30/41/80 89/110/80 90/112/80
f 32/42/81 92/113/81 75/87/81
f 30/41/42 90/112/42 32/42/42
f 98/114/82 94/93/82 93/84/82
f 96/97/83 93/84/83 97/83/83
f 90/112/42 91/111/42 32/42/42
f 40/43/43 46/57/43 47/44/43
f 26/40/84 95/108/84 72/94/84
f 25/33/78 27/115/78 67/27/78
f 100/88/85 102/116/85 101/31/85
f 68/29/86 102/116/86 69/90/86
f 31/117/87 100/88/87 29/30/87
f 69/90/88 99/118/88 31/117/88
f 106/119/89 108/107/89 107/120/89
f 105/121/90 103/32/90 108/107/90
f 35/122/91 106/119/91 33/123/91
f 71/39/92 107/120/92 108/107/92
f 35/122/93 104/89/93 105/121/93
f 120/24/94 123/46/94 125/124/94
f 110/125/95 112/28/95 111/126/95
f 29/30/96 110/125/96 27/115/96
f 29/30/97 112/28/97 109/127/97
f 27/115/98 111/126/98 67/27/98
f 29/30/99 115/128/99 31/117/99
f 25/33/100 117/129/100 27/115/100
f 33/123/101 113/47/101 35/122/101
f 27/115/102 118/130/102 29/30/102
f 31/117/103 116/131/103 33/123/103
f 35/122/104 114/132/104 25/33/104
f 115/128/105 126/133/105 116/131/105
f 117/129/106 136/134/106 137/135/106
f 20/21/107 24/48/107 19/20/107
f 33/123/108 70/91/108 69/90/108
f 21/22/109 24/48/109 20/21/109
f 113/47/110 132/136/110 114/132/110
f 128/137/111 130/38/111 129/138/111
f 129/138/112 125/124/112 126/133/112
f 120/24/94 125/124/94 130/38/94
f 67/27/37 111/126/37 112/28/37
f 124/26/113 121/50/113 36/49/113
f 19/20/114 24/48/114 23/19/114
f 132/136/115 134/139/115 131/140/115
f 114/132/116 131/140/116 122/37/116
f 113/47/117 134/139/117 133/141/117
f 122/37/118 134/139/118 119/35/118
f 136/134/119 138/142/119 137/135/119
f 121/50/120 137/135/120 138/142/120
f 122/37/121 136/134/121 114/132/121
f 121/50/122 135/143/122 122/37/122
f 146/62/123 151/144/123 52/145/123
f 150/66/124 171/146/124 147/53/124
f 141/59/125 154/147/125 53/148/125
f 48/149/126 161/150/126 54/76/126
f 145/63/127 155/151/127 50/152/127
f 149/75/128 170/153/128 146/62/128
f 163/154/55 161/150/55 162/155/55
f 164/156/55 157/157/55 158/158/55
f 165/159/55 153/160/55 154/147/55
f 169/161/55 156/162/55 155/151/55
f 170/153/55 152/163/55 151/144/55
f 171/146/55 160/164/55 159/165/55
f 54/76/123 166/166/123 142/72/123
f 147/53/129 159/165/129 49/167/129
f 57/74/129 167/168/129 143/70/129
f 52/145/129 152/163/129 58/60/129
f 56/69/125 172/169/125 148/77/125
f 59/73/127 168/170/127 144/61/127
f 53/148/130 153/160/130 59/73/130
f 58/60/130 173/171/130 149/75/130
f 142/72/131 163/154/131 139/65/131
f 50/152/123 156/162/123 56/69/123
f 55/71/126 174/172/126 150/66/126
f 143/70/132 164/156/132 140/64/132
f 51/173/125 157/157/125 57/74/125
f 139/65/130 162/155/130 48/149/130
f 148/77/133 169/161/133 145/63/133
f 144/61/134 165/159/134 141/59/134
f 49/167/127 160/164/127 55/71/127
f 140/64/126 158/158/126 51/173/126
f 93/84/42 26/40/42 34/82/42
f 120/24/44 39/52/44 40/43/44
f 113/47/45 116/131/45 123/46/45
f 126/133/135 125/124/135 123/46/135
f 123/46/136 40/43/136 41/45/136
f 41/45/136 119/35/136 123/46/136
f 116/131/135 126/133/135 123/46/135
f 122/37/47 37/36/47 36/49/47
f 120/24/48 124/26/48 38/51/48
f 49/167/49 43/54/49 147/53/49
f 47/44/49 53/148/49 147/53/49
f 38/51/50 44/58/50 45/55/50
f 36/49/51 37/36/51 43/54/51
f 41/45/52 47/44/52 43/54/52
f 39/52/53 45/55/53 46/57/53
f 36/49/54 42/56/54 44/58/54
f 141/59/55 52/145/55 58/60/55
f 52/145/56 46/57/56 146/62/56
f 45/55/56 51/173/56 146/62/56
f 50/152/57 44/58/57 145/63/57
f 42/56/57 48/149/57 145/63/57
f 53/148/58 47/44/58 141/59/58
f 46/57/58 52/145/58 141/59/58
f 51/173/59 45/55/59 140/64/59
f 44/58/59 50/152/59 140/64/59
f 48/149/60 42/56/60 139/65/60
f 43/54/60 49/167/60 139/65/60
f 61/68/61 55/71/61 150/66/61
f 150/66/61 59/73/61 65/67/61
f 140/64/55 50/152/55 56/69/55
f 139/65/55 49/167/55 55/71/55
f 147/53/55 53/148/55 59/73/55
f 146/62/55 51/173/55 57/74/55
f 145/63/55 48/149/55 54/76/55
f 62/79/55 60/81/55 61/68/55
f 61/68/55 65/67/55 64/80/55
f 64/80/55 63/78/55 61/68/55
f 64/80/62 58/60/62 149/75/62
f 149/75/62 57/74/62 63/78/62
f 62/79/63 56/69/63 148/77/63
f 148/77/63 54/76/63 60/81/63
f 65/67/64 59/73/64 144/61/64
f 144/61/64 58/60/64 64/80/64
f 63/78/65 57/74/65 143/70/65
f 143/70/65 56/69/65 62/79/65
f 60/81/66 54/76/66 142/72/66
f 142/72/66 55/71/66 61/68/66
f 74/174/55 73/96/55 85/102/55
f 73/96/55 84/103/55 85/102/55
f 92/113/55 89/110/55 75/87/55
f 75/87/55 89/110/55 86/101/55
f 74/174/55 85/102/55 89/110/55
f 87/85/55 88/99/55 96/97/55
f 89/110/55 85/102/55 86/101/55
f 88/99/55 98/114/55 96/97/55
f 75/87/55 86/101/55 87/85/55
f 87/85/55 96/97/55 76/86/55
f 71/39/42 66/34/42 82/98/42
f 66/34/42 77/106/42 82/98/42
f 79/109/42 68/29/42 69/90/42
f 80/92/42 79/109/42 69/90/42
f 70/91/42 71/39/42 82/98/42
f 81/100/42 80/92/42 70/91/42
f 70/91/42 82/98/42 81/100/42
f 72/94/67 73/96/67 28/95/67
f 73/96/68 74/174/68 30/41/68
f 75/87/70 76/86/70 34/82/70
f 34/82/71 76/86/71 96/97/71
f 82/98/72 77/106/72 88/99/72
f 81/100/73 82/98/73 87/85/73
f 80/92/74 81/100/74 86/101/74
f 84/103/75 79/109/75 80/92/75
f 78/104/76 79/109/76 84/103/76
f 77/106/77 78/104/77 83/105/77
f 73/96/55 72/94/55 83/105/55
f 95/108/55 98/114/55 88/99/55
f 83/105/55 84/103/55 73/96/55
f 95/108/55 88/99/55 83/105/55
f 77/106/42 66/34/42 67/27/42
f 67/27/42 68/29/42 79/109/42
f 78/104/42 77/106/42 67/27/42
f 89/110/79 92/113/79 91/111/79
f 30/41/80 74/174/80 89/110/80
f 32/42/81 91/111/81 92/113/81
f 98/114/82 95/108/82 94/93/82
f 96/97/83 98/114/83 93/84/83
f 26/40/84 94/93/84 95/108/84
f 100/88/85 99/118/85 102/116/85
f 68/29/86 101/31/86 102/116/86
f 31/117/87 99/118/87 100/88/87
f 69/90/88 102/116/88 99/118/88
f 106/119/89 105/121/89 108/107/89
f 105/121/90 104/89/90 103/32/90
f 35/122/91 105/121/91 106/119/91
f 71/39/92 70/91/92 107/120/92
f 35/122/93 25/33/93 104/89/93
f 110/125/95 109/127/95 112/28/95
f 29/30/96 109/127/96 110/125/96
f 29/30/97 68/29/97 112/28/97
f 27/115/98 110/125/98 111/126/98
f 29/30/99 118/130/99 115/128/99
f 25/33/100 114/132/100 117/129/100
f 33/123/101 116/131/101 113/47/101
f 27/115/102 117/129/102 118/130/102
f 31/117/103 115/128/103 116/131/103
f 35/122/104 113/47/104 114/132/104
f 115/128/137 118/130/137 128/137/137
f 129/138/105 126/133/105 115/128/105
f 115/128/137 128/137/137 129/138/137
f 117/129/106 114/132/106 136/134/106
f 33/123/138 106/119/138 107/120/138
f 107/120/138 70/91/138 33/123/138
f 69/90/108 31/117/108 33/123/108
f 113/47/110 133/141/110 132/136/110
f 128/137/111 127/25/111 130/38/111
f 129/138/112 130/38/112 125/124/112
f 124/26/139 127/25/139 128/137/139
f 128/137/139 118/130/139 124/26/139
f 117/129/140 121/50/140 124/26/140
f 36/49/113 38/51/113 124/26/113
f 124/26/140 118/130/140 117/129/140
f 132/136/115 133/141/115 134/139/115
f 114/132/116 132/136/116 131/140/116
f 113/47/117 119/35/117 134/139/117
f 122/37/118 131/140/118 134/139/118
f 136/134/119 135/143/119 138/142/119
f 121/50/120 117/129/120 137/135/120
f 122/37/121 135/143/121 136/134/121
f 121/50/122 138/142/122 135/143/122
f 146/62/123 170/153/123 151/144/123
f 150/66/124 174/172/124 171/146/124
f 141/59/125 165/159/125 154/147/125
f 48/149/126 162/155/126 161/150/126
f 145/63/127 169/161/127 155/151/127
f 149/75/128 173/171/128 170/153/128
f 163/154/55 166/166/55 161/150/55
f 164/156/55 167/168/55 157/157/55
f 165/159/55 168/170/55 153/160/55
f 169/161/55 172/169/55 156/162/55
f 170/153/55 173/171/55 152/163/55
f 171/146/55 174/172/55 160/164/55
f 54/76/123 161/150/123 166/166/123
f 147/53/129 171/146/129 159/165/129
f 57/74/129 157/157/129 167/168/129
f 52/145/129 151/144/129 152/163/129
f 56/69/125 156/162/125 172/169/125
f 59/73/127 153/160/127 168/170/127
f 53/148/130 154/147/130 153/160/130
f 58/60/130 152/163/130 173/171/130
f 142/72/131 166/166/131 163/154/131
f 50/152/123 155/151/123 156/162/123
f 55/71/126 160/164/126 174/172/126
f 143/70/132 167/168/132 164/156/132
f 51/173/125 158/158/125 157/157/125
f 139/65/130 163/154/130 162/155/130
f 148/77/133 172/169/133 169/161/133
f 144/61/134 168/170/134 165/159/134
f 49/167/127 159/165/127 160/164/127
f 140/64/126 164/156/126 158/158/126
