# Blender v2.78 (sub 0) OBJ File: 'tile_sand_River8.blend'
# www.blender.org
mtllib tile_sand_River8.mtl
o tile_sand_River8_Cylinder
v 0.000000 -1.000000 -1.000000
v 0.866025 -1.000000 0.500000
v -0.000000 -1.000000 1.000000
v -0.866025 -1.000000 0.500000
v -0.866025 -1.000000 -0.500000
v 0.866025 -0.500000 0.500000
v 0.866025 -1.000000 -0.500000
v -0.144338 -1.000000 0.916667
v -0.721688 -1.000000 0.583333
v -0.721688 0.000000 0.583333
v -0.144338 0.000000 0.916667
v -0.144338 -0.500000 0.916667
v -0.721688 -0.500000 0.583333
v -0.866025 -0.500000 0.500000
v -0.000000 -0.500000 1.000000
v -0.866025 -0.500000 -0.500000
v 0.866025 -0.500000 0.295729
v 0.866025 -1.000000 0.295729
v -0.720794 -0.500000 -0.583849
v -0.720794 -1.000000 -0.583849
v 0.866025 0.000000 0.295729
v 0.866025 0.000000 -0.500000
v -0.000000 0.000000 -1.000000
v -0.720794 -0.000000 -0.583849
vt 0.1250 0.3750
vt 0.1250 0.3750
vt 0.1250 0.3750
vt 0.3750 0.6250
vt 0.3750 0.6250
vt 0.3750 0.6250
vt 0.1250 0.3750
vt 0.1250 0.3750
vt 0.1250 0.3750
vt 0.1250 0.3750
vt 0.1250 0.3750
vt 0.1250 0.3750
vt 0.1250 0.3750
vt 0.3750 0.6250
vt 0.3750 0.6250
vt 0.3750 0.6250
vt 0.3750 0.6250
vt 0.3750 0.6250
vt 0.3750 0.6250
vt 0.1250 0.3750
vt 0.1250 0.3750
vt 0.1250 0.3750
vt 0.3750 0.6250
vt 0.3750 0.6250
vt 0.3750 0.6250
vt 0.3750 0.6250
vt 0.1250 0.3750
vt 0.3750 0.6250
vt 0.3750 0.6250
vt 0.3750 0.6250
vt 0.1250 0.3750
vt 0.3750 0.6250
vt 0.3750 0.6250
vt 0.3750 0.6250
vt 0.3750 0.6250
vt 0.1250 0.3750
vn -0.5000 0.0000 0.8660
vn 0.5000 0.0000 0.8660
vn -0.5000 0.0000 -0.8660
vn 0.0000 -1.0000 0.0000
vn -1.0000 0.0000 -0.0008
vn 1.0000 0.0000 0.0000
vn -1.0000 0.0000 0.0000
vn 0.5000 0.0000 -0.8660
vn 0.0000 1.0000 0.0000
vn 0.5236 0.0000 0.8520
usemtl Material
s off
f 13/1/1 4/2/1 9/3/1
f 12/4/1 10/5/1 13/6/1
f 2/7/2 15/8/2 3/9/2
f 15/8/1 8/10/1 3/9/1
f 19/11/3 5/12/3 16/13/3
f 9/14/4 20/15/4 18/16/4
f 13/6/5 24/17/5 19/18/5
f 19/18/3 1/19/3 20/15/3
f 2/7/6 17/20/6 6/21/6
f 16/13/7 4/2/7 14/22/7
f 13/1/1 14/22/1 4/2/1
f 23/23/8 7/24/8 1/19/8
f 22/25/6 17/26/6 7/24/6
f 12/27/9 6/21/9 17/20/9
f 9/14/1 8/28/1 12/4/1
f 12/4/1 11/29/1 10/5/1
f 16/13/9 13/1/9 19/11/9
f 23/23/9 24/17/9 21/30/9
f 17/26/10 11/29/10 12/4/10
f 13/6/1 9/14/1 12/4/1
f 2/7/2 6/21/2 15/8/2
f 15/8/1 12/27/1 8/10/1
f 19/11/3 20/31/3 5/12/3
f 18/16/4 2/32/4 8/28/4
f 8/28/4 9/14/4 18/16/4
f 2/32/4 3/33/4 8/28/4
f 1/19/4 7/24/4 18/16/4
f 5/34/4 20/15/4 9/14/4
f 9/14/4 4/35/4 5/34/4
f 1/19/4 18/16/4 20/15/4
f 13/6/5 10/5/5 24/17/5
f 19/18/3 24/17/3 23/23/3
f 23/23/3 1/19/3 19/18/3
f 2/7/6 18/36/6 17/20/6
f 16/13/7 5/12/7 4/2/7
f 23/23/8 22/25/8 7/24/8
f 18/16/6 7/24/6 17/26/6
f 22/25/6 21/30/6 17/26/6
f 12/27/9 15/8/9 6/21/9
f 16/13/9 14/22/9 13/1/9
f 11/29/9 21/30/9 10/5/9
f 22/25/9 23/23/9 21/30/9
f 24/17/9 10/5/9 21/30/9
f 17/26/10 21/30/10 11/29/10
