# Blender v2.78 (sub 0) OBJ File: 'tile_sand_OpenPitMine.blend'
# www.blender.org
mtllib tile_sand_OpenPitMine.mtl
o tile_sand_OpenPitMine_Cylinder
v 0.689836 -0.009425 0.256315
v 0.689836 0.379064 0.256315
v 0.689836 -0.009425 0.224373
v 0.689836 0.379064 0.224373
v 0.721777 -0.009425 0.256315
v 0.721777 0.379064 0.256315
v 0.721777 -0.009425 0.224373
v 0.721777 0.379064 0.224373
v 0.370420 -0.009425 0.256315
v 0.370420 0.379064 0.256315
v 0.370420 -0.009425 0.224373
v 0.370420 0.379064 0.224373
v 0.402362 -0.009425 0.256315
v 0.402362 0.379064 0.256315
v 0.402362 -0.009425 0.224373
v 0.402362 0.379064 0.224373
v 0.402362 -0.009425 -0.256315
v 0.402362 0.379064 -0.256315
v 0.402362 -0.009425 -0.224373
v 0.402362 0.379064 -0.224373
v 0.370420 -0.009425 -0.256315
v 0.370420 0.379064 -0.256315
v 0.370420 -0.009425 -0.224373
v 0.370420 0.379064 -0.224373
v 0.721777 -0.009425 -0.256315
v 0.721777 0.379064 -0.256315
v 0.721777 -0.009425 -0.224373
v 0.721777 0.379064 -0.224373
v 0.689836 -0.009425 -0.256315
v 0.689836 0.379064 -0.256315
v 0.689836 -0.009425 -0.224373
v 0.689836 0.379064 -0.224373
v 0.321488 0.369953 0.323595
v 0.770709 0.369953 0.323595
v 0.321488 0.369953 -0.323595
v 0.770709 0.369953 -0.323595
v 0.321488 0.337907 0.000000
v 0.770709 0.337907 0.000000
v 0.546099 0.343916 0.323595
v 0.546099 0.343916 -0.323595
v 0.546099 0.313873 0.000000
v 0.000000 -1.000000 -1.000000
v 0.000000 0.000000 -1.000000
v 0.866025 -1.000000 -0.500000
v 0.866025 0.000000 -0.500000
v 0.866025 -1.000000 0.500000
v 0.866025 0.000000 0.500000
v -0.000000 -1.000000 1.000000
v -0.000000 0.000000 1.000000
v -0.866025 -1.000000 0.500000
v -0.866025 0.000000 0.500000
v -0.866025 -1.000000 -0.500000
v -0.866025 0.000000 -0.500000
v 0.003598 -0.000001 -0.879739
v -0.740426 -0.000001 -0.435492
v -0.740426 -0.000001 0.438562
v 0.014433 -0.000002 0.868355
v 0.205856 -0.000002 0.648037
v 0.252809 -0.000001 0.185731
v 0.142145 -0.000001 -0.063481
v 0.214380 -0.000001 -0.374092
v 0.371998 0.000001 -0.507728
v 0.379221 0.000001 -0.670257
v -0.030161 -0.130024 -0.806251
v -0.702465 -0.130024 -0.402775
v -0.702465 -0.130024 0.391061
v -0.020371 -0.130025 0.781408
v 0.152600 -0.130025 0.581311
v 0.195027 -0.130024 0.161434
v 0.109757 -0.130024 -0.064906
v 0.175029 -0.130024 -0.347010
v 0.302726 -0.130023 -0.468381
v 0.309254 -0.130023 -0.615994
v -0.050189 -0.130024 -0.684391
v -0.609838 -0.130024 -0.348524
v -0.609838 -0.130024 0.312294
v -0.042039 -0.130025 0.637233
v 0.101949 -0.130025 0.470664
v 0.137266 -0.130024 0.121144
v 0.073312 -0.130024 -0.067269
v 0.127647 -0.130024 -0.302103
v 0.226919 -0.130023 -0.403136
v 0.232352 -0.130023 -0.526015
v -0.051118 -0.270883 -0.626859
v -0.557582 -0.270883 -0.322911
v -0.557582 -0.270883 0.275106
v -0.043743 -0.270884 0.569165
v 0.086561 -0.270884 0.418426
v 0.118522 -0.270883 0.102122
v 0.063210 -0.270883 -0.068385
v 0.112381 -0.270883 -0.280902
v 0.199655 -0.270882 -0.372333
v 0.204572 -0.270882 -0.483534
v -0.053060 -0.270883 -0.506681
v -0.448424 -0.270883 -0.269408
v -0.448424 -0.270883 0.197426
v -0.047302 -0.270884 0.426979
v 0.054417 -0.270884 0.309307
v 0.079368 -0.270883 0.062388
v 0.019218 -0.270883 -0.070716
v 0.057603 -0.270883 -0.236614
v 0.142703 -0.270882 -0.307989
v 0.146541 -0.270882 -0.394796
v -0.053647 -0.386460 -0.470344
v -0.415419 -0.386460 -0.253231
v -0.415419 -0.386460 0.173939
v -0.048379 -0.386460 0.383988
v 0.044699 -0.386460 0.276313
v 0.067529 -0.386460 0.050374
v -0.007241 -0.386460 -0.071421
v 0.027883 -0.386460 -0.223224
v 0.125483 -0.386459 -0.288534
v 0.128995 -0.386459 -0.367966
v -0.055014 -0.386459 -0.385750
v -0.338581 -0.386459 -0.215570
v -0.338582 -0.386459 0.119259
v -0.050884 -0.386460 0.283902
v 0.022073 -0.386460 0.199503
v 0.039968 -0.386459 0.022405
v -0.039872 -0.386459 -0.073061
v -0.012341 -0.386459 -0.192049
v 0.085394 -0.386459 -0.243242
v 0.088147 -0.386459 -0.305503
v -0.055721 -0.509259 -0.341944
v -0.298792 -0.509259 -0.196067
v -0.298792 -0.509259 0.090943
v -0.052182 -0.509260 0.232073
v 0.010356 -0.509260 0.159728
v 0.025695 -0.509259 0.007922
v -0.042742 -0.509259 -0.073911
v -0.019143 -0.509259 -0.175906
v 0.064634 -0.509259 -0.219787
v 0.066994 -0.509259 -0.273156
v -0.056997 -0.509259 -0.263013
v -0.227099 -0.509259 -0.160928
v -0.227099 -0.509259 0.039925
v -0.054519 -0.509260 0.138688
v -0.010755 -0.509260 0.088061
v -0.000020 -0.509259 -0.018175
v -0.047913 -0.509259 -0.075442
v -0.031399 -0.509259 -0.146819
v 0.027229 -0.509259 -0.177527
v 0.028881 -0.509259 -0.214876
v -0.056997 -0.581495 -0.263013
v -0.227099 -0.581495 -0.160928
v -0.227099 -0.581495 0.039925
v -0.054519 -0.581495 0.138688
v -0.010755 -0.581495 0.088061
v -0.000020 -0.581495 -0.018175
v -0.047913 -0.581495 -0.075442
v -0.031399 -0.581495 -0.146819
v 0.027229 -0.581494 -0.177527
v 0.028881 -0.581494 -0.214876
v -0.058200 -0.581495 -0.188545
v -0.159459 -0.581495 -0.127775
v -0.159459 -0.581495 -0.008210
v -0.056725 -0.581495 0.050582
v -0.030673 -0.581495 0.020445
v -0.024282 -0.581495 -0.042796
v -0.052793 -0.581495 -0.076886
v -0.042961 -0.581495 -0.119376
v -0.008061 -0.581495 -0.137656
v -0.007078 -0.581495 -0.159889
v -0.058200 -0.646506 -0.188545
v -0.159459 -0.646506 -0.127775
v -0.159459 -0.646506 -0.008210
v -0.056725 -0.646507 0.050582
v -0.030673 -0.646507 0.020444
v -0.024282 -0.646506 -0.042796
v -0.052793 -0.646506 -0.076886
v -0.042961 -0.646506 -0.119376
v -0.008061 -0.646506 -0.137656
v -0.007078 -0.646506 -0.159889
vt 0.3750 0.6250
vt 0.3750 0.6250
vt 0.3750 0.6250
vt 0.3750 0.6250
vt 0.3750 0.6250
vt 0.3750 0.6250
vt 0.3750 0.6250
vt 0.3750 0.6250
vt 0.3750 0.6250
vt 0.3750 0.6250
vt 0.3750 0.6250
vt 0.3750 0.6250
vt 0.3750 0.6250
vt 0.3750 0.6250
vt 0.3750 0.6250
vt 0.3750 0.6250
vt 0.3750 0.6250
vt 0.3750 0.6250
vt 0.3750 0.6250
vt 0.3750 0.6250
vt 0.3750 0.6250
vt 0.3750 0.6250
vt 0.3750 0.6250
vt 0.3750 0.6250
vt 0.3750 0.6250
vt 0.3750 0.6250
vt 0.3750 0.6250
vt 0.3750 0.6250
vt 0.3750 0.6250
vt 0.3750 0.6250
vt 0.3750 0.6250
vt 0.3750 0.6250
vt 0.8750 0.3750
vt 0.8750 0.3750
vt 0.8750 0.3750
vt 0.8750 0.3750
vt 0.8750 0.3750
vt 0.8750 0.3750
vt 0.8750 0.3750
vt 0.3750 0.6250
vt 0.3750 0.6250
vt 0.3750 0.6250
vt 0.3750 0.6250
vt 0.3750 0.6250
vt 0.3750 0.6250
vt 0.3750 0.6250
vt 0.3750 0.6250
vt 0.3750 0.6250
vt 0.3750 0.6250
vt 0.3750 0.6250
vt 0.3750 0.6250
vt 0.3750 0.6250
vt 0.3750 0.6250
vt 0.3750 0.6250
vt 0.3750 0.6250
vt 0.3750 0.6250
vt 0.3750 0.6250
vt 0.3750 0.6250
vt 0.3750 0.6250
vt 0.3750 0.6250
vt 0.3750 0.6250
vt 0.3750 0.6250
vt 0.3750 0.6250
vt 0.3750 0.6250
vt 0.3750 0.6250
vt 0.3750 0.6250
vt 0.3750 0.6250
vt 0.3750 0.6250
vt 0.3750 0.6250
vt 0.3750 0.6250
vt 0.3750 0.6250
vt 0.3750 0.6250
vt 0.3750 0.6250
vt 0.3750 0.6250
vt 0.3750 0.6250
vt 0.3750 0.6250
vt 0.3750 0.6250
vt 0.3750 0.6250
vt 0.3750 0.6250
vt 0.3750 0.6250
vt 0.3750 0.6250
vt 0.3750 0.6250
vt 0.3750 0.6250
vt 0.3750 0.6250
vt 0.3750 0.6250
vt 0.3750 0.6250
vt 0.3750 0.6250
vt 0.3750 0.6250
vt 0.3750 0.6250
vt 0.3750 0.6250
vt 0.3750 0.6250
vt 0.3750 0.6250
vt 0.3750 0.6250
vt 0.3750 0.6250
vt 0.3750 0.6250
vt 0.3750 0.6250
vt 0.3750 0.6250
vt 0.3750 0.6250
vt 0.3750 0.6250
vt 0.3750 0.6250
vt 0.3750 0.6250
vt 0.3750 0.6250
vt 0.3750 0.6250
vt 0.3750 0.6250
vt 0.3750 0.6250
vt 0.3750 0.6250
vt 0.3750 0.6250
vt 0.3750 0.6250
vt 0.3750 0.6250
vt 0.3750 0.6250
vt 0.3750 0.6250
vt 0.3750 0.6250
vt 0.3750 0.6250
vt 0.3750 0.6250
vt 0.3750 0.6250
vt 0.3750 0.6250
vt 0.3750 0.6250
vt 0.3750 0.6250
vt 0.3750 0.6250
vt 0.3750 0.6250
vt 0.3750 0.6250
vt 0.3750 0.6250
vt 0.3750 0.6250
vt 0.3750 0.6250
vt 0.3750 0.6250
vt 0.3750 0.6250
vt 0.3750 0.6250
vt 0.3750 0.6250
vt 0.3750 0.6250
vt 0.3750 0.6250
vt 0.3750 0.6250
vt 0.3750 0.6250
vt 0.3750 0.6250
vt 0.3750 0.6250
vt 0.3750 0.6250
vt 0.3750 0.6250
vt 0.3750 0.6250
vt 0.3750 0.6250
vt 0.3750 0.6250
vt 0.3750 0.6250
vt 0.3750 0.6250
vt 0.3750 0.6250
vt 0.3750 0.6250
vt 0.3750 0.6250
vt 0.3750 0.6250
vt 0.3750 0.6250
vt 0.3750 0.6250
vt 0.3750 0.6250
vt 0.3750 0.6250
vt 0.3750 0.6250
vt 0.3750 0.6250
vt 0.3750 0.6250
vt 0.3750 0.6250
vt 0.3750 0.6250
vt 0.3750 0.6250
vt 0.3750 0.6250
vt 0.3750 0.6250
vt 0.3750 0.6250
vt 0.3750 0.6250
vt 0.3750 0.6250
vt 0.3750 0.6250
vt 0.3750 0.6250
vt 0.3750 0.6250
vt 0.3750 0.6250
vt 0.3750 0.6250
vt 0.3750 0.6250
vt 0.3750 0.6250
vt 0.3750 0.6250
vt 0.3750 0.6250
vt 0.3750 0.6250
vt 0.3750 0.6250
vt 0.8750 0.3750
vt 0.8750 0.3750
vn -1.0000 0.0000 0.0000
vn 0.0000 0.0000 -1.0000
vn 1.0000 0.0000 0.0000
vn 0.0000 0.0000 1.0000
vn 0.0000 1.0000 0.0000
vn -0.1059 0.9901 0.0919
vn -0.1059 0.9901 -0.0919
vn 0.1146 0.9886 -0.0979
vn 0.1146 0.9886 0.0979
vn 0.5000 0.0000 -0.8660
vn 0.5000 0.0000 0.8660
vn -0.5000 0.0000 0.8660
vn -0.5000 0.0000 -0.8660
vn 0.0000 -1.0000 0.0000
vn 0.9599 0.2803 0.0000
vn -0.8868 0.4606 -0.0392
vn -0.8678 0.3136 0.3854
vn 0.4509 0.4195 -0.7879
vn -0.4127 0.5310 0.7401
vn -0.9462 0.2381 -0.2189
vn -0.6356 0.5394 -0.5523
vn 0.4835 0.3322 0.8098
vn -0.6878 0.0574 -0.7236
vn -0.9041 0.4174 -0.0918
vn 0.4590 0.3820 -0.8021
vn 0.0002 1.0000 0.0002
vn -0.4601 0.3383 0.8209
vn -0.9718 0.0715 -0.2248
vn -0.7194 0.3092 -0.6219
vn 0.4862 0.3277 0.8101
vn -0.7231 -0.0255 -0.6902
vn -0.9845 0.1444 -0.0995
vn 0.9376 0.3478 0.0000
vn -0.9826 0.1807 -0.0434
vn -0.9437 0.0823 0.3203
vn -0.9506 0.2190 -0.2200
vn 0.0003 1.0000 0.0004
vn -0.7339 0.2428 -0.6344
vn 0.4972 0.2579 0.8284
vn -0.5555 0.0467 -0.8302
vn -0.9887 0.1117 -0.0999
vn 0.9616 0.2746 0.0000
vn -0.9892 0.1400 -0.0437
vn -0.9101 0.0505 0.4113
vn 0.4733 0.3032 -0.8271
vn -0.4713 0.2667 0.8407
vn 0.4925 0.2899 0.8206
vn -0.4621 -0.0904 -0.8822
vn -0.9869 0.1265 -0.0997
vn 0.9513 0.3082 0.0000
vn -0.9864 0.1584 -0.0436
vn -0.7670 0.0135 0.6415
vn 0.4672 0.3396 -0.8163
vn -0.4665 0.2996 0.8322
vn -0.9740 0.0243 -0.2254
vn -0.7277 0.2732 -0.6291
vn -0.9990 -0.0000 -0.0442
vn -0.7671 -0.0000 0.6415
vn 0.4967 0.0000 -0.8679
vn -0.4890 -0.0000 0.8723
vn -0.9743 -0.0000 -0.2254
vn -0.7565 0.0000 -0.6540
vn 0.5146 -0.0000 0.8574
vn -0.4640 0.0000 -0.8858
vn -0.9949 -0.0000 -0.1005
vn -0.1146 0.9886 0.0979
vn -0.1146 0.9886 -0.0979
vn 0.1059 0.9901 -0.0919
vn 0.1059 0.9901 0.0919
vn -0.8867 0.4607 -0.0394
vn -0.9121 0.2234 0.3436
vn 0.4514 0.4094 -0.7929
vn -0.4156 0.5269 0.7414
vn -0.9455 0.2403 -0.2199
vn -0.6356 0.5423 -0.5494
vn 0.4832 0.3437 0.8052
vn -0.6426 0.1130 -0.7579
vn -0.9036 0.4186 -0.0913
vn 0.0001 1.0000 0.0001
vn -0.7132 -0.0152 -0.7008
vn -0.9492 0.0656 0.3079
vn 0.0001 -1.0000 0.0001
vn -0.6423 -0.0332 -0.7658
vn -0.8370 0.1885 0.5138
usemtl Material
s off
f 2/1/1 3/2/1 1/3/1
f 4/4/2 7/5/2 3/2/2
f 8/6/3 5/7/3 7/5/3
f 6/8/4 1/3/4 5/7/4
f 4/4/5 6/8/5 8/6/5
f 10/9/1 11/10/1 9/11/1
f 12/12/2 15/13/2 11/10/2
f 16/14/3 13/15/3 15/13/3
f 14/16/4 9/11/4 13/15/4
f 12/12/5 14/16/5 16/14/5
f 18/17/3 19/18/3 17/19/3
f 20/20/4 23/21/4 19/18/4
f 24/22/1 21/23/1 23/21/1
f 22/24/2 17/19/2 21/23/2
f 20/20/5 22/24/5 24/22/5
f 26/25/3 27/26/3 25/27/3
f 28/28/4 31/29/4 27/26/4
f 32/30/1 29/31/1 31/29/1
f 30/32/2 25/27/2 29/31/2
f 28/28/5 30/32/5 32/30/5
f 38/33/6 40/34/6 41/35/6
f 39/36/7 38/33/7 41/35/7
f 39/36/8 37/37/8 33/38/8
f 37/37/9 40/34/9 35/39/9
f 43/40/10 44/41/10 42/42/10
f 45/43/3 46/44/3 44/41/3
f 47/45/11 48/46/11 46/44/11
f 49/47/12 50/48/12 48/46/12
f 58/49/5 49/47/5 47/45/5
f 51/50/1 52/51/1 50/48/1
f 53/52/13 42/42/13 52/51/13
f 44/41/14 50/48/14 52/51/14
f 54/53/5 43/40/5 55/54/5
f 55/54/15 66/55/15 65/56/15
f 62/57/16 73/58/16 72/59/16
f 60/60/17 69/61/17 59/62/17
f 56/63/18 67/64/18 66/55/18
f 54/53/19 73/58/19 63/65/19
f 60/60/20 71/66/20 70/67/20
f 58/49/21 67/64/21 57/68/21
f 55/54/22 64/69/22 54/53/22
f 61/70/23 72/59/23 71/66/23
f 59/62/24 68/71/24 58/49/24
f 76/72/25 87/73/25 86/74/25
f 77/75/5 66/55/5 67/64/5
f 71/66/26 82/76/26 81/77/26
f 86/74/5 87/73/5 97/78/5
f 83/79/27 84/80/27 93/81/27
f 80/82/28 91/83/28 90/84/28
f 78/85/29 87/73/29 77/75/29
f 74/86/30 85/87/30 84/80/30
f 81/77/31 92/88/31 91/83/31
f 79/89/32 88/90/32 78/85/32
f 75/91/33 86/74/33 85/87/33
f 82/76/34 93/81/34 92/88/34
f 80/82/35 89/92/35 79/89/35
f 100/93/36 111/94/36 110/95/36
f 91/83/37 102/96/37 101/97/37
f 98/98/38 107/99/38 97/78/38
f 94/100/39 105/101/39 104/102/39
f 101/97/40 112/103/40 111/94/40
f 99/104/41 108/105/41 98/98/41
f 95/106/42 106/107/42 105/101/42
f 102/96/43 113/108/43 112/103/43
f 100/93/44 109/109/44 99/104/44
f 96/110/45 107/99/45 106/107/45
f 103/111/46 104/102/46 113/108/46
f 114/112/47 125/113/47 124/114/47
f 111/94/14 122/115/14 121/116/14
f 117/117/5 106/107/5 107/99/5
f 126/118/5 137/119/5 136/120/5
f 121/116/48 132/121/48 131/122/48
f 119/123/49 128/124/49 118/125/49
f 115/126/50 126/118/50 125/113/50
f 122/115/51 133/127/51 132/121/51
f 120/128/52 129/129/52 119/123/52
f 116/130/53 127/131/53 126/118/53
f 123/132/54 124/114/54 133/127/54
f 120/128/55 131/122/55 130/133/55
f 118/125/56 127/131/56 117/117/56
f 135/134/3 146/135/3 145/136/3
f 131/122/14 142/137/14 141/138/14
f 143/139/57 152/140/57 142/137/57
f 140/141/58 149/142/58 139/143/58
f 137/119/59 146/135/59 136/120/59
f 134/144/60 153/145/60 143/139/60
f 141/138/61 150/146/61 140/141/61
f 138/147/62 147/148/62 137/119/62
f 134/144/63 145/136/63 144/149/63
f 141/138/64 152/140/64 151/150/64
f 138/147/65 149/142/65 148/151/65
f 160/152/58 169/153/58 159/154/58
f 156/155/5 146/135/5 157/156/5
f 151/150/14 162/157/14 161/158/14
f 165/159/5 166/160/5 170/161/5
f 157/156/59 166/160/59 156/155/59
f 154/162/60 173/163/60 163/164/60
f 161/158/61 170/161/61 160/152/61
f 158/165/62 167/166/62 157/156/62
f 154/162/63 165/159/63 164/167/63
f 161/158/64 172/168/64 171/169/64
f 158/165/65 169/153/65 168/170/65
f 155/171/3 166/160/3 165/159/3
f 163/164/57 172/168/57 162/157/57
f 2/1/1 4/4/1 3/2/1
f 4/4/2 8/6/2 7/5/2
f 8/6/3 6/8/3 5/7/3
f 6/8/4 2/1/4 1/3/4
f 4/4/5 2/1/5 6/8/5
f 10/9/1 12/12/1 11/10/1
f 12/12/2 16/14/2 15/13/2
f 16/14/3 14/16/3 13/15/3
f 14/16/4 10/9/4 9/11/4
f 12/12/5 10/9/5 14/16/5
f 18/17/3 20/20/3 19/18/3
f 20/20/4 24/22/4 23/21/4
f 24/22/1 22/24/1 21/23/1
f 22/24/2 18/17/2 17/19/2
f 20/20/5 18/17/5 22/24/5
f 26/25/3 28/28/3 27/26/3
f 28/28/4 32/30/4 31/29/4
f 32/30/1 30/32/1 29/31/1
f 30/32/2 26/25/2 25/27/2
f 28/28/5 26/25/5 30/32/5
f 38/33/66 36/172/66 40/34/66
f 39/36/67 34/173/67 38/33/67
f 39/36/68 41/35/68 37/37/68
f 37/37/69 41/35/69 40/34/69
f 43/40/10 45/43/10 44/41/10
f 45/43/3 47/45/3 46/44/3
f 47/45/11 49/47/11 48/46/11
f 49/47/12 51/50/12 50/48/12
f 47/45/5 45/43/5 59/62/5
f 62/57/5 61/70/5 60/60/5
f 45/43/5 63/65/5 62/57/5
f 56/63/5 51/50/5 49/47/5
f 57/68/5 56/63/5 49/47/5
f 45/43/5 62/57/5 59/62/5
f 62/57/5 60/60/5 59/62/5
f 57/68/5 49/47/5 58/49/5
f 47/45/5 59/62/5 58/49/5
f 51/50/1 53/52/1 52/51/1
f 53/52/13 43/40/13 42/42/13
f 52/51/14 42/42/14 44/41/14
f 44/41/14 46/44/14 48/46/14
f 48/46/14 50/48/14 44/41/14
f 53/52/5 51/50/5 55/54/5
f 51/50/5 56/63/5 55/54/5
f 63/65/5 45/43/5 43/40/5
f 53/52/5 55/54/5 43/40/5
f 54/53/5 63/65/5 43/40/5
f 55/54/15 56/63/15 66/55/15
f 62/57/70 63/65/70 73/58/70
f 60/60/71 70/67/71 69/61/71
f 56/63/72 57/68/72 67/64/72
f 54/53/73 64/69/73 73/58/73
f 60/60/74 61/70/74 71/66/74
f 58/49/75 68/71/75 67/64/75
f 55/54/76 65/56/76 64/69/76
f 61/70/77 62/57/77 72/59/77
f 59/62/78 69/61/78 68/71/78
f 76/72/25 77/75/25 87/73/25
f 70/67/5 71/66/5 81/77/5
f 83/79/5 82/76/5 72/59/5
f 72/59/5 73/58/5 83/79/5
f 70/67/5 81/77/5 80/82/5
f 70/67/5 80/82/5 79/89/5
f 83/79/5 73/58/5 74/86/5
f 74/86/5 73/58/5 64/69/5
f 69/61/5 70/67/5 79/89/5
f 69/61/5 79/89/5 78/85/5
f 74/86/5 64/69/5 65/56/5
f 75/91/5 74/86/5 65/56/5
f 68/71/5 69/61/5 78/85/5
f 68/71/5 78/85/5 77/75/5
f 75/91/5 65/56/5 76/72/5
f 76/72/5 65/56/5 66/55/5
f 67/64/5 68/71/5 77/75/5
f 77/75/5 76/72/5 66/55/5
f 71/66/79 72/59/79 82/76/79
f 90/84/5 91/83/5 101/97/5
f 103/111/5 102/96/5 92/88/5
f 92/88/5 93/81/5 103/111/5
f 90/84/5 101/97/5 100/93/5
f 90/84/5 100/93/5 99/104/5
f 103/111/5 93/81/5 94/100/5
f 94/100/5 93/81/5 84/80/5
f 89/92/5 90/84/5 99/104/5
f 89/92/5 99/104/5 98/98/5
f 94/100/5 84/80/5 95/106/5
f 95/106/5 84/80/5 85/87/5
f 88/90/5 89/92/5 98/98/5
f 88/90/5 98/98/5 97/78/5
f 95/106/5 85/87/5 96/110/5
f 96/110/5 85/87/5 86/74/5
f 87/73/5 88/90/5 97/78/5
f 97/78/5 96/110/5 86/74/5
f 83/79/27 74/86/27 84/80/27
f 80/82/28 81/77/28 91/83/28
f 78/85/29 88/90/29 87/73/29
f 74/86/30 75/91/30 85/87/30
f 81/77/80 82/76/80 92/88/80
f 79/89/32 89/92/32 88/90/32
f 75/91/33 76/72/33 86/74/33
f 82/76/34 83/79/34 93/81/34
f 80/82/81 90/84/81 89/92/81
f 100/93/36 101/97/36 111/94/36
f 91/83/82 92/88/82 102/96/82
f 98/98/38 108/105/38 107/99/38
f 94/100/39 95/106/39 105/101/39
f 101/97/83 102/96/83 112/103/83
f 99/104/41 109/109/41 108/105/41
f 95/106/42 96/110/42 106/107/42
f 102/96/43 103/111/43 113/108/43
f 100/93/84 110/95/84 109/109/84
f 96/110/45 97/78/45 107/99/45
f 103/111/46 94/100/46 104/102/46
f 114/112/47 115/126/47 125/113/47
f 111/94/14 112/103/14 122/115/14
f 110/95/5 111/94/5 121/116/5
f 123/132/5 122/115/5 112/103/5
f 112/103/5 113/108/5 123/132/5
f 110/95/5 121/116/5 120/128/5
f 110/95/5 120/128/5 119/123/5
f 123/132/5 113/108/5 114/112/5
f 114/112/5 113/108/5 104/102/5
f 109/109/5 110/95/5 119/123/5
f 109/109/5 119/123/5 118/125/5
f 114/112/5 104/102/5 115/126/5
f 115/126/5 104/102/5 105/101/5
f 108/105/5 109/109/5 118/125/5
f 108/105/5 118/125/5 117/117/5
f 115/126/5 105/101/5 116/130/5
f 116/130/5 105/101/5 106/107/5
f 107/99/5 108/105/5 117/117/5
f 117/117/5 116/130/5 106/107/5
f 126/118/5 127/131/5 137/119/5
f 130/133/5 131/122/5 141/138/5
f 143/139/5 142/137/5 132/121/5
f 132/121/5 133/127/5 143/139/5
f 130/133/5 141/138/5 140/141/5
f 130/133/5 140/141/5 139/143/5
f 143/139/5 133/127/5 134/144/5
f 134/144/5 133/127/5 124/114/5
f 129/129/5 130/133/5 139/143/5
f 129/129/5 139/143/5 138/147/5
f 134/144/5 124/114/5 135/134/5
f 135/134/5 124/114/5 125/113/5
f 128/124/5 129/129/5 138/147/5
f 128/124/5 138/147/5 137/119/5
f 135/134/5 125/113/5 136/120/5
f 136/120/5 125/113/5 126/118/5
f 127/131/5 128/124/5 137/119/5
f 121/116/48 122/115/48 132/121/48
f 119/123/49 129/129/49 128/124/49
f 115/126/50 116/130/50 126/118/50
f 122/115/51 123/132/51 133/127/51
f 120/128/52 130/133/52 129/129/52
f 116/130/53 117/117/53 127/131/53
f 123/132/54 114/112/54 124/114/54
f 120/128/55 121/116/55 131/122/55
f 118/125/56 128/124/56 127/131/56
f 135/134/3 136/120/3 146/135/3
f 131/122/14 132/121/14 142/137/14
f 143/139/57 153/145/57 152/140/57
f 140/141/58 150/146/58 149/142/58
f 137/119/59 147/148/59 146/135/59
f 134/144/60 144/149/60 153/145/60
f 141/138/61 151/150/61 150/146/61
f 138/147/62 148/151/62 147/148/62
f 134/144/63 135/134/63 145/136/63
f 141/138/64 142/137/64 152/140/64
f 138/147/65 139/143/65 149/142/65
f 160/152/58 170/161/58 169/153/58
f 147/148/5 148/151/5 157/156/5
f 150/146/5 151/150/5 161/158/5
f 153/145/5 144/149/5 154/162/5
f 162/157/5 152/140/5 163/164/5
f 163/164/5 152/140/5 153/145/5
f 150/146/5 161/158/5 160/152/5
f 150/146/5 160/152/5 159/154/5
f 154/162/5 163/164/5 153/145/5
f 154/162/5 144/149/5 155/171/5
f 149/142/5 150/146/5 159/154/5
f 149/142/5 159/154/5 158/165/5
f 155/171/5 144/149/5 145/136/5
f 156/155/5 155/171/5 145/136/5
f 148/151/5 149/142/5 158/165/5
f 148/151/5 158/165/5 157/156/5
f 156/155/5 145/136/5 146/135/5
f 147/148/5 157/156/5 146/135/5
f 151/150/14 152/140/14 162/157/14
f 172/168/5 173/163/5 171/169/5
f 164/167/5 165/159/5 171/169/5
f 166/160/5 167/166/5 168/170/5
f 168/170/5 169/153/5 170/161/5
f 171/169/5 173/163/5 164/167/5
f 166/160/5 168/170/5 170/161/5
f 170/161/5 171/169/5 165/159/5
f 157/156/59 167/166/59 166/160/59
f 154/162/60 164/167/60 173/163/60
f 161/158/61 171/169/61 170/161/61
f 158/165/62 168/170/62 167/166/62
f 154/162/63 155/171/63 165/159/63
f 161/158/64 162/157/64 172/168/64
f 158/165/65 159/154/65 169/153/65
f 155/171/3 156/155/3 166/160/3
f 163/164/57 173/163/57 172/168/57
