# Blender v2.78 (sub 0) OBJ File: 'tile_dirt_River7.blend'
# www.blender.org
mtllib tile_dirt_River7.mtl
o tile_dirt_River7_Cylinder
v 0.000000 -1.000000 -1.000000
v 0.866025 -1.000000 0.500000
v -0.000000 -1.000000 1.000000
v -0.866025 -1.000000 0.500000
v -0.866025 -1.000000 -0.500000
v 0.866025 -0.500000 0.500000
v 0.866025 -0.500000 -0.500000
v 0.866025 -1.000000 -0.500000
v 0.692820 -0.500000 0.400196
v 0.692820 -0.500000 -0.400196
v 0.692820 0.000000 0.400000
v 0.692820 0.000000 -0.400000
v 0.000000 -0.500000 -1.000000
v -0.866025 -0.500000 0.500000
v -0.000000 -0.500000 1.000000
v -0.866025 -0.500000 -0.500000
v -0.721688 -0.500000 -0.583333
v -0.866025 -0.500000 0.333333
v 0.023094 -0.500000 -0.813372
v 0.023094 0.000000 -0.813333
v -0.721688 0.000000 -0.411255
v -0.721688 -0.500000 -0.411262
v 0.014423 0.000000 0.818685
v -0.721688 0.000000 0.412900
v -0.721688 -0.500000 0.412900
v 0.014455 -0.500000 0.818702
vt 0.1250 0.3750
vt 0.1250 0.3750
vt 0.1250 0.3750
vt 0.1250 0.3750
vt 0.1250 0.3750
vt 0.1250 0.3750
vt 0.1250 0.6250
vt 0.1250 0.6250
vt 0.1250 0.6250
vt 0.1250 0.6250
vt 0.1250 0.6250
vt 0.1250 0.6250
vt 0.1250 0.6250
vt 0.1250 0.3750
vt 0.1250 0.3750
vt 0.1250 0.3750
vt 0.1250 0.6250
vt 0.1250 0.3750
vt 0.1250 0.3750
vt 0.1250 0.3750
vt 0.1250 0.3750
vt 0.1250 0.3750
vt 0.1250 0.3750
vt 0.1250 0.3750
vt 0.1250 0.3750
vt 0.1250 0.6250
vt 0.1250 0.6250
vt 0.1250 0.6250
vt 0.1250 0.6250
vt 0.1250 0.6250
vt 0.1250 0.6250
vt 0.1250 0.6250
vt 0.1250 0.3750
vt 0.1250 0.3750
vt 0.1250 0.3750
vt 0.1250 0.6250
vt 0.1250 0.6250
vt 0.1250 0.6250
vn 0.5000 0.0000 -0.8660
vn 0.5000 0.0000 0.8660
vn 1.0000 -0.0000 -0.0000
vn 0.5251 0.0001 0.8511
vn 0.0000 1.0000 0.0000
vn -1.0000 0.0000 0.0000
vn 0.5252 0.0003 -0.8510
vn -0.5000 0.0000 0.8660
vn -0.5000 0.0000 -0.8660
vn 0.0000 -1.0000 0.0000
vn -0.4751 0.0001 -0.8799
vn -0.4828 -0.0000 0.8758
vn 0.5252 0.0003 0.8510
vn 0.5251 0.0001 -0.8511
vn -0.4751 0.0000 -0.8800
usemtl Material
s off
f 13/1/1 8/2/1 1/3/1
f 3/4/2 6/5/2 15/6/2
f 9/7/3 12/8/3 11/9/3
f 9/7/4 23/10/4 26/11/4
f 20/12/5 24/13/5 11/9/5
f 5/14/6 4/15/6 18/16/6
f 10/17/7 20/12/7 12/8/7
f 25/18/5 22/19/5 18/16/5
f 6/5/5 7/20/5 9/21/5
f 14/22/8 3/4/8 15/6/8
f 5/14/9 16/23/9 17/24/9
f 2/25/3 7/20/3 6/5/3
f 8/26/10 4/27/10 5/28/10
f 22/29/11 20/12/11 19/30/11
f 25/31/6 21/32/6 22/29/6
f 23/10/12 25/31/12 26/11/12
f 13/1/1 7/20/1 8/2/1
f 3/4/2 2/25/2 6/5/2
f 9/7/3 10/17/3 12/8/3
f 9/7/13 11/9/13 23/10/13
f 11/9/5 12/8/5 20/12/5
f 20/12/5 21/32/5 24/13/5
f 24/13/5 23/10/5 11/9/5
f 14/22/6 18/16/6 4/15/6
f 16/23/6 5/14/6 18/16/6
f 10/17/14 19/30/14 20/12/14
f 16/23/5 18/16/5 22/19/5
f 22/19/5 17/24/5 16/23/5
f 25/18/5 18/16/5 14/22/5
f 13/1/5 17/24/5 19/33/5
f 17/24/5 22/19/5 19/33/5
f 25/18/5 14/22/5 15/6/5
f 26/34/5 25/18/5 15/6/5
f 7/20/5 13/1/5 19/33/5
f 7/20/5 19/33/5 10/35/5
f 26/34/5 15/6/5 6/5/5
f 7/20/5 10/35/5 9/21/5
f 9/21/5 26/34/5 6/5/5
f 14/22/8 4/15/8 3/4/8
f 17/24/9 13/1/9 1/3/9
f 1/3/9 5/14/9 17/24/9
f 2/25/3 8/2/3 7/20/3
f 5/28/10 1/36/10 8/26/10
f 8/26/10 2/37/10 3/38/10
f 3/38/10 4/27/10 8/26/10
f 22/29/15 21/32/15 20/12/15
f 25/31/6 24/13/6 21/32/6
f 23/10/12 24/13/12 25/31/12
