# Blender v2.78 (sub 0) OBJ File: 'tile_grass_River1.blend'
# www.blender.org
mtllib tile_grass_River1.mtl
o tile_grass_River1_Cylinder
v 0.000000 -1.000000 -1.000000
v 0.000000 0.000000 -1.000000
v 0.866025 -1.000000 0.500000
v -0.000000 -1.000000 1.000000
v -0.000000 0.000000 1.000000
v -0.866025 -1.000000 0.500000
v -0.866025 0.000000 0.500000
v -0.866025 -1.000000 -0.500000
v -0.866025 0.000000 -0.500000
v 0.866025 -0.500000 0.500000
v 0.692820 -0.500000 0.600294
v 0.866025 -0.500000 -0.500000
v 0.692820 -0.500000 -0.600294
v 0.866025 -1.000000 -0.500000
v 0.692821 0.000000 0.600000
v 0.692821 -1.000000 0.600000
v 0.692820 0.000000 -0.600000
v 0.692820 -1.000000 -0.600000
vt 0.1250 0.8750
vt 0.1250 0.8750
vt 0.1250 0.8750
vt 0.1250 0.3750
vt 0.1250 0.3750
vt 0.1250 0.3750
vt 0.1250 0.8750
vt 0.1250 0.8750
vt 0.1250 0.8750
vt 0.1250 0.3750
vt 0.1250 0.3750
vt 0.1250 0.8750
vt 0.1250 0.8750
vt 0.1250 0.8750
vt 0.1250 0.8750
vt 0.1250 0.8750
vt 0.1250 0.3750
vt 0.1250 0.3750
vt 0.1250 0.3750
vt 0.1250 0.8750
vt 0.1250 0.8750
vt 0.1250 0.8750
vn 0.0000 -1.0000 0.0000
vn 1.0000 0.0000 0.0000
vn 0.0000 1.0000 0.0000
vn 0.5011 -0.0005 0.8654
vn -0.5000 0.0000 -0.8660
vn -1.0000 0.0000 0.0000
vn 0.5000 -0.0000 -0.8660
vn 0.5000 0.0000 0.8660
vn -0.5000 0.0000 0.8660
vn 0.5011 -0.0005 -0.8654
usemtl Material
s off
f 4/1/1 6/2/1 16/3/1
f 14/4/2 10/5/2 3/6/2
f 15/7/3 17/8/3 9/9/3
f 10/5/4 11/10/4 16/11/4
f 15/7/2 11/12/2 13/13/2
f 8/14/5 9/9/5 2/15/5
f 8/14/1 1/16/1 18/17/1
f 18/17/1 16/3/1 8/14/1
f 10/5/3 12/18/3 13/19/3
f 9/9/3 7/20/3 15/7/3
f 5/21/3 15/7/3 7/20/3
f 6/2/6 9/9/6 8/14/6
f 1/16/7 17/8/7 18/22/7
f 12/18/7 14/4/7 18/17/7
f 18/17/1 14/4/1 3/6/1
f 6/2/1 8/14/1 16/3/1
f 1/16/7 2/15/7 17/8/7
f 17/8/3 2/15/3 9/9/3
f 3/6/1 16/3/1 18/17/1
f 10/5/3 13/19/3 11/10/3
f 15/7/2 13/13/2 17/8/2
f 10/5/8 16/11/8 3/6/8
f 16/3/8 15/7/8 5/21/8
f 8/14/5 2/15/5 1/16/5
f 4/1/9 5/21/9 7/20/9
f 16/3/8 5/21/8 4/1/8
f 6/2/6 7/20/6 9/9/6
f 14/4/2 12/18/2 10/5/2
f 12/18/10 18/17/10 13/19/10
f 4/1/9 7/20/9 6/2/9
