# Blender v2.78 (sub 0) OBJ File: 'tile_sand_River2.blend'
# www.blender.org
mtllib tile_sand_River2.mtl
o tile_sand_River2_Cylinder
v 0.000000 -1.000000 -1.000000
v 0.000000 0.000000 -1.000000
v 0.866025 -1.000000 0.500000
v -0.000000 -1.000000 1.000000
v -0.866025 -1.000000 0.500000
v -0.866025 0.000000 0.500000
v -0.866025 -1.000000 -0.500000
v -0.866025 0.000000 -0.500000
v 0.866025 -0.500000 0.500000
v 0.866025 -0.500000 -0.500000
v 0.866025 -1.000000 -0.500000
v 0.692820 0.000000 -0.600000
v 0.692820 -1.000000 -0.600000
v -0.144338 -1.000000 0.916667
v -0.144338 0.000000 0.916667
v 0.692820 -0.500000 0.400196
v 0.692820 0.000000 0.400000
v 0.692820 -0.500000 -0.600000
v -0.144338 -0.500000 0.916667
v -0.000000 -0.500000 1.000000
vt 0.3750 0.6250
vt 0.3750 0.6250
vt 0.3750 0.6250
vt 0.3750 0.6250
vt 0.3750 0.6250
vt 0.3750 0.6250
vt 0.3750 0.6250
vt 0.3750 0.6250
vt 0.3750 0.6250
vt 0.1250 0.3750
vt 0.1250 0.3750
vt 0.1250 0.3750
vt 0.1250 0.3750
vt 0.1250 0.3750
vt 0.1250 0.3750
vt 0.1250 0.3750
vt 0.1250 0.3750
vt 0.1250 0.3750
vt 0.3750 0.6250
vt 0.3750 0.6250
vt 0.3750 0.6250
vt 0.3750 0.6250
vt 0.3750 0.6250
vt 0.3750 0.6250
vt 0.3750 0.6250
vt 0.3750 0.6250
vt 0.1250 0.3750
vt 0.1250 0.3750
vn 0.5000 0.0000 -0.8660
vn 0.0000 1.0000 0.0000
vn 0.0000 -1.0000 0.0000
vn -0.5000 0.0000 0.8660
vn 1.0000 0.0000 -0.0000
vn 0.5000 0.0000 0.8660
vn 0.5251 0.0000 0.8511
vn -1.0000 0.0000 0.0000
vn -0.5000 0.0000 -0.8660
vn 0.5252 0.0003 0.8510
usemtl Material
s off
f 12/1/1 18/2/1 2/3/1
f 8/4/2 6/5/2 17/6/2
f 13/7/3 14/8/3 7/9/3
f 13/10/1 10/11/1 11/12/1
f 20/13/4 14/14/4 4/15/4
f 17/6/5 18/2/5 12/1/5
f 3/16/5 10/11/5 9/17/5
f 16/18/2 20/13/2 9/17/2
f 6/5/4 5/19/4 19/20/4
f 3/16/6 20/13/6 4/15/6
f 16/21/7 15/22/7 19/20/7
f 6/5/8 7/9/8 5/19/8
f 8/4/9 1/23/9 7/9/9
f 1/23/1 2/3/1 18/2/1
f 18/2/1 13/7/1 1/23/1
f 17/6/2 12/1/2 2/3/2
f 2/3/2 8/4/2 17/6/2
f 6/5/2 15/22/2 17/6/2
f 13/7/3 11/24/3 3/25/3
f 3/25/3 4/26/3 14/8/3
f 14/8/3 5/19/3 7/9/3
f 7/9/3 1/23/3 13/7/3
f 13/7/3 3/25/3 14/8/3
f 13/10/1 18/27/1 10/11/1
f 20/13/4 19/28/4 14/14/4
f 17/6/5 16/21/5 18/2/5
f 3/16/5 11/12/5 10/11/5
f 9/17/2 10/11/2 16/18/2
f 16/18/2 19/28/2 20/13/2
f 10/11/2 18/27/2 16/18/2
f 14/8/4 19/20/4 5/19/4
f 15/22/4 6/5/4 19/20/4
f 3/16/6 9/17/6 20/13/6
f 16/21/10 17/6/10 15/22/10
f 6/5/8 8/4/8 7/9/8
f 8/4/9 2/3/9 1/23/9
