# Blender v2.78 (sub 0) OBJ File: 'tile_ocean12.blend'
# www.blender.org
mtllib tile_ocean12.mtl
o tile_ocean12_Cylinder
v 0.000000 -1.000000 -1.000000
v 0.000000 -0.500000 -1.000000
v 0.866025 -1.000000 -0.500000
v 0.866025 -0.500000 -0.500000
v 0.866025 -1.000000 0.500000
v 0.866025 -0.500000 0.500000
v -0.000000 -1.000000 1.000000
v -0.000000 -0.500000 1.000000
v -0.866025 -1.000000 0.500000
v -0.866025 -0.500000 0.500000
v -0.866025 -1.000000 -0.500000
v -0.866025 -0.500000 -0.500000
vt 0.1249 0.3760
vt 0.1249 0.3760
vt 0.1249 0.3760
vt 0.1249 0.3760
vt 0.1249 0.3760
vt 0.1249 0.3760
vt 0.1249 0.3760
vt 0.1249 0.3760
vt 0.1249 0.3760
vt 0.1249 0.3760
vt 0.1249 0.3760
vt 0.1249 0.3760
vn 0.5000 0.0000 -0.8660
vn 1.0000 0.0000 0.0000
vn 0.5000 0.0000 0.8660
vn -0.5000 0.0000 0.8660
vn 0.0000 1.0000 0.0000
vn -1.0000 0.0000 0.0000
vn -0.5000 0.0000 -0.8660
vn 0.0000 -1.0000 0.0000
usemtl Material
s off
f 2/1/1 3/2/1 1/3/1
f 4/4/2 5/5/2 3/2/2
f 6/6/3 7/7/3 5/5/3
f 8/8/4 9/9/4 7/7/4
f 2/1/5 10/10/5 6/6/5
f 10/10/6 11/11/6 9/9/6
f 12/12/7 1/3/7 11/11/7
f 3/2/8 9/9/8 11/11/8
f 2/1/1 4/4/1 3/2/1
f 4/4/2 6/6/2 5/5/2
f 6/6/3 8/8/3 7/7/3
f 8/8/4 10/10/4 9/9/4
f 6/6/5 4/4/5 2/1/5
f 2/1/5 12/12/5 10/10/5
f 10/10/5 8/8/5 6/6/5
f 10/10/6 12/12/6 11/11/6
f 12/12/7 2/1/7 1/3/7
f 11/11/8 1/3/8 3/2/8
f 3/2/8 5/5/8 7/7/8
f 7/7/8 9/9/8 3/2/8
