# Blender v2.78 (sub 0) OBJ File: 'tile_sand_River12.blend'
# www.blender.org
mtllib tile_sand_River12.mtl
o tile_sand_River12_Cylinder
v 0.866025 -1.000000 0.499733
v -0.000996 -1.000000 0.999733
v 0.866025 -0.500000 0.499733
v 0.703064 -0.500000 0.388158
v 0.866025 -1.000000 -0.503717
v 0.703064 -0.500000 -0.598953
v 0.703064 -1.000000 -0.598953
v 0.866025 -0.500000 -0.503717
v 0.703064 -0.000000 -0.598146
v -0.867021 -1.000000 -0.500267
v -0.867021 -1.000000 0.499733
v -0.867021 -0.500000 -0.500267
v -0.722684 -1.000000 0.583067
v -0.705915 0.000000 0.591620
v -0.705915 -0.500000 -0.408097
v -0.705915 -0.500000 0.591620
v -0.867021 -0.500000 0.499733
v 0.000996 -1.000000 -1.003717
v 0.165949 -0.500000 -0.908481
v 0.165949 -1.000000 -0.908481
v 0.000996 -0.500000 -1.003717
v 0.164553 -0.000000 -0.909287
v -0.705915 0.000000 -0.408538
v -0.000996 0.000000 0.999733
v 0.703064 0.000000 0.593013
v 0.703064 -1.000000 0.593013
v 0.703064 -0.500000 -0.598146
v 0.703064 -1.000000 -0.598146
v 0.703064 -0.500000 0.593013
vt 0.3750 0.6250
vt 0.3750 0.6250
vt 0.3750 0.6250
vt 0.1250 0.3750
vt 0.1250 0.3750
vt 0.1250 0.3750
vt 0.1250 0.3750
vt 0.1250 0.3750
vt 0.1250 0.3750
vt 0.1250 0.3750
vt 0.3750 0.6250
vt 0.3750 0.6250
vt 0.3750 0.6250
vt 0.3750 0.6250
vt 0.1250 0.3750
vt 0.1250 0.3750
vt 0.1250 0.3750
vt 0.1250 0.3750
vt 0.1250 0.3750
vt 0.1250 0.3750
vt 0.1250 0.3750
vt 0.1250 0.3750
vt 0.3750 0.6250
vt 0.3750 0.6250
vt 0.3750 0.6250
vt 0.3750 0.6250
vt 0.3750 0.6250
vt 0.3750 0.6250
vt 0.3750 0.6250
vt 0.1250 0.3750
vt 0.3750 0.6250
vt 0.1250 0.3750
vt 0.3750 0.6250
vt 0.3750 0.6250
vt 0.1250 0.3750
vt 0.1250 0.3750
vt 0.1250 0.3750
vt 0.1250 0.3750
vt 0.3750 0.6250
vt 0.3750 0.6250
vt 0.3750 0.6250
vt 0.3750 0.6250
vt 0.3750 0.6250
vt 0.3750 0.6250
vt 0.1250 0.3750
vn -0.5010 0.0000 0.8654
vn 0.5014 -0.0000 -0.8652
vn 1.0000 0.0000 0.0000
vn 0.0000 1.0000 0.0000
vn 0.5002 0.0000 0.8659
vn -1.0000 0.0000 0.0000
vn 0.5000 -0.0000 -0.8660
vn -0.5000 0.0000 0.8660
vn -0.5017 0.0000 -0.8650
vn -0.4986 -0.0008 -0.8668
vn 0.4993 0.0014 -0.8664
vn 0.0000 -1.0000 -0.0000
vn 0.0000 0.0000 1.0000
vn 0.4993 0.0000 -0.8664
vn 0.4968 0.0000 0.8679
vn -0.5000 0.0020 0.8660
vn -0.4954 0.0018 0.8686
vn -0.4978 -0.0028 -0.8673
vn 0.5003 0.0000 -0.8659
usemtl Material
s off
f 16/1/1 24/2/1 14/3/1
f 5/4/2 27/5/2 8/6/2
f 5/4/3 3/7/3 1/8/3
f 4/9/4 29/10/4 3/7/4
f 24/2/5 2/11/5 29/12/5
f 15/13/6 14/3/6 23/14/6
f 17/15/6 10/16/6 11/17/6
f 19/18/7 18/19/7 21/20/7
f 13/21/8 17/15/8 11/17/8
f 12/22/9 18/19/9 10/16/9
f 22/23/10 15/13/10 23/14/10
f 19/24/11 9/25/11 6/26/11
f 26/27/12 13/28/12 20/29/12
f 27/5/13 6/30/13 4/9/13
f 9/25/4 23/14/4 25/31/4
f 28/32/3 6/30/3 27/5/3
f 4/33/3 6/26/3 9/25/3
f 7/34/14 19/24/14 6/26/14
f 26/35/15 3/7/15 29/10/15
f 17/15/4 16/36/4 15/37/4
f 16/1/16 13/28/16 2/11/16
f 2/11/1 24/2/1 16/1/1
f 5/4/2 28/32/2 27/5/2
f 5/4/3 8/6/3 3/7/3
f 3/7/4 8/6/4 4/9/4
f 27/5/4 4/9/4 8/6/4
f 26/27/5 29/12/5 2/11/5
f 25/31/5 24/2/5 29/12/5
f 15/13/6 16/1/6 14/3/6
f 17/15/6 12/22/6 10/16/6
f 19/18/7 20/38/7 18/19/7
f 13/21/17 16/36/17 17/15/17
f 12/22/9 21/20/9 18/19/9
f 22/23/18 19/24/18 15/13/18
f 19/24/19 22/23/19 9/25/19
f 28/39/12 5/40/12 26/27/12
f 26/27/12 2/11/12 13/28/12
f 5/40/12 1/41/12 26/27/12
f 20/29/12 7/34/12 28/39/12
f 10/42/12 18/43/12 20/29/12
f 13/28/12 11/44/12 10/42/12
f 28/39/12 26/27/12 20/29/12
f 10/42/12 20/29/12 13/28/12
f 24/2/4 25/31/4 14/3/4
f 9/25/4 22/23/4 23/14/4
f 23/14/4 14/3/4 25/31/4
f 28/32/3 7/45/3 6/30/3
f 9/25/3 25/31/3 4/33/3
f 29/12/3 4/33/3 25/31/3
f 7/34/14 20/29/14 19/24/14
f 26/35/15 1/8/15 3/7/15
f 19/18/4 21/20/4 15/37/4
f 12/22/4 17/15/4 15/37/4
f 15/37/4 21/20/4 12/22/4
