# Blender v2.78 (sub 0) OBJ File: 'tile_ocean2.blend'
# www.blender.org
mtllib tile_ocean2.mtl
o tile_ocean2_Cylinder
v 0.000000 -1.000000 -1.000000
v 0.000000 -0.500000 -1.000000
v 0.866025 -1.000000 -0.500000
v 0.866025 -0.500000 -0.500000
v 0.866025 -1.000000 0.500000
v 0.866025 -0.500000 0.500000
v -0.000000 -1.000000 1.000000
v -0.000000 -0.500000 1.000000
v -0.866025 -1.000000 0.500000
v -0.866025 -0.500000 0.500000
v -0.866025 -1.000000 -0.500000
v -0.866025 -0.500000 -0.500000
v -0.866025 -0.500000 -0.300000
v -0.866025 -0.500000 0.300000
v 0.692820 -0.500000 0.400000
v 0.692820 -0.500000 -0.400000
v -0.000000 -0.500000 0.800000
v 0.000000 -0.500000 -0.800000
vt 0.1156 0.3760
vt 0.1156 0.3760
vt 0.1156 0.3760
vt 0.1156 0.3760
vt 0.1156 0.3760
vt 0.1156 0.3760
vt 0.1156 0.3760
vt 0.1156 0.3760
vt 0.1156 0.3760
vt 0.1156 0.3760
vt 0.1156 0.3760
vt 0.1156 0.3760
vt 0.1156 0.3760
vt 0.1156 0.3760
vt 0.1156 0.3760
vt 0.8875 0.3698
vt 0.8875 0.3698
vt 0.8875 0.3698
vt 0.1156 0.3760
vt 0.1156 0.3760
vt 0.1156 0.3760
vt 0.8875 0.3698
vt 0.8875 0.3698
vt 0.8875 0.3698
vt 0.8875 0.3698
vt 0.8875 0.3698
vt 0.8875 0.3698
vt 0.8875 0.3698
vt 0.8875 0.3698
vt 0.8875 0.3698
vn 1.0000 0.0000 0.0000
vn 0.0000 -1.0000 0.0000
vn 0.5000 0.0000 0.8660
vn 0.5000 0.0000 -0.8660
vn -0.5000 0.0000 -0.8660
vn -1.0000 0.0000 0.0000
vn -0.5000 0.0000 0.8660
vn 0.0000 1.0000 0.0000
usemtl Material
s off
f 5/1/1 4/2/1 6/3/1
f 3/4/2 9/5/2 11/6/2
f 7/7/3 6/3/3 8/8/3
f 3/4/4 2/9/4 4/2/4
f 2/9/5 11/6/5 12/10/5
f 11/6/6 9/5/6 14/11/6
f 10/12/7 7/7/7 8/8/7
f 17/13/8 18/14/8 13/15/8
f 15/16/8 6/17/8 4/18/8
f 5/1/1 3/4/1 4/2/1
f 11/6/2 1/19/2 3/4/2
f 3/4/2 5/1/2 7/7/2
f 7/7/2 9/5/2 3/4/2
f 7/7/3 5/1/3 6/3/3
f 3/4/4 1/19/4 2/9/4
f 2/9/5 1/19/5 11/6/5
f 14/11/6 13/15/6 11/6/6
f 12/10/6 11/6/6 13/15/6
f 9/5/6 10/12/6 14/11/6
f 10/12/7 9/5/7 7/7/7
f 13/15/8 14/11/8 17/13/8
f 17/13/8 15/20/8 16/21/8
f 16/21/8 18/14/8 17/13/8
f 17/22/8 14/23/8 10/24/8
f 2/25/8 12/26/8 18/27/8
f 12/26/8 13/28/8 18/27/8
f 17/22/8 10/24/8 8/29/8
f 15/16/8 17/22/8 8/29/8
f 4/18/8 2/25/8 18/27/8
f 4/18/8 18/27/8 16/30/8
f 15/16/8 8/29/8 6/17/8
f 4/18/8 16/30/8 15/16/8
