# Blender v2.78 (sub 0) OBJ File: 'tile_sand_River6.blend'
# www.blender.org
mtllib tile_sand_River6.mtl
o tile_sand_River6_Cylinder
v 0.000000 -1.000000 -1.000000
v 0.866025 -1.000000 0.500000
v -0.000000 -1.000000 1.000000
v -0.866025 -1.000000 0.500000
v -0.866025 -1.000000 -0.500000
v 0.866025 -0.500000 0.500000
v 0.866025 -0.500000 -0.500000
v 0.866025 -1.000000 -0.500000
v -0.144338 -1.000000 0.916667
v -0.721688 -1.000000 0.583333
v -0.721688 0.000000 0.583333
v -0.144338 0.000000 0.916667
v 0.692820 -0.500000 0.400196
v 0.692820 -0.500000 -0.400196
v 0.692820 0.000000 0.400000
v 0.692820 0.000000 -0.400000
v -0.144338 -0.500000 0.916667
v 0.000000 -0.500000 -1.000000
v -0.721688 -0.500000 0.583333
v -0.866025 -0.500000 0.500000
v -0.000000 -0.500000 1.000000
v -0.866025 -0.500000 -0.500000
v 0.023094 -0.500000 -0.813372
v 0.023094 0.000000 -0.813333
v -0.721688 0.000000 -0.411255
v -0.721688 -0.500000 -0.411262
vt 0.1250 0.3750
vt 0.1250 0.3750
vt 0.1250 0.3750
vt 0.3750 0.6250
vt 0.3750 0.6250
vt 0.3750 0.6250
vt 0.1250 0.3750
vt 0.1250 0.3750
vt 0.1250 0.3750
vt 0.1250 0.3750
vt 0.1250 0.3750
vt 0.1250 0.3750
vt 0.1250 0.3750
vt 0.1250 0.3750
vt 0.1250 0.3750
vt 0.1250 0.3750
vt 0.3750 0.6250
vt 0.3750 0.6250
vt 0.3750 0.6250
vt 0.3750 0.6250
vt 0.3750 0.6250
vt 0.3750 0.6250
vt 0.3750 0.6250
vt 0.3750 0.6250
vt 0.3750 0.6250
vt 0.3750 0.6250
vt 0.1250 0.3750
vt 0.1250 0.3750
vt 0.1250 0.3750
vt 0.1250 0.3750
vt 0.3750 0.6250
vt 0.3750 0.6250
vt 0.3750 0.6250
vt 0.1250 0.3750
vt 0.3750 0.6250
vt 0.3750 0.6250
vt 0.3750 0.6250
vt 0.3750 0.6250
vt 0.1250 0.3750
vt 0.1250 0.3750
vn -0.5000 0.0000 0.8660
vn 0.5000 0.0000 0.8660
vn -0.5000 0.0000 -0.8660
vn 0.5000 0.0000 -0.8660
vn 0.5251 0.0000 0.8511
vn 1.0000 0.0000 -0.0000
vn 0.0000 -1.0000 0.0000
vn 0.0000 1.0000 0.0000
vn 0.5252 0.0003 -0.8510
vn -1.0000 0.0000 0.0000
vn -0.4751 0.0001 -0.8799
vn 0.5252 0.0003 0.8510
vn 0.5251 0.0001 -0.8511
vn -0.4751 0.0000 -0.8800
usemtl Material
s off
f 19/1/1 4/2/1 10/3/1
f 17/4/1 11/5/1 19/6/1
f 2/7/2 21/8/2 3/9/2
f 21/8/1 9/10/1 3/9/1
f 22/11/3 1/12/3 5/13/3
f 8/14/4 18/15/4 7/16/4
f 13/17/5 12/18/5 17/4/5
f 15/19/6 14/20/6 16/21/6
f 10/22/7 5/23/7 1/24/7
f 25/25/8 11/5/8 15/19/8
f 14/20/9 24/26/9 16/21/9
f 2/7/6 7/16/6 6/27/6
f 22/11/10 4/2/10 20/28/10
f 7/16/8 23/29/8 14/30/8
f 26/31/11 24/26/11 23/32/11
f 25/25/10 19/6/10 11/5/10
f 19/1/1 20/28/1 4/2/1
f 10/22/1 9/33/1 17/4/1
f 17/4/1 12/18/1 11/5/1
f 19/6/1 10/22/1 17/4/1
f 2/7/2 6/27/2 21/8/2
f 21/8/1 17/34/1 9/10/1
f 22/11/3 18/15/3 1/12/3
f 8/14/4 1/12/4 18/15/4
f 13/17/12 15/19/12 12/18/12
f 15/19/6 13/17/6 14/20/6
f 1/24/7 8/35/7 9/33/7
f 2/36/7 3/37/7 9/33/7
f 9/33/7 10/22/7 1/24/7
f 4/38/7 5/23/7 10/22/7
f 8/35/7 2/36/7 9/33/7
f 15/19/8 16/21/8 24/26/8
f 24/26/8 25/25/8 15/19/8
f 11/5/8 12/18/8 15/19/8
f 14/20/13 23/32/13 24/26/13
f 2/7/6 8/14/6 7/16/6
f 22/11/10 5/13/10 4/2/10
f 22/11/8 20/28/8 26/39/8
f 20/28/8 19/1/8 26/39/8
f 17/34/8 21/8/8 13/40/8
f 13/40/8 21/8/8 6/27/8
f 18/15/8 22/11/8 26/39/8
f 18/15/8 26/39/8 23/29/8
f 13/40/8 6/27/8 7/16/8
f 18/15/8 23/29/8 7/16/8
f 14/30/8 13/40/8 7/16/8
f 26/31/14 25/25/14 24/26/14
f 25/25/10 26/31/10 19/6/10
