# Blender v2.78 (sub 0) OBJ File: 'tile_ocean9.blend'
# www.blender.org
mtllib tile_ocean9.mtl
o tile_ocean9_Cylinder
v 0.000000 -1.000000 -1.000000
v 0.000000 -0.500000 -1.000000
v 0.866025 -1.000000 -0.500000
v 0.866025 -0.500000 -0.500000
v 0.866025 -1.000000 0.500000
v 0.866025 -0.500000 0.500000
v -0.000000 -1.000000 1.000000
v -0.000000 -0.500000 1.000000
v -0.866025 -1.000000 0.500000
v -0.866025 -0.500000 0.500000
v -0.866025 -1.000000 -0.500000
v -0.866025 -0.500000 -0.500000
v -0.173205 -0.500000 -0.900000
v -0.866025 -0.500000 0.300000
v 0.866025 -0.500000 0.300894
v 0.866025 -0.500000 -0.300894
v -0.000000 -0.500000 0.800000
vt 0.1250 0.3750
vt 0.1250 0.3750
vt 0.1250 0.3750
vt 0.8750 0.3750
vt 0.8750 0.3750
vt 0.8750 0.3750
vt 0.1250 0.3750
vt 0.1250 0.3750
vt 0.1250 0.3750
vt 0.1250 0.3750
vt 0.1250 0.3750
vt 0.1250 0.3750
vt 0.1250 0.3750
vt 0.1250 0.3750
vt 0.8750 0.3750
vt 0.8750 0.3750
vt 0.8750 0.3750
vt 0.1250 0.3750
vt 0.1250 0.3750
vt 0.1250 0.3750
vt 0.1250 0.3750
vt 0.8750 0.3750
vt 0.8750 0.3750
vt 0.8750 0.3750
vt 0.1250 0.3750
vt 0.8750 0.3750
vt 0.1250 0.3750
vn 0.0000 -1.0000 0.0000
vn 0.0000 1.0000 0.0000
vn 0.5000 0.0000 -0.8660
vn -0.5000 0.0000 -0.8660
vn -1.0000 0.0000 0.0000
vn -0.5000 0.0000 0.8660
vn 0.5000 0.0000 0.8660
vn 1.0000 -0.0000 0.0000
usemtl Material
s off
f 3/1/1 9/2/1 11/3/1
f 17/4/2 6/5/2 15/6/2
f 3/1/3 2/7/3 4/8/3
f 1/9/4 11/3/4 13/10/4
f 9/2/5 10/11/5 14/12/5
f 10/11/6 7/13/6 8/14/6
f 16/15/2 2/16/2 13/17/2
f 7/13/7 6/18/7 8/14/7
f 5/19/8 3/1/8 16/20/8
f 13/10/2 14/12/2 17/21/2
f 11/3/1 1/9/1 3/1/1
f 3/1/1 5/19/1 7/13/1
f 7/13/1 9/2/1 3/1/1
f 17/4/2 14/22/2 10/23/2
f 8/24/2 6/5/2 17/4/2
f 17/4/2 10/23/2 8/24/2
f 3/1/3 1/9/3 2/7/3
f 12/25/4 13/10/4 11/3/4
f 2/7/4 1/9/4 13/10/4
f 14/12/5 12/25/5 11/3/5
f 11/3/5 9/2/5 14/12/5
f 10/11/6 9/2/6 7/13/6
f 16/15/2 4/26/2 2/16/2
f 7/13/7 5/19/7 6/18/7
f 16/20/8 15/27/8 5/19/8
f 6/18/8 5/19/8 15/27/8
f 3/1/8 4/8/8 16/20/8
f 17/21/2 15/27/2 16/20/2
f 16/20/2 13/10/2 17/21/2
f 12/25/2 14/12/2 13/10/2
