# Blender v2.78 (sub 0) OBJ File: 'tile_dirt_River12.blend'
# www.blender.org
mtllib tile_dirt_River12.mtl
o tile_dirt_River12_Cylinder
v 0.865030 -1.000000 0.499733
v -0.000996 -1.000000 0.999733
v 0.865030 -0.500000 0.499733
v 0.703064 -0.500000 0.388158
v 0.867021 -1.000000 -0.503717
v 0.703064 -0.500000 -0.598953
v 0.703064 -1.000000 -0.598953
v 0.867021 -0.500000 -0.503717
v 0.703064 -0.000000 -0.598146
v -0.867021 -1.000000 -0.500267
v -0.867021 -1.000000 0.499733
v -0.867021 -0.500000 -0.500267
v -0.709167 -1.000000 0.588198
v -0.709167 0.000000 0.588198
v -0.705915 -0.500000 -0.416650
v -0.709167 -0.500000 0.588198
v -0.867021 -0.500000 0.499733
v 0.000996 -1.000000 -1.003717
v 0.165949 -0.500000 -0.908481
v 0.165949 -1.000000 -0.908481
v 0.000996 -0.500000 -1.003717
v 0.164553 -0.000000 -0.909287
v -0.705915 0.000000 -0.417091
v -0.000996 0.000000 0.999733
v 0.703064 0.000000 0.593013
v 0.703064 -1.000000 0.593013
v 0.703064 -0.500000 -0.598146
v 0.703064 -1.000000 -0.598146
v 0.703064 -0.500000 0.593013
vt 0.1250 0.6250
vt 0.1250 0.6250
vt 0.1250 0.6250
vt 0.1250 0.3750
vt 0.1250 0.3750
vt 0.1250 0.3750
vt 0.1250 0.3750
vt 0.1250 0.3750
vt 0.1250 0.3750
vt 0.1250 0.3750
vt 0.1250 0.6250
vt 0.1250 0.6250
vt 0.1250 0.6250
vt 0.1250 0.6250
vt 0.1250 0.3750
vt 0.1250 0.3750
vt 0.1250 0.3750
vt 0.1250 0.3750
vt 0.1250 0.3750
vt 0.1250 0.3750
vt 0.1250 0.3750
vt 0.1250 0.3750
vt 0.1250 0.6250
vt 0.1250 0.6250
vt 0.1250 0.6250
vt 0.1250 0.6250
vt 0.1250 0.6250
vt 0.1250 0.6250
vt 0.1250 0.6250
vt 0.1250 0.3750
vt 0.1250 0.6250
vt 0.1250 0.3750
vt 0.1250 0.6250
vt 0.1250 0.6250
vt 0.1250 0.3750
vt 0.1250 0.3750
vt 0.1250 0.3750
vt 0.1250 0.3750
vt 0.1250 0.6250
vt 0.1250 0.6250
vt 0.1250 0.6250
vt 0.1250 0.6250
vt 0.1250 0.6250
vt 0.1250 0.6250
vt 0.1250 0.3750
vn -0.5024 0.0000 0.8646
vn 0.4991 0.0000 -0.8666
vn 1.0000 0.0000 0.0020
vn 0.0000 1.0000 0.0000
vn 0.5002 0.0000 0.8659
vn -1.0000 -0.0000 -0.0032
vn -1.0000 0.0000 0.0000
vn 0.5000 -0.0000 -0.8660
vn -0.4889 0.0000 0.8723
vn -0.5017 0.0000 -0.8650
vn -0.4922 -0.0028 -0.8705
vn 0.4993 0.0014 -0.8664
vn 0.0000 -1.0000 0.0000
vn 0.0000 0.0000 1.0000
vn 1.0000 0.0000 0.0000
vn 0.4993 0.0000 -0.8664
vn 0.4991 0.0000 0.8666
vn -0.4913 -0.0008 -0.8710
vn 0.5003 0.0000 -0.8659
usemtl Material
s off
f 16/1/1 24/2/1 14/3/1
f 5/4/2 27/5/2 8/6/2
f 5/4/3 3/7/3 1/8/3
f 4/9/4 29/10/4 3/7/4
f 24/2/5 2/11/5 29/12/5
f 15/13/6 14/3/6 23/14/6
f 17/15/7 10/16/7 11/17/7
f 19/18/8 18/19/8 21/20/8
f 13/21/9 17/15/9 11/17/9
f 12/22/10 18/19/10 10/16/10
f 19/23/11 23/14/11 22/24/11
f 19/23/12 9/25/12 6/26/12
f 26/27/13 13/28/13 20/29/13
f 27/5/14 6/30/14 4/9/14
f 9/25/4 23/14/4 25/31/4
f 28/32/15 6/30/15 27/5/15
f 4/33/15 6/26/15 9/25/15
f 7/34/16 19/23/16 6/26/16
f 26/35/17 3/7/17 29/10/17
f 17/15/4 16/36/4 15/37/4
f 16/1/1 13/28/1 2/11/1
f 2/11/1 24/2/1 16/1/1
f 5/4/2 28/32/2 27/5/2
f 5/4/3 8/6/3 3/7/3
f 3/7/4 8/6/4 4/9/4
f 27/5/4 4/9/4 8/6/4
f 26/27/5 29/12/5 2/11/5
f 25/31/5 24/2/5 29/12/5
f 15/13/6 16/1/6 14/3/6
f 17/15/7 12/22/7 10/16/7
f 19/18/8 20/38/8 18/19/8
f 13/21/9 16/36/9 17/15/9
f 12/22/10 21/20/10 18/19/10
f 19/23/18 15/13/18 23/14/18
f 19/23/19 22/24/19 9/25/19
f 28/39/13 5/40/13 1/41/13
f 26/27/13 2/11/13 13/28/13
f 28/39/13 1/41/13 26/27/13
f 20/29/13 7/34/13 28/39/13
f 10/42/13 18/43/13 20/29/13
f 13/28/13 11/44/13 10/42/13
f 28/39/13 26/27/13 20/29/13
f 10/42/13 20/29/13 13/28/13
f 24/2/4 25/31/4 14/3/4
f 9/25/4 22/24/4 23/14/4
f 23/14/4 14/3/4 25/31/4
f 28/32/15 7/45/15 6/30/15
f 9/25/15 25/31/15 4/33/15
f 29/12/15 4/33/15 25/31/15
f 7/34/16 20/29/16 19/23/16
f 26/35/17 1/8/17 3/7/17
f 19/18/4 21/20/4 15/37/4
f 12/22/4 17/15/4 15/37/4
f 15/37/4 21/20/4 12/22/4
