# Blender v2.78 (sub 0) OBJ File: 'tile_ocean8.blend'
# www.blender.org
mtllib tile_ocean8.mtl
o tile_ocean8_Cylinder
v 0.000000 -1.000000 -1.000000
v 0.000000 -0.500000 -1.000000
v 0.866025 -1.000000 -0.500000
v 0.866025 -0.500000 -0.500000
v 0.866025 -1.000000 0.500000
v 0.866025 -0.500000 0.500000
v -0.000000 -1.000000 1.000000
v -0.000000 -0.500000 1.000000
v -0.866025 -1.000000 0.500000
v -0.866025 -0.500000 0.500000
v -0.866025 -1.000000 -0.500000
v -0.866025 -0.500000 -0.500000
v 0.692820 -0.500000 -0.600000
v 0.692820 -0.500000 0.400000
v 0.692820 -0.500000 -0.400000
v -0.000000 -0.500000 0.800000
v 0.000000 -0.500000 -0.800000
v -0.692820 -0.500000 0.400000
v -0.692820 -0.500000 -0.400000
vt 0.8750 0.3750
vt 0.8750 0.3750
vt 0.8750 0.3750
vt 0.1250 0.3750
vt 0.1250 0.3750
vt 0.1250 0.3750
vt 0.1250 0.3750
vt 0.1250 0.3750
vt 0.1250 0.3750
vt 0.1250 0.3750
vt 0.1250 0.3750
vt 0.1250 0.3750
vt 0.1250 0.3750
vt 0.1250 0.3750
vt 0.1250 0.3750
vt 0.1250 0.3750
vt 0.1250 0.3750
vt 0.1250 0.3750
vt 0.1250 0.3750
vt 0.8750 0.3750
vt 0.8750 0.3750
vt 0.8750 0.3750
vt 0.8750 0.3750
vt 0.8750 0.3750
vt 0.8750 0.3750
vt 0.8750 0.3750
vt 0.8750 0.3750
vt 0.8750 0.3750
vt 0.1250 0.3750
vt 0.1250 0.3750
vt 0.1250 0.3750
vt 0.8750 0.3750
vn 0.0000 1.0000 0.0000
vn 0.5000 0.0000 -0.8660
vn 0.0000 -1.0000 0.0000
vn -0.5000 0.0000 -0.8660
vn -1.0000 0.0000 0.0000
vn -0.5000 0.0000 0.8660
vn 0.5000 0.0000 0.8660
vn 1.0000 0.0000 0.0000
usemtl Material
s off
f 12/1/1 10/2/1 19/3/1
f 3/4/2 1/5/2 13/6/2
f 3/4/3 9/7/3 11/8/3
f 1/5/4 12/9/4 2/10/4
f 11/8/5 10/11/5 12/9/5
f 10/11/6 7/12/6 8/13/6
f 7/12/7 6/14/7 8/13/7
f 5/15/8 4/16/8 6/14/8
f 18/17/1 14/18/1 17/19/1
f 15/20/1 13/21/1 17/22/1
f 19/3/1 17/22/1 12/1/1
f 8/23/1 6/24/1 14/25/1
f 8/23/1 14/25/1 16/26/1
f 17/22/1 2/27/1 12/1/1
f 8/23/1 16/26/1 18/28/1
f 18/28/1 19/3/1 10/2/1
f 10/2/1 8/23/1 18/28/1
f 2/10/2 13/6/2 1/5/2
f 4/16/2 3/4/2 13/6/2
f 11/8/3 1/5/3 3/4/3
f 3/4/3 5/15/3 7/12/3
f 7/12/3 9/7/3 3/4/3
f 1/5/4 11/8/4 12/9/4
f 11/8/5 9/7/5 10/11/5
f 10/11/6 9/7/6 7/12/6
f 7/12/7 5/15/7 6/14/7
f 5/15/8 3/4/8 4/16/8
f 17/19/1 19/29/1 18/17/1
f 18/17/1 16/30/1 14/18/1
f 14/18/1 15/31/1 17/19/1
f 15/20/1 14/25/1 6/24/1
f 6/24/1 4/32/1 15/20/1
f 13/21/1 2/27/1 17/22/1
f 15/20/1 4/32/1 13/21/1
