# Blender v2.78 (sub 0) OBJ File: 'tile_grass_River5.blend'
# www.blender.org
mtllib tile_grass_River5.mtl
o tile_grass_River5_Cylinder
v 0.000000 -1.000000 -1.000000
v 0.866025 -1.000000 0.500000
v -0.000000 -1.000000 1.000000
v -0.866025 -1.000000 0.500000
v -0.866025 0.000000 0.500000
v -0.866025 -1.000000 -0.500000
v 0.866025 -0.500000 0.500000
v 0.866025 -0.500000 -0.500000
v 0.866025 -1.000000 -0.500000
v -0.144338 -1.000000 0.916667
v -0.144338 0.000000 0.916667
v 0.692820 -0.500000 0.400196
v 0.692820 -0.500000 -0.400196
v 0.692820 0.000000 0.400000
v 0.692820 0.000000 -0.400000
v -0.144338 -0.500000 0.916667
v 0.000000 -0.500000 -1.000000
v -0.000000 -0.500000 1.000000
v -0.866025 -0.500000 -0.500000
v -0.866025 -1.000000 -0.333333
v -0.866025 0.000000 -0.333333
v -0.866025 -0.500000 -0.333333
v 0.023094 -0.500000 -0.813372
v 0.023094 0.000000 -0.813333
vt 0.1250 0.3750
vt 0.1250 0.3750
vt 0.1250 0.3750
vt 0.1250 0.3750
vt 0.1250 0.3750
vt 0.1250 0.3750
vt 0.1250 0.3750
vt 0.1250 0.3750
vt 0.1250 0.3750
vt 0.1250 0.3750
vt 0.1250 0.8750
vt 0.1250 0.8750
vt 0.1250 0.8750
vt 0.1250 0.8750
vt 0.1250 0.8750
vt 0.1250 0.3750
vt 0.1250 0.3750
vt 0.1250 0.3750
vt 0.1250 0.8750
vt 0.1250 0.8750
vt 0.1250 0.8750
vt 0.1250 0.8750
vt 0.1250 0.8750
vt 0.1250 0.3750
vt 0.1250 0.8764
vt 0.1250 0.8750
vt 0.1250 0.8764
vt 0.1250 0.8750
vt 0.1250 0.3750
vt 0.1250 0.3750
vt 0.1250 0.3750
vt 0.1250 0.8750
vt 0.1250 0.8750
vt 0.1250 0.8764
vt 0.1250 0.8764
vt 0.1250 0.8764
vt 0.1250 0.8764
vn -1.0000 0.0000 0.0000
vn 1.0000 0.0000 0.0000
vn 0.0000 1.0000 0.0000
vn 0.5000 0.0000 0.8660
vn -0.5000 0.0000 0.8660
vn 0.5252 0.0003 -0.8510
vn 0.5000 0.0000 -0.8660
vn 0.5251 0.0000 0.8511
vn -0.5000 0.0000 -0.8660
vn 0.0000 -1.0000 0.0000
vn -0.4751 0.0000 -0.8800
vn 0.5251 0.0001 -0.8511
vn 0.5252 0.0003 0.8510
vn -0.4751 0.0001 -0.8799
usemtl Material
s off
f 22/1/1 6/2/1 20/3/1
f 2/4/2 8/5/2 7/6/2
f 7/6/3 8/5/3 13/7/3
f 2/4/4 18/8/4 3/9/4
f 18/8/5 10/10/5 3/9/5
f 12/11/2 15/12/2 14/13/2
f 13/14/6 24/15/6 15/12/6
f 17/16/7 9/17/7 1/18/7
f 5/19/1 22/20/1 4/21/1
f 12/11/8 11/22/8 16/23/8
f 5/19/5 4/21/5 16/23/5
f 19/24/9 1/18/9 6/2/9
f 9/25/10 10/26/10 20/27/10
f 21/28/3 11/22/3 14/13/3
f 24/15/11 22/20/11 21/28/11
f 22/1/1 19/24/1 6/2/1
f 2/4/2 9/17/2 8/5/2
f 12/29/3 16/30/3 18/8/3
f 17/16/3 19/24/3 23/31/3
f 19/24/3 22/1/3 23/31/3
f 12/29/3 18/8/3 7/6/3
f 17/16/3 23/31/3 8/5/3
f 13/7/3 12/29/3 7/6/3
f 8/5/3 23/31/3 13/7/3
f 2/4/4 7/6/4 18/8/4
f 18/8/5 16/30/5 10/10/5
f 12/11/2 13/14/2 15/12/2
f 13/14/12 23/32/12 24/15/12
f 17/16/7 8/5/7 9/17/7
f 20/33/1 4/21/1 22/20/1
f 5/19/1 21/28/1 22/20/1
f 12/11/13 14/13/13 11/22/13
f 10/26/5 16/23/5 4/21/5
f 11/22/5 5/19/5 16/23/5
f 19/24/9 17/16/9 1/18/9
f 6/34/10 1/35/10 20/27/10
f 9/25/10 2/36/10 10/26/10
f 10/26/10 4/21/10 20/27/10
f 2/36/10 3/37/10 10/26/10
f 20/27/10 1/35/10 9/25/10
f 14/13/3 15/12/3 24/15/3
f 24/15/3 21/28/3 14/13/3
f 5/19/3 11/22/3 21/28/3
f 24/15/14 23/32/14 22/20/14
