# Blender v2.78 (sub 0) OBJ File: 'tile_ocean5.blend'
# www.blender.org
mtllib tile_ocean5.mtl
o tile_ocean5_Cylinder
v 0.000000 -1.000000 -1.000000
v 0.000000 -0.500000 -1.000000
v 0.866025 -1.000000 -0.500000
v 0.866025 -0.500000 -0.500000
v 0.866025 -1.000000 0.500000
v 0.866025 -0.500000 0.500000
v -0.000000 -1.000000 1.000000
v -0.000000 -0.500000 1.000000
v -0.866025 -1.000000 0.500000
v -0.866025 -0.500000 0.500000
v -0.866025 -1.000000 -0.500000
v -0.866025 -0.500000 -0.500000
v 0.692820 -0.500000 -0.600000
v -0.173205 -0.500000 0.900000
v 0.692820 -0.500000 0.400000
vt 0.1528 0.3698
vt 0.1528 0.3698
vt 0.1528 0.3698
vt 0.1528 0.3698
vt 0.1528 0.3698
vt 0.1528 0.3698
vt 0.1528 0.3698
vt 0.1528 0.3698
vt 0.1528 0.3698
vt 0.1528 0.3698
vt 0.1528 0.3698
vt 0.1528 0.3698
vt 0.1528 0.3698
vt 0.8813 0.3465
vt 0.8813 0.3465
vt 0.8813 0.3465
vt 0.1528 0.3698
vt 0.1528 0.3698
vt 0.8813 0.3465
vt 0.8813 0.3465
vt 0.8813 0.3465
vn 1.0000 0.0000 0.0000
vn 0.5000 0.0000 -0.8660
vn 0.0000 -1.0000 0.0000
vn 0.5000 0.0000 0.8660
vn -0.5000 0.0000 -0.8660
vn -1.0000 0.0000 0.0000
vn 0.0000 1.0000 0.0000
vn -0.5000 0.0000 0.8660
usemtl Material
s off
f 5/1/1 4/2/1 6/3/1
f 3/4/2 1/5/2 13/6/2
f 3/4/3 9/7/3 11/8/3
f 7/9/4 6/3/4 8/10/4
f 1/5/5 12/11/5 2/12/5
f 11/8/6 10/13/6 12/11/6
f 15/14/7 4/15/7 13/16/7
f 9/7/8 7/9/8 14/17/8
f 15/18/7 12/11/7 10/13/7
f 5/1/1 3/4/1 4/2/1
f 2/12/2 13/6/2 1/5/2
f 4/2/2 3/4/2 13/6/2
f 11/8/3 1/5/3 3/4/3
f 3/4/3 5/1/3 7/9/3
f 7/9/3 9/7/3 3/4/3
f 7/9/4 5/1/4 6/3/4
f 1/5/5 11/8/5 12/11/5
f 11/8/6 9/7/6 10/13/6
f 15/14/7 14/19/7 8/20/7
f 6/21/7 4/15/7 15/14/7
f 15/14/7 8/20/7 6/21/7
f 8/10/8 14/17/8 7/9/8
f 10/13/8 9/7/8 14/17/8
f 10/13/7 14/17/7 15/18/7
f 15/18/7 13/6/7 2/12/7
f 2/12/7 12/11/7 15/18/7
