# Blender v2.78 (sub 0) OBJ File: 'tile_ocean6.blend'
# www.blender.org
mtllib tile_ocean6.mtl
o tile_ocean6_Cylinder
v 0.000000 -0.500000 -1.000000
v 0.866025 -1.000000 -0.500000
v 0.866025 -0.500000 -0.500000
v 0.866025 -1.000000 0.500000
v 0.866025 -0.500000 0.500000
v -0.000000 -1.000000 1.000000
v -0.000000 -0.500000 1.000000
v -0.866025 -1.000000 0.500000
v -0.866025 -0.500000 0.500000
v -0.866025 -1.000000 -0.500000
v -0.866025 -0.500000 -0.500000
v -0.173205 -0.500000 -0.900000
v -0.173205 -0.500000 0.900000
v 0.866025 -0.500000 0.300894
v 0.866025 -0.500000 -0.300894
vt 0.8750 0.3750
vt 0.8750 0.3750
vt 0.8750 0.3750
vt 0.8750 0.3750
vt 0.1250 0.3750
vt 0.1250 0.3750
vt 0.1250 0.3750
vt 0.1250 0.3750
vt 0.1250 0.3750
vt 0.1250 0.3750
vt 0.1250 0.3750
vt 0.1250 0.3750
vt 0.8750 0.3750
vt 0.8750 0.3750
vt 0.8750 0.3750
vt 0.1250 0.3750
vt 0.1250 0.3750
vt 0.1250 0.3750
vt 0.1250 0.3750
vt 0.1250 0.3750
vt 0.1250 0.3750
vt 0.8750 0.3750
vt 0.1250 0.3750
vn 0.0000 1.0000 0.0000
vn 0.0000 -1.0000 0.0000
vn -1.0000 0.0000 0.0000
vn -0.5000 0.0000 0.8660
vn 0.5000 0.0000 0.8660
vn 1.0000 -0.0000 0.0000
vn -0.2500 -0.8660 -0.4330
vn 0.5000 0.0000 -0.8660
vn -0.5000 0.0000 -0.8660
vn -0.0000 -0.6247 -0.7809
usemtl Material
s off
f 7/1/1 5/2/1 14/3/1
f 7/1/1 14/3/1 13/4/1
f 2/5/2 6/6/2 10/7/2
f 2/5/2 4/8/2 6/6/2
f 10/7/3 9/9/3 11/10/3
f 8/11/4 6/6/4 13/12/4
f 15/13/1 1/14/1 12/15/1
f 6/6/5 5/16/5 7/17/5
f 4/8/6 2/5/6 15/18/6
f 13/12/1 12/19/1 11/10/1
f 12/19/7 1/20/7 2/5/7
f 1/20/8 3/21/8 2/5/8
f 10/7/9 11/10/9 12/19/9
f 6/6/2 8/11/2 10/7/2
f 12/19/10 2/5/10 10/7/10
f 10/7/3 8/11/3 9/9/3
f 7/17/4 13/12/4 6/6/4
f 9/9/4 8/11/4 13/12/4
f 15/13/1 3/22/1 1/14/1
f 6/6/5 4/8/5 5/16/5
f 15/18/6 14/23/6 4/8/6
f 5/16/6 4/8/6 14/23/6
f 2/5/6 3/21/6 15/18/6
f 11/10/1 9/9/1 13/12/1
f 13/12/1 14/23/1 15/18/1
f 15/18/1 12/19/1 13/12/1
