# Blender v2.78 (sub 0) OBJ File: 'tile_ocean1.blend'
# www.blender.org
mtllib tile_ocean1.mtl
o tile_ocean1_Cylinder
v 0.000000 -1.000000 -1.000000
v 0.000000 -0.500000 -1.000000
v 0.866025 -1.000000 -0.500000
v 0.866025 -0.500000 -0.500000
v 0.866025 -1.000000 0.500000
v 0.866025 -0.500000 0.500000
v -0.000000 -1.000000 1.000000
v -0.000000 -0.500000 1.000000
v -0.866025 -1.000000 0.500000
v -0.866025 -0.500000 0.500000
v -0.866025 -1.000000 -0.500000
v -0.866025 -0.500000 -0.500000
v -0.173205 -0.500000 -0.900000
v -0.173205 -0.500000 0.900000
v 0.692820 -0.500000 0.400000
v 0.692820 -0.500000 -0.400000
vt 0.1404 0.3636
vt 0.1404 0.3636
vt 0.1404 0.3636
vt 0.1404 0.3636
vt 0.1404 0.3636
vt 0.1404 0.3636
vt 0.1404 0.3636
vt 0.1404 0.3636
vt 0.1404 0.3636
vt 0.1404 0.3636
vt 0.1404 0.3636
vt 0.1404 0.3636
vt 0.1404 0.3636
vt 0.8937 0.3822
vt 0.9062 0.3853
vt 0.9062 0.3853
vt 0.1404 0.3636
vt 0.1404 0.3636
vt 0.8937 0.3822
vt 0.8937 0.3822
vt 0.9031 0.3853
vt 0.9062 0.3853
vt 0.9031 0.3853
vt 0.1404 0.3636
vn 0.0000 -1.0000 0.0000
vn 1.0000 0.0000 0.0000
vn -0.5000 0.0000 -0.8660
vn -0.5000 0.0000 0.8660
vn -1.0000 0.0000 0.0000
vn 0.5000 0.0000 0.8660
vn 0.0000 1.0000 0.0000
vn 0.5000 0.0000 -0.8660
usemtl Material
s off
f 3/1/1 9/2/1 11/3/1
f 5/4/2 4/5/2 6/6/2
f 13/7/3 1/8/3 11/3/3
f 9/2/4 7/9/4 14/10/4
f 11/3/5 10/11/5 12/12/5
f 7/9/6 6/6/6 8/13/6
f 15/14/7 6/15/7 4/16/7
f 3/1/8 2/17/8 4/5/8
f 15/18/7 12/12/7 10/11/7
f 11/3/1 1/8/1 3/1/1
f 3/1/1 5/4/1 7/9/1
f 7/9/1 9/2/1 3/1/1
f 5/4/2 3/1/2 4/5/2
f 11/3/3 12/12/3 13/7/3
f 13/7/3 2/17/3 1/8/3
f 8/13/4 14/10/4 7/9/4
f 10/11/4 9/2/4 14/10/4
f 11/3/5 9/2/5 10/11/5
f 7/9/6 5/4/6 6/6/6
f 15/14/7 14/19/7 8/20/7
f 4/16/7 2/21/7 16/22/7
f 2/21/7 13/23/7 16/22/7
f 15/14/7 8/20/7 6/15/7
f 4/16/7 16/22/7 15/14/7
f 3/1/8 1/8/8 2/17/8
f 10/11/7 14/10/7 15/18/7
f 15/18/7 16/24/7 13/7/7
f 13/7/7 12/12/7 15/18/7
