# Blender v2.78 (sub 0) OBJ File: 'tile_sand_River10.blend'
# www.blender.org
mtllib tile_sand_River10.mtl
o tile_sand_River10_Cylinder
v 0.000000 -0.500000 -1.000000
v 0.144338 -0.500000 -0.916667
v 0.144338 0.000000 -0.916667
v 0.866025 -1.000000 0.500000
v 0.144338 -1.000000 -0.916667
v -0.866025 -0.500000 -0.500000
v 0.000000 -1.000000 -1.000000
v -0.000000 -1.000000 1.000000
v -0.866025 0.000000 -0.295729
v -0.866025 -1.000000 -0.295729
v 0.866025 -0.500000 0.500000
v -0.866025 -0.500000 -0.295729
v -0.144338 -1.000000 0.916667
v -0.866025 -1.000000 -0.500000
v -0.144338 0.000000 0.916667
v 0.705055 -0.500000 0.388425
v -0.144338 -0.500000 0.916667
v -0.000000 -0.500000 1.000000
v -0.866025 -1.000000 0.500000
v 0.866025 -1.000000 -0.500000
v -0.866025 -0.000000 0.500000
v 0.705055 -0.500000 -0.602135
v 0.705055 -1.000000 -0.602135
v 0.866025 -0.500000 -0.500000
v 0.705055 -0.000000 -0.598910
v 0.705055 0.000000 0.387543
vt 0.1250 0.3750
vt 0.1250 0.3750
vt 0.1250 0.3750
vt 0.3750 0.6250
vt 0.3750 0.6250
vt 0.3750 0.6250
vt 0.1250 0.3750
vt 0.3750 0.6250
vt 0.3750 0.6250
vt 0.3750 0.6250
vt 0.1250 0.3750
vt 0.1250 0.3750
vt 0.1250 0.3750
vt 0.1250 0.3750
vt 0.1250 0.3750
vt 0.1250 0.3750
vt 0.3750 0.6250
vt 0.3750 0.6250
vt 0.3750 0.6250
vt 0.1250 0.3750
vt 0.1250 0.3750
vt 0.1250 0.3750
vt 0.1250 0.3750
vt 0.1250 0.3750
vt 0.1250 0.3750
vt 0.3750 0.6250
vt 0.3750 0.6250
vt 0.3750 0.6250
vt 0.3750 0.6250
vt 0.3750 0.6250
vt 0.3750 0.6250
vt 0.1250 0.3750
vt 0.3750 0.6250
vt 0.1250 0.3750
vt 0.1250 0.3750
vt 0.3750 0.6250
vt 0.3750 0.6250
vt 0.3750 0.6250
vt 0.3750 0.6250
vt 0.3750 0.6250
vn 0.5000 0.0000 -0.8660
vn -0.5236 -0.0000 -0.8520
vn -0.5000 0.0000 -0.8660
vn 0.5287 0.0015 0.8488
vn 0.5000 0.0000 0.8660
vn 0.5358 -0.0000 -0.8444
vn 0.4930 0.0056 -0.8700
vn -0.5000 0.0000 0.8660
vn -0.0000 1.0000 0.0000
vn 1.0000 0.0000 0.0000
vn -1.0000 0.0000 -0.0000
vn 0.0000 -1.0000 0.0000
vn 0.5281 0.0000 0.8492
vn 0.4892 0.0000 -0.8722
usemtl Material
s off
f 1/1/1 5/2/1 7/3/1
f 9/4/2 2/5/2 12/6/2
f 14/7/3 1/1/3 7/3/3
f 15/8/4 16/9/4 26/10/4
f 4/11/5 18/12/5 8/13/5
f 20/14/6 22/15/6 24/16/6
f 22/17/7 3/18/7 25/19/7
f 18/12/8 13/20/8 8/13/8
f 6/21/9 2/22/9 1/1/9
f 20/14/10 11/23/10 4/11/10
f 14/7/11 12/24/11 6/21/11
f 16/25/9 24/16/9 22/15/9
f 3/18/9 9/4/9 26/10/9
f 21/26/11 12/6/11 19/27/11
f 10/28/12 23/29/12 13/30/12
f 25/19/10 16/9/10 22/17/10
f 13/30/8 17/31/8 19/27/8
f 1/1/1 2/22/1 5/2/1
f 9/4/2 3/18/2 2/5/2
f 14/7/3 6/21/3 1/1/3
f 15/8/13 17/31/13 16/9/13
f 4/11/5 11/23/5 18/12/5
f 20/14/6 23/32/6 22/15/6
f 22/17/14 23/29/14 5/33/14
f 2/5/14 3/18/14 22/17/14
f 22/17/14 5/33/14 2/5/14
f 18/12/8 17/34/8 13/20/8
f 6/21/9 12/24/9 2/22/9
f 20/14/10 24/16/10 11/23/10
f 14/7/11 10/35/11 12/24/11
f 16/25/9 17/34/9 18/12/9
f 11/23/9 24/16/9 16/25/9
f 16/25/9 18/12/9 11/23/9
f 15/8/9 26/10/9 9/4/9
f 25/19/9 3/18/9 26/10/9
f 9/4/9 21/26/9 15/8/9
f 10/28/11 19/27/11 12/6/11
f 21/26/11 9/4/11 12/6/11
f 4/36/12 8/37/12 13/30/12
f 13/30/12 19/27/12 10/28/12
f 10/28/12 14/38/12 5/33/12
f 5/33/12 23/29/12 10/28/12
f 14/38/12 7/39/12 5/33/12
f 4/36/12 13/30/12 23/29/12
f 23/29/12 20/40/12 4/36/12
f 25/19/10 26/10/10 16/9/10
f 21/26/8 19/27/8 17/31/8
f 17/31/8 15/8/8 21/26/8
