# Blender v2.78 (sub 0) OBJ File: 'tile_sand_oasis.blend'
# www.blender.org
mtllib tile_sand_oasis.mtl
o tile_sand_oasis_Cylinder
v -0.401628 -0.031202 0.133388
v -0.368704 0.979130 0.062295
v -0.390491 -0.031202 0.087624
v -0.357661 0.973014 0.016919
v -0.355865 -0.031202 0.144525
v -0.323505 0.973135 0.074102
v -0.344728 -0.031202 0.098762
v -0.312462 0.967019 0.028727
v -0.342417 0.961450 0.046631
v -0.138653 0.984004 -0.009404
v -0.184996 1.009672 0.181026
v 0.063634 0.963109 0.042642
v 0.017290 0.988777 0.233072
v 0.138808 0.844397 0.119000
v 0.111467 0.859540 0.231349
v 0.125224 0.709368 0.161389
v 0.110304 0.717631 0.222699
v -0.280282 1.030190 0.237897
v -0.469970 1.055348 0.188343
v -0.328563 1.063251 0.439493
v -0.518251 1.088408 0.389939
v -0.409824 0.971791 0.542480
v -0.521735 0.986634 0.513244
v -0.460263 0.840493 0.563241
v -0.521334 0.848593 0.547286
v -0.527838 1.055141 0.091461
v -0.481494 1.029474 -0.098968
v -0.728289 1.087661 0.038295
v -0.681945 1.061993 -0.152134
v -0.838318 0.985507 -0.016775
v -0.810976 0.970363 -0.129123
v -0.867843 0.847359 -0.032834
v -0.852922 0.839095 -0.094144
v -0.386208 1.008956 -0.155839
v -0.196520 0.983798 -0.106285
v -0.336093 0.987519 -0.358556
v -0.146405 0.962362 -0.309002
v -0.289686 0.858112 -0.440254
v -0.177775 0.843270 -0.411019
v -0.282356 0.716234 -0.434685
v -0.221285 0.708134 -0.418731
v -0.323405 0.856116 -0.079620
v -0.222046 0.856477 0.090075
v -0.246856 0.899730 -0.125436
v -0.145497 0.900091 0.044258
v -0.068761 0.867390 -0.231744
v 0.032598 0.867751 -0.062050
v 0.024429 0.737686 -0.239929
v 0.084228 0.737899 -0.139814
v 0.028935 0.598459 -0.211471
v 0.061568 0.598576 -0.156837
v -0.388946 0.892416 0.189688
v -0.171955 0.914745 0.152978
v -0.338855 0.950684 0.252591
v -0.063437 0.920941 0.332562
v -0.230336 0.956879 0.432176
v -0.060522 0.818069 0.454969
v -0.158988 0.839272 0.513738
v -0.096865 0.686324 0.494169
v -0.150599 0.697895 0.526240
v -0.447151 0.965047 0.224300
v -0.548510 0.964686 0.054606
v -0.623411 1.009011 0.329488
v -0.724770 1.008651 0.159794
v -0.751455 0.917849 0.358961
v -0.811254 0.917636 0.258846
v -0.799069 0.783899 0.356832
v -0.831703 0.783783 0.302199
v -0.490305 0.892055 0.019994
v -0.522051 0.950032 -0.054114
v -0.355152 0.914093 -0.153727
v -0.628735 0.955461 -0.234818
v -0.461836 0.919522 -0.334432
v -0.666504 0.837466 -0.335937
v -0.568038 0.816263 -0.394706
v -0.673270 0.696034 -0.348807
v -0.619536 0.684463 -0.380878
v -0.461015 0.462715 0.144164
v -0.449878 0.462715 0.098400
v -0.404115 0.462715 0.109538
v -0.415252 0.462715 0.155301
v 0.081615 -0.057604 0.505232
v 0.078143 0.624326 0.556628
v 0.085554 -0.057604 0.535948
v 0.082048 0.620198 0.587083
v 0.050899 -0.057604 0.509170
v 0.047616 0.620280 0.560021
v 0.054838 -0.057604 0.539886
v 0.051521 0.616152 0.590477
v 0.065694 0.612393 0.572433
v -0.046200 0.627616 0.654811
v -0.062590 0.644940 0.526996
v -0.182637 0.613513 0.670491
v -0.199026 0.630837 0.542677
v -0.246765 0.533387 0.641317
v -0.256434 0.543608 0.565910
v -0.248407 0.442248 0.612096
v -0.253684 0.447826 0.570946
v -0.017486 0.658789 0.469647
v 0.110630 0.675769 0.455404
v -0.035315 0.681104 0.334521
v 0.092800 0.698084 0.320278
v -0.009680 0.619373 0.252165
v 0.065905 0.629390 0.243762
v 0.016396 0.530752 0.227544
v 0.057643 0.536219 0.222958
v 0.168966 0.675630 0.501252
v 0.185355 0.658306 0.629067
v 0.304540 0.697579 0.486691
v 0.320929 0.680255 0.614506
v 0.385052 0.628630 0.494590
v 0.394721 0.618409 0.569998
v 0.406958 0.535386 0.497497
v 0.412235 0.529809 0.538647
v 0.140251 0.644457 0.686416
v 0.012136 0.627477 0.700660
v 0.157219 0.629988 0.822662
v 0.029103 0.613008 0.836905
v 0.147967 0.542644 0.883743
v 0.072382 0.532626 0.892146
v 0.142156 0.446882 0.882050
v 0.100908 0.441415 0.886635
v 0.083751 0.541297 0.654413
v -0.018429 0.541541 0.574106
v 0.047546 0.570735 0.700564
v -0.054634 0.570978 0.620257
v -0.036753 0.548907 0.807760
v -0.138933 0.549150 0.727453
v -0.092034 0.461362 0.834728
v -0.152317 0.461506 0.787349
v -0.101501 0.367390 0.818318
v -0.134398 0.367468 0.792463
v 0.060573 0.565798 0.473656
v -0.063991 0.580869 0.547285
v 0.015011 0.605126 0.446835
v -0.172895 0.585051 0.462593
v -0.093892 0.609308 0.362142
v -0.203507 0.515617 0.388135
v -0.156897 0.529928 0.328872
v -0.190426 0.426695 0.355513
v -0.164991 0.434505 0.323172
v 0.088155 0.614821 0.438703
v 0.190335 0.614577 0.519010
v 0.171591 0.644495 0.332626
v 0.273771 0.644251 0.412933
v 0.243256 0.582964 0.284383
v 0.303539 0.582820 0.331762
v 0.272987 0.492553 0.274479
v 0.305884 0.492475 0.300334
v 0.162753 0.565554 0.553963
v 0.199691 0.604686 0.591981
v 0.120689 0.580429 0.692432
v 0.307733 0.608351 0.677794
v 0.228731 0.584093 0.778244
v 0.354729 0.528709 0.730976
v 0.308119 0.514398 0.790239
v 0.361913 0.433249 0.737284
v 0.336477 0.425439 0.769625
v 0.115535 0.275769 0.484633
v 0.119474 0.275768 0.515349
v 0.088758 0.275768 0.519287
v 0.084819 0.275768 0.488571
v 0.000000 -1.000000 -1.000000
v 0.000000 0.000000 -1.000000
v 0.866025 -1.000000 -0.500000
v 0.866025 0.000000 -0.500000
v 0.866025 -1.000000 0.500000
v 0.866025 0.000000 0.500000
v -0.000000 -1.000000 1.000000
v -0.000000 0.000000 1.000000
v -0.866025 -1.000000 0.500000
v -0.866025 0.000000 0.500000
v -0.866025 -1.000000 -0.500000
v -0.866025 0.000000 -0.500000
v -0.434999 -0.245134 -0.424177
v 0.000595 -0.000001 -0.784825
v 0.668582 0.000001 -0.404869
v 0.668582 -0.000001 0.361392
v 0.368294 -0.000001 0.446968
v 0.055750 -0.000001 0.361172
v 0.012851 -0.000001 0.158937
v 0.012851 -0.000001 -0.110709
v -0.213897 -0.000001 -0.202634
v -0.563211 -0.000001 -0.171993
v -0.698035 -0.000001 -0.386484
v 0.014428 -0.245134 -0.636563
v 0.532842 -0.245133 -0.339886
v 0.587997 -0.245134 0.135654
v 0.363213 -0.245134 0.199713
v 0.129255 -0.245134 0.135489
v 0.097143 -0.245134 -0.015896
v 0.097143 -0.245134 -0.217743
v -0.072592 -0.245134 -0.286554
v -0.334076 -0.245134 -0.263617
vt 0.1250 0.6250
vt 0.1250 0.6250
vt 0.1250 0.6250
vt 0.1250 0.6250
vt 0.1250 0.6250
vt 0.1250 0.6250
vt 0.1250 0.6250
vt 0.1250 0.8750
vt 0.1250 0.8750
vt 0.1250 0.8750
vt 0.1250 0.8750
vt 0.1250 0.8750
vt 0.1250 0.8750
vt 0.1250 0.8750
vt 0.1250 0.8750
vt 0.1250 0.8750
vt 0.1250 0.8750
vt 0.1250 0.8750
vt 0.1250 0.8750
vt 0.1250 0.8750
vt 0.1250 0.8750
vt 0.1250 0.8750
vt 0.1250 0.8750
vt 0.1250 0.8750
vt 0.1250 0.8750
vt 0.1250 0.8750
vt 0.1250 0.8750
vt 0.1250 0.8750
vt 0.1250 0.8750
vt 0.1250 0.8750
vt 0.1250 0.8750
vt 0.1250 0.8750
vt 0.1250 0.8750
vt 0.1250 0.8750
vt 0.1250 0.8750
vt 0.1250 0.8750
vt 0.1250 0.8750
vt 0.1250 0.8750
vt 0.1250 0.8750
vt 0.1250 0.8750
vt 0.1250 0.8750
vt 0.1250 0.8750
vt 0.1250 0.8750
vt 0.1250 0.8750
vt 0.1250 0.8750
vt 0.1250 0.8750
vt 0.1250 0.8750
vt 0.1250 0.8750
vt 0.1250 0.8750
vt 0.1250 0.8750
vt 0.1250 0.8750
vt 0.1250 0.8750
vt 0.1250 0.8750
vt 0.1250 0.8750
vt 0.1250 0.8750
vt 0.1250 0.8750
vt 0.1250 0.8750
vt 0.1250 0.8750
vt 0.1250 0.8750
vt 0.1250 0.8750
vt 0.1250 0.8750
vt 0.1250 0.8750
vt 0.1250 0.8750
vt 0.1250 0.8750
vt 0.1250 0.8750
vt 0.1250 0.8750
vt 0.1250 0.8750
vt 0.1250 0.8750
vt 0.1250 0.6250
vt 0.1250 0.6250
vt 0.1250 0.6250
vt 0.1250 0.6250
vt 0.1250 0.6250
vt 0.1250 0.6250
vt 0.1250 0.6250
vt 0.1250 0.6250
vt 0.1250 0.6250
vt 0.1250 0.6250
vt 0.1250 0.6250
vt 0.1250 0.8750
vt 0.1250 0.8750
vt 0.1250 0.8750
vt 0.1250 0.8750
vt 0.1250 0.8750
vt 0.1250 0.8750
vt 0.1250 0.8750
vt 0.1250 0.8750
vt 0.1250 0.8750
vt 0.1250 0.8750
vt 0.1250 0.8750
vt 0.1250 0.8750
vt 0.1250 0.8750
vt 0.1250 0.8750
vt 0.1250 0.8750
vt 0.1250 0.8750
vt 0.1250 0.8750
vt 0.1250 0.8750
vt 0.1250 0.8750
vt 0.1250 0.8750
vt 0.1250 0.8750
vt 0.1250 0.8750
vt 0.1250 0.8750
vt 0.1250 0.8750
vt 0.1250 0.8750
vt 0.1250 0.8750
vt 0.1250 0.8750
vt 0.1250 0.8750
vt 0.1250 0.8750
vt 0.1250 0.8750
vt 0.1250 0.8750
vt 0.1250 0.8750
vt 0.1250 0.8750
vt 0.1250 0.8750
vt 0.1250 0.8750
vt 0.1250 0.8750
vt 0.1250 0.8750
vt 0.1250 0.8750
vt 0.1250 0.8750
vt 0.1250 0.8750
vt 0.1250 0.8750
vt 0.1250 0.8750
vt 0.1250 0.8750
vt 0.1250 0.8750
vt 0.1250 0.8750
vt 0.1250 0.8750
vt 0.1250 0.8750
vt 0.1250 0.8750
vt 0.1250 0.8750
vt 0.1250 0.8750
vt 0.1250 0.8750
vt 0.1250 0.8750
vt 0.1250 0.8750
vt 0.1250 0.8750
vt 0.1250 0.8750
vt 0.1250 0.8750
vt 0.1250 0.8750
vt 0.1250 0.8750
vt 0.1250 0.8750
vt 0.1250 0.8750
vt 0.1250 0.8750
vt 0.1250 0.6250
vt 0.1250 0.6250
vt 0.1250 0.6250
vt 0.1250 0.6250
vt 0.3750 0.6250
vt 0.3750 0.6250
vt 0.3750 0.6250
vt 0.3750 0.6250
vt 0.3750 0.6250
vt 0.3750 0.6250
vt 0.3750 0.6250
vt 0.3750 0.6250
vt 0.3750 0.6250
vt 0.3750 0.6250
vt 0.3750 0.6250
vt 0.3750 0.6250
vt 0.3750 0.6250
vt 0.3750 0.6250
vt 0.1250 0.3750
vt 0.1250 0.3750
vt 0.1250 0.3750
vt 0.3750 0.6250
vt 0.3750 0.6250
vt 0.3750 0.6250
vt 0.3750 0.6250
vt 0.3750 0.6250
vt 0.3750 0.6250
vt 0.3750 0.6250
vt 0.3750 0.6250
vt 0.3750 0.6250
vt 0.3750 0.6250
vt 0.3750 0.6250
vt 0.3750 0.6250
vt 0.3750 0.6250
vt 0.3750 0.6250
vt 0.3750 0.6250
vt 0.3750 0.6250
vt 0.3750 0.6250
vt 0.3750 0.6250
vt 0.1250 0.6250
vt 0.1250 0.8750
vt 0.1250 0.8750
vt 0.1250 0.8750
vt 0.1250 0.8750
vt 0.1250 0.8750
vt 0.1250 0.8750
vt 0.1250 0.8750
vt 0.1250 0.8750
vt 0.1250 0.6250
vt 0.1250 0.8750
vt 0.1250 0.8750
vt 0.1250 0.8750
vt 0.1250 0.8750
vt 0.1250 0.8750
vt 0.1250 0.8750
vt 0.1250 0.8750
vt 0.1250 0.8750
vt 0.1250 0.3750
vt 0.1250 0.3750
vt 0.1250 0.3750
vt 0.1250 0.3750
vt 0.1250 0.3750
vt 0.1250 0.3750
vt 0.1250 0.3750
vn -0.9628 0.1350 -0.2343
vn 0.2320 -0.1941 -0.9532
vn 0.9626 -0.1358 0.2343
vn -0.2320 0.1926 0.9534
vn -0.1542 0.9735 -0.1687
vn 0.1281 0.9865 -0.1018
vn 0.8034 0.5839 0.1168
vn 0.9707 -0.0225 0.2393
vn 0.2210 0.8928 -0.3926
vn 0.1617 0.9793 -0.1219
vn -0.0635 0.7706 0.6342
vn -0.2167 0.2332 0.9480
vn 0.4488 0.8936 -0.0112
vn 0.1821 0.9794 -0.0877
vn -0.5899 0.7687 -0.2472
vn -0.9379 0.2306 -0.2593
vn 0.0737 0.9743 0.2127
vn 0.1485 0.9866 -0.0676
vn 0.2769 0.5820 -0.7646
vn 0.2496 -0.0251 -0.9680
vn -0.3779 0.8984 0.2238
vn 0.1313 0.9881 -0.0805
vn 0.7197 0.5443 -0.4310
vn 0.8560 -0.0768 -0.5112
vn -0.1805 0.7891 -0.5872
vn 0.1407 0.9829 -0.1189
vn 0.4790 0.6776 0.5581
vn 0.5263 0.1058 0.8437
vn 0.6273 0.6819 -0.3761
vn 0.1789 0.9778 -0.1089
vn -0.5063 0.8083 0.3007
vn -0.8232 0.2848 0.4911
vn 0.4299 0.7912 0.4348
vn 0.1696 0.9830 -0.0706
vn -0.2655 0.6750 -0.6884
vn -0.4935 0.1022 -0.8637
vn -0.2362 -0.0496 0.9704
vn 0.9656 0.1110 0.2350
vn 0.2362 0.0496 -0.9704
vn -0.9656 -0.1110 -0.2350
vn 0.9833 0.1315 -0.1261
vn 0.1249 -0.1893 0.9739
vn -0.9832 -0.1323 0.1261
vn -0.1249 0.1878 -0.9742
vn 0.2095 0.9722 0.1049
vn -0.0853 0.9858 0.1446
vn -0.7989 0.5738 0.1802
vn -0.9920 -0.0220 0.1242
vn -0.0671 0.8879 0.4551
vn -0.1101 0.9782 0.1761
vn -0.1705 0.7623 -0.6244
vn -0.1373 0.2274 -0.9641
vn -0.4237 0.8888 0.1748
vn -0.1422 0.9783 0.1508
vn 0.6492 0.7604 0.0198
vn 0.9698 0.2249 -0.0939
vn -0.1486 0.9730 -0.1765
vn -0.1174 0.9859 0.1193
vn 0.0154 0.5719 0.8202
vn 0.1137 -0.0245 0.9932
vn 0.2785 0.8938 -0.3516
vn -0.0962 0.9874 0.1254
vn -0.5216 0.5343 0.6652
vn -0.6163 -0.0748 0.7839
vn 0.3850 0.7812 0.4914
vn -0.0910 0.9820 0.1655
vn -0.6548 0.6680 -0.3537
vn -0.7938 0.1031 -0.5994
vn -0.4564 0.6723 0.5828
vn -0.1313 0.9767 0.1700
vn 0.3712 0.8008 -0.4699
vn 0.5940 0.2780 -0.7549
vn -0.5663 0.7834 -0.2562
vn -0.1364 0.9821 0.1299
vn 0.5003 0.6653 0.5541
vn 0.7703 0.0996 0.6299
vn -0.1270 -0.0483 -0.9907
vn -0.9861 0.1081 0.1264
vn 0.1270 0.0483 0.9907
vn 0.9861 -0.1081 -0.1264
vn 0.5000 0.0000 -0.8660
vn 1.0000 0.0000 0.0000
vn 0.5000 0.0000 0.8660
vn -0.5000 0.0000 0.8660
vn 0.0000 1.0000 -0.0000
vn -1.0000 0.0000 0.0000
vn -0.5000 0.0000 -0.8660
vn 0.0000 -1.0000 0.0000
vn -0.9500 0.3123 0.0000
vn 0.6016 0.7037 -0.3781
vn 0.9457 0.3252 0.0000
vn -0.1962 0.6984 -0.6883
vn 0.3710 0.4958 0.7852
vn 0.3314 0.4709 -0.8175
vn 0.1903 0.6952 -0.6932
vn -0.4433 0.4509 0.7747
vn -0.0839 0.2791 -0.9566
vn 0.8804 0.4359 -0.1868
vn -0.9587 0.1331 -0.2513
vn 0.2238 -0.1937 -0.9552
vn 0.9586 -0.1339 0.2513
vn -0.2241 0.1923 0.9554
vn 0.9856 0.1297 -0.1088
vn 0.1332 -0.1889 0.9729
vn -0.9855 -0.1305 0.1087
vn -0.1330 0.1875 -0.9732
vn -0.8590 0.5021 0.0996
vn 0.4602 0.3697 0.8072
vn -0.4426 0.4457 0.7781
usemtl Material
s off
f 2/1/1 79/2/1 78/3/1
f 4/4/2 80/5/2 79/2/2
f 80/5/3 6/6/3 81/7/3
f 81/7/4 2/1/4 78/3/4
f 9/8/5 11/9/5 10/10/5
f 13/11/6 10/10/6 11/9/6
f 15/12/7 12/13/7 13/11/7
f 17/14/8 14/15/8 15/12/8
f 9/8/9 19/16/9 18/17/9
f 21/18/10 18/17/10 19/16/10
f 21/18/11 22/19/11 20/20/11
f 25/21/12 22/19/12 23/22/12
f 9/8/13 27/23/13 26/24/13
f 29/25/14 26/24/14 27/23/14
f 29/25/15 30/26/15 28/27/15
f 33/28/16 30/26/16 31/29/16
f 9/8/17 35/30/17 34/31/17
f 37/32/18 34/31/18 35/30/18
f 37/32/19 38/33/19 36/34/19
f 41/35/20 38/33/20 39/36/20
f 43/37/21 44/38/21 42/39/21
f 45/40/22 46/41/22 44/38/22
f 47/42/23 48/43/23 46/41/23
f 51/44/24 48/43/24 49/45/24
f 54/46/25 43/37/25 52/47/25
f 54/46/26 55/48/26 53/49/26
f 58/50/27 55/48/27 56/51/27
f 60/52/28 57/53/28 58/50/28
f 62/54/29 52/47/29 69/55/29
f 64/56/30 61/57/30 62/54/30
f 66/58/31 63/59/31 64/56/31
f 66/58/32 67/60/32 65/61/32
f 42/39/33 70/62/33 69/55/33
f 71/63/34 72/64/34 70/62/34
f 75/65/35 72/64/35 73/66/35
f 75/65/36 76/67/36 74/68/36
f 81/7/37 1/69/37 5/70/37
f 80/5/38 5/70/38 7/71/38
f 3/72/39 80/5/39 7/71/39
f 1/69/40 79/2/40 3/72/40
f 83/73/41 160/74/41 159/75/41
f 85/76/42 161/77/42 160/74/42
f 161/77/43 87/78/43 162/79/43
f 162/79/44 83/73/44 159/75/44
f 90/80/45 92/81/45 91/82/45
f 94/83/46 91/82/46 92/81/46
f 96/84/47 93/85/47 94/83/47
f 98/86/48 95/87/48 96/84/48
f 90/80/49 100/88/49 99/89/49
f 100/88/50 101/90/50 99/89/50
f 104/91/51 101/90/51 102/92/51
f 106/93/52 103/94/52 104/91/52
f 90/80/53 108/95/53 107/96/53
f 110/97/54 107/96/54 108/95/54
f 110/97/55 111/98/55 109/99/55
f 112/100/56 113/101/56 111/98/56
f 90/80/57 116/102/57 115/103/57
f 116/102/58 117/104/58 115/103/58
f 118/105/59 119/106/59 117/104/59
f 120/107/60 121/108/60 119/106/60
f 124/109/61 125/110/61 123/111/61
f 128/112/62 125/110/62 126/113/62
f 130/114/63 127/115/63 128/112/63
f 132/116/64 129/117/64 130/114/64
f 133/118/65 134/119/65 124/109/65
f 135/120/66 136/121/66 134/119/66
f 139/122/67 136/121/67 137/123/67
f 141/124/68 138/125/68 139/122/68
f 143/126/69 133/118/69 150/127/69
f 145/128/70 142/129/70 143/126/70
f 145/128/71 146/130/71 144/131/71
f 147/132/72 148/133/72 146/130/72
f 152/134/73 150/127/73 123/111/73
f 154/135/74 151/136/74 152/134/74
f 154/135/75 155/137/75 153/138/75
f 156/139/76 157/140/76 155/137/76
f 162/79/77 82/141/77 86/142/77
f 161/77/78 86/142/78 88/143/78
f 84/144/79 161/77/79 88/143/79
f 82/141/80 160/74/80 84/144/80
f 164/145/81 165/146/81 163/147/81
f 166/148/82 167/149/82 165/146/82
f 168/150/83 169/151/83 167/149/83
f 170/152/84 171/153/84 169/151/84
f 180/154/85 181/155/85 172/156/85
f 172/156/86 173/157/86 171/153/86
f 174/158/87 163/147/87 173/157/87
f 165/146/88 171/153/88 173/157/88
f 186/159/85 192/160/85 187/161/85
f 177/162/85 166/148/85 164/145/85
f 177/162/89 188/163/89 178/164/89
f 184/165/90 175/166/90 185/167/90
f 182/168/91 191/169/91 192/170/91
f 178/164/92 189/171/92 179/172/92
f 176/173/93 175/166/93 186/174/93
f 182/168/94 193/175/94 183/176/94
f 180/154/95 189/171/95 190/177/95
f 177/162/96 186/174/96 187/178/96
f 183/176/97 194/179/97 184/165/97
f 181/155/98 190/177/98 191/169/98
f 2/1/99 4/4/99 79/2/99
f 4/4/100 8/180/100 80/5/100
f 80/5/101 8/180/101 6/6/101
f 81/7/102 6/6/102 2/1/102
f 13/11/6 12/13/6 10/10/6
f 15/12/7 14/15/7 12/13/7
f 17/14/8 16/181/8 14/15/8
f 21/18/10 20/20/10 18/17/10
f 21/18/11 23/22/11 22/19/11
f 25/21/12 24/182/12 22/19/12
f 29/25/14 28/27/14 26/24/14
f 29/25/15 31/29/15 30/26/15
f 33/28/16 32/183/16 30/26/16
f 37/32/18 36/34/18 34/31/18
f 37/32/19 39/36/19 38/33/19
f 41/35/20 40/184/20 38/33/20
f 43/37/21 45/40/21 44/38/21
f 45/40/22 47/42/22 46/41/22
f 47/42/23 49/45/23 48/43/23
f 51/44/24 50/185/24 48/43/24
f 54/46/25 53/49/25 43/37/25
f 54/46/26 56/51/26 55/48/26
f 58/50/27 57/53/27 55/48/27
f 60/52/28 59/186/28 57/53/28
f 62/54/29 61/57/29 52/47/29
f 64/56/30 63/59/30 61/57/30
f 66/58/31 65/61/31 63/59/31
f 66/58/32 68/187/32 67/60/32
f 42/39/33 71/63/33 70/62/33
f 71/63/34 73/66/34 72/64/34
f 75/65/35 74/68/35 72/64/35
f 75/65/36 77/188/36 76/67/36
f 81/7/37 78/3/37 1/69/37
f 80/5/38 81/7/38 5/70/38
f 3/72/39 79/2/39 80/5/39
f 1/69/40 78/3/40 79/2/40
f 83/73/103 85/76/103 160/74/103
f 85/76/104 89/189/104 161/77/104
f 161/77/105 89/189/105 87/78/105
f 162/79/106 87/78/106 83/73/106
f 94/83/46 93/85/46 91/82/46
f 96/84/47 95/87/47 93/85/47
f 98/86/48 97/190/48 95/87/48
f 100/88/50 102/92/50 101/90/50
f 104/91/51 103/94/51 101/90/51
f 106/93/52 105/191/52 103/94/52
f 110/97/54 109/99/54 107/96/54
f 110/97/55 112/100/55 111/98/55
f 112/100/56 114/192/56 113/101/56
f 116/102/58 118/105/58 117/104/58
f 118/105/59 120/107/59 119/106/59
f 120/107/60 122/193/60 121/108/60
f 124/109/61 126/113/61 125/110/61
f 128/112/62 127/115/62 125/110/62
f 130/114/63 129/117/63 127/115/63
f 132/116/64 131/194/64 129/117/64
f 133/118/65 135/120/65 134/119/65
f 135/120/66 137/123/66 136/121/66
f 139/122/67 138/125/67 136/121/67
f 141/124/68 140/195/68 138/125/68
f 143/126/69 142/129/69 133/118/69
f 145/128/70 144/131/70 142/129/70
f 145/128/71 147/132/71 146/130/71
f 147/132/72 149/196/72 148/133/72
f 152/134/73 151/136/73 150/127/73
f 154/135/74 153/138/74 151/136/74
f 154/135/75 156/139/75 155/137/75
f 156/139/76 158/197/76 157/140/76
f 162/79/77 159/75/77 82/141/77
f 161/77/78 162/79/78 86/142/78
f 84/144/79 160/74/79 161/77/79
f 82/141/80 159/75/80 160/74/80
f 164/145/81 166/148/81 165/146/81
f 166/148/82 168/150/82 167/149/82
f 168/150/83 170/152/83 169/151/83
f 170/152/84 172/156/84 171/153/84
f 168/150/85 166/148/85 178/164/85
f 166/148/85 177/162/85 178/164/85
f 172/156/85 170/152/85 180/154/85
f 185/167/85 174/158/85 172/156/85
f 182/168/85 183/176/85 181/155/85
f 184/165/85 185/167/85 172/156/85
f 168/150/85 178/164/85 179/172/85
f 170/152/85 168/150/85 179/172/85
f 183/176/85 184/165/85 181/155/85
f 181/155/85 184/165/85 172/156/85
f 170/152/85 179/172/85 180/154/85
f 172/156/86 174/158/86 173/157/86
f 174/158/87 164/145/87 163/147/87
f 173/157/88 163/147/88 165/146/88
f 165/146/88 167/149/88 169/151/88
f 169/151/88 171/153/88 165/146/88
f 188/198/85 187/161/85 189/199/85
f 186/159/85 175/200/85 193/201/85
f 175/200/85 194/202/85 193/201/85
f 189/199/85 187/161/85 191/203/85
f 191/203/85 190/204/85 189/199/85
f 186/159/85 193/201/85 192/160/85
f 192/160/85 191/203/85 187/161/85
f 164/145/85 174/158/85 176/173/85
f 176/173/85 177/162/85 164/145/85
f 174/158/85 185/167/85 176/173/85
f 177/162/107 187/178/107 188/163/107
f 184/165/90 194/179/90 175/166/90
f 182/168/91 181/155/91 191/169/91
f 178/164/92 188/163/92 189/171/92
f 176/173/108 185/167/108 175/166/108
f 182/168/94 192/170/94 193/175/94
f 180/154/95 179/172/95 189/171/95
f 177/162/109 176/173/109 186/174/109
f 183/176/97 193/175/97 194/179/97
f 181/155/98 180/154/98 190/177/98
