# Blender v2.78 (sub 0) OBJ File: 'tile_dirt_River1.blend'
# www.blender.org
mtllib tile_dirt_River1.mtl
o tile_dirt_River1.001_Cylinder
v 0.000000 -1.000000 -1.000000
v 0.000000 0.000000 -1.000000
v 0.866025 -1.000000 0.500000
v -0.000000 -1.000000 1.000000
v -0.000000 0.000000 1.000000
v -0.866025 -1.000000 0.500000
v -0.866025 0.000000 0.500000
v -0.866025 -1.000000 -0.500000
v -0.866025 0.000000 -0.500000
v 0.866025 -0.500000 0.500000
v 0.692820 -0.500000 0.600294
v 0.866025 -0.500000 -0.500000
v 0.692820 -0.500000 -0.600294
v 0.866025 -1.000000 -0.500000
v 0.692821 0.000000 0.600000
v 0.692821 -1.000000 0.600000
v 0.692820 0.000000 -0.600000
v 0.692820 -1.000000 -0.600000
vt 0.1400 0.6250
vt 0.1400 0.6250
vt 0.1400 0.6250
vt 0.1400 0.6250
vt 0.1400 0.6250
vt 0.1400 0.6250
vt 0.1400 0.6250
vt 0.1400 0.6250
vt 0.1400 0.6250
vt 0.1464 0.6260
vt 0.1464 0.6260
vt 0.1464 0.6260
vt 0.1400 0.6250
vt 0.1400 0.6250
vt 0.1250 0.3750
vt 0.1250 0.3750
vt 0.1250 0.3750
vt 0.1250 0.3750
vt 0.1250 0.3750
vt 0.1400 0.6250
vt 0.1400 0.6250
vt 0.1400 0.6250
vt 0.1250 0.3750
vt 0.1250 0.3750
vt 0.1250 0.3750
vn 0.5000 0.0000 -0.8660
vn -0.5000 0.0000 0.8660
vn -1.0000 0.0000 0.0000
vn -0.5000 0.0000 -0.8660
vn 0.0000 -1.0000 0.0000
vn 0.0000 1.0000 0.0000
vn 1.0000 0.0000 0.0000
vn 0.5000 0.0000 0.8660
vn 0.5011 -0.0005 0.8654
vn 0.5011 -0.0005 -0.8654
usemtl Material
s off
f 2/1/1 18/2/1 1/3/1
f 5/4/2 6/5/2 4/6/2
f 7/7/3 8/8/3 6/5/3
f 9/9/4 1/3/4 8/8/4
f 18/10/5 14/11/5 3/12/5 16/13/5 4/6/5 6/5/5 8/8/5 1/3/5
f 9/9/6 7/7/6 17/14/6
f 12/15/7 3/16/7 14/17/7
f 12/15/6 11/18/6 10/19/6
f 15/20/8 4/6/8 16/13/8
f 13/21/7 15/20/7 11/22/7
f 18/23/1 12/15/1 14/17/1
f 16/24/9 10/19/9 11/18/9
f 2/1/1 17/14/1 18/2/1
f 5/4/2 7/7/2 6/5/2
f 7/7/3 9/9/3 8/8/3
f 9/9/4 2/1/4 1/3/4
f 15/20/6 17/14/6 7/7/6
f 2/1/6 9/9/6 17/14/6
f 7/7/6 5/4/6 15/20/6
f 12/15/7 10/19/7 3/16/7
f 12/15/6 13/25/6 11/18/6
f 15/20/8 5/4/8 4/6/8
f 13/21/7 17/14/7 15/20/7
f 18/23/10 13/25/10 12/15/10
f 16/24/8 3/16/8 10/19/8
